<svg xmlns="http://www.w3.org/2000/svg" width="50" height="50" viewBox="0 0 50 50">
  <g id="Group_3790" data-name="Group 3790" transform="translate(-80 -8447)">
    <path id="Path_2127" data-name="Path 2127" d="M0,0H50V50H0Z" transform="translate(80 8447)" fill="rgba(255,218,167,0)"/>
    <g id="Group_3786" data-name="Group 3786" transform="translate(-1514.942 7931.335)">
      <g id="Group_3775" data-name="Group 3775">
        <g id="Group_3774" data-name="Group 3774">
          <path id="Path_2104" data-name="Path 2104" d="M1620.848,525.88a1.215,1.215,0,1,1-1.215-1.215A1.215,1.215,0,0,1,1620.848,525.88Zm-1.215,2.176a1.263,1.263,0,1,0,1.264,1.263A1.263,1.263,0,0,0,1619.633,528.056Zm0,3.39a1.313,1.313,0,1,0,1.313,1.313A1.312,1.312,0,0,0,1619.633,531.446Zm0,3.488a1.264,1.264,0,1,0,1.264,1.264A1.264,1.264,0,0,0,1619.633,534.934Zm0,3.488a1.215,1.215,0,1,0,1.215,1.215A1.215,1.215,0,0,0,1619.633,538.422Zm3.347-10.528a1.426,1.426,0,1,0,1.426,1.425A1.425,1.425,0,0,0,1622.98,527.894Zm0,3.39a1.474,1.474,0,1,0,1.474,1.475A1.475,1.475,0,0,0,1622.98,531.284Zm0,3.488a1.426,1.426,0,1,0,1.426,1.426A1.426,1.426,0,0,0,1622.98,534.772Zm3.435-3.65a1.637,1.637,0,1,0,1.637,1.637A1.637,1.637,0,0,0,1626.415,531.122Zm-10.172-2.9a1.1,1.1,0,1,0,1.1,1.1A1.1,1.1,0,0,0,1616.243,528.218Zm0,3.391a1.15,1.15,0,1,0,1.151,1.15A1.15,1.15,0,0,0,1616.243,531.609Zm0,3.487a1.1,1.1,0,1,0,1.1,1.1A1.1,1.1,0,0,0,1616.243,535.1Zm-3.39-3.325a.988.988,0,1,0,.988.988A.988.988,0,0,0,1612.853,531.771Z" fill="#00b3bd"/>
        </g>
      </g>
      <g id="Group_3785" data-name="Group 3785">
        <g id="Group_3781" data-name="Group 3781">
          <g id="Group_3780" data-name="Group 3780">
            <rect id="Rectangle_3109" data-name="Rectangle 3109" width="0.906" height="5.594" rx="0.133" transform="translate(1600.781 547.395)" fill="#002b3d"/>
            <g id="Group_3777" data-name="Group 3777">
              <g id="Group_3776" data-name="Group 3776">
                <path id="Path_2105" data-name="Path 2105" d="M1601.234,545.156a.613.613,0,1,0,.614.613A.614.614,0,0,0,1601.234,545.156Z" fill="#002b3d"/>
              </g>
            </g>
            <rect id="Rectangle_3110" data-name="Rectangle 3110" width="0.906" height="5.594" rx="0.133" transform="translate(1614.466 547.395)" fill="#002b3d"/>
            <g id="Group_3779" data-name="Group 3779">
              <g id="Group_3778" data-name="Group 3778">
                <path id="Path_2106" data-name="Path 2106" d="M1614.919,545.156a.614.614,0,1,0,0,1.227.614.614,0,0,0,0-1.227Z" fill="#002b3d"/>
              </g>
            </g>
            <path id="Path_2107" data-name="Path 2107" d="M1606.2,548.3a.132.132,0,0,0,.132-.132v-.642a.132.132,0,0,0-.132-.132h-1.367v-2.054a.132.132,0,0,0-.132-.132h-.641a.133.133,0,0,0-.133.132V547.4h-.688a.132.132,0,0,0-.132.132v.642a.132.132,0,0,0,.132.132h.688v3.109a1.5,1.5,0,0,0,1.579,1.579h.694a.133.133,0,0,0,.132-.133v-.641a.132.132,0,0,0-.132-.132h-.614a.731.731,0,0,1-.753-.774V548.3Z" fill="#002b3d"/>
            <path id="Path_2108" data-name="Path 2108" d="M1619.75,548.3a.133.133,0,0,0,.133-.132v-.642a.133.133,0,0,0-.133-.132h-1.366v-2.054a.133.133,0,0,0-.133-.132h-.641a.133.133,0,0,0-.133.132V547.4h-.687a.133.133,0,0,0-.133.132v.642a.133.133,0,0,0,.133.132h.687v3.109a1.5,1.5,0,0,0,1.579,1.579h.694a.134.134,0,0,0,.133-.133v-.641a.133.133,0,0,0-.133-.132h-.613a.73.73,0,0,1-.753-.774V548.3Z" fill="#002b3d"/>
            <path id="Path_2109" data-name="Path 2109" d="M1596.862,548.3v4.556a.133.133,0,0,0,.133.132h.641a.132.132,0,0,0,.132-.132V548.3h1.508a.133.133,0,0,0,.133-.132v-.642a.133.133,0,0,0-.133-.132h-1.508v-1.233a.766.766,0,0,1,.753-.809h.755a.134.134,0,0,0,.133-.133v-.641a.133.133,0,0,0-.133-.132h-.7a1.717,1.717,0,0,0-1.716,1.715V547.4h-.688a.133.133,0,0,0-.132.132v.642a.133.133,0,0,0,.132.132Z" fill="#002b3d"/>
          </g>
          <path id="Path_2110" data-name="Path 2110" d="M1612.436,548.043a2.706,2.706,0,0,0-3.843-.077v-3.387a.133.133,0,0,0-.133-.132h-.642a.132.132,0,0,0-.132.132v5.615a2.773,2.773,0,1,0,5.526,0A3.093,3.093,0,0,0,1612.436,548.043Zm-1.987,4.249a2.106,2.106,0,1,1,1.856-2.1A1.858,1.858,0,0,1,1610.449,552.292Z" fill="#002b3d"/>
        </g>
        <g id="Group_3782" data-name="Group 3782">
          <path id="Path_2111" data-name="Path 2111" d="M1628.2,548.085a2.792,2.792,0,0,1,.593.962,3.5,3.5,0,0,1,0,2.337,2.793,2.793,0,0,1-.593.96,2.762,2.762,0,0,1-.933.651,2.853,2.853,0,0,1-1.128.225,2.41,2.41,0,0,1-1.1-.265,2.355,2.355,0,0,1-.823-.657h-.034v3.672h-.91v-8.564h.91v.726h.034a2.486,2.486,0,0,1,.823-.651,2.377,2.377,0,0,1,1.1-.27,2.854,2.854,0,0,1,1.128.225A2.756,2.756,0,0,1,1628.2,548.085Zm-2.061,4.225a1.951,1.951,0,0,0,.783-.155,1.856,1.856,0,0,0,.616-.432,1.933,1.933,0,0,0,.4-.662,2.379,2.379,0,0,0,.144-.846,2.344,2.344,0,0,0-.144-.834,1.989,1.989,0,0,0-.4-.668,1.813,1.813,0,0,0-.616-.437,1.934,1.934,0,0,0-.783-.156,2,2,0,0,0-.8.156,1.788,1.788,0,0,0-.622.437,2.087,2.087,0,0,0-.409.668,2.278,2.278,0,0,0-.149.834,2.312,2.312,0,0,0,.149.846,2.027,2.027,0,0,0,.409.662,1.829,1.829,0,0,0,.622.432A2.015,2.015,0,0,0,1626.135,552.31Z" fill="#00b3bd"/>
          <path id="Path_2112" data-name="Path 2112" d="M1629.727,550.215a3.271,3.271,0,0,1,.207-1.168,2.856,2.856,0,0,1,.6-.962,2.759,2.759,0,0,1,.926-.649,2.842,2.842,0,0,1,1.134-.225,2.141,2.141,0,0,1,.564.075,3.006,3.006,0,0,1,.524.2,2.427,2.427,0,0,1,.46.294,2.459,2.459,0,0,1,.363.357h.046v-.726h.9v5.606h-.9v-.7h-.046a2.349,2.349,0,0,1-.823.648,2.412,2.412,0,0,1-1.088.262,2.841,2.841,0,0,1-1.134-.225,2.764,2.764,0,0,1-.926-.651,2.857,2.857,0,0,1-.6-.96A3.276,3.276,0,0,1,1629.727,550.215Zm.909.006a2.4,2.4,0,0,0,.144.848,1.943,1.943,0,0,0,.4.663,1.822,1.822,0,0,0,.621.434,2.084,2.084,0,0,0,1.577,0,1.879,1.879,0,0,0,.628-.434,1.982,1.982,0,0,0,.414-.663,2.321,2.321,0,0,0,.15-.848,2.3,2.3,0,0,0-.15-.837,2.05,2.05,0,0,0-.414-.669,1.85,1.85,0,0,0-.628-.439,2.071,2.071,0,0,0-1.577,0,1.794,1.794,0,0,0-.621.439,2.009,2.009,0,0,0-.4.669A2.38,2.38,0,0,0,1630.636,550.221Z" fill="#00b3bd"/>
          <path id="Path_2113" data-name="Path 2113" d="M1638.612,552.92l-2.337-5.514h.99l1.842,4.352,1.841-4.352h.991l-3.5,8.242h-.989Z" fill="#00b3bd"/>
        </g>
        <g id="Group_3784" data-name="Group 3784">
          <g id="Group_3783" data-name="Group 3783">
            <path id="Path_2114" data-name="Path 2114" d="M1643.814,547.406l-.252.436-.012-.022-.239-.414h-.061v.694h.067v-.538l.245.426.246-.426v.538h.067v-.694Z" fill="#00b3bd"/>
            <path id="Path_2115" data-name="Path 2115" d="M1642.564,547.473h.232v.627h.067v-.627h.232v-.067h-.53Z" fill="#00b3bd"/>
          </g>
        </g>
      </g>
    </g>
  </g>
</svg>
