<svg xmlns="http://www.w3.org/2000/svg" width="50" height="50" viewBox="0 0 50 50">
  <g id="Group_3789" data-name="Group 3789" transform="translate(-80 -8502)">
    <rect id="Rectangle_3108" data-name="Rectangle 3108" width="50" height="50" transform="translate(80 8502)" fill="rgba(255,218,167,0)"/>
    <g id="Group_3788" data-name="Group 3788" transform="translate(-1571.967 7986.434)">
      <path id="Path_2116" data-name="Path 2116" d="M1684.589,541.422h-11.12a1.25,1.25,0,0,1-1.249-1.248v-7.829a1.238,1.238,0,0,1,.283-.79l-1.3.346a.707.707,0,0,0-.432.332.7.7,0,0,0-.072.535l.1.361.421-.077a.269.269,0,1,1,.1.529l-.376.069.85,3.16a.269.269,0,1,1-.519.14l-1.088-4.042a1.228,1.228,0,0,1,.052-.8l-1.108.64a.713.713,0,0,0-.261.971l.187.323.4-.212a.269.269,0,1,1,.25.476l-.383.2,2.2,3.815a.269.269,0,0,1-.466.269l-2.66-4.6a1.253,1.253,0,0,1,.458-1.706l9.624-5.552a1.249,1.249,0,0,1,1.706.456l.327.567a.276.276,0,0,1-.1.377l-.862.465a.269.269,0,0,1-.256-.473l.622-.335-.191-.332a.713.713,0,0,0-.972-.26l-6.879,3.968,9.935-2.652a1.251,1.251,0,0,1,1.53.881l.169.63a.285.285,0,0,1,.01.076.269.269,0,0,1-.208.267l-1.521.352a.269.269,0,0,1-.122-.524l1.253-.289-.1-.372a.714.714,0,0,0-.872-.5l-7.729,2.064h10.373a1.25,1.25,0,0,1,1.25,1.247v7.829A1.251,1.251,0,0,1,1684.589,541.422Zm-11.832-7.35v6.1a.712.712,0,0,0,.712.711h11.12a.712.712,0,0,0,.712-.711v-6.1Zm0-.537H1685.3v-1.19a.712.712,0,0,0-.712-.71h-11.12a.712.712,0,0,0-.712.71Z" fill="#231f20"/>
      <g id="Group_3787" data-name="Group 3787">
        <path id="Path_2117" data-name="Path 2117" d="M1657.326,553.9l-.205-.581a1.578,1.578,0,0,1-1.482.752,1.891,1.891,0,0,1-1.972-2.086v-3.761a1.967,1.967,0,0,1,2.12-2.075,1.845,1.845,0,0,1,2.029,2.075v.444h-1.025V548.1a.929.929,0,0,0-1-.992.973.973,0,0,0-1.037,1.014v3.967a.97.97,0,0,0,1.037,1.026.98.98,0,0,0,1.049-1.026v-1.174h-1.014V550h2.04v3.9Z" fill="#231f20"/>
        <path id="Path_2118" data-name="Path 2118" d="M1661.886,553.9l-.4-1.858h-1.641l-.4,1.858H1658.4l1.721-7.591h1.14l1.721,7.591Zm-1.22-5.893-.627,3.112h1.254Z" fill="#231f20"/>
        <path id="Path_2119" data-name="Path 2119" d="M1667.779,553.978c-.855,0-1.151-.239-1.151-1.026v-1.481c0-.525-.239-.878-.786-.878h-1.072v3.3h-1.083v-7.591h2.2c1.231,0,1.778.615,1.778,1.7v.832c0,.741-.25,1.186-.98,1.334a1.228,1.228,0,0,1,1.014,1.322v1.38c0,.205.092.3.32.3v.809Zm-1.2-6c0-.434-.182-.741-.7-.741h-1.117v2.53h1c.525,0,.809-.3.809-.866Z" fill="#231f20"/>
        <path id="Path_2120" data-name="Path 2120" d="M1673.525,553.9v-5.915l-.308,1.447-1.038,4.468h-1.059l-1.015-4.468-.319-1.447V553.9h-.958v-7.591h1.505l1.037,4.742.308,1.447.308-1.459,1.014-4.73h1.505V553.9Z" fill="#231f20"/>
        <path id="Path_2121" data-name="Path 2121" d="M1675.736,553.9v-7.591h1.083V553.9Z" fill="#231f20"/>
        <path id="Path_2122" data-name="Path 2122" d="M1681.572,553.9l-1.88-3.693-.638-1.333V553.9h-1.026v-7.591h.877l1.8,3.762.6,1.333v-5.095h1.026V553.9Z" fill="#231f20"/>
        <path id="Path_2123" data-name="Path 2123" d="M1687.626,550.855H1686.5V553.9h-1.071v-7.591h2.2a1.573,1.573,0,0,1,1.778,1.755v1.049A1.575,1.575,0,0,1,1687.626,550.855Zm.7-2.827c0-.5-.182-.786-.684-.786h-1.14v2.69h1.14c.5,0,.684-.3.684-.787Z" fill="#231f20"/>
        <path id="Path_2124" data-name="Path 2124" d="M1692.755,553.9l-.4-1.858h-1.641l-.4,1.858h-1.048l1.721-7.591h1.139l1.722,7.591Zm-1.219-5.893-.627,3.112h1.254Z" fill="#231f20"/>
        <path id="Path_2125" data-name="Path 2125" d="M1696.312,550.844V553.9h-1.071v-3.054l-1.835-4.537h1.162l1.243,3.5,1.242-3.5h1.083Z" fill="#231f20"/>
        <path id="Path_2126" data-name="Path 2126" d="M1698.891,546.438v.851h-.2v-.851h-.294v-.17h.789v.17Zm1.327.851v-.828l-.073.286-.171.542h-.181l-.167-.542-.073-.286v.828h-.182v-1.021h.275l.174.568.065.268.074-.268.162-.568h.283v1.021Z" fill="#231f20"/>
      </g>
    </g>
  </g>
</svg>
