<svg xmlns="http://www.w3.org/2000/svg" width="50" height="50" viewBox="0 0 50 50">
  <g id="Symbol_494_6" data-name="Symbol 494 – 6" transform="translate(-723 -7811)">
    <path id="Path_1610" data-name="Path 1610" d="M0,0H50V50H0Z" transform="translate(723 7811)" fill="none"/>
    <g id="Group_3772" data-name="Group 3772" transform="translate(-871.971 7564.315)">
      <g id="Group_3771" data-name="Group 3771">
        <g id="Group_3767" data-name="Group 3767">
          <g id="Group_3766" data-name="Group 3766">
            <g id="Group_3765" data-name="Group 3765">
              <path id="Path_2097" data-name="Path 2097" d="M1618.728,291.407c9.26-2.933,16.082-11.167,16.082-18.568,0-2.615.04-12.764.049-15.713a28.882,28.882,0,0,1-12.022-2.907,23.617,23.617,0,0,1-4.109-2.534,23.706,23.706,0,0,1-4.109,2.534,28.892,28.892,0,0,1-12.023,2.907c.01,2.949.05,13.1.05,15.713C1602.646,280.24,1609.468,288.474,1618.728,291.407Z" fill="none" stroke="#5b6670" stroke-linecap="round" stroke-linejoin="round" stroke-width="1"/>
            </g>
          </g>
        </g>
        <g id="Group_3770" data-name="Group 3770" opacity="0.3">
          <g id="Group_3769" data-name="Group 3769">
            <g id="Group_3768" data-name="Group 3768">
              <path id="Path_2098" data-name="Path 2098" d="M1618.929,287.825c7.59-2.4,13.182-9.153,13.182-15.219,0-2.144.033-10.463.04-12.88a23.672,23.672,0,0,1-9.854-2.382,19.391,19.391,0,0,1-3.368-2.078Z" fill="#cf3339"/>
            </g>
          </g>
        </g>
      </g>
      <path id="Path_2099" data-name="Path 2099" d="M1624.263,276.988" fill="#fff" stroke="#5b6670" stroke-linecap="round" stroke-linejoin="round" stroke-width="2"/>
      <path id="Path_2100" data-name="Path 2100" d="M1601.01,274.217c-5.155,1.587-4.906,10.792,9.918,5.049" fill="none" stroke="#5b6670" stroke-linecap="round" stroke-miterlimit="10" stroke-width="1"/>
      <path id="Path_2101" data-name="Path 2101" d="M1627.364,277.427l1.823-2.279,11.238-3.349a2.265,2.265,0,0,0,1.26-3.694c-1.106-1.615-3.718-2.462-7.528-1.376l-3.827,1.243-7.571-2.684c-1.538-.545-2.591-.909-4.029-.5l-1.883.537c-.412.117-.429.86-.026,1.191l4.649,3.828-7.565,2.157-1.762-2.257c-.82-1.139-1.58-.814-2.568-.533l-.563.161c-.15.043-.213.267-.133.479l.951,3.311-.03.009a1.148,1.148,0,0,0-.038,2.256c5.055,1.109,7.7,1.882,12.04,1.06l-1.1,3.247c-.133.393.19.889.519.8l2.329-.517a5.885,5.885,0,0,0,2.977-2.04l.837-1.046" fill="#fff" stroke="#5b6670" stroke-linecap="round" stroke-linejoin="round" stroke-width="1"/>
      <line id="Line_1393" data-name="Line 1393" x1="6.267" y2="1.648" transform="translate(1634.99 267.603)" opacity="0.3" stroke="#f08b8f" stroke-linecap="round" stroke-linejoin="round" stroke-width="1" fill="none"/>
      <line id="Line_1394" data-name="Line 1394" y1="3.337" x2="1.265" transform="translate(1621.802 273.651)" fill="#fff" stroke="#5b6670" stroke-linecap="round" stroke-linejoin="round" stroke-width="1"/>
      <path id="Path_2102" data-name="Path 2102" d="M1631.647,275.148" fill="#fff" stroke="#5b6670" stroke-linecap="round" stroke-linejoin="round" stroke-width="2"/>
      <line id="Line_1395" data-name="Line 1395" y1="2.373" x2="8.859" transform="translate(1621.47 267.972)" fill="none" stroke="#5b6670" stroke-linecap="round" stroke-linejoin="round" stroke-width="1"/>
    </g>
  </g>
</svg>
