<svg xmlns="http://www.w3.org/2000/svg" xmlns:xlink="http://www.w3.org/1999/xlink" width="146.077" height="32.438" viewBox="0 0 146.077 32.438">
  <defs>
    <clipPath id="clip-path">
      <path id="Rectangle_4786" data-name="Rectangle 4786" d="M5.891,0H26.547a5.892,5.892,0,0,1,5.892,5.892V26.546a5.892,5.892,0,0,1-5.892,5.892H5.892A5.892,5.892,0,0,1,0,26.546V5.891A5.891,5.891,0,0,1,5.891,0Z" fill="none"/>
    </clipPath>
    <linearGradient id="linear-gradient" x1="0.842" y1="1.091" x2="0.376" y2="0.285" gradientUnits="objectBoundingBox">
      <stop offset="0" stop-color="#161615"/>
      <stop offset="0.272" stop-color="#1c1c1b"/>
      <stop offset="0.665" stop-color="#302f2f"/>
      <stop offset="1" stop-color="#464545"/>
    </linearGradient>
  </defs>
  <g id="Group_4649" data-name="Group 4649" transform="translate(-245.163 -123.297)">
    <g id="Group_4641" data-name="Group 4641" transform="translate(284.879 132.273)">
      <g id="Group_4640" data-name="Group 4640">
        <g id="Group_4639" data-name="Group 4639">
          <path id="Path_3739" data-name="Path 3739" d="M287.373,134.886a1.449,1.449,0,1,1,2.9,0v4.423L295.617,134a1.633,1.633,0,0,1,1.223-.565,1.306,1.306,0,0,1,1.336,1.336,1.453,1.453,0,0,1-.527,1.092l-3.707,3.463,4.046,5.083a1.536,1.536,0,0,1,.4,1.016,1.4,1.4,0,0,1-1.468,1.411,1.463,1.463,0,0,1-1.223-.7l-3.765-4.931-1.657,1.543v2.636a1.449,1.449,0,1,1-2.9,0Z" transform="translate(-287.373 -132.872)" fill="#161615"/>
          <path id="Path_3740" data-name="Path 3740" d="M304.415,136.229h-2.786a1.336,1.336,0,1,1,0-2.672h8.47a1.336,1.336,0,1,1,0,2.672h-2.786V145.4a1.449,1.449,0,1,1-2.9,0Z" transform="translate(-288.136 -132.88)" fill="#161615"/>
          <path id="Path_3741" data-name="Path 3741" d="M312.593,140.169v-.038a6.7,6.7,0,0,1,6.87-6.814,6.978,6.978,0,0,1,4.4,1.336,1.447,1.447,0,0,1,.565,1.148,1.414,1.414,0,0,1-1.43,1.412,1.524,1.524,0,0,1-.867-.282,4.332,4.332,0,0,0-2.691-.941,3.9,3.9,0,0,0-3.821,4.1v.038a3.913,3.913,0,0,0,3.821,4.14,4.228,4.228,0,0,0,2.861-1.035,1.342,1.342,0,1,1,1.731,2.051,6.942,6.942,0,0,1-11.443-5.119Z" transform="translate(-288.863 -132.865)" fill="#161615"/>
          <path id="Path_3742" data-name="Path 3742" d="M334.572,134.927a1.438,1.438,0,0,1,1.449-1.45h.32a1.488,1.488,0,0,1,1.317.753l3.5,5.7,3.52-5.722a1.42,1.42,0,0,1,1.3-.734h.32a1.438,1.438,0,0,1,1.45,1.45v10.465a1.44,1.44,0,1,1-2.879,0v-6.569l-2.542,3.915a1.355,1.355,0,0,1-2.409,0l-2.5-3.859v6.551a1.414,1.414,0,0,1-1.431,1.411,1.4,1.4,0,0,1-1.411-1.411Z" transform="translate(-290.162 -132.875)" fill="#161615"/>
          <path id="Path_3743" data-name="Path 3743" d="M351.092,141.927v-.038a5.463,5.463,0,0,1,10.917-.038v.038a5.463,5.463,0,0,1-10.917.038Zm8.094,0v-.038a2.681,2.681,0,0,0-2.654-2.786,2.585,2.585,0,0,0-2.616,2.748v.038a2.681,2.681,0,0,0,2.653,2.786A2.586,2.586,0,0,0,359.186,141.927Z" transform="translate(-291.138 -133.062)" fill="#161615"/>
          <path id="Path_3744" data-name="Path 3744" d="M364.892,134.267a1.431,1.431,0,0,1,2.861,0v3.783a3.7,3.7,0,0,1,3.142-1.637c2.353,0,4.594,1.844,4.594,5.214v.038c0,3.369-2.2,5.214-4.594,5.214a3.87,3.87,0,0,1-3.142-1.505v.019a1.431,1.431,0,0,1-2.861-.019Zm7.735,7.4v-.038a2.476,2.476,0,1,0-4.913,0v.038a2.476,2.476,0,1,0,4.913,0Z" transform="translate(-291.953 -132.837)" fill="#161615"/>
          <path id="Path_3745" data-name="Path 3745" d="M378.351,134.193a1.626,1.626,0,0,1,3.2,0v.038a1.622,1.622,0,0,1-3.2,0Zm.169,3.727a1.431,1.431,0,0,1,2.861,0v7.454a1.431,1.431,0,0,1-2.861,0Z" transform="translate(-292.748 -132.838)" fill="#161615"/>
          <path id="Path_3746" data-name="Path 3746" d="M384.571,134.267a1.431,1.431,0,0,1,2.861,0v11.106a1.431,1.431,0,0,1-2.861,0Z" transform="translate(-293.116 -132.837)" fill="#161615"/>
          <path id="Path_3747" data-name="Path 3747" d="M395.221,147.141a5.047,5.047,0,0,1-5.271-5.214v-.038a5.023,5.023,0,0,1,4.989-5.251,4.769,4.769,0,0,1,4.856,4.856,1.305,1.305,0,0,1-1.337,1.374h-5.665a2.339,2.339,0,0,0,2.466,1.976,3.3,3.3,0,0,0,2.032-.677,1.064,1.064,0,0,1,.7-.227,1.094,1.094,0,0,1,1.111,1.13,1.125,1.125,0,0,1-.377.847A5.226,5.226,0,0,1,395.221,147.141Zm1.844-6.06a2.163,2.163,0,0,0-2.126-2.146,2.247,2.247,0,0,0-2.183,2.146Z" transform="translate(-293.434 -133.062)" fill="#161615"/>
        </g>
      </g>
    </g>
    <g id="Group_4648" data-name="Group 4648" transform="translate(245.163 123.297)">
      <g id="Group_4643" data-name="Group 4643">
        <g id="Group_4642" data-name="Group 4642">
          <path id="Rectangle_4785" data-name="Rectangle 4785" d="M5.891,0H26.547a5.892,5.892,0,0,1,5.892,5.892V26.546a5.892,5.892,0,0,1-5.892,5.892H5.892A5.892,5.892,0,0,1,0,26.546V5.891A5.891,5.891,0,0,1,5.891,0Z" fill="#161615"/>
        </g>
      </g>
      <g id="Group_4645" data-name="Group 4645">
        <g id="Group_4644" data-name="Group 4644" clip-path="url(#clip-path)">
          <path id="Path_3748" data-name="Path 3748" d="M246.117,155.69s9.587-29.7,33.14-33.139v33.171Z" transform="translate(-245.219 -123.253)" opacity="0.2" fill="url(#linear-gradient)"/>
        </g>
      </g>
      <path id="Path_3749" data-name="Path 3749" d="M258.688,144.13a1.363,1.363,0,0,1-1.7-1.115l-1.587-9.194.022.118-1,.089a1.138,1.138,0,0,0-1.011,1.565l.019.057-.429.081a1.14,1.14,0,0,0-.859,1.656l.294.668-.946.36a1.142,1.142,0,0,0-.561,1.784l5.22,7.719a1.369,1.369,0,0,0,2.019.307l7.292-5.843Z" transform="translate(-245.49 -123.919)" fill="#fff"/>
      <path id="Path_3750" data-name="Path 3750" d="M250.925,140.257a1.142,1.142,0,0,1,.561-1.784l9.163-3.484a4.032,4.032,0,0,1,2.763.114l5.653,2.711a.873.873,0,0,1,.181,1.591l-11.08,8.879a1.369,1.369,0,0,1-2.019-.307Z" transform="translate(-245.49 -123.976)" fill="#c11d2a" opacity="0.3"/>
      <path id="Path_3751" data-name="Path 3751" d="M252.221,137.391a1.14,1.14,0,0,1,.859-1.656l9.549-1.8a3.954,3.954,0,0,1,2.674.605l5.043,3.671a.877.877,0,0,1-.1,1.6l-12.363,6.768a1.353,1.353,0,0,1-1.917-.662Z" transform="translate(-245.573 -123.923)" fill="#c11d2a" opacity="0.4"/>
      <path id="Path_3752" data-name="Path 3752" d="M253.573,135.551a1.138,1.138,0,0,1,1.011-1.565l9.677-.856a3.978,3.978,0,0,1,2.6.863l4.67,4.149a.876.876,0,0,1-.252,1.582l-12.95,5.525a1.358,1.358,0,0,1-1.845-.847Z" transform="translate(-245.656 -123.877)" fill="#c11d2a" opacity="0.5"/>
      <g id="Group_4646" data-name="Group 4646" transform="translate(9.89 8.504)">
        <path id="Path_3753" data-name="Path 3753" d="M255.7,133.733a1.135,1.135,0,0,1,1.232-1.4l9.694.612a3.985,3.985,0,0,1,2.449,1.247L273.08,139a.874.874,0,0,1-.481,1.525l-13.617,3.515a1.363,1.363,0,0,1-1.7-1.115Z" transform="translate(-255.674 -132.335)" fill="#c11d2a"/>
      </g>
      <g id="Group_4647" data-name="Group 4647" transform="translate(12.819 11.981)">
        <path id="Path_3754" data-name="Path 3754" d="M258.787,136.465a.3.3,0,0,1,.1-.244.373.373,0,0,1,.252-.079.622.622,0,0,1,.192.028l.116.042v1.635c.091-.094.206-.21.346-.348s.282-.279.427-.42.281-.272.409-.392.227-.214.3-.277a2.775,2.775,0,0,1,.249-.192.473.473,0,0,1,.273-.077.481.481,0,0,1,.286.079.646.646,0,0,1,.143.127c-.018.019-.066.065-.143.137s-.169.159-.275.262l-.352.333-.38.358q-.186.176-.349.335c-.108.105-.2.192-.266.257q.55.519,1.027,1.047a11.144,11.144,0,0,1,.875,1.094H261.2c-.1-.121-.211-.262-.347-.422s-.28-.322-.437-.49-.318-.334-.486-.5-.333-.311-.49-.444v1.853h-.655Z" transform="translate(-258.787 -136.037)" fill="#fff"/>
        <path id="Path_3755" data-name="Path 3755" d="M263.786,136.782h-1.1a.284.284,0,0,1-.326-.317.6.6,0,0,1,.034-.2.978.978,0,0,1,.05-.12h3.141a.283.283,0,0,1,.325.317.644.644,0,0,1-.03.2.481.481,0,0,1-.053.12H264.44v3.389h-.654Z" transform="translate(-258.998 -136.037)" fill="#fff"/>
        <path id="Path_3756" data-name="Path 3756" d="M269.451,139.894a1.709,1.709,0,0,1-.167.111,1.529,1.529,0,0,1-.27.124,2.591,2.591,0,0,1-.382.1,2.748,2.748,0,0,1-.5.04,2.142,2.142,0,0,1-.77-.137,1.867,1.867,0,0,1-1.081-1.059,2.364,2.364,0,0,1-.162-.905,2.485,2.485,0,0,1,.156-.905,1.96,1.96,0,0,1,.43-.672,1.84,1.84,0,0,1,.634-.417,2.088,2.088,0,0,1,.776-.144,2.522,2.522,0,0,1,.649.07,1.3,1.3,0,0,1,.4.174.62.62,0,0,1,.2.212.413.413,0,0,1,.057.178.386.386,0,0,1-.029.147.594.594,0,0,1-.073.127.725.725,0,0,1-.084.1.571.571,0,0,1-.077.059,1,1,0,0,0-.152-.141,1.21,1.21,0,0,0-.228-.142,1.621,1.621,0,0,0-.3-.108,1.4,1.4,0,0,0-.358-.044,1.3,1.3,0,0,0-.522.1,1.149,1.149,0,0,0-.418.3,1.437,1.437,0,0,0-.278.476,1.837,1.837,0,0,0-.1.631,1.7,1.7,0,0,0,.106.631,1.3,1.3,0,0,0,.294.458,1.232,1.232,0,0,0,.439.278,1.575,1.575,0,0,0,.546.094,1.72,1.72,0,0,0,.6-.094,1.778,1.778,0,0,0,.366-.176l.29.534Z" transform="translate(-259.22 -136.03)" fill="#fff"/>
      </g>
    </g>
  </g>
</svg>
