<svg xmlns="http://www.w3.org/2000/svg" width="80" height="60" viewBox="0 0 80 60">
  <g id="Group_2224" data-name="Group 2224" transform="translate(-960.271 -1368.915)">
    <rect id="Rectangle_2016" data-name="Rectangle 2016" width="80" height="60" transform="translate(960.271 1368.915)" fill="none"/>
    <g id="Group_2222" data-name="Group 2222">
      <g id="Group_949" data-name="Group 949">
        <rect id="Rectangle_680" data-name="Rectangle 680" width="60.87" height="8.81" transform="translate(969.841 1385.299)" fill="#f08b8f"/>
        <path id="Path_902" data-name="Path 902" d="M1025.824,1419.9H974.506a4.543,4.543,0,0,1-4.519-4.519v-32.949a4.542,4.542,0,0,1,4.519-4.519h51.464a4.542,4.542,0,0,1,4.517,4.519v32.949A4.77,4.77,0,0,1,1025.824,1419.9Z" fill="none" stroke="#cf3339" stroke-linejoin="round" stroke-width="2"/>
      </g>
      <g id="KTC_PROUD" data-name="KTC PROUD">
        <path id="Path_2167" data-name="Path 2167" d="M3.3.1a2.814,2.814,0,0,0,1.992-.7.58.58,0,0,0,.208-.44.577.577,0,0,0-.576-.568.576.576,0,0,0-.368.136,1.8,1.8,0,0,1-1.216.44A1.663,1.663,0,0,1,1.712-2.8v-.016A1.659,1.659,0,0,1,3.336-4.56a1.842,1.842,0,0,1,1.144.4.647.647,0,0,0,.368.12.6.6,0,0,0,.608-.6.616.616,0,0,0-.24-.488A2.965,2.965,0,0,0,3.344-5.7,2.846,2.846,0,0,0,.424-2.8v.016A2.827,2.827,0,0,0,3.3.1ZM6.448-.56a.608.608,0,0,0,.608.608A.608.608,0,0,0,7.664-.56V-1.7c0-.864.344-1.336.96-1.48a.559.559,0,0,0,.456-.568.554.554,0,0,0-.592-.592c-.36,0-.648.384-.824.8v-.192a.608.608,0,0,0-.608-.608.608.608,0,0,0-.608.608Zm4.208-1.92a.956.956,0,0,1,.928-.912.92.92,0,0,1,.9.912ZM13.192-.424a.477.477,0,0,0,.16-.36.465.465,0,0,0-.472-.48.454.454,0,0,0-.3.1,1.4,1.4,0,0,1-.864.288,1,1,0,0,1-1.048-.84H13.08a.555.555,0,0,0,.568-.584,2.027,2.027,0,0,0-2.064-2.064,2.135,2.135,0,0,0-2.12,2.232v.016A2.145,2.145,0,0,0,11.7.1,2.222,2.222,0,0,0,13.192-.424Zm5.7-4.856a.608.608,0,0,0-.608-.608.608.608,0,0,0-.608.608v1.552a1.647,1.647,0,0,0-1.336-.64,2.009,2.009,0,0,0-1.952,2.216v.016A2.018,2.018,0,0,0,16.336.08a1.575,1.575,0,0,0,1.336-.7V-.56a.608.608,0,0,0,.608.608.608.608,0,0,0,.608-.608Zm-2.24,1.944a1.088,1.088,0,0,1,1.04,1.184v.016a1.088,1.088,0,0,1-1.04,1.184A1.094,1.094,0,0,1,15.6-2.136v-.016A1.089,1.089,0,0,1,16.648-3.336ZM19.96-5.3a.608.608,0,0,0,.68.576.608.608,0,0,0,.68-.576v-.016a.6.6,0,0,0-.68-.568.6.6,0,0,0-.68.568ZM20.032-.56a.608.608,0,0,0,.608.608.608.608,0,0,0,.608-.608V-3.728a.608.608,0,0,0-.608-.608.608.608,0,0,0-.608.608ZM23.84.072a1.794,1.794,0,0,0,.7-.12A.5.5,0,0,0,24.848-.5a.507.507,0,0,0-.5-.5c-.024,0-.1.008-.144.008-.272,0-.392-.136-.392-.416V-3.248h.536a.519.519,0,0,0,.52-.52.519.519,0,0,0-.52-.52h-.536v-.536a.608.608,0,0,0-.608-.608.608.608,0,0,0-.608.608v.536h-.04a.519.519,0,0,0-.52.52.519.519,0,0,0,.52.52h.04v2.032C22.592-.224,23.1.072,23.84.072ZM30.864.1a2.814,2.814,0,0,0,1.992-.7.58.58,0,0,0,.208-.44.577.577,0,0,0-.576-.568.576.576,0,0,0-.368.136,1.8,1.8,0,0,1-1.216.44A1.663,1.663,0,0,1,29.28-2.8v-.016A1.659,1.659,0,0,1,30.9-4.56a1.842,1.842,0,0,1,1.144.4.647.647,0,0,0,.368.12.6.6,0,0,0,.608-.6.616.616,0,0,0-.24-.488A2.965,2.965,0,0,0,30.912-5.7a2.846,2.846,0,0,0-2.92,2.9v.016A2.827,2.827,0,0,0,30.864.1ZM35.232.08a1.649,1.649,0,0,0,1.3-.544v.008a.544.544,0,0,0,.584.5A.584.584,0,0,0,37.7-.536V-2.488a1.869,1.869,0,0,0-.464-1.368,1.98,1.98,0,0,0-1.448-.48,3.733,3.733,0,0,0-1.368.224.5.5,0,0,0-.328.472.5.5,0,0,0,.5.5.514.514,0,0,0,.176-.032,2.789,2.789,0,0,1,.84-.12c.608,0,.92.28.92.784v.072a3.047,3.047,0,0,0-1.048-.176c-1.016,0-1.728.432-1.728,1.368v.016A1.326,1.326,0,0,0,35.232.08ZM35.6-.76c-.392,0-.664-.192-.664-.52V-1.3c0-.384.32-.592.84-.592a1.886,1.886,0,0,1,.776.16v.216C36.552-1.072,36.168-.76,35.6-.76Zm3.152.2a.608.608,0,0,0,.608.608.608.608,0,0,0,.608-.608V-1.7c0-.864.344-1.336.96-1.48a.559.559,0,0,0,.456-.568.554.554,0,0,0-.592-.592c-.36,0-.648.384-.824.8v-.192a.608.608,0,0,0-.608-.608.608.608,0,0,0-.608.608Zm7.576-4.72a.608.608,0,0,0-.608-.608.608.608,0,0,0-.608.608v1.552a1.647,1.647,0,0,0-1.336-.64,2.009,2.009,0,0,0-1.952,2.216v.016A2.018,2.018,0,0,0,43.776.08a1.575,1.575,0,0,0,1.336-.7V-.56a.608.608,0,0,0,.608.608.608.608,0,0,0,.608-.608Zm-2.24,1.944a1.088,1.088,0,0,1,1.04,1.184v.016a1.088,1.088,0,0,1-1.04,1.184A1.094,1.094,0,0,1,43.04-2.136v-.016A1.089,1.089,0,0,1,44.088-3.336Z" transform="translate(975.322 1409.725)" fill="#f08b8f"/>
      </g>
    </g>
  </g>
</svg>
