<?xml version="1.0" encoding="utf-8"?>
<!-- Generator: Adobe Illustrator 27.2.0, SVG Export Plug-In . SVG Version: 6.00 Build 0)  -->
<svg version="1.1" id="Layer_1" xmlns="http://www.w3.org/2000/svg" xmlns:xlink="http://www.w3.org/1999/xlink" x="0px" y="0px"
	 viewBox="0 0 80 60" style="enable-background:new 0 0 80 60;" xml:space="preserve">
<style type="text/css">
	.st0{display:none;}
	.st1{display:inline;}
	.st2{fill:#F1898C;}
	.st3{fill:#D03134;}
	.st4{fill:#FFFFFF;}
	.st5{fill:none;}
	.st6{fill:#CF3339;}
	.st7{fill:#CF3339;stroke:#CF3339;stroke-width:0.7765;stroke-miterlimit:10;}
	.st8{fill:#F08B8F;}
	.st9{fill:#CF3339;stroke:#CF3339;stroke-linecap:round;stroke-linejoin:round;stroke-miterlimit:10;}
</style>
<g class="st0">
	<g class="st1">
		<path class="st2" d="M-20.1,30.2C-20.2,30.2-20.2,30.2-20.1,30.2l-6.3-0.3c-10.3-0.5-20.8-0.5-31.1,0l-5.9,0.3c-0.5,0-1-0.4-1-1
			s0.4-1,1-1l5.9-0.3c10.4-0.5,20.9-0.5,31.3,0l6.3,0.3c0.6,0,1,0.5,1,1C-19.2,29.8-19.6,30.2-20.1,30.2z"/>
	</g>
	<g class="st1">
		<path class="st3" d="M-42,50h-21c-1.6,0-3.1-0.8-3.9-2.2c-2.8-4.6-2.4-12.7-2.4-13.1c0-1.1,0.4-2.3,1.2-3.2l0.1-0.1l3.8-3.3
			l3.7-7.8c0.7-1.5,2.1-2.6,3.8-2.8c2.4-0.4,7.4-1.2,14.7-1.2c0.6,0,1,0.4,1,1s-0.4,1-1,1c-7.2,0-12.1,0.8-14.4,1.2
			c-1,0.2-1.8,0.8-2.3,1.7l-3.8,8c-0.1,0.1-0.1,0.2-0.2,0.3l-3.9,3.4c-0.4,0.5-0.7,1.2-0.7,1.9c0,0.1-0.3,7.9,2.1,12
			c0.4,0.7,1.3,1.2,2.1,1.2h21c0.6,0,1,0.4,1,1S-41.5,50-42,50z"/>
	</g>
	<g class="st1">
		<path class="st3" d="M-21,50h-21c-0.6,0-1-0.4-1-1s0.4-1,1-1h21c0.9,0,1.7-0.5,2.1-1.2c2.5-4.1,2.2-11.9,2.2-12
			c0-0.7-0.2-1.4-0.7-1.9l-3.9-3.4c-0.1-0.1-0.2-0.2-0.2-0.3l-3.8-8c-0.4-0.9-1.3-1.5-2.3-1.7c-2.3-0.4-7.2-1.2-14.4-1.2
			c-0.6,0-1-0.4-1-1s0.4-1,1-1c7.4,0,12.3,0.8,14.7,1.2c1.6,0.3,3,1.3,3.8,2.8l3.7,7.8l3.8,3.3l0.1,0.1c0.8,0.9,1.2,2.1,1.2,3.2
			c0,0.3,0.4,8.4-2.4,13C-18,49.1-19.5,50-21,50z"/>
	</g>
	<g class="st1">
		<path class="st3" d="M-60.1,54h-5.5c-1.9,0-3.4-1.5-3.4-3.4v-9.3c0-0.6,0.4-1,1-1s1,0.4,1,1v9.3c0,0.7,0.6,1.4,1.4,1.4h5.5
			c0.5,0,0.8-0.4,0.8-0.8V49c0-0.6,0.4-1,1-1s1,0.4,1,1v2.2C-57.3,52.8-58.5,54-60.1,54z"/>
	</g>
	<g class="st1">
		<path class="st3" d="M-18.5,54H-24c-1.6,0-2.8-1.3-2.8-2.8V49c0-0.6,0.4-1,1-1s1,0.4,1,1v2.2c0,0.5,0.4,0.8,0.8,0.8h5.5
			c0.7,0,1.4-0.6,1.4-1.4v-9.3c0-0.6,0.4-1,1-1s1,0.4,1,1v9.3C-15.1,52.5-16.6,54-18.5,54z"/>
	</g>
	<g class="st1">
		<path class="st3" d="M-64.4,30.2c-0.3,0-0.7-0.2-0.9-0.5l-0.5-0.9h-4.4c-0.6,0-1-0.4-1-1v-1.4c0-0.6,0.4-1,1-1h4.2
			c0.4,0,0.7,0.2,0.9,0.5l0.8,1.4l0,0l0.8,1.4c0.3,0.5,0.1,1.1-0.4,1.4C-64.1,30.1-64.3,30.2-64.4,30.2z"/>
	</g>
	<g class="st1">
		<path class="st3" d="M-19.7,30.2c-0.2,0-0.3,0-0.5-0.1c-0.5-0.3-0.6-0.9-0.4-1.4l0.8-1.4c0,0,0,0,0-0.1l0.8-1.4
			c0.2-0.3,0.5-0.5,0.9-0.5h4.3c0.6,0,1,0.4,1,1v1.4c0,0.6-0.4,1-1,1h-4.4l-0.6,1C-19,30-19.3,30.2-19.7,30.2z"/>
	</g>
	<g id="Group_946_2_" transform="translate(478.375 475.792)" class="st1">
		<g id="Ellipse_28-3_1_">
			<circle class="st4" cx="-507.3" cy="-458.5" r="10.5"/>
			<path class="st3" d="M-507.3-447c-6.3,0-11.5-5.2-11.5-11.5s5.2-11.5,11.5-11.5s11.5,5.2,11.5,11.5S-500.9-447-507.3-447z
				 M-507.3-468c-5.2,0-9.5,4.3-9.5,9.5s4.3,9.5,9.5,9.5s9.5-4.3,9.5-9.5C-497.8-463.8-502-468-507.3-468z"/>
		</g>
		<g id="Path_901-3_1_">
			<path class="st2" d="M-507.6-453.2h0.5c0.2,0,0.3,0,0.5-0.1c0.1-0.1,0.1-0.2,0.1-0.4v-0.7h0.5c0.7,0,1.4-0.2,2-0.7
				c0.5-0.5,0.7-1.1,0.7-1.8c0.1-0.9-0.5-1.7-1.4-2c0.3-0.1,0.6-0.4,0.8-0.7c0.2-0.3,0.3-0.7,0.3-1.1c0-0.6-0.2-1.3-0.7-1.7
				c-0.5-0.4-1.2-0.6-1.9-0.6h-0.5v-0.8c0-0.2,0-0.3-0.1-0.4s-0.2-0.1-0.4-0.1h-0.6c-0.2,0-0.3,0-0.4,0.1s-0.1,0.2-0.1,0.4v0.7h-1.6
				c-0.2,0-0.3,0-0.4,0.1c0,0.2-0.1,0.3-0.1,0.4v7.6c0,0.2,0,0.3,0.1,0.4s0.2,0.1,0.4,0.1h1.8v0.7c0,0.2,0,0.3,0.1,0.3
				C-507.9-453.3-507.7-453.2-507.6-453.2z M-508.6-459.3v-2.4h2.3c0.4,0,0.7,0.1,1,0.3c0.2,0.2,0.3,0.6,0.3,0.9s-0.1,0.6-0.3,0.9
				c-0.3,0.2-0.6,0.3-1,0.3L-508.6-459.3z M-508.6-455.6v-2.6h2.3c0.4,0,0.8,0.1,1.1,0.3c0.3,0.2,0.4,0.6,0.4,1
				c0,0.3-0.1,0.6-0.3,0.9c-0.3,0.2-0.6,0.4-1,0.4L-508.6-455.6L-508.6-455.6z"/>
		</g>
	</g>
	<g class="st1">
		<line class="st5" x1="-44.3" y1="38.4" x2="-44.2" y2="38.4"/>
	</g>
	<g class="st1">
		<path class="st2" d="M-28.4,38.9h-27.3c-0.3,0-0.5-0.2-0.5-0.5s0.2-0.5,0.5-0.5h27.3c0.3,0,0.5,0.2,0.5,0.5S-28.1,38.9-28.4,38.9z
			"/>
	</g>
	<g class="st1">
		<path class="st2" d="M-35.8,52.2h-12.5c-0.3,0-0.6-0.3-0.6-0.6v-4.8c0-0.3,0.3-0.6,0.6-0.6h12.5c0.3,0,0.6,0.3,0.6,0.6v4.8
			C-35.3,51.9-35.5,52.2-35.8,52.2z"/>
	</g>
	<g class="st1">
		<path class="st3" d="M-67.4,47.8v3.1c0,0,0.1,1.3,1.8,1.5c1.7,0.2,5.9,0,5.9,0s1-0.6,1.1-1.6c0-1-1-1.3-1-1.3l-4.2-0.3l-1.6-0.8
			l-1.4-1L-67.4,47.8z"/>
	</g>
	<g class="st1">
		<path class="st3" d="M-16.6,47.8v3.1c0,0-0.1,1.3-1.8,1.5c-1.8,0.2-5.9,0-5.9,0s-1-0.6-1.1-1.6c0-1,1-1.3,1-1.3l4.3-0.2l1.6-0.8
			l1.4-1L-16.6,47.8z"/>
	</g>
	<g class="st1">
		<path class="st2" d="M-53.8,40.9h-7.1c-0.8,0-1.5-0.7-1.5-1.5v-2c0-0.8,0.7-1.5,1.5-1.5h5.1c0.8,0,3.5,1.7,3.5,2.5v1
			C-52.3,40.2-53,40.9-53.8,40.9z"/>
	</g>
	<g class="st1">
		<path class="st2" d="M-22.7,40.9h-7.1c-0.8,0-1.5-0.7-1.5-1.5v-1c0-0.8,2.7-2.5,3.5-2.5h5.1c0.8,0,1.5,0.7,1.5,1.5v2
			C-21.2,40.2-21.9,40.9-22.7,40.9z"/>
	</g>
</g>
<g>
	<g>
		<g>
			<path class="st6" d="M50.5,16.3c1.1-0.4,2.2-0.4,3.3-0.2c0.3,0.1,0.7,0,0.9-0.3c0.3-0.3,0.4-0.7,0.3-1L51.1,4.6
				c-0.4-1-1.2-1.8-2.3-2.1L47,2c-5.1-1.4-10.5-1.4-15.6,0l-1.8,0.5c-1,0.3-1.9,1-2.3,2.1l-3.9,10.3c-0.1,0.3-0.1,0.7,0.2,1
				c0.2,0.3,0.2,0.4,0.5,0.3c1.1-0.3,2.6-0.2,3.7,0.2c1,0.3,7.7,2.7,11.4,4.6c0.2,0-0.2,0,0,0L50.5,16.3z M50,14.4
				c-0.9,0.3-5.9,2.2-9.7,4c-0.7,0.3-1.4,0.3-2.1,0c-3.8-1.8-8.8-3.7-9.7-4c-0.8-0.3-1.7-0.4-2.6-0.4h-0.1L29,5.7
				c0.3-0.7,0.9-1.3,1.6-1.5l1.3-0.4c4.8-1.3,9.8-1.3,14.6,0l1.3,0.4c0.7,0.2,1.3,0.7,1.6,1.5l2.1,5.6C52.1,12.6,51.3,14,50,14.4
				L50,14.4z"/>
		</g>
	</g>
	<g>
		<g>
			<path class="st6" d="M59.3,10.5c-3,0-5.7,0.6-5.7,4.8c0,0.5,0.4,0.3,1,0.3s1,0.3,1-0.3c0-2.3,0.8-2.9,3.8-2.9
				c0.5,0,0.7-0.1,0.7-0.7C60,11.2,59.8,10.5,59.3,10.5z"/>
		</g>
	</g>
	<g>
		<g>
			<path class="st6" d="M64.4,7.6h-5.1c-0.5,0-1,0.4-1,1v2.9c0,2.1,1.6,3.8,3.5,3.8H67c0.5,0,1-0.4,1-1v-2.9
				C67.9,9.3,66.3,7.6,64.4,7.6z M66,13.3h-4.1c-0.9,0-1.6-0.9-1.6-1.9V9.5h4.1c0.9,0,1.6,0.9,1.6,1.9V13.3z"/>
		</g>
	</g>
	<g>
		<g>
			<path class="st6" d="M19.1,10.5c-0.5,0-1,0.4-1,1c0,0.5,0.4,1,1,1c3.1,0,3.8,0.6,3.8,2.9c0,0.5,0.4,0.4,1,0.4c0.5,0,1,0.3,1-0.4
				C24.8,11,22.1,10.5,19.1,10.5z"/>
		</g>
	</g>
	<g>
		<g>
			<path class="st6" d="M19.1,7.6H14c-1.9,0-3.5,1.7-3.5,3.8v2.9c0,0.5,0.4,1,1,1h5.1c1.9,0,3.5-1.7,3.5-3.8v-3
				C20,8,19.6,7.6,19.1,7.6z M18.1,11.4c0,1.1-0.7,1.9-1.6,1.9h-4.1v-1.9c0-1.1,0.7-1.9,1.6-1.9h4.1V11.4z"/>
		</g>
	</g>
	<g>
		<g>
			<path class="st6" d="M44.7,33.7c-0.2-0.2-0.4-0.3-0.7-0.3c-0.4,0-0.8,0-1.2,0h-8.3c-0.5,0-1,0.4-1,1v5.7c0,2.5,1.3,3.2,2.1,3.4
				c1.2,0.3,2.4,0.5,3.6,0.5c1.2,0,2.4-0.2,3.6-0.5c0.8-0.2,2.2-0.9,2.2-3.4v-5.7C44.9,34.1,44.8,33.9,44.7,33.7z M43,40.1
				c0,1.4-0.5,1.5-0.7,1.6c-2.1,0.5-4.2,0.5-6.3,0c-0.2,0-0.7-0.2-0.7-1.6v-4.7h7.4c0.1,0,0.2,0,0.3,0V40.1L43,40.1z"/>
		</g>
	</g>
	<g>
		<g>
			<path class="st6" d="M43.5,41.6c-0.3-0.2-0.7-0.2-1,0c-0.1,0-0.1,0.1-0.2,0.1c-2.1,0.5-4.2,0.5-6.3,0c-0.1,0-0.1,0-0.2-0.1
				c-0.3-0.2-0.7-0.2-1,0s-0.5,0.5-0.5,0.8v12.3c0,2,1.6,3.6,3.5,3.6h2.6c1.9,0,3.5-1.6,3.5-3.6V42.4C44,42,43.8,41.7,43.5,41.6z
				 M42.1,54.7c0,0.9-0.7,1.7-1.6,1.7h-2.6c-0.9,0-1.6-0.8-1.6-1.7v-11c1.9,0.4,3.8,0.4,5.7,0L42.1,54.7L42.1,54.7z"/>
		</g>
	</g>
	<g>
		<g>
			<path class="st6" d="M50.3,33c-0.2-0.2-0.5-0.3-0.8-0.2c-2.4,0.4-5.1,0.6-5.6,0.6s-0.9,0.5-0.9,1v5.7c0,0.4-0.1,1.2-0.5,1.5
				c-0.3,0.2-0.5,0.5-0.5,0.8v7.3c0,0.5,0.4,1,1,1h2.9c2.6,0,4.8-2.1,4.8-4.8V33.8C50.7,33.5,50.6,33.2,50.3,33z M48.8,45.9
				c0,1.6-1.3,2.9-2.9,2.9H44v-5.9c0.5-0.5,1-1.3,1-2.8v-4.8c0.9-0.1,2.4-0.2,3.8-0.4V45.9L48.8,45.9z"/>
		</g>
	</g>
	<g>
		<g>
			<path class="st6" d="M35.9,41.6c-0.4-0.3-0.5-1-0.5-1.5v-5.7c0-0.5-0.4-1-1-1c-1.7,0-3,0-5.6-0.5c-0.3,0-0.6,0-0.8,0.2
				c-0.2,0.2-0.3,0.4-0.3,0.7v12c0,2.6,2.1,4.8,4.8,4.8h2.9c0.5,0,1-0.4,1-1v-7.3C36.3,42.1,36.1,41.7,35.9,41.6z M34.4,48.8h-1.9
				c-1.6,0-2.9-1.3-2.9-2.9V35c1.6,0.2,2.7,0.3,3.8,0.3V40c0,1.4,0.5,2.3,1,2.8V48.8L34.4,48.8z"/>
		</g>
	</g>
	<g>
		<g>
			<path class="st6" d="M43.5,41.6c-0.3-0.2-0.7-0.2-1,0c-0.1,0-0.1,0.1-0.2,0.1c-2.1,0.5-4.2,0.5-6.3,0c-0.1,0-0.1,0-0.2-0.1
				c-0.3-0.2-0.7-0.2-1,0s-0.5,0.5-0.5,0.8v12.3c0,2,1.6,3.6,3.5,3.6h2.6c1.9,0,3.5-1.6,3.5-3.6V42.4C44,42,43.8,41.7,43.5,41.6z"/>
		</g>
	</g>
	<g>
		<g>
			<path class="st7" d="M34.7,24.3c-1.6-1-9-4.3-9.7-4.5s-1.3-0.1-1.7,0.3c-0.5,0.5-0.6,1.3-0.3,2.2c0,0.1,0.1,0.2,0.1,0.4
				c0.4,1.3,1.1,3.5,3.7,3.9c2.4,0.4,3.3,0.4,4.8,0.4h1.2c1.4,0,2.4-0.5,2.6-1.3C35.4,25.7,35.6,24.9,34.7,24.3z"/>
		</g>
	</g>
	<path class="st8" d="M38,11.8h2.2c0.6,0,1.1,0.5,1.1,1.1l0,0c0,0.6-0.5,1.1-1.1,1.1H38c-0.6,0-1.1-0.5-1.1-1.1l0,0
		C36.9,12.3,37.4,11.8,38,11.8z"/>
	<path class="st8" d="M38,7.4h2.2c0.6,0,1.1,0.5,1.1,1.1l0,0c0,0.6-0.5,1.1-1.1,1.1H38c-0.6,0-1.1-0.5-1.1-1.1l0,0
		C36.9,7.9,37.4,7.4,38,7.4z"/>
	<g>
		<path class="st9" d="M34.2,35.3c-11,0-15.6-11.4-17.1-16.3c-0.2-0.8-0.1-1.6,0.4-2.3c0.5-0.7,1.2-1.1,2-1.1l5.8-1.1l0.1,1
			l-5.8,1.1c-0.5,0-1,0.3-1.3,0.7c-0.3,0.4-0.4,0.9-0.2,1.4c1.4,4.7,5.8,15.6,16.2,15.6L34.2,35.3L34.2,35.3z"/>
	</g>
	<g>
		<path class="st9" d="M44,35.3c11,0,15.6-11.4,17.1-16.3c0.2-0.8,0.1-1.6-0.4-2.3c-0.5-0.7-1.2-1.1-2-1.1L53,14.4l-0.1,1l5.8,1.1
			c0.5,0,1,0.3,1.3,0.7c0.3,0.4,0.4,0.9,0.2,1.4c-1.4,4.7-5.8,15.6-16.2,15.6V35.3z"/>
	</g>
	<g id="Group_946_00000087407055196940636480000004452802360116192420_">
		<g id="Ellipse_28-3_00000036945468145938969550000005137268210945037194_">
			<circle class="st4" cx="54.2" cy="31.4" r="12.6"/>
			<path class="st3" d="M54.2,45.2c-7.6,0-13.8-6.2-13.8-13.8s6.2-13.8,13.8-13.8S68,23.8,68,31.4l0,0C68,39,61.8,45.2,54.2,45.2z
				 M54.2,20c-6.3,0-11.4,5.1-11.4,11.4s5.1,11.4,11.4,11.4s11.4-5.1,11.4-11.4S60.6,20,54.2,20C54.3,20,54.2,20,54.2,20z"/>
		</g>
		<g id="Path_901-3_00000158722469076507656940000006491600932462806437_">
			<path class="st2" d="M53.8,37.8h0.6c0.2,0,0.4,0,0.6-0.1c0.1-0.1,0.1-0.2,0.1-0.5v-0.8h0.6c0.9,0,1.7-0.3,2.4-0.9
				c0.6-0.6,0.9-1.4,0.9-2.2c0.1-1.1-0.6-2.1-1.7-2.4c0.4-0.2,0.7-0.5,1-0.9c0.2-0.4,0.4-0.9,0.4-1.3c0-0.8-0.3-1.5-0.9-2
				c-0.7-0.5-1.5-0.7-2.3-0.7h-0.6v-1c0-0.2,0-0.4-0.1-0.5s-0.2-0.1-0.5-0.1h-0.7c-0.2,0-0.4,0-0.5,0.1S53,24.7,53,25v0.9h-1.9
				c-0.2,0-0.4,0-0.5,0.1c-0.2,0-0.2,0.3-0.2,0.4v9.2c0,0.2,0,0.4,0.1,0.5s0.2,0.1,0.5,0.1h2.2v0.9c0,0.2,0,0.4,0.1,0.4
				C53.4,37.6,53.6,37.7,53.8,37.8z M52.6,30.4v-2.9h2.8c0.4,0,0.9,0.1,1.2,0.4c0.2,0.3,0.4,0.7,0.4,1.1s-0.1,0.8-0.4,1.1
				c-0.4,0.2-0.8,0.4-1.2,0.4L52.6,30.4z M52.6,34.9v-3.1h2.8c0.5,0,0.9,0.1,1.3,0.4c0.3,0.3,0.5,0.7,0.5,1.2c0,0.4-0.1,0.8-0.4,1.1
				c-0.3,0.3-0.8,0.4-1.2,0.5L52.6,34.9z"/>
		</g>
	</g>
</g>
</svg>
