<?xml version="1.0" encoding="utf-8"?>
<!-- Generator: Adobe Illustrator 23.0.1, SVG Export Plug-In . SVG Version: 6.00 Build 0)  -->
<svg version="1.1" id="Layer_1" xmlns="http://www.w3.org/2000/svg" xmlns:xlink="http://www.w3.org/1999/xlink" x="0px" y="0px"
	 viewBox="0 0 80 60" style="enable-background:new 0 0 80 60;" xml:space="preserve">
<style type="text/css">
	.st0{fill:#F1898C;}
	.st1{fill:#D03134;}
	.st2{fill:#FFFFFF;}
	.st3{fill:none;}
</style>
<g>
	<g>
		<path class="st0" d="M62.7,30.2C62.6,30.2,62.6,30.2,62.7,30.2l-6.3-0.3c-10.3-0.5-20.8-0.5-31.1,0l-5.9,0.3c-0.5,0-1-0.4-1-1
			s0.4-1,1-1l5.9-0.3c10.4-0.5,20.9-0.5,31.3,0l6.3,0.3c0.6,0,1,0.5,1,1C63.6,29.8,63.2,30.2,62.7,30.2z"/>
	</g>
	<g>
		<path class="st1" d="M40.8,50h-21c-1.6,0-3.1-0.8-3.9-2.2c-2.8-4.6-2.4-12.7-2.4-13.1c0-1.1,0.4-2.3,1.2-3.2c0,0,0.1-0.1,0.1-0.1
			l3.8-3.3l3.7-7.8c0.7-1.5,2.1-2.6,3.8-2.8c2.4-0.4,7.4-1.2,14.7-1.2c0.6,0,1,0.4,1,1s-0.4,1-1,1c-7.2,0-12.1,0.8-14.4,1.2
			c-1,0.2-1.8,0.8-2.3,1.7l-3.8,8c-0.1,0.1-0.1,0.2-0.2,0.3l-3.9,3.4c-0.4,0.5-0.7,1.2-0.7,1.9c0,0.1-0.3,7.9,2.1,12
			c0.4,0.7,1.3,1.2,2.1,1.2h21c0.6,0,1,0.4,1,1S41.3,50,40.8,50z"/>
	</g>
	<g>
		<path class="st1" d="M61.8,50h-21c-0.6,0-1-0.4-1-1s0.4-1,1-1h21c0.9,0,1.7-0.5,2.1-1.2c2.5-4.1,2.2-11.9,2.2-12
			c0-0.7-0.2-1.4-0.7-1.9l-3.9-3.4c-0.1-0.1-0.2-0.2-0.2-0.3l-3.8-8c-0.4-0.9-1.3-1.5-2.3-1.7c-2.3-0.4-7.2-1.2-14.4-1.2
			c-0.6,0-1-0.4-1-1s0.4-1,1-1c7.4,0,12.3,0.8,14.7,1.2c1.6,0.3,3,1.3,3.8,2.8l3.7,7.8l3.8,3.3c0,0,0.1,0.1,0.1,0.1
			c0.8,0.9,1.2,2.1,1.2,3.2c0,0.3,0.4,8.4-2.4,13C64.8,49.1,63.3,50,61.8,50z"/>
	</g>
	<g>
		<path class="st1" d="M22.7,54h-5.5c-1.9,0-3.4-1.5-3.4-3.4v-9.3c0-0.6,0.4-1,1-1s1,0.4,1,1v9.3c0,0.7,0.6,1.4,1.4,1.4h5.5
			c0.5,0,0.8-0.4,0.8-0.8V49c0-0.6,0.4-1,1-1s1,0.4,1,1v2.2C25.5,52.8,24.3,54,22.7,54z"/>
	</g>
	<g>
		<path class="st1" d="M64.3,54h-5.5c-1.6,0-2.8-1.3-2.8-2.8V49c0-0.6,0.4-1,1-1s1,0.4,1,1v2.2c0,0.5,0.4,0.8,0.8,0.8h5.5
			c0.7,0,1.4-0.6,1.4-1.4v-9.3c0-0.6,0.4-1,1-1s1,0.4,1,1v9.3C67.7,52.5,66.2,54,64.3,54z"/>
	</g>
	<g>
		<path class="st1" d="M18.4,30.2c-0.3,0-0.7-0.2-0.9-0.5L17,28.8h-4.4c-0.6,0-1-0.4-1-1v-1.4c0-0.6,0.4-1,1-1h4.2
			c0.4,0,0.7,0.2,0.9,0.5l0.8,1.4c0,0,0,0,0,0l0.8,1.4c0.3,0.5,0.1,1.1-0.4,1.4C18.7,30.1,18.5,30.2,18.4,30.2z"/>
	</g>
	<g>
		<path class="st1" d="M63.1,30.2c-0.2,0-0.3,0-0.5-0.1c-0.5-0.3-0.6-0.9-0.4-1.4l0.8-1.4c0,0,0,0,0-0.1l0.8-1.4
			c0.2-0.3,0.5-0.5,0.9-0.5H69c0.6,0,1,0.4,1,1v1.4c0,0.6-0.4,1-1,1h-4.4L64,29.7C63.8,30,63.5,30.2,63.1,30.2z"/>
	</g>
	<g id="Group_946_2_" transform="translate(478.375 475.792)">
		<g id="Ellipse_28-3_1_">
			<circle class="st2" cx="-424.5" cy="-458.5" r="10.5"/>
			<path class="st1" d="M-424.5-447c-6.3,0-11.5-5.2-11.5-11.5s5.2-11.5,11.5-11.5c6.3,0,11.5,5.2,11.5,11.5S-418.1-447-424.5-447z
				 M-424.5-468c-5.2,0-9.5,4.3-9.5,9.5c0,5.2,4.3,9.5,9.5,9.5c5.2,0,9.5-4.3,9.5-9.5C-415-463.8-419.2-468-424.5-468z"/>
		</g>
		<g id="Path_901-3_1_">
			<path class="st0" d="M-424.8-453.2h0.5c0.2,0,0.3,0,0.5-0.1c0.1-0.1,0.1-0.2,0.1-0.4v-0.7h0.5c0.7,0,1.4-0.2,2-0.7
				c0.5-0.5,0.7-1.1,0.7-1.8c0.1-0.9-0.5-1.7-1.4-2c0.3-0.1,0.6-0.4,0.8-0.7c0.2-0.3,0.3-0.7,0.3-1.1c0-0.6-0.2-1.3-0.7-1.7
				c-0.5-0.4-1.2-0.6-1.9-0.6h-0.5v-0.8c0-0.2,0-0.3-0.1-0.4c-0.1-0.1-0.2-0.1-0.4-0.1h-0.6c-0.2,0-0.3,0-0.4,0.1
				c-0.1,0.1-0.1,0.2-0.1,0.4v0.7h-1.6c-0.2,0-0.3,0-0.4,0.1c0,0.2-0.1,0.3-0.1,0.4v7.6c0,0.2,0,0.3,0.1,0.4
				c0.1,0.1,0.2,0.1,0.4,0.1h1.8v0.7c0,0.2,0,0.3,0.1,0.3C-425.1-453.3-424.9-453.2-424.8-453.2z M-425.8-459.3v-2.4h2.3
				c0.4,0,0.7,0.1,1,0.3c0.2,0.2,0.3,0.6,0.3,0.9c0,0.3-0.1,0.6-0.3,0.9c-0.3,0.2-0.6,0.3-1,0.3L-425.8-459.3z M-425.8-455.6v-2.6
				h2.3c0.4,0,0.8,0.1,1.1,0.3c0.3,0.2,0.4,0.6,0.4,1c0,0.3-0.1,0.6-0.3,0.9c-0.3,0.2-0.6,0.4-1,0.4L-425.8-455.6L-425.8-455.6z"/>
		</g>
	</g>
	<g>
		<line class="st3" x1="38.5" y1="38.4" x2="38.6" y2="38.4"/>
	</g>
	<g>
		<path class="st0" d="M54.4,38.9H27.1c-0.3,0-0.5-0.2-0.5-0.5s0.2-0.5,0.5-0.5h27.3c0.3,0,0.5,0.2,0.5,0.5S54.7,38.9,54.4,38.9z"/>
	</g>
	<g>
		<path class="st0" d="M47,52.2H34.5c-0.3,0-0.6-0.3-0.6-0.6v-4.8c0-0.3,0.3-0.6,0.6-0.6H47c0.3,0,0.6,0.3,0.6,0.6v4.8
			C47.5,51.9,47.3,52.2,47,52.2z"/>
	</g>
	<g>
		<path class="st1" d="M15.4,47.8v3.1c0,0,0.1,1.3,1.8,1.5s5.9,0,5.9,0s1-0.6,1.1-1.6c0-1-1-1.3-1-1.3L19,49.2l-1.6-0.8l-1.4-1
			L15.4,47.8z"/>
	</g>
	<g>
		<path class="st1" d="M66.2,47.8v3.1c0,0-0.1,1.3-1.8,1.5c-1.8,0.2-5.9,0-5.9,0s-1-0.6-1.1-1.6c0-1,1-1.3,1-1.3l4.3-0.2l1.6-0.8
			l1.4-1L66.2,47.8z"/>
	</g>
	<g>
		<path class="st0" d="M29,40.9h-7.1c-0.8,0-1.5-0.7-1.5-1.5v-2c0-0.8,0.7-1.5,1.5-1.5H27c0.8,0,3.5,1.7,3.5,2.5v1
			C30.5,40.2,29.8,40.9,29,40.9z"/>
	</g>
	<g>
		<path class="st0" d="M60.1,40.9h-7.1c-0.8,0-1.5-0.7-1.5-1.5v-1c0-0.8,2.7-2.5,3.5-2.5h5.1c0.8,0,1.5,0.7,1.5,1.5v2
			C61.6,40.2,60.9,40.9,60.1,40.9z"/>
	</g>
</g>
</svg>
