<?xml version="1.0" encoding="utf-8"?>
<!-- Generator: Adobe Illustrator 25.2.3, SVG Export Plug-In . SVG Version: 6.00 Build 0)  -->
<svg version="1.1" id="Layer_1" xmlns="http://www.w3.org/2000/svg" xmlns:xlink="http://www.w3.org/1999/xlink" x="0px" y="0px"
	 viewBox="0 0 80 60" style="enable-background:new 0 0 80 60;" xml:space="preserve">
<style type="text/css">
	.st0{display:none;}
	.st1{display:inline;}
	.st2{fill:#F1898C;}
	.st3{fill:#D03134;}
	.st4{fill:#FFFFFF;}
	.st5{fill:none;}
	.st6{fill:#F08B8F;}
	.st7{fill:#CF3339;}
</style>
<g class="st0">
	<g class="st1">
		<path class="st2" d="M62.7,30.2C62.6,30.2,62.6,30.2,62.7,30.2l-6.3-0.3c-10.3-0.5-20.8-0.5-31.1,0l-5.9,0.3c-0.5,0-1-0.4-1-1
			s0.4-1,1-1l5.9-0.3c10.4-0.5,20.9-0.5,31.3,0l6.3,0.3c0.6,0,1,0.5,1,1C63.6,29.8,63.2,30.2,62.7,30.2z"/>
	</g>
	<g class="st1">
		<path class="st3" d="M40.8,50h-21c-1.6,0-3.1-0.8-3.9-2.2c-2.8-4.6-2.4-12.7-2.4-13.1c0-1.1,0.4-2.3,1.2-3.2l0.1-0.1l3.8-3.3
			l3.7-7.8c0.7-1.5,2.1-2.6,3.8-2.8c2.4-0.4,7.4-1.2,14.7-1.2c0.6,0,1,0.4,1,1s-0.4,1-1,1c-7.2,0-12.1,0.8-14.4,1.2
			c-1,0.2-1.8,0.8-2.3,1.7l-3.8,8c-0.1,0.1-0.1,0.2-0.2,0.3l-3.9,3.4c-0.4,0.5-0.7,1.2-0.7,1.9c0,0.1-0.3,7.9,2.1,12
			c0.4,0.7,1.3,1.2,2.1,1.2h21c0.6,0,1,0.4,1,1S41.3,50,40.8,50z"/>
	</g>
	<g class="st1">
		<path class="st3" d="M61.8,50h-21c-0.6,0-1-0.4-1-1s0.4-1,1-1h21c0.9,0,1.7-0.5,2.1-1.2c2.5-4.1,2.2-11.9,2.2-12
			c0-0.7-0.2-1.4-0.7-1.9l-3.9-3.4c-0.1-0.1-0.2-0.2-0.2-0.3l-3.8-8c-0.4-0.9-1.3-1.5-2.3-1.7c-2.3-0.4-7.2-1.2-14.4-1.2
			c-0.6,0-1-0.4-1-1s0.4-1,1-1c7.4,0,12.3,0.8,14.7,1.2c1.6,0.3,3,1.3,3.8,2.8l3.7,7.8l3.8,3.3l0.1,0.1c0.8,0.9,1.2,2.1,1.2,3.2
			c0,0.3,0.4,8.4-2.4,13C64.8,49.1,63.3,50,61.8,50z"/>
	</g>
	<g class="st1">
		<path class="st3" d="M22.7,54h-5.5c-1.9,0-3.4-1.5-3.4-3.4v-9.3c0-0.6,0.4-1,1-1s1,0.4,1,1v9.3c0,0.7,0.6,1.4,1.4,1.4h5.5
			c0.5,0,0.8-0.4,0.8-0.8V49c0-0.6,0.4-1,1-1s1,0.4,1,1v2.2C25.5,52.8,24.3,54,22.7,54z"/>
	</g>
	<g class="st1">
		<path class="st3" d="M64.3,54h-5.5c-1.6,0-2.8-1.3-2.8-2.8V49c0-0.6,0.4-1,1-1s1,0.4,1,1v2.2c0,0.5,0.4,0.8,0.8,0.8h5.5
			c0.7,0,1.4-0.6,1.4-1.4v-9.3c0-0.6,0.4-1,1-1s1,0.4,1,1v9.3C67.7,52.5,66.2,54,64.3,54z"/>
	</g>
	<g class="st1">
		<path class="st3" d="M18.4,30.2c-0.3,0-0.7-0.2-0.9-0.5L17,28.8h-4.4c-0.6,0-1-0.4-1-1v-1.4c0-0.6,0.4-1,1-1h4.2
			c0.4,0,0.7,0.2,0.9,0.5l0.8,1.4l0,0l0.8,1.4c0.3,0.5,0.1,1.1-0.4,1.4C18.7,30.1,18.5,30.2,18.4,30.2z"/>
	</g>
	<g class="st1">
		<path class="st3" d="M63.1,30.2c-0.2,0-0.3,0-0.5-0.1c-0.5-0.3-0.6-0.9-0.4-1.4l0.8-1.4c0,0,0,0,0-0.1l0.8-1.4
			c0.2-0.3,0.5-0.5,0.9-0.5H69c0.6,0,1,0.4,1,1v1.4c0,0.6-0.4,1-1,1h-4.4l-0.6,1C63.8,30,63.5,30.2,63.1,30.2z"/>
	</g>
	<g id="Group_946_2_" transform="translate(478.375 475.792)" class="st1">
		<g id="Ellipse_28-3_1_">
			<circle class="st4" cx="-424.5" cy="-458.5" r="10.5"/>
			<path class="st3" d="M-424.5-447c-6.3,0-11.5-5.2-11.5-11.5s5.2-11.5,11.5-11.5s11.5,5.2,11.5,11.5S-418.1-447-424.5-447z
				 M-424.5-468c-5.2,0-9.5,4.3-9.5,9.5s4.3,9.5,9.5,9.5s9.5-4.3,9.5-9.5C-415-463.8-419.2-468-424.5-468z"/>
		</g>
		<g id="Path_901-3_1_">
			<path class="st2" d="M-424.8-453.2h0.5c0.2,0,0.3,0,0.5-0.1c0.1-0.1,0.1-0.2,0.1-0.4v-0.7h0.5c0.7,0,1.4-0.2,2-0.7
				c0.5-0.5,0.7-1.1,0.7-1.8c0.1-0.9-0.5-1.7-1.4-2c0.3-0.1,0.6-0.4,0.8-0.7c0.2-0.3,0.3-0.7,0.3-1.1c0-0.6-0.2-1.3-0.7-1.7
				c-0.5-0.4-1.2-0.6-1.9-0.6h-0.5v-0.8c0-0.2,0-0.3-0.1-0.4s-0.2-0.1-0.4-0.1h-0.6c-0.2,0-0.3,0-0.4,0.1s-0.1,0.2-0.1,0.4v0.7h-1.6
				c-0.2,0-0.3,0-0.4,0.1c0,0.2-0.1,0.3-0.1,0.4v7.6c0,0.2,0,0.3,0.1,0.4s0.2,0.1,0.4,0.1h1.8v0.7c0,0.2,0,0.3,0.1,0.3
				C-425.1-453.3-424.9-453.2-424.8-453.2z M-425.8-459.3v-2.4h2.3c0.4,0,0.7,0.1,1,0.3c0.2,0.2,0.3,0.6,0.3,0.9s-0.1,0.6-0.3,0.9
				c-0.3,0.2-0.6,0.3-1,0.3L-425.8-459.3z M-425.8-455.6v-2.6h2.3c0.4,0,0.8,0.1,1.1,0.3c0.3,0.2,0.4,0.6,0.4,1
				c0,0.3-0.1,0.6-0.3,0.9c-0.3,0.2-0.6,0.4-1,0.4L-425.8-455.6L-425.8-455.6z"/>
		</g>
	</g>
	<g class="st1">
		<line class="st5" x1="38.5" y1="38.4" x2="38.6" y2="38.4"/>
	</g>
	<g class="st1">
		<path class="st2" d="M54.4,38.9H27.1c-0.3,0-0.5-0.2-0.5-0.5s0.2-0.5,0.5-0.5h27.3c0.3,0,0.5,0.2,0.5,0.5S54.7,38.9,54.4,38.9z"/>
	</g>
	<g class="st1">
		<path class="st2" d="M47,52.2H34.5c-0.3,0-0.6-0.3-0.6-0.6v-4.8c0-0.3,0.3-0.6,0.6-0.6H47c0.3,0,0.6,0.3,0.6,0.6v4.8
			C47.5,51.9,47.3,52.2,47,52.2z"/>
	</g>
	<g class="st1">
		<path class="st3" d="M15.4,47.8v3.1c0,0,0.1,1.3,1.8,1.5s5.9,0,5.9,0s1-0.6,1.1-1.6c0-1-1-1.3-1-1.3L19,49.2l-1.6-0.8l-1.4-1
			L15.4,47.8z"/>
	</g>
	<g class="st1">
		<path class="st3" d="M66.2,47.8v3.1c0,0-0.1,1.3-1.8,1.5c-1.8,0.2-5.9,0-5.9,0s-1-0.6-1.1-1.6c0-1,1-1.3,1-1.3l4.3-0.2l1.6-0.8
			l1.4-1L66.2,47.8z"/>
	</g>
	<g class="st1">
		<path class="st2" d="M29,40.9h-7.1c-0.8,0-1.5-0.7-1.5-1.5v-2c0-0.8,0.7-1.5,1.5-1.5H27c0.8,0,3.5,1.7,3.5,2.5v1
			C30.5,40.2,29.8,40.9,29,40.9z"/>
	</g>
	<g class="st1">
		<path class="st2" d="M60.1,40.9H53c-0.8,0-1.5-0.7-1.5-1.5v-1c0-0.8,2.7-2.5,3.5-2.5h5.1c0.8,0,1.5,0.7,1.5,1.5v2
			C61.6,40.2,60.9,40.9,60.1,40.9z"/>
	</g>
</g>
<g>
	<path class="st6" d="M29.5,25.1h2.2c0.6,0,1.1,0.5,1.1,1.1v0c0,0.6-0.5,1.1-1.1,1.1h-2.2c-0.6,0-1.1-0.5-1.1-1.1v0
		C28.4,25.6,28.9,25.1,29.5,25.1z"/>
	<path class="st6" d="M29.5,20.7h2.2c0.6,0,1.1,0.5,1.1,1.1v0c0,0.6-0.5,1.1-1.1,1.1h-2.2c-0.6,0-1.1-0.5-1.1-1.1v0
		C28.4,21.2,28.9,20.7,29.5,20.7z"/>
	<path class="st7" d="M41.5,3.3h-5.6c-3-2.9-7.7-2.9-10.7,0h-8.8c-0.6,0-1.1,0.5-1.1,1.1v1.1h-2.9c-0.6,0-1.1,0.5-1.1,1.1l0,0
		c0,0.6,0.5,1.1,1.1,1.1h2.8v1.1c0,0.5,0.4,1,0.9,1.1l7.2,1.4c0.4,1.1,1,2.1,1.9,2.9h-2.4c-4.8,0-8.6,3.9-8.6,8.6v22.9
		c0,2.5,2,4.5,4.5,4.5H24v1.9c-0.1,3.3,2.4,6.2,5.7,6.7c3.6,0.5,6.9-2,7.4-5.6c0-0.3,0.1-0.6,0.1-0.9v-2.2h5.3c2.5,0,4.5-2,4.5-4.5
		V22.8c0-4.8-3.9-8.6-8.6-8.6h-2.4c0.9-0.8,1.5-1.8,1.9-2.9L45,9.8c0.5-0.1,0.9-0.6,0.9-1.1V7.6h2.8c0.6,0,1.1-0.5,1.1-1.1
		c0,0,0,0,0,0l0,0c0-0.6-0.5-1.1-1.1-1.1l0,0h-2.8V4.4c0-0.6-0.5-1.1-1.1-1.1H41.5z M23,8.7v0.2l-5.5-1.1V5.4h6.2
		C23.2,6.5,23,7.6,23,8.7z M35,52.4c-0.3,2.4-2.5,4.1-4.9,3.8c-2-0.2-3.6-1.8-3.8-3.8v-7.6H35V52.4z M23,42.6v-3.3
		c-0.1-4.2,3.2-7.8,7.4-7.9s7.8,3.2,7.9,7.4c0,0.2,0,0.3,0,0.5v3.3H23z M38.3,16.4c3.6,0,6.4,2.9,6.4,6.4v22.9c0,1.3-1,2.3-2.3,2.3
		c0,0,0,0,0,0h-5.3v-3.3h2.2c0.6,0,1.1-0.4,1.1-1c0,0,0-0.1,0-0.1v-4.4c0-5.4-4.4-9.8-9.8-9.8s-9.8,4.4-9.8,9.8v4.4
		c0,0.6,0.4,1.1,1,1.1c0,0,0.1,0,0.1,0H24v3.3h-5.3c-1.3,0-2.3-1-2.3-2.3V22.8c0-3.5,2.9-6.4,6.4-6.4H38.3z M30.6,14.2
		c-3,0-5.5-2.4-5.5-5.5s2.4-5.5,5.5-5.5c3,0,5.5,2.4,5.5,5.5c0,0,0,0,0,0c0,3-2.4,5.4-5.3,5.5C30.7,14.2,30.6,14.2,30.6,14.2z
		 M43.7,7.8l-5.5,1.1V8.7c0-1.1-0.2-2.3-0.8-3.3h6.2V7.8z"/>
	<path class="st3" d="M26.2,44.8H24v7.4c-0.1,3.3,2.4,6.2,5.7,6.7c3.6,0.5,6.9-2,7.4-5.6c0-0.3,0.1-0.6,0.1-0.9v-7.6H26.2z"/>
	<g id="Group_946">
		<g id="Ellipse_28-3">
			<circle class="st4" cx="54.8" cy="27.3" r="12.6"/>
			<path class="st3" d="M54.8,41.1c-7.6,0-13.8-6.2-13.8-13.8s6.2-13.8,13.8-13.8s13.8,6.2,13.8,13.8c0,0,0,0,0,0
				C68.6,34.9,62.4,41.1,54.8,41.1z M54.8,15.9c-6.3,0-11.4,5.1-11.4,11.4s5.1,11.4,11.4,11.4s11.4-5.1,11.4-11.4
				c0-6.3-5-11.4-11.3-11.4C54.9,15.9,54.8,15.9,54.8,15.9z"/>
		</g>
		<g id="Path_901-3">
			<path class="st2" d="M54.4,33.7H55c0.2,0,0.4,0,0.6-0.1c0.1-0.1,0.1-0.2,0.1-0.5v-0.8h0.6c0.9,0,1.7-0.3,2.4-0.9
				c0.6-0.6,0.9-1.4,0.9-2.2c0.1-1.1-0.6-2.1-1.7-2.4c0.4-0.2,0.7-0.5,1-0.9c0.2-0.4,0.4-0.9,0.4-1.3c0-0.8-0.3-1.5-0.9-2
				c-0.7-0.5-1.5-0.7-2.3-0.7h-0.6v-1c0-0.2,0-0.4-0.1-0.5c-0.1-0.1-0.2-0.1-0.5-0.1h-0.7c-0.2,0-0.4,0-0.5,0.1
				c-0.1,0.1-0.1,0.2-0.1,0.5v0.9h-1.9c-0.2,0-0.4,0-0.5,0.1C51,21.9,51,22.2,51,22.3v9.2c0,0.2,0,0.4,0.1,0.5
				c0.1,0.1,0.2,0.1,0.5,0.1h2.2V33c0,0.2,0,0.4,0.1,0.4C54,33.5,54.2,33.6,54.4,33.7z M53.2,26.3v-2.9H56c0.4,0,0.9,0.1,1.2,0.4
				c0.2,0.3,0.4,0.7,0.4,1.1c0,0.4-0.1,0.8-0.4,1.1c-0.4,0.2-0.8,0.4-1.2,0.4L53.2,26.3z M53.2,30.8v-3.1H56c0.5,0,0.9,0.1,1.3,0.4
				c0.3,0.3,0.5,0.7,0.5,1.2c0,0.4-0.1,0.8-0.4,1.1c-0.3,0.3-0.8,0.4-1.2,0.5L53.2,30.8z"/>
		</g>
	</g>
	<path class="st3" d="M24,44.8h13.1l0,0v10.7c0,1.9-1.6,3.5-3.5,3.5h-6.1c-1.9,0-3.5-1.6-3.5-3.5V44.8L24,44.8z"/>
</g>
</svg>
