<svg xmlns="http://www.w3.org/2000/svg" width="80" height="60" viewBox="0 0 80 60">
  <g id="Group_2223" data-name="Group 2223" transform="translate(-501 -502)">
    <rect id="Rectangle_2018" data-name="Rectangle 2018" width="80" height="60" transform="translate(501 502)" fill="none"/>
    <g id="Group_955" data-name="Group 955" transform="translate(49.62 43.979)">
      <g id="Group_953" data-name="Group 953" transform="translate(470.138 470.138)" opacity="0.3">
        <circle id="Ellipse_28" data-name="Ellipse 28" cx="13" cy="13" r="13" fill="#fff" stroke="#f08b8f" stroke-linejoin="round" stroke-miterlimit="10" stroke-width="2"/>
        <path id="Path_901" data-name="Path 901" d="M12,19.486h.607a.91.91,0,0,0,.607-.121c.121-.121.121-.243.121-.486v-.85h.607a3.309,3.309,0,0,0,2.43-.85,2.928,2.928,0,0,0,.85-2.187,2.379,2.379,0,0,0-1.7-2.43,2.251,2.251,0,0,0,.972-.85,2.449,2.449,0,0,0,.364-1.336,2.5,2.5,0,0,0-.85-2.065A3.5,3.5,0,0,0,13.7,7.579H13.1V6.607c0-.243,0-.364-.121-.486S12.731,6,12.488,6h-.729c-.243,0-.364,0-.486.121s-.121.243-.121.486v.85H9.207c-.243,0-.364,0-.486.121,0,.243-.121.364-.121.486v9.355c0,.243,0,.364.121.486s.243.121.486.121h2.187v.85c0,.243,0,.364.121.364A.631.631,0,0,0,12,19.486Zm-1.336-7.533V9.037H13.46a1.613,1.613,0,0,1,1.215.364,1.485,1.485,0,0,1,.364,1.093,1.485,1.485,0,0,1-.364,1.093,1.613,1.613,0,0,1-1.215.364Zm0,4.617V13.29H13.46a2.182,2.182,0,0,1,1.336.364,1.409,1.409,0,0,1,.486,1.215,1.485,1.485,0,0,1-.364,1.093,1.856,1.856,0,0,1-1.215.486H10.665Z" transform="translate(0.634 0.075)" fill="#f08b8f"/>
      </g>
      <g id="Group_954" data-name="Group 954" transform="translate(486.611 478.476)" opacity="0.3">
        <circle id="Ellipse_28-2" data-name="Ellipse 28" cx="13" cy="13" r="13" fill="#fff" stroke="#cf3339" stroke-linejoin="round" stroke-miterlimit="10" stroke-width="2"/>
        <path id="Path_901-2" data-name="Path 901" d="M12,19.486h.607a.91.91,0,0,0,.607-.121c.121-.121.121-.243.121-.486v-.85h.607a3.309,3.309,0,0,0,2.43-.85,2.928,2.928,0,0,0,.85-2.187,2.379,2.379,0,0,0-1.7-2.43,2.251,2.251,0,0,0,.972-.85,2.449,2.449,0,0,0,.364-1.336,2.5,2.5,0,0,0-.85-2.065A3.5,3.5,0,0,0,13.7,7.579H13.1V6.607c0-.243,0-.364-.121-.486S12.731,6,12.488,6h-.729c-.243,0-.364,0-.486.121s-.121.243-.121.486v.85H9.207c-.243,0-.364,0-.486.121,0,.243-.121.364-.121.486v9.355c0,.243,0,.364.121.486s.243.121.486.121h2.187v.85c0,.243,0,.364.121.364A.631.631,0,0,0,12,19.486Zm-1.336-7.533V9.037H13.46a1.613,1.613,0,0,1,1.215.364,1.485,1.485,0,0,1,.364,1.093,1.485,1.485,0,0,1-.364,1.093,1.613,1.613,0,0,1-1.215.364Zm0,4.617V13.29H13.46a2.182,2.182,0,0,1,1.336.364,1.409,1.409,0,0,1,.486,1.215,1.485,1.485,0,0,1-.364,1.093,1.856,1.856,0,0,1-1.215.486H10.665Z" transform="translate(0.634 0.075)"/>
      </g>
      <g id="Group_946" data-name="Group 946" transform="translate(478.375 475.792)">
        <circle id="Ellipse_28-3" data-name="Ellipse 28" cx="13" cy="13" r="13" fill="#fff" stroke="#cf3339" stroke-linejoin="round" stroke-miterlimit="10" stroke-width="2"/>
        <path id="Path_901-3" data-name="Path 901" d="M12,19.486h.607a.91.91,0,0,0,.607-.121c.121-.121.121-.243.121-.486v-.85h.607a3.309,3.309,0,0,0,2.43-.85,2.928,2.928,0,0,0,.85-2.187,2.379,2.379,0,0,0-1.7-2.43,2.251,2.251,0,0,0,.972-.85,2.449,2.449,0,0,0,.364-1.336,2.5,2.5,0,0,0-.85-2.065A3.5,3.5,0,0,0,13.7,7.579H13.1V6.607c0-.243,0-.364-.121-.486S12.731,6,12.488,6h-.729c-.243,0-.364,0-.486.121s-.121.243-.121.486v.85H9.207c-.243,0-.364,0-.486.121,0,.243-.121.364-.121.486v9.355c0,.243,0,.364.121.486s.243.121.486.121h2.187v.85c0,.243,0,.364.121.364A.631.631,0,0,0,12,19.486Zm-1.336-7.533V9.037H13.46a1.613,1.613,0,0,1,1.215.364,1.485,1.485,0,0,1,.364,1.093,1.485,1.485,0,0,1-.364,1.093,1.613,1.613,0,0,1-1.215.364Zm0,4.617V13.29H13.46a2.182,2.182,0,0,1,1.336.364,1.409,1.409,0,0,1,.486,1.215,1.485,1.485,0,0,1-.364,1.093,1.856,1.856,0,0,1-1.215.486H10.665Z" transform="translate(0.634 0.075)" fill="#f08b8f"/>
      </g>
    </g>
  </g>
</svg>
