<svg width="29" height="28" viewBox="0 0 29 28" fill="none" xmlns="http://www.w3.org/2000/svg">
<path d="M18.9303 25.8637C19.7533 25.8403 20.5729 25.7491 21.3809 25.5912C22.7663 25.1781 23.9977 24.3625 24.9187 23.2482C25.8396 22.1339 26.4087 20.771 26.5536 19.3326C26.6899 15.9261 26.6899 12.5248 26.5536 9.25662C26.4568 7.41156 25.6532 5.67463 24.3096 4.4064C22.966 3.13816 21.1857 2.43602 19.3381 2.44572H10.2159C9.24296 2.29352 8.24671 2.43738 7.35655 2.85863C5.99948 3.3935 4.84016 4.33348 4.03632 5.55068C3.23249 6.76788 2.8232 8.20318 2.86412 9.66127V18.3757C2.88757 19.1986 2.97872 20.0183 3.13664 20.8263C3.5499 22.2124 4.36597 23.4444 5.48113 24.3657C6.59628 25.2869 7.96016 25.8558 9.39941 26C11.1728 26 17.5729 25.8637 18.9303 25.8637Z" fill="url(#paint0_linear_498_4296)"/>
<path d="M8.71875 14.1578C8.74845 15.7137 9.37088 17.1997 10.459 18.3124C11.5471 19.4251 13.0188 20.0805 14.5738 20.1449C16.1368 20.138 17.6358 19.5229 18.7533 18.4301C19.8708 17.3373 20.5191 15.8524 20.5609 14.2899C20.5321 12.7345 19.911 11.2488 18.8244 10.1357C17.7377 9.02253 16.2673 8.36587 14.7131 8.29964C13.1481 8.30395 11.6464 8.91831 10.5271 10.0122C9.40776 11.106 8.75905 12.5932 8.71875 14.1578ZM19.6112 7.7577C19.6116 8.05367 19.6997 8.34289 19.8644 8.58885C20.029 8.8348 20.2629 9.02646 20.5363 9.13963C20.8098 9.2528 21.1107 9.28241 21.401 9.22472C21.6913 9.16702 21.958 9.02462 22.1674 8.81547C22.3769 8.60633 22.5196 8.33983 22.5777 8.04961C22.6358 7.75939 22.6066 7.45846 22.4938 7.18482C22.3811 6.91118 22.1897 6.67709 21.944 6.5121C21.6983 6.34712 21.4092 6.25863 21.1132 6.25781C20.716 6.26024 20.3356 6.41898 20.0546 6.69968C19.7735 6.98038 19.6142 7.36047 19.6112 7.7577Z" fill="#757575"/>
<path d="M8.71875 14.1547C8.73149 12.9831 9.09139 11.8416 9.75293 10.8746C10.4145 9.90764 11.3479 9.15856 12.4353 8.72214C13.5226 8.28573 14.7149 8.18158 15.8614 8.42288C17.0079 8.66418 18.0571 9.24008 18.8763 10.0777C19.6955 10.9154 20.2478 11.9772 20.4635 13.1288C20.6792 14.2804 20.5484 15.4701 20.0879 16.5474C19.6273 17.6247 18.8576 18.5413 17.8761 19.1811C16.8945 19.8209 15.7453 20.1552 14.5738 20.1418C13.0269 20.0541 11.5686 19.3913 10.4853 18.2836C9.40198 17.1758 8.7719 15.7032 8.71875 14.1547ZM14.7059 10.3425C13.7021 10.3646 12.7456 10.7735 12.0359 11.4837C11.3262 12.194 10.9181 13.1508 10.8968 14.1547C10.9181 15.1585 11.3262 16.1153 12.0359 16.8256C12.7456 17.5359 13.7021 17.9447 14.7059 17.9668C15.7115 17.9473 16.6706 17.5397 17.3825 16.8291C18.0944 16.1186 18.5039 15.1602 18.5253 14.1547C18.5042 13.1489 18.0948 12.1903 17.3829 11.4795C16.671 10.7688 15.7117 10.361 14.7059 10.3415V10.3425Z" fill="white"/>
<path d="M19.6104 7.75557C19.6029 7.55433 19.6361 7.35365 19.708 7.16553C19.7798 6.97741 19.8889 6.80571 20.0286 6.66069C20.1683 6.51568 20.3359 6.40033 20.5212 6.32154C20.7065 6.24276 20.9058 6.20215 21.1072 6.20215C21.3086 6.20215 21.5079 6.24276 21.6932 6.32154C21.8785 6.40033 22.0461 6.51568 22.1858 6.66069C22.3255 6.80571 22.4346 6.97741 22.5064 7.16553C22.5783 7.35365 22.6115 7.55433 22.604 7.75557C22.5674 8.12717 22.3939 8.47189 22.1173 8.72266C21.8406 8.97343 21.4806 9.11233 21.1072 9.11233C20.7338 9.11233 20.3738 8.97343 20.0971 8.72266C19.8204 8.47189 19.647 8.12717 19.6104 7.75557Z" fill="white"/>
<path d="M14.7087 10.3428C15.713 10.3641 16.6703 10.7726 17.3806 11.4829C18.091 12.1933 18.4995 13.1506 18.5208 14.1549C18.4995 15.1593 18.091 16.1166 17.3806 16.8269C16.6703 17.5373 15.713 17.9458 14.7087 17.9671C13.7043 17.9458 12.747 17.5373 12.0367 16.8269C11.3263 16.1166 10.9178 15.1593 10.8965 14.1549C10.8957 13.6541 10.9937 13.158 11.185 12.6951C11.3763 12.2322 11.6571 11.8117 12.0112 11.4575C12.3654 11.1034 12.786 10.8226 13.2488 10.6313C13.7117 10.44 14.2078 10.342 14.7087 10.3428Z" fill="#FFA54D"/>
<defs>
<linearGradient id="paint0_linear_498_4296" x1="2.77344" y1="5.44531" x2="24.2734" y2="25.9453" gradientUnits="userSpaceOnUse">
<stop stop-color="#FFD154"/>
<stop offset="0.364583" stop-color="#FF6240"/>
<stop offset="0.833333" stop-color="#CA3A9B"/>
</linearGradient>
</defs>
</svg>
