<svg xmlns="http://www.w3.org/2000/svg" xmlns:xlink="http://www.w3.org/1999/xlink" width="106" height="80" viewBox="0 0 106 80">
  <defs>
    <radialGradient id="radial-gradient" cx="0.533" cy="0.517" r="0.464" gradientTransform="translate(0 0)" gradientUnits="objectBoundingBox">
      <stop offset="0" stop-color="#fbf3f3"/>
      <stop offset="0.299" stop-color="#faefef"/>
      <stop offset="0.572" stop-color="#f8e4e4"/>
      <stop offset="0.836" stop-color="#f4d1d3"/>
      <stop offset="1" stop-color="#f2c2c4"/>
    </radialGradient>
    <linearGradient id="linear-gradient" y1="0.5" x2="1" y2="0.5" gradientUnits="objectBoundingBox">
      <stop offset="0" stop-color="#e51a24"/>
      <stop offset="1" stop-color="#b7141d"/>
    </linearGradient>
    <linearGradient id="linear-gradient-6" x1="-3.07" y1="0.5" x2="1.734" y2="0.5" xlink:href="#linear-gradient"/>
    <linearGradient id="linear-gradient-7" x1="-11.349" y1="0.5" x2="4.596" y2="0.5" xlink:href="#linear-gradient"/>
    <linearGradient id="linear-gradient-8" x1="-0.281" y1="0.5" x2="0.706" y2="0.5" xlink:href="#linear-gradient"/>
  </defs>
  <g id="Group_49" data-name="Group 49" transform="translate(-2494.028 -798)">
    <rect id="Rectangle_31" data-name="Rectangle 31" width="106" height="80" transform="translate(2494.028 798)" fill="none"/>
    <g id="Group_48" data-name="Group 48">
      <path id="Path_313" data-name="Path 313" d="M2563.416,807.072a34.428,34.428,0,1,0,34.426,34.428A34.428,34.428,0,0,0,2563.416,807.072Z" fill-rule="evenodd" fill="url(#radial-gradient)"/>
      <g id="Group_42" data-name="Group 42">
        <g id="Group_37" data-name="Group 37">
          <path id="Path_314" data-name="Path 314" d="M2536.716,829.226h-16.808a2.07,2.07,0,1,1,0-4.141h16.808a2.07,2.07,0,1,1,0,4.141Z" fill="url(#linear-gradient)"/>
        </g>
        <g id="Group_38" data-name="Group 38">
          <path id="Path_315" data-name="Path 315" d="M2536.716,857.8h-16.808a2.07,2.07,0,1,1,0-4.141h16.808a2.07,2.07,0,1,1,0,4.141Z" fill="url(#linear-gradient)"/>
        </g>
        <g id="Group_39" data-name="Group 39">
          <path id="Path_316" data-name="Path 316" d="M2525.585,836.457h-20.2a2.071,2.071,0,1,1,0-4.142h20.2a2.071,2.071,0,0,1,0,4.142Z" fill="url(#linear-gradient)"/>
        </g>
        <g id="Group_40" data-name="Group 40">
          <path id="Path_317" data-name="Path 317" d="M2526.847,843.457H2496.1a2.07,2.07,0,1,1,0-4.141h30.748a2.07,2.07,0,0,1,0,4.141Z" fill="url(#linear-gradient)"/>
        </g>
        <g id="Group_41" data-name="Group 41">
          <path id="Path_318" data-name="Path 318" d="M2525.585,850.8h-20.2a2.07,2.07,0,1,1,0-4.141h20.2a2.07,2.07,0,0,1,0,4.141Z" fill="url(#linear-gradient)"/>
        </g>
      </g>
      <g id="Group_47" data-name="Group 47">
        <g id="Group_43" data-name="Group 43">
          <path id="Path_319" data-name="Path 319" d="M2568.2,802.141h-9.6a2.07,2.07,0,1,1,0-4.141h9.6a2.07,2.07,0,1,1,0,4.141Z" fill="url(#linear-gradient-6)"/>
        </g>
        <g id="Group_44" data-name="Group 44">
          <path id="Path_320" data-name="Path 320" d="M2563.4,808.836a2.071,2.071,0,0,1-2.07-2.071v-5.834a2.071,2.071,0,0,1,4.141,0v5.834A2.071,2.071,0,0,1,2563.4,808.836Z" fill="url(#linear-gradient-7)"/>
        </g>
        <g id="Group_45" data-name="Group 45">
          <path id="Path_321" data-name="Path 321" d="M2563.531,878a36.533,36.533,0,0,1-30.017-15.733,2.07,2.07,0,1,1,3.4-2.358,32.359,32.359,0,1,0,.462-37.466,2.071,2.071,0,1,1-3.345-2.442,36.5,36.5,0,1,1,29.5,58Z" fill="url(#linear-gradient-8)"/>
        </g>
        <g id="Group_46" data-name="Group 46">
          <path id="Path_322" data-name="Path 322" d="M2578.832,858.721a2.064,2.064,0,0,1-1.464-.606l-15.607-15.609a2.071,2.071,0,0,1-.606-1.464V817.4a2.07,2.07,0,0,1,4.141,0v22.784l15,15a2.071,2.071,0,0,1-1.465,3.535Z" fill="url(#linear-gradient)"/>
        </g>
      </g>
    </g>
  </g>
</svg>
