<svg xmlns="http://www.w3.org/2000/svg" xmlns:xlink="http://www.w3.org/1999/xlink" width="106.5" height="81.05" viewBox="0 0 106.5 81.05">
  <defs>
    <linearGradient id="linear-gradient" y1="0.5" x2="1" y2="0.5" gradientUnits="objectBoundingBox">
      <stop offset="0" stop-color="#cf3531"/>
      <stop offset="1" stop-color="#a52927"/>
    </linearGradient>
    <radialGradient id="radial-gradient" cx="-0.163" cy="0.555" r="0.815" gradientTransform="translate(-0.063) scale(1.125 1)" gradientUnits="objectBoundingBox">
      <stop offset="0" stop-color="#fbf3f3"/>
      <stop offset="0.299" stop-color="#faefef"/>
      <stop offset="0.572" stop-color="#f8e4e4"/>
      <stop offset="0.836" stop-color="#f4d1d3"/>
      <stop offset="1" stop-color="#f2c2c4"/>
    </radialGradient>
  </defs>
  <g id="Group_146" data-name="Group 146" transform="translate(221.5 -372.45)">
    <g id="Group_145" data-name="Group 145" transform="translate(-781.307 -425)">
      <g id="Group_125" data-name="Group 125">
        <path id="Path_1037" data-name="Path 1037" d="M595.795,878a2.073,2.073,0,0,1-.845-.18l-2.687-1.2c-12.381-5.533-21.319-14.926-26.567-27.917-3.711-9.189-5.522-20.215-5.381-32.772v-.043l.223-6.97a2.071,2.071,0,0,1,2.314-1.99c.165.019,16.918,1.822,31.871-8.557a2.071,2.071,0,0,1,2.364,0c.156.109,15.9,10.878,31.874,8.156a2.071,2.071,0,0,1,2.408,1.837,105.218,105.218,0,0,1-2.276,31.449v.006c-4.405,17.929-14.705,30.69-29.788,36.9l-2.722,1.121A2.066,2.066,0,0,1,595.795,878Zm-31.339-62c-.132,12,1.577,22.479,5.08,31.153,4.833,11.964,13.047,20.606,24.416,25.687l1.876.838,1.9-.783c13.811-5.689,23.265-17.467,27.342-34.059a102.5,102.5,0,0,0,2.326-27.915,37.172,37.172,0,0,1-3.853.2c-12.775,0-23.994-6.3-27.619-8.561a55.179,55.179,0,0,1-31.314,8.637Zm62.626,23.327h0Z" stroke="rgba(0,0,0,0)" stroke-width="1" fill="url(#linear-gradient)"/>
      </g>
      <path id="Path_1038" data-name="Path 1038" d="M594.778,870.99c-10.874-4.86-18.735-13.136-23.365-24.6-3.405-8.43-5.064-18.656-4.932-30.394l.03-2.69,2.69-.039c.131,0,13.553-.3,25.18-7.086l1.4-.819,1.4.829c11.436,6.784,25.068,7.28,25.2,7.284l2.433.075.233,2.423a73.858,73.858,0,0,1-1.945,22.372c-3.916,15.942-12.958,27.24-26.148,32.674l-1.1.451Z" stroke="rgba(0,0,0,0)" stroke-width="1" fill="url(#radial-gradient)"/>
      <g id="Group_126" data-name="Group 126">
        <path id="Path_1039" data-name="Path 1039" d="M591.265,848.163a2.341,2.341,0,0,1-1.644-.673l-7.792-7.662a2.343,2.343,0,0,1,3.286-3.341l6.234,6.129,19.79-17.512a2.343,2.343,0,1,1,3.106,3.51l-21.428,18.96A2.332,2.332,0,0,1,591.265,848.163Z" stroke="rgba(0,0,0,0)" stroke-width="1" fill="url(#linear-gradient)"/>
      </g>
    </g>
    <rect id="Rectangle_116" data-name="Rectangle 116" width="106" height="80" transform="translate(-221 373)" fill="none"/>
  </g>
</svg>
