<svg width="29" height="28" viewBox="0 0 29 28" fill="none" xmlns="http://www.w3.org/2000/svg">
<path d="M22.5681 25.5902C17.4466 26.1366 12.2815 26.1366 7.15998 25.5902C6.16543 25.4852 5.23693 25.0424 4.52927 24.3358C3.82161 23.6291 3.37755 22.7012 3.27113 21.7068C2.72473 16.5853 2.72473 11.4202 3.27113 6.29865C3.37615 5.3041 3.81891 4.3756 4.52558 3.66794C5.23224 2.96028 6.16012 2.51622 7.15453 2.4098C12.276 1.8634 17.4412 1.8634 22.5627 2.4098C23.5572 2.51483 24.4857 2.95758 25.1934 3.66425C25.901 4.37092 26.3451 5.2988 26.4515 6.2932C26.9979 11.4147 26.9979 16.5798 26.4515 21.7013C26.3465 22.6959 25.9037 23.6244 25.1971 24.3321C24.4904 25.0397 23.5625 25.4838 22.5681 25.5902Z" fill="#0472FE"/>
<path d="M9.98815 17.5975C10.8822 17.5975 11.7762 17.5975 12.6703 17.5975C12.8384 17.5975 12.8193 17.5782 12.8193 17.7516C12.8193 20.3713 12.8193 23.3764 12.8193 26H16.4757C16.4757 23.3764 16.4757 20.3713 16.4757 17.7477C16.4757 17.5782 16.4566 17.5975 16.6324 17.5975C17.4538 17.5975 18.2753 17.5975 19.1005 17.5975C19.2075 17.5975 19.2037 17.5975 19.2228 17.4934C19.3794 16.4494 19.5399 15.4092 19.6966 14.3651C19.7233 14.184 19.7233 14.184 19.5399 14.184C18.558 14.184 17.5761 14.184 16.5942 14.184C16.4833 14.184 16.4834 14.184 16.4795 14.0723C16.4795 14.0685 16.4795 14.0646 16.4795 14.0608C16.4795 13.375 16.4795 12.6854 16.4795 11.9996C16.4795 11.8378 16.491 11.676 16.5216 11.518C16.6476 10.8554 17.0182 10.4123 17.6678 10.2236C17.9161 10.1504 18.1683 10.1311 18.4243 10.1311C18.8637 10.1311 19.2992 10.1311 19.7386 10.1311C19.8723 10.1311 19.8609 10.1427 19.8609 10.0078C19.8609 9.12556 19.8609 8.24332 19.8609 7.36107C19.8609 7.3418 19.8609 7.32254 19.8609 7.30328C19.8647 7.25319 19.8456 7.23008 19.7921 7.22237C19.6545 7.20696 19.5208 7.17999 19.3871 7.16073C18.7987 7.08368 18.2065 7.02974 17.6143 7.00663C17.1061 6.98736 16.6018 7.00663 16.1051 7.11065C15.5129 7.23008 14.9627 7.45353 14.4698 7.81182C13.7745 8.32422 13.3274 9.01384 13.0753 9.83444C12.8957 10.4162 12.8308 11.0133 12.8308 11.6182C12.8308 12.435 12.8308 13.2517 12.8308 14.0723C12.8308 14.1917 12.8384 14.184 12.72 14.184C12.6932 14.184 12.6665 14.184 12.6397 14.184C11.7648 14.184 10.8898 14.184 10.0149 14.184C9.98433 14.184 9.95376 14.184 9.92319 14.184C9.88117 14.184 9.85824 14.2033 9.86206 14.2457C9.86206 14.2688 9.86206 14.2919 9.86206 14.315C9.86206 15.3629 9.86206 16.4109 9.86206 17.4588C9.86206 17.6013 9.84296 17.5936 9.99961 17.5936L9.98815 17.5975Z" fill="white"/>
</svg>
