<svg width="29" height="28" viewBox="0 0 29 28" fill="none" xmlns="http://www.w3.org/2000/svg">
<g clip-path="url(#clip0_498_4279)">
<path d="M18.3634 2H10.3671C5.94778 2 2.36523 5.58254 2.36523 10.0018V17.9982C2.36523 22.4175 5.94778 26 10.3671 26H18.3634C22.7827 26 26.3652 22.4175 26.3652 17.9982V10.0018C26.3652 5.58254 22.7827 2 18.3634 2Z" fill="#222221"/>
<mask id="path-2-inside-1_498_4279" fill="white">
<path d="M16.0523 12.7216L22.0115 5.94531H20.6014L15.4286 11.8301L11.2952 5.94531H6.53125L12.7781 14.8402L6.53125 21.9453H7.94138L13.4052 15.7318L17.7673 21.9453H22.5312L16.0523 12.7182V12.7216ZM14.1189 14.9216L13.4849 14.0368L8.44723 6.98599H10.6161L14.6802 12.6741L15.3143 13.5589L20.5979 20.9521H18.429L14.1189 14.9182V14.9216Z"/>
</mask>
<path d="M16.0523 12.7216L22.0115 5.94531H20.6014L15.4286 11.8301L11.2952 5.94531H6.53125L12.7781 14.8402L6.53125 21.9453H7.94138L13.4052 15.7318L17.7673 21.9453H22.5312L16.0523 12.7182V12.7216ZM14.1189 14.9216L13.4849 14.0368L8.44723 6.98599H10.6161L14.6802 12.6741L15.3143 13.5589L20.5979 20.9521H18.429L14.1189 14.9182V14.9216Z" fill="white"/>
<path d="M16.0523 12.7216H14.0523V18.0243L17.5541 14.0424L16.0523 12.7216ZM22.0115 5.94531L23.5134 7.26609L26.4338 3.94531H22.0115V5.94531ZM20.6014 5.94531V3.94531H19.6966L19.0993 4.62489L20.6014 5.94531ZM15.4286 11.8301L13.792 12.9796L15.2528 15.0594L16.9308 13.1505L15.4286 11.8301ZM11.2952 5.94531L12.9318 4.79576L12.3345 3.94531H11.2952V5.94531ZM6.53125 5.94531V3.94531H2.68271L4.89455 7.09476L6.53125 5.94531ZM12.7781 14.8402L14.2801 16.1608L15.3194 14.9788L14.4148 13.6908L12.7781 14.8402ZM6.53125 21.9453L5.02923 20.6247L2.10974 23.9453H6.53125V21.9453ZM7.94138 21.9453V23.9453H8.84596L9.4433 23.266L7.94138 21.9453ZM13.4052 15.7318L15.0421 14.5826L13.5817 12.5023L11.9033 14.4111L13.4052 15.7318ZM17.7673 21.9453L16.1304 23.0945L16.7277 23.9453H17.7673V21.9453ZM22.5312 21.9453V23.9453H26.3794L24.168 20.796L22.5312 21.9453ZM16.0523 12.7182L17.689 11.5689L14.0523 6.38951V12.7182H16.0523ZM14.1189 14.9216L12.4933 16.0866L16.1189 21.1459V14.9216H14.1189ZM13.4849 14.0368L11.8576 15.1995L11.8593 15.2018L13.4849 14.0368ZM8.44723 6.98599V4.98599H4.56024L6.81991 8.14867L8.44723 6.98599ZM10.6161 6.98599L12.2434 5.8233L11.6452 4.98599H10.6161V6.98599ZM14.6802 12.6741L13.0529 13.8368L13.0546 13.8391L14.6802 12.6741ZM15.3143 13.5589L16.9414 12.396L16.9399 12.3939L15.3143 13.5589ZM20.5979 20.9521V22.9521H24.4855L22.2251 19.7892L20.5979 20.9521ZM18.429 20.9521L16.8016 22.1146L17.3998 22.9521H18.429V20.9521ZM14.1189 14.9182L15.7464 13.7557L12.1189 8.67746V14.9182H14.1189ZM17.5541 14.0424L23.5134 7.26609L20.5097 4.62454L14.5504 11.4008L17.5541 14.0424ZM22.0115 3.94531H20.6014V7.94531H22.0115V3.94531ZM19.0993 4.62489L13.9265 10.5096L16.9308 13.1505L22.1036 7.26574L19.0993 4.62489ZM17.0652 10.6805L12.9318 4.79576L9.65859 7.09486L13.792 12.9796L17.0652 10.6805ZM11.2952 3.94531H6.53125V7.94531H11.2952V3.94531ZM4.89455 7.09476L11.1414 15.9897L14.4148 13.6908L8.16795 4.79587L4.89455 7.09476ZM11.2761 13.5196L5.02923 20.6247L8.03327 23.2659L14.2801 16.1608L11.2761 13.5196ZM6.53125 23.9453H7.94138V19.9453H6.53125V23.9453ZM9.4433 23.266L14.9071 17.0525L11.9033 14.4111L6.43947 20.6246L9.4433 23.266ZM11.7683 16.8809L16.1304 23.0945L19.4042 20.7962L15.0421 14.5826L11.7683 16.8809ZM17.7673 23.9453H22.5312V19.9453H17.7673V23.9453ZM24.168 20.796L17.689 11.5689L14.4155 13.8675L20.8945 23.0946L24.168 20.796ZM14.0523 12.7182V12.7216H18.0523V12.7182H14.0523ZM15.7446 13.7566L15.1106 12.8718L11.8593 15.2018L12.4933 16.0866L15.7446 13.7566ZM15.1122 12.8742L10.0745 5.82331L6.81991 8.14867L11.8576 15.1995L15.1122 12.8742ZM8.44723 8.98599H10.6161V4.98599H8.44723V8.98599ZM8.98882 8.14868L13.0529 13.8368L16.3075 11.5114L12.2434 5.8233L8.98882 8.14868ZM13.0546 13.8391L13.6886 14.7239L16.9399 12.3939L16.3059 11.5091L13.0546 13.8391ZM13.6871 14.7218L18.9708 22.115L22.2251 19.7892L16.9414 12.396L13.6871 14.7218ZM20.5979 18.9521H18.429V22.9521H20.5979V18.9521ZM20.0565 19.7896L15.7464 13.7557L12.4915 16.0807L16.8016 22.1146L20.0565 19.7896ZM12.1189 14.9182V14.9216H16.1189V14.9182H12.1189Z" fill="white" mask="url(#path-2-inside-1_498_4279)"/>
</g>
<defs>
<clipPath id="clip0_498_4279">
<rect width="24" height="24" fill="white" transform="translate(2.36523 2)"/>
</clipPath>
</defs>
</svg>
