<svg xmlns="http://www.w3.org/2000/svg" xmlns:xlink="http://www.w3.org/1999/xlink" width="106" height="80" viewBox="0 0 106 80">
  <defs>
    <linearGradient id="linear-gradient" y1="0.5" x2="1" y2="0.5" gradientUnits="objectBoundingBox">
      <stop offset="0" stop-color="#e51a24"/>
      <stop offset="1" stop-color="#b7141d"/>
    </linearGradient>
    <linearGradient id="linear-gradient-2" x1="0.5" y1="-0.036" x2="0.5" y2="1.776" gradientUnits="objectBoundingBox">
      <stop offset="0" stop-color="#fff4f4"/>
      <stop offset="1" stop-color="#ffc1c4"/>
    </linearGradient>
    <linearGradient id="linear-gradient-3" x1="0" y1="0.5" x2="1" y2="0.5" xlink:href="#linear-gradient-2"/>
    <linearGradient id="linear-gradient-4" y1="0.5" x2="1" y2="0.5" gradientUnits="objectBoundingBox">
      <stop offset="0" stop-color="#cf3531"/>
      <stop offset="1" stop-color="#a52927"/>
    </linearGradient>
  </defs>
  <g id="Group_36" data-name="Group 36" transform="translate(-1672.028 -798)">
    <rect id="Rectangle_30" data-name="Rectangle 30" width="106" height="80" transform="translate(1672.028 798)" fill="none"/>
    <g id="Group_35" data-name="Group 35">
      <g id="Group_32" data-name="Group 32">
        <path id="Path_308" data-name="Path 308" d="M1759.531,878a8.254,8.254,0,0,1-1.822-.2l-79.194-17.857a8.33,8.33,0,0,1-6.281-9.954l10.193-45.48a8.315,8.315,0,0,1,9.924-6.3l79.193,17.858a8.339,8.339,0,0,1,6.281,9.953h0L1767.632,871.5A8.324,8.324,0,0,1,1759.531,878Zm-69-76.127a4.455,4.455,0,0,0-4.336,3.48L1676,850.835a4.458,4.458,0,0,0,3.361,5.327l79.194,17.857a4.447,4.447,0,0,0,5.312-3.372l10.193-45.481a4.464,4.464,0,0,0-3.362-5.327L1691.5,801.982A4.418,4.418,0,0,0,1690.529,801.873Zm85.414,23.718h0Z" fill="url(#linear-gradient)"/>
      </g>
      <path id="Path_309" data-name="Path 309" d="M1771.989,814.692v46.616a6.384,6.384,0,0,1-6.374,6.394h-81.171a6.384,6.384,0,0,1-6.374-6.394V814.692a6.384,6.384,0,0,1,6.374-6.394h81.171A6.384,6.384,0,0,1,1771.989,814.692Z" fill="url(#linear-gradient-2)"/>
      <path id="Path_310" data-name="Path 310" d="M1771.989,814.692v46.616a6.384,6.384,0,0,1-6.374,6.394h-81.171a6.384,6.384,0,0,1-6.374-6.394V814.692a6.384,6.384,0,0,1,6.374-6.394h81.171A6.384,6.384,0,0,1,1771.989,814.692Z" fill="#df8387"/>
      <g id="Group_34" data-name="Group 34">
        <path id="Path_311" data-name="Path 311" d="M1734.772,831.81a36.038,36.038,0,0,0,15.756-4.445,36.783,36.783,0,0,0,15.756,4.569s2.25,23.706-15.677,31.114C1737.11,857,1734.649,842.8,1734.772,831.81Z" fill="url(#linear-gradient-3)"/>
        <g id="Group_33" data-name="Group 33">
          <path id="Path_312" data-name="Path 312" d="M1748.322,851.675a1.943,1.943,0,0,1-1.369-.562l-4.089-4.033a1.955,1.955,0,0,1,2.737-2.791l2.791,2.753,9.882-8.772a1.955,1.955,0,0,1,2.587,2.932l-11.246,9.982A1.944,1.944,0,0,1,1748.322,851.675Z" fill="url(#linear-gradient-4)"/>
        </g>
      </g>
    </g>
  </g>
</svg>
