<svg width="29" height="28" viewBox="0 0 29 28" fill="none" xmlns="http://www.w3.org/2000/svg">
<path d="M22.072 25.5902C16.9505 26.1366 11.7854 26.1366 6.66389 25.5902C5.66934 25.4852 4.74083 25.0424 4.03317 24.3358C3.32551 23.6291 2.88146 22.7012 2.77504 21.7068C2.22863 16.5853 2.22863 11.4202 2.77504 6.29865C2.88006 5.3041 3.32281 4.3756 4.02948 3.66794C4.73615 2.96028 5.66403 2.51622 6.65843 2.4098C11.78 1.8634 16.9451 1.8634 22.0666 2.4098C23.0611 2.51483 23.9896 2.95758 24.6973 3.66425C25.405 4.37092 25.849 5.2988 25.9554 6.2932C26.5018 11.4147 26.5018 16.5798 25.9554 21.7013C25.8504 22.6959 25.4077 23.6244 24.701 24.3321C23.9943 25.0397 23.0664 25.4838 22.072 25.5902Z" fill="#757575"/>
<path d="M21.5142 10.3917C21.2142 9.46857 20.2216 8.90951 19.308 8.78134C16.022 8.43226 12.7082 8.43226 9.42223 8.78134C8.50865 8.90951 7.51326 9.46311 7.216 10.3917C6.74831 12.7747 6.74831 15.2259 7.216 17.609C7.51598 18.5307 8.50865 19.0912 9.42223 19.2193C12.7082 19.5684 16.022 19.5684 19.308 19.2193C20.2216 19.0912 21.217 18.5376 21.5142 17.609C21.9819 15.2259 21.9819 12.7747 21.5142 10.3917ZM12.5707 16.874V11.1253L17.2504 13.9997C15.6728 14.9691 14.1415 15.9086 12.5707 16.874Z" fill="white"/>
</svg>
