<svg width="30" height="28" viewBox="0 0 30 28" fill="none" xmlns="http://www.w3.org/2000/svg">
<path d="M25.8744 7.6193C24.6992 5.74905 23.0554 4.41102 21.0912 3.45045C19.06 2.45746 16.902 2.00498 14.1424 2.00025C12.5653 1.98866 10.5647 2.37818 8.65893 3.21096C6.74702 4.04658 5.09354 5.23386 3.83786 6.92189C2.18982 9.13766 1.60411 11.5988 2.26839 14.299C2.81127 16.5058 4.10528 18.2326 5.87851 19.6128C7.7703 21.085 9.93637 21.9088 12.2906 22.2803C12.5989 22.3291 12.9045 22.4233 13.1977 22.5335C13.5649 22.6715 13.772 22.9548 13.7491 23.3571C13.7244 23.7887 13.6759 24.2192 13.6296 24.6492C13.5986 24.9363 13.5311 25.2207 13.519 25.5078C13.5025 25.8973 13.6598 26.0431 14.0494 25.9894C14.2792 25.9577 14.5142 25.885 14.721 25.7799C15.2596 25.5061 15.7963 25.2245 16.3118 24.91C18.4811 23.5866 20.5601 22.1357 22.4966 20.4856C23.5713 19.57 24.5638 18.577 25.4084 17.4434C26.4958 15.984 27.1667 14.3646 27.223 12.527C27.2772 10.7564 26.8172 9.11991 25.8744 7.61954V7.6193ZM10.1349 15.1685C10.1245 15.3453 10.0327 15.4373 9.85425 15.4506C9.77001 15.4567 9.68576 15.4574 9.62162 15.4577C9.13412 15.4577 8.64638 15.4581 8.15888 15.4581C7.67138 15.4581 7.16471 15.4581 6.66751 15.4577C6.57521 15.4577 6.48505 15.4567 6.3982 15.4458C6.25834 15.4286 6.17787 15.3472 6.15894 15.2037C6.14522 15.1003 6.14522 14.9915 6.14522 14.8956C6.14451 13.382 6.14474 11.8684 6.14474 10.3548V10.0909V10.0516C6.14451 10.0007 6.14427 9.94795 6.14806 9.89754C6.17006 9.60575 6.22781 9.54872 6.51084 9.53783C6.61757 9.53381 6.72336 9.53168 6.82512 9.53168C6.92688 9.53168 7.03597 9.53381 7.13702 9.53831C7.40728 9.55014 7.46147 9.60291 7.47827 9.87057C7.48301 9.94487 7.48206 10.0218 7.48135 10.0959C7.48111 10.1247 7.48088 10.1536 7.48088 10.1825C7.48088 11.104 7.48088 13.5301 7.48088 13.5301V14.1009L7.52584 14.1033C7.594 14.1069 7.65529 14.1104 7.71185 14.114C7.82213 14.1206 7.9175 14.1265 8.01216 14.127C8.16007 14.1277 8.30774 14.1279 8.45564 14.1279C8.55764 14.1279 8.96539 14.1275 9.06715 14.1275C9.2915 14.1275 9.46425 14.1279 9.62707 14.1291C10.0954 14.1322 10.1389 14.1769 10.1432 14.6604C10.1446 14.8144 10.1451 14.9936 10.1349 15.169V15.1685ZM12.2761 15.1043C12.253 15.3767 12.1926 15.4385 11.9363 15.4525C11.8282 15.4584 11.7195 15.4612 11.6133 15.4612C11.4985 15.4612 11.384 15.4577 11.2725 15.451C11.0306 15.4364 10.9651 15.3703 10.9535 15.1304C10.9436 14.9219 10.945 14.7089 10.9464 14.5028C10.9469 14.424 10.9476 14.3449 10.9473 14.2661C10.9469 13.7561 10.9471 13.2459 10.9473 12.7359V12.4541C10.9473 12.2013 10.9473 11.9488 10.9471 11.6961C10.9466 11.1312 10.9459 10.5469 10.949 9.97256C10.9511 9.57523 10.9833 9.54257 11.3809 9.53594L11.4178 9.53523C11.5032 9.53381 11.5915 9.53215 11.6784 9.53215C11.7894 9.53215 11.8814 9.53452 11.9683 9.53996C12.1876 9.55322 12.2447 9.60859 12.2726 9.83601C12.2804 9.89849 12.2799 9.96428 12.2797 10.0282V10.0663C12.2799 11.6814 12.2799 13.2966 12.2797 14.9115C12.2797 14.9254 12.2797 14.9394 12.2797 14.9536C12.2799 15.0059 12.2804 15.0551 12.2761 15.1043ZM18.3609 10.0204C18.3609 10.0391 18.3607 10.058 18.3607 10.0767C18.3607 11.5162 18.3607 12.9558 18.3607 14.3953V14.9129C18.3607 14.943 18.3607 14.973 18.3602 15.0031C18.3503 15.4082 18.3022 15.4548 17.8926 15.4558C17.8147 15.4558 17.7449 15.4567 17.6822 15.4572C17.6235 15.4577 17.571 15.4581 17.5237 15.4581C17.1452 15.4581 17.1313 15.439 16.9015 15.1169C16.8544 15.0511 16.8014 14.9766 16.7344 14.8871C16.3491 14.3724 15.962 13.8456 15.5874 13.3361C15.3689 13.0391 15.1505 12.7421 14.9314 12.4456C14.8746 12.3687 14.813 12.2936 14.7418 12.2066C14.7044 12.1609 14.6637 12.1112 14.6188 12.0549L14.5452 11.9633L14.5347 12.0802C14.53 12.1318 14.5253 12.177 14.5208 12.2177C14.5123 12.297 14.5054 12.3594 14.5052 12.4238C14.5042 12.8091 14.5045 13.1941 14.5045 13.5794C14.5045 14.0404 14.5045 14.5172 14.503 14.986C14.5014 15.4255 14.4746 15.4518 14.0233 15.457L13.9599 15.4577C13.8986 15.4584 13.8371 15.4593 13.7758 15.4593C13.6901 15.4593 13.6194 15.4577 13.5534 15.4544C13.2554 15.4392 13.1915 15.3734 13.1733 15.0629C13.1704 15.0142 13.1707 14.9638 13.1709 14.915C13.1709 14.8996 13.1709 14.884 13.1709 14.8686V14.2344C13.1709 12.8689 13.1707 11.5035 13.1714 10.1382C13.1714 10.0187 13.1726 9.90228 13.1854 9.78963C13.2038 9.62705 13.293 9.54328 13.4504 9.54067C13.5595 9.53878 13.6781 9.53807 13.8236 9.53807C13.9071 9.53807 13.9909 9.53831 14.0745 9.53854L14.238 9.53902C14.4133 9.53925 14.5037 9.66326 14.5993 9.79436C14.6081 9.80643 14.6169 9.8185 14.6259 9.83057L15.0322 10.3794C15.5694 11.1045 16.1063 11.8298 16.6438 12.5549C16.6916 12.6195 16.7413 12.6844 16.7893 12.7471C16.8118 12.7764 16.8343 12.8058 16.8565 12.8351L16.8729 12.8566L17.0328 12.8379V11.866C17.0328 11.2985 17.0328 10.731 17.0333 10.1633V10.1444C17.0333 10.035 17.0333 9.92216 17.043 9.81306C17.0589 9.63013 17.1512 9.54044 17.3249 9.53925C17.3873 9.53878 17.4501 9.53783 17.5128 9.53689C17.5991 9.53547 17.6884 9.53428 17.7757 9.53428C17.8888 9.53428 17.9825 9.53641 18.0708 9.54115C18.2913 9.55298 18.3368 9.60126 18.3571 9.84406C18.3619 9.9018 18.3614 9.96191 18.3609 10.0201V10.0204ZM23.2487 15.1001C23.2326 15.3822 23.1737 15.4385 22.8784 15.4548C22.8256 15.4577 22.7695 15.4591 22.6966 15.4591C22.6618 15.4591 22.6268 15.4589 22.592 15.4586C22.557 15.4584 22.5217 15.4581 22.4867 15.4581C22.2422 15.4581 21.998 15.4581 21.7536 15.4586C21.4845 15.4586 21.2154 15.4591 20.9463 15.4591C20.487 15.4591 20.1117 15.4584 19.7657 15.4572C19.3241 15.4555 19.2978 15.4286 19.2971 14.9775C19.2952 13.6234 19.2959 12.2463 19.2964 10.9149V10.0097C19.2966 9.92571 19.2995 9.8495 19.3052 9.77709C19.317 9.62776 19.3901 9.55369 19.5352 9.54328C19.609 9.53807 19.6852 9.53547 19.7683 9.53547L20.3838 9.53499C20.7658 9.53476 21.148 9.53452 21.5299 9.53452C21.9417 9.53452 22.3532 9.53476 22.765 9.53594C23.2298 9.53712 23.248 9.55582 23.2525 10.0372L23.2532 10.1082C23.2546 10.2265 23.2561 10.3488 23.2504 10.4681C23.2357 10.7793 23.1713 10.8449 22.8665 10.8574C22.6602 10.8659 22.4581 10.8671 22.2874 10.8671C22.2138 10.8671 22.1402 10.8669 22.0666 10.8666C21.993 10.8664 21.9192 10.8662 21.8456 10.8662C21.7789 10.8662 21.7124 10.8662 21.6459 10.8669C21.4319 10.8688 21.2187 10.8725 20.9932 10.8763C20.8895 10.8782 20.7838 10.8799 20.6744 10.8818L20.6278 10.8825V11.831H21.1655C21.3233 11.831 21.4809 11.8307 21.6385 11.8303C21.7962 11.83 21.9538 11.8296 22.1114 11.8296C22.4039 11.8296 22.6412 11.8307 22.8585 11.8336C23.1962 11.8378 23.2402 11.8826 23.2509 12.234C23.2563 12.4098 23.2561 12.5812 23.2504 12.7435C23.2383 13.0966 23.178 13.1551 22.8201 13.16C22.5672 13.1636 22.3187 13.164 22.1305 13.164C22.0229 13.164 21.9152 13.164 21.8078 13.1638C21.7001 13.1638 21.5924 13.1636 21.4847 13.1636C21.3647 13.1636 21.245 13.1636 21.125 13.1645C21.0287 13.165 20.9317 13.1721 20.829 13.1794C20.7788 13.183 20.7263 13.1868 20.6706 13.1901L20.6262 13.1927V14.1284H21.2564C21.4009 14.1284 21.5455 14.1282 21.6904 14.1277C21.835 14.1274 21.9796 14.127 22.1242 14.127C22.3994 14.127 22.6225 14.1284 22.8263 14.1312C23.1796 14.1364 23.239 14.1956 23.2504 14.5532C23.2551 14.7049 23.2594 14.9044 23.248 15.1008L23.2487 15.1001Z" fill="#757575"/>
</svg>
