<svg width="28" height="28" viewBox="0 0 28 28" fill="none" xmlns="http://www.w3.org/2000/svg">
<path d="M21.7068 25.5902C16.5853 26.1366 11.4202 26.1366 6.29865 25.5902C5.3041 25.4852 4.3756 25.0424 3.66794 24.3358C2.96028 23.6291 2.51622 22.7012 2.4098 21.7068C1.8634 16.5853 1.8634 11.4202 2.4098 6.29865C2.51483 5.3041 2.95758 4.3756 3.66425 3.66794C4.37092 2.96028 5.2988 2.51622 6.2932 2.4098C11.4147 1.8634 16.5798 1.8634 21.7013 2.4098C22.6959 2.51483 23.6244 2.95758 24.3321 3.66425C25.0397 4.37092 25.4838 5.2988 25.5902 6.2932C26.1366 11.4147 26.1366 16.5798 25.5902 21.7013C25.4852 22.6959 25.0424 23.6244 24.3358 24.3321C23.6291 25.0397 22.7012 25.4838 21.7068 25.5902Z" fill="#E20000"/>
<path d="M21.149 10.3917C20.849 9.46857 19.8563 8.90951 18.9428 8.78134C15.6567 8.43226 12.343 8.43226 9.057 8.78134C8.14342 8.90951 7.14802 9.46311 6.85077 10.3917C6.38308 12.7747 6.38308 15.2259 6.85077 17.609C7.15075 18.5307 8.14342 19.0912 9.057 19.2193C12.343 19.5684 15.6567 19.5684 18.9428 19.2193C19.8563 19.0912 20.8517 18.5376 21.149 17.609C21.6167 15.2259 21.6167 12.7747 21.149 10.3917ZM12.2054 16.874V11.1253L16.8852 13.9997C15.3075 14.9691 13.7763 15.9086 12.2054 16.874Z" fill="white"/>
</svg>
