<svg width="29" height="28" viewBox="0 0 29 28" fill="none" xmlns="http://www.w3.org/2000/svg">
<path d="M21.9334 25.5902C16.8118 26.1366 11.6467 26.1366 6.52522 25.5902C5.53066 25.4852 4.60216 25.0424 3.8945 24.3358C3.18684 23.6291 2.74279 22.7012 2.63636 21.7068C2.08996 16.5853 2.08996 11.4202 2.63636 6.29865C2.74139 5.3041 3.18414 4.3756 3.89081 3.66794C4.59748 2.96028 5.52536 2.51622 6.51976 2.4098C11.6413 1.8634 16.8064 1.8634 21.9279 2.4098C22.9225 2.51483 23.851 2.95758 24.5586 3.66425C25.2663 4.37092 25.7103 5.2988 25.8168 6.2932C26.3632 11.4147 26.3632 16.5798 25.8168 21.7013C25.7117 22.6959 25.269 23.6244 24.5623 24.3321C23.8556 25.0397 22.9278 25.4838 21.9334 25.5902Z" fill="#757575"/>
<path d="M9.35338 17.5975C10.2474 17.5975 11.1415 17.5975 12.0355 17.5975C12.2036 17.5975 12.1845 17.5782 12.1845 17.7516C12.1845 20.3713 12.1845 23.3764 12.1845 26H15.8409C15.8409 23.3764 15.8409 20.3713 15.8409 17.7477C15.8409 17.5782 15.8218 17.5975 15.9976 17.5975C16.819 17.5975 17.6405 17.5975 18.4658 17.5975C18.5727 17.5975 18.5689 17.5975 18.588 17.4934C18.7447 16.4494 18.9052 15.4092 19.0618 14.3651C19.0885 14.184 19.0885 14.184 18.9052 14.184C17.9232 14.184 16.9413 14.184 15.9594 14.184C15.8486 14.184 15.8486 14.184 15.8448 14.0723C15.8448 14.0685 15.8448 14.0646 15.8448 14.0608C15.8448 13.375 15.8448 12.6854 15.8448 11.9996C15.8448 11.8378 15.8562 11.676 15.8868 11.518C16.0129 10.8554 16.3835 10.4123 17.033 10.2236C17.2814 10.1504 17.5335 10.1311 17.7895 10.1311C18.2289 10.1311 18.6644 10.1311 19.1038 10.1311C19.2376 10.1311 19.2261 10.1427 19.2261 10.0078C19.2261 9.12556 19.2261 8.24332 19.2261 7.36107C19.2261 7.3418 19.2261 7.32254 19.2261 7.30328C19.2299 7.25319 19.2108 7.23008 19.1573 7.22237C19.0198 7.20696 18.886 7.17999 18.7523 7.16073C18.1639 7.08368 17.5717 7.02974 16.9795 7.00663C16.4714 6.98736 15.967 7.00663 15.4703 7.11065C14.8781 7.23008 14.3279 7.45353 13.8351 7.81182C13.1397 8.32422 12.6927 9.01384 12.4405 9.83444C12.2609 10.4162 12.196 11.0133 12.196 11.6182C12.196 12.435 12.196 13.2517 12.196 14.0723C12.196 14.1917 12.2036 14.184 12.0852 14.184C12.0584 14.184 12.0317 14.184 12.005 14.184C11.13 14.184 10.2551 14.184 9.38013 14.184C9.34956 14.184 9.31899 14.184 9.28843 14.184C9.2464 14.184 9.22348 14.2033 9.2273 14.2457C9.2273 14.2688 9.2273 14.2919 9.2273 14.315C9.2273 15.3629 9.2273 16.4109 9.2273 17.4588C9.2273 17.6013 9.20819 17.5936 9.36484 17.5936L9.35338 17.5975Z" fill="white"/>
</svg>
