<svg width="28" height="28" viewBox="0 0 28 28" fill="none" xmlns="http://www.w3.org/2000/svg">
<g clip-path="url(#clip0_498_4298)">
<path d="M17.9982 2H10.0018C5.58254 2 2 5.58254 2 10.0018V17.9982C2 22.4175 5.58254 26 10.0018 26H17.9982C22.4175 26 26 22.4175 26 17.9982V10.0018C26 5.58254 22.4175 2 17.9982 2Z" fill="black"/>
<path fill-rule="evenodd" clip-rule="evenodd" d="M14.4208 5.81821C14.4207 5.71075 14.4425 5.60434 14.4848 5.50506C14.5271 5.40577 14.5891 5.31556 14.6674 5.23958C14.7456 5.16359 14.8384 5.10332 14.9406 5.06222C15.0428 5.02111 15.1523 4.99997 15.2629 5H17.0436C17.2383 5.00004 17.4271 5.06565 17.5776 5.18567C17.7282 5.30569 17.8312 5.47269 17.8693 5.65825C18.0217 6.39631 18.4327 7.06023 19.0323 7.53695C19.6319 8.01368 20.3831 8.27373 21.1579 8.27283C21.2685 8.2728 21.378 8.29394 21.4802 8.33505C21.5824 8.37615 21.6752 8.43642 21.7534 8.51241C21.8316 8.58839 21.8937 8.6786 21.936 8.77789C21.9783 8.87717 22 8.98358 22 9.09104V10.7275C22 10.8349 21.9783 10.9413 21.936 11.0406C21.8937 11.1399 21.8316 11.2301 21.7534 11.3061C21.6752 11.3821 21.5824 11.4423 21.4802 11.4834C21.378 11.5246 21.2685 11.5457 21.1579 11.5457C19.9751 11.5473 18.8129 11.2449 17.7893 10.669V17.2731C17.7893 18.4058 17.4435 19.5131 16.7958 20.4549C16.148 21.3966 15.2274 22.1307 14.1503 22.5641C13.0732 22.9975 11.888 23.1109 10.7446 22.8899C9.60117 22.6689 8.55087 22.1235 7.72651 21.3225C6.90214 20.5216 6.34074 19.5011 6.11328 18.3902C5.88583 17.2793 6.00253 16.1278 6.44865 15.0813C6.89477 14.0348 7.65025 13.1403 8.61958 12.511C9.58891 11.8817 10.7285 11.5457 11.8944 11.5457C12.005 11.5456 12.1145 11.5668 12.2167 11.6079C12.3189 11.649 12.4117 11.7093 12.4899 11.7852C12.5681 11.8612 12.6302 11.9514 12.6725 12.0507C12.7148 12.15 12.7365 12.2564 12.7365 12.3639V14.0003C12.7365 14.1077 12.7148 14.2142 12.6725 14.3134C12.6302 14.4127 12.5681 14.5029 12.4899 14.5789C12.4117 14.6549 12.3189 14.7152 12.2167 14.7563C12.1145 14.7974 12.005 14.8185 11.8944 14.8185C11.3946 14.8185 10.9061 14.9624 10.4906 15.2321C10.075 15.5018 9.75116 15.8852 9.5599 16.3338C9.36864 16.7824 9.31859 17.276 9.41607 17.7522C9.51356 18.2284 9.7542 18.6658 10.1076 19.0091C10.4609 19.3525 10.9112 19.5863 11.4013 19.681C11.8914 19.7757 12.3995 19.7271 12.8611 19.5412C13.3228 19.3554 13.7174 19.0407 13.995 18.637C14.2727 18.2333 14.4208 17.7587 14.4208 17.2731V5.81821Z" fill="white"/>
</g>
<defs>
<clipPath id="clip0_498_4298">
<rect width="24" height="24" fill="white" transform="translate(2 2)"/>
</clipPath>
</defs>
</svg>
