<svg id="Group_2995" data-name="Group 2995" xmlns="http://www.w3.org/2000/svg" width="79" height="56.887" viewBox="0 0 79 56.887">
  <path id="Path_46" data-name="Path 46" d="M77.938,23.511,63.789,6.548a14.1,14.1,0,0,0-8.644-4.4L20.93-.009a4,4,0,0,0-4.343,4.925l.068.419-3.54.316a4.017,4.017,0,0,0-3.574,5.523l.068.205L8.1,11.661A4.025,4.025,0,0,0,5.062,17.5L6.1,19.86,2.762,21.125a4.031,4.031,0,0,0-1.975,6.3L19.211,54.674a4.835,4.835,0,0,0,7.13,1.086L52.076,35.138h0L76.246,28.9C79.041,28.17,79.811,25.751,77.938,23.511Z" transform="translate(0.037 0.019)" fill="#fff"/>
  <g id="Group_127" data-name="Group 127" transform="translate(0 0)">
    <path id="Path_47" data-name="Path 47" d="M.79,114.914a4.02,4.02,0,0,1,1.984-6.292l32.335-12.3a14.213,14.213,0,0,1,9.747.41l19.955,9.558c2.633,1.265,2.924,3.787.641,5.617L26.337,143.238a4.835,4.835,0,0,1-7.13-1.086Z" transform="translate(0.033 -87.468)" fill="#cf3339" opacity="0.3"/>
    <path id="Path_48" data-name="Path 48" d="M55.063,72.895A4.019,4.019,0,0,1,58.1,67.055L91.8,60.7a14,14,0,0,1,9.439,2.137L119.04,75.8c2.351,1.71,2.189,4.249-.359,5.643L75.052,105.323a4.777,4.777,0,0,1-6.763-2.334Z" transform="translate(-49.965 -55.375)" fill="#cf3339" opacity="0.4"/>
    <path id="Path_49" data-name="Path 49" d="M109.253,39.021a4.02,4.02,0,0,1,3.574-5.523l34.156-3.027a14.019,14.019,0,0,1,9.191,3.052l16.484,14.645c2.172,1.932,1.77,4.446-.889,5.583l-45.706,19.5a4.792,4.792,0,0,1-6.515-2.992Z" transform="translate(-99.674 -27.836)" fill="#cf3339" opacity="0.5"/>
    <path id="Path_50" data-name="Path 50" d="M193.576,4.916a4,4,0,0,1,4.343-4.925l34.216,2.154a14.059,14.059,0,0,1,8.644,4.4l14.15,16.962c1.872,2.24,1.1,4.659-1.7,5.386l-48.049,12.4a4.81,4.81,0,0,1-6-3.933Z" transform="translate(-176.952 0.019)" fill="#cf3339"/>
    <g id="Group_126" data-name="Group 126" transform="translate(26.874 12.27)">
      <path id="Path_51" data-name="Path 51" d="M314.309,148.946a1.072,1.072,0,0,1,.333-.864,1.336,1.336,0,0,1,.889-.282,2.206,2.206,0,0,1,.684.1c.205.068.342.12.41.145v5.771c.325-.333.727-.744,1.223-1.231s.992-.983,1.5-1.479.992-.957,1.445-1.385.8-.752,1.052-.975a10.988,10.988,0,0,1,.881-.684,1.658,1.658,0,0,1,.957-.265,1.678,1.678,0,0,1,1.009.282,2.38,2.38,0,0,1,.5.445c-.069.068-.231.231-.5.487s-.6.564-.975.923-.787.752-1.24,1.18l-1.342,1.265q-.667.616-1.231,1.18c-.385.376-.692.675-.94.906,1.291,1.214,2.505,2.454,3.625,3.693a40.359,40.359,0,0,1,3.086,3.856h-2.856c-.333-.428-.744-.923-1.223-1.488s-.992-1.137-1.548-1.735-1.12-1.18-1.718-1.753-1.171-1.094-1.727-1.565v6.54H314.3V148.946Z" transform="translate(-314.3 -147.432)" fill="#fff"/>
      <path id="Path_52" data-name="Path 52" d="M458.327,150.066h-3.882a1,1,0,0,1-1.146-1.12,2.109,2.109,0,0,1,.12-.718c.077-.214.137-.359.171-.427h11.08a1,1,0,0,1,1.146,1.12,2.112,2.112,0,0,1-.111.718,1.688,1.688,0,0,1-.18.427h-4.89v11.961h-2.308Z" transform="translate(-441.416 -147.432)" fill="#fff"/>
      <path id="Path_53" data-name="Path 53" d="M610.773,157.137c-.145.111-.342.239-.59.393a5.543,5.543,0,0,1-.949.436,8.312,8.312,0,0,1-1.351.35,9.935,9.935,0,0,1-1.77.145,7.59,7.59,0,0,1-2.719-.487,6.538,6.538,0,0,1-3.822-3.745,8.258,8.258,0,0,1-.573-3.189,8.512,8.512,0,0,1,.556-3.189,6.9,6.9,0,0,1,1.513-2.377,6.577,6.577,0,0,1,2.24-1.471,7.3,7.3,0,0,1,2.736-.5,8.914,8.914,0,0,1,2.291.248,4.652,4.652,0,0,1,1.411.607,2.241,2.241,0,0,1,.718.744,1.444,1.444,0,0,1,.205.633,1.38,1.38,0,0,1-.1.522,1.878,1.878,0,0,1-.256.445,2.385,2.385,0,0,1-.3.342,1.517,1.517,0,0,1-.274.205,3.509,3.509,0,0,0-.539-.5,4.771,4.771,0,0,0-.8-.5,5.512,5.512,0,0,0-1.043-.385,4.932,4.932,0,0,0-1.265-.154,4.741,4.741,0,0,0-1.847.359,4,4,0,0,0-1.471,1.06,5.232,5.232,0,0,0-.983,1.676,6.5,6.5,0,0,0-.359,2.231,6.162,6.162,0,0,0,.376,2.231,4.6,4.6,0,0,0,1.035,1.616,4.341,4.341,0,0,0,1.556.983,5.445,5.445,0,0,0,1.924.333,5.966,5.966,0,0,0,2.1-.333,5.862,5.862,0,0,0,1.291-.624l1.026,1.889Z" transform="translate(-574.659 -143.5)" fill="#fff"/>
    </g>
  </g>
</svg>
