<svg width="81" height="80" viewBox="0 0 81 80" fill="none" xmlns="http://www.w3.org/2000/svg">
<g clip-path="url(#clip0_154_3196)">
<path d="M80.5 40C80.5 56.55 67.05 70 50.5 70C44.4002 70 38.7 68.2 33.95 65C31.8502 63.5998 29.85 61.9 28.1998 60C25.55 57.15 23.4998 53.75 22.2498 50C21.6498 48.4 21.2 46.7498 20.9502 45C20.6502 43.4 20.5 41.6998 20.5 40C20.5 38.2998 20.6502 36.6 20.9502 35C21.2002 33.2498 21.65 31.6 22.2498 30C23.4998 26.25 25.55 22.85 28.1998 20C29.85 18.1 31.85 16.3998 33.95 15C38.7 11.8 44.4002 10 50.5 10C67.05 10 80.5 23.45 80.5 40Z" fill="url(#paint0_linear_154_3196)"/>
<path d="M75.5 40C75.5 53.8 64.3 65 50.5 65C44.85 65 39.6502 63.15 35.5 60C32.05 57.3998 29.3 53.9498 27.5498 50C26.9002 48.4 26.3498 46.7498 25.9998 45C25.6502 43.4 25.5 41.6998 25.5 40C25.5 38.2998 25.6502 36.6 25.9998 35C26.3498 33.2498 26.9002 31.6 27.5498 30C29.3 26.0498 32.05 22.5998 35.5 20C39.6502 16.85 44.85 15 50.5 15C64.3 15 75.5 26.2 75.5 40Z" fill="white"/>
<path d="M48 20H53V25H48V20Z" fill="url(#paint1_linear_154_3196)"/>
<path d="M48 55H53V60H48V55Z" fill="url(#paint2_linear_154_3196)"/>
<path d="M30.5 37.5H35.5V42.5H30.5V37.5Z" fill="url(#paint3_linear_154_3196)"/>
<path d="M65.5 37.5H70.5V42.5H65.5V37.5Z" fill="url(#paint4_linear_154_3196)"/>
<path d="M48 30H53V42.5H48V30Z" fill="#F9D0CD"/>
<path d="M53 37.5H58V42.5H53V37.5Z" fill="#F9D0CD"/>
<path d="M33.95 15C31.8502 16.3998 29.85 18.1 28.1998 20H15.5V15H33.95Z" fill="#E43D31"/>
<path d="M22.2498 30C21.6498 31.6 21.2 33.2498 20.9502 35H10.5V30H22.2498Z" fill="#E43D31"/>
<path d="M22.2498 50H5.5V45H20.9502C21.2 46.7498 21.6498 48.4 22.2498 50Z" fill="#E43D31"/>
<path d="M33.95 65H0.5V60H28.1998C29.85 61.9 31.8502 63.5998 33.95 65Z" fill="#E43D31"/>
</g>
<defs>
<linearGradient id="paint0_linear_154_3196" x1="34.8265" y1="-99.5" x2="129.626" y2="-82.9408" gradientUnits="userSpaceOnUse">
<stop stop-color="#737373"/>
<stop offset="1"/>
</linearGradient>
<linearGradient id="paint1_linear_154_3196" x1="49.1939" y1="10.875" x2="57.0938" y2="12.2549" gradientUnits="userSpaceOnUse">
<stop stop-color="#737373"/>
<stop offset="1"/>
</linearGradient>
<linearGradient id="paint2_linear_154_3196" x1="49.1939" y1="45.875" x2="57.0938" y2="47.2549" gradientUnits="userSpaceOnUse">
<stop stop-color="#737373"/>
<stop offset="1"/>
</linearGradient>
<linearGradient id="paint3_linear_154_3196" x1="31.6939" y1="28.375" x2="39.5938" y2="29.7549" gradientUnits="userSpaceOnUse">
<stop stop-color="#737373"/>
<stop offset="1"/>
</linearGradient>
<linearGradient id="paint4_linear_154_3196" x1="66.6939" y1="28.375" x2="74.5938" y2="29.7549" gradientUnits="userSpaceOnUse">
<stop stop-color="#737373"/>
<stop offset="1"/>
</linearGradient>
<clipPath id="clip0_154_3196">
<rect width="80" height="80" fill="white" transform="translate(0.5)"/>
</clipPath>
</defs>
</svg>
