<svg width="81" height="80" viewBox="0 0 81 80" fill="none" xmlns="http://www.w3.org/2000/svg">
<g clip-path="url(#clip0_154_3178)">
<path d="M78 22H73V14.5C73 10.3642 69.6358 7 65.5 7C61.3642 7 58 10.3642 58 14.5V22H53V14.5C53 7.60547 58.6055 2 65.5 2C72.3945 2 78 7.60547 78 14.5V22Z" fill="#F9D0CD"/>
<path d="M4.5 80C2.29086 80 0.5 78.2091 0.5 76V34C0.5 31.7909 2.29086 30 4.5 30H66.5C68.7091 30 70.5 31.7909 70.5 34V76C70.5 78.2091 68.7091 80 66.5 80H4.5Z" fill="url(#paint0_linear_154_3178)"/>
<path d="M9 47.5C8.44772 47.5 8 47.0523 8 46.5V38.5C8 37.9477 8.44772 37.5 9 37.5H22C22.5523 37.5 23 37.9477 23 38.5V46.5C23 47.0523 22.5523 47.5 22 47.5H9Z" fill="white"/>
<path d="M8 56C8 55.4477 8.44772 55 9 55H17C17.5523 55 18 55.4477 18 56V59C18 59.5523 17.5523 60 17 60H9C8.44772 60 8 59.5523 8 59V56Z" fill="white"/>
<path d="M23 56C23 55.4477 23.4477 55 24 55H32C32.5523 55 33 55.4477 33 56V59C33 59.5523 32.5523 60 32 60H24C23.4477 60 23 59.5523 23 59V56Z" fill="white"/>
<path d="M38 56C38 55.4477 38.4477 55 39 55H47C47.5523 55 48 55.4477 48 56V59C48 59.5523 47.5523 60 47 60H39C38.4477 60 38 59.5523 38 59V56Z" fill="white"/>
<path d="M53 56C53 55.4477 53.4477 55 54 55H62C62.5523 55 63 55.4477 63 56V59C63 59.5523 62.5523 60 62 60H54C53.4477 60 53 59.5523 53 59V56Z" fill="white"/>
<path opacity="0.9" d="M50.5 26C50.5 23.7909 52.2909 22 54.5 22H76.5C78.7091 22 80.5 23.7909 80.5 26V43C80.5 45.2091 78.7091 47 76.5 47H54.5C52.2909 47 50.5 45.2091 50.5 43V26Z" fill="#E43D31"/>
<path d="M58 75C60.7614 75 63 72.7614 63 70C63 67.2386 60.7614 65 58 65C55.2386 65 53 67.2386 53 70C53 72.7614 55.2386 75 58 75Z" fill="white"/>
</g>
<defs>
<linearGradient id="paint0_linear_154_3178" x1="-127.25" y1="68.0612" x2="-117.248" y2="-12.1008" gradientUnits="userSpaceOnUse">
<stop stop-color="#737373"/>
<stop offset="1"/>
</linearGradient>
<clipPath id="clip0_154_3178">
<rect width="80" height="80" fill="white" transform="translate(0.5)"/>
</clipPath>
</defs>
</svg>
