<svg width="121" height="41" viewBox="0 0 121 41" fill="none" xmlns="http://www.w3.org/2000/svg">
<path d="M110.551 0.0167316H9.95164C9.58494 0.0167316 9.22264 0.0167316 8.85692 0.0187316C8.55077 0.0207315 8.24706 0.0265415 7.93797 0.0314315C7.26648 0.0393333 6.59658 0.0984076 5.93407 0.208141C5.2725 0.320263 4.63165 0.531646 4.0332 0.835139C3.43548 1.1412 2.88933 1.53889 2.41456 2.0138C1.93729 2.48736 1.53945 3.03474 1.23634 3.63488C0.932391 4.23383 0.721632 4.87565 0.611342 5.53819C0.500003 6.1999 0.44009 6.86923 0.432142 7.54019C0.422862 7.84679 0.421882 8.1544 0.416992 8.46104V31.5752C0.421882 31.8857 0.422862 32.1865 0.432142 32.4971C0.440093 33.168 0.500005 33.8373 0.611342 34.499C0.721327 35.1619 0.932099 35.8041 1.23634 36.4033C1.53931 37.0015 1.93721 37.5467 2.41456 38.0176C2.88753 38.4946 3.43403 38.8926 4.0332 39.1963C4.63165 39.5006 5.27243 39.7133 5.93407 39.8271C6.59669 39.936 7.26653 39.9951 7.93797 40.0039C8.24706 40.0107 8.55077 40.0146 8.85692 40.0146C9.22263 40.0166 9.58496 40.0166 9.95164 40.0166H110.551C110.911 40.0166 111.276 40.0166 111.635 40.0146C111.94 40.0146 112.253 40.0107 112.557 40.0039C113.227 39.9955 113.896 39.9364 114.557 39.8271C115.221 39.7125 115.864 39.4999 116.465 39.1963C117.064 38.8924 117.61 38.4945 118.083 38.0176C118.559 37.5448 118.958 37.0001 119.264 36.4033C119.566 35.8037 119.775 35.1616 119.883 34.499C119.995 33.8373 120.057 33.1681 120.069 32.4971C120.073 32.1865 120.073 31.8857 120.073 31.5752C120.081 31.2119 120.081 30.8506 120.081 30.4814V9.55283C120.081 9.18662 120.081 8.82334 120.073 8.46104C120.073 8.1544 120.073 7.84679 120.069 7.54015C120.057 6.86913 119.995 6.19995 119.883 5.53815C119.775 4.876 119.566 4.23422 119.264 3.63484C118.647 2.43192 117.668 1.45275 116.465 0.835049C115.864 0.532297 115.221 0.320971 114.557 0.208051C113.896 0.0978341 113.228 0.0387393 112.557 0.0312915C112.253 0.0264115 111.94 0.0205515 111.635 0.0186016C111.276 0.0166016 110.911 0.0166016 110.551 0.0166016V0.0167316Z" fill="#A6A6A6"/>
<path d="M8.86086 39.1415C8.55618 39.1415 8.25886 39.1376 7.95657 39.1308C7.33035 39.1226 6.7056 39.0681 6.08744 38.9677C5.51103 38.8684 4.95264 38.6837 4.4307 38.4198C3.91355 38.158 3.44186 37.8148 3.03371 37.4032C2.61965 36.9965 2.27493 36.5247 2.0132 36.0067C1.74859 35.4853 1.56546 34.9264 1.4702 34.3495C1.36733 33.7296 1.31167 33.1028 1.3037 32.4745C1.29736 32.2636 1.28906 31.5614 1.28906 31.5614V8.46092C1.28906 8.46092 1.2979 7.76951 1.30375 7.56638C1.31138 6.93906 1.36671 6.31324 1.46928 5.69432C1.56472 5.11584 1.74799 4.55534 2.01274 4.03222C2.2735 3.51454 2.61631 3.04245 3.02788 2.63428C3.43898 2.22222 3.91218 1.8772 4.43021 1.61181C4.95096 1.34869 5.50828 1.16533 6.08353 1.06787C6.70372 0.966437 7.33064 0.911598 7.95903 0.903812L8.86135 0.891602H111.63L112.543 0.904302C113.165 0.911701 113.787 0.966051 114.401 1.06689C114.982 1.16558 115.545 1.35022 116.072 1.61474C117.11 2.14958 117.954 2.99576 118.487 4.03466C118.747 4.55417 118.928 5.11009 119.022 5.68358C119.126 6.30758 119.184 6.93832 119.196 7.57078C119.199 7.85398 119.199 8.15818 119.199 8.46092C119.207 8.83592 119.207 9.19284 119.207 9.5527V30.4813C119.207 30.8446 119.207 31.1991 119.199 31.5565C119.199 31.8817 119.199 32.1796 119.195 32.4862C119.183 33.1074 119.126 33.7269 119.024 34.3397C118.931 34.9208 118.749 35.484 118.484 36.0097C118.22 36.5221 117.878 36.9897 117.468 37.3954C117.06 37.8092 116.587 38.1544 116.069 38.4179C115.544 38.6839 114.982 38.8692 114.401 38.9677C113.783 39.0686 113.158 39.1232 112.532 39.1308C112.239 39.1376 111.932 39.1415 111.634 39.1415L110.55 39.1435L8.86086 39.1415Z" fill="black"/>
<path d="M25.1889 20.3169C25.1996 19.4823 25.4213 18.6639 25.8333 17.9379C26.2454 17.212 26.8343 16.602 27.5454 16.1649C27.0937 15.5197 26.4977 14.9888 25.8049 14.6142C25.1121 14.2397 24.3415 14.0318 23.5543 14.0072C21.875 13.8309 20.2471 15.012 19.3914 15.012C18.5191 15.012 17.2016 14.0247 15.7829 14.0539C14.8652 14.0835 13.9709 14.3504 13.187 14.8284C12.4031 15.3065 11.7565 15.9795 11.31 16.7817C9.376 20.1302 10.8186 25.0512 12.6712 27.7578C13.5981 29.0831 14.6814 30.5636 16.0988 30.5111C17.4859 30.4535 18.0039 29.6266 19.6782 29.6266C21.337 29.6266 21.823 30.5111 23.2692 30.4777C24.7576 30.4535 25.6953 29.1465 26.5897 27.8086C27.2557 26.8642 27.7681 25.8205 28.1081 24.7161C27.2434 24.3503 26.5055 23.7382 25.9864 22.9559C25.4672 22.1736 25.1899 21.2558 25.1889 20.3169Z" fill="white"/>
<path d="M22.4565 12.2279C23.268 11.2537 23.6678 10.0015 23.571 8.7373C22.3312 8.86752 21.1859 9.46008 20.3635 10.3969C19.9613 10.8546 19.6533 11.387 19.4571 11.9638C19.2608 12.5405 19.1802 13.1503 19.2197 13.7583C19.8399 13.7647 20.4534 13.6303 21.014 13.3652C21.5747 13.1001 22.0679 12.7112 22.4565 12.2279Z" fill="white"/>
<path d="M42.7187 27.1562H37.9853L36.8486 30.5127H34.8438L39.3271 18.0947H41.4101L45.8935 30.5127H43.8545L42.7187 27.1562ZM38.4756 25.6074H42.2276L40.378 20.1602H40.3262L38.4756 25.6074Z" fill="white"/>
<path d="M55.5742 25.986C55.5742 28.7995 54.0684 30.6071 51.7959 30.6071C51.2203 30.6372 50.6478 30.5046 50.144 30.2245C49.6402 29.9443 49.2255 29.528 48.9473 29.0231H48.9043V33.5075H47.0459V21.4587H48.8448V22.9646H48.8789C49.1699 22.4621 49.5916 22.0479 50.0992 21.7661C50.6069 21.4842 51.1814 21.3453 51.7617 21.364C54.0595 21.364 55.5742 23.1804 55.5742 25.986ZM53.6641 25.986C53.6641 24.153 52.7168 22.948 51.2715 22.948C49.8516 22.948 48.8965 24.1784 48.8965 25.986C48.8965 27.8103 49.8516 29.0319 51.2715 29.0319C52.7168 29.0319 53.6641 27.8356 53.6641 25.986Z" fill="white"/>
<path d="M65.54 25.986C65.54 28.7995 64.0342 30.6071 61.7617 30.6071C61.1861 30.6372 60.6136 30.5046 60.1098 30.2245C59.606 29.9443 59.1913 29.528 58.9131 29.0231H58.8701V33.5075H57.0117V21.4587H58.8105V22.9645H58.8447C59.1357 22.4621 59.5574 22.0479 60.065 21.7661C60.5727 21.4842 61.1472 21.3453 61.7275 21.364C64.0254 21.364 65.54 23.1804 65.54 25.986ZM63.6299 25.986C63.6299 24.153 62.6826 22.9479 61.2373 22.9479C59.8174 22.9479 58.8623 24.1784 58.8623 25.986C58.8623 27.8102 59.8174 29.0319 61.2373 29.0319C62.6826 29.0319 63.6299 27.8356 63.6299 25.986H63.6299Z" fill="white"/>
<path d="M72.125 27.0528C72.2627 28.2842 73.459 29.0927 75.0938 29.0927C76.6602 29.0927 77.7871 28.2842 77.7871 27.1738C77.7871 26.2099 77.1074 25.6328 75.4981 25.2373L73.8887 24.8496C71.6084 24.2988 70.5498 23.2324 70.5498 21.5019C70.5498 19.3594 72.417 17.8877 75.0684 17.8877C77.6924 17.8877 79.4912 19.3594 79.5518 21.5019H77.6758C77.5635 20.2627 76.539 19.5146 75.042 19.5146C73.5449 19.5146 72.5205 20.2715 72.5205 21.373C72.5205 22.251 73.1748 22.7676 74.7754 23.163L76.1435 23.499C78.6914 24.1015 79.75 25.125 79.75 26.9413C79.75 29.2646 77.8994 30.7197 74.956 30.7197C72.2021 30.7197 70.3428 29.2988 70.2227 27.0527L72.125 27.0528Z" fill="white"/>
<path d="M83.7617 19.3164V21.459H85.4834V22.9307H83.7617V27.9218C83.7617 28.6972 84.1064 29.0586 84.8633 29.0586C85.0677 29.055 85.2717 29.0406 85.4746 29.0156V30.4784C85.1343 30.542 84.7885 30.5708 84.4424 30.5644C82.6094 30.5644 81.8945 29.8759 81.8945 28.1201V22.9307H80.5781V21.459H81.8945V19.3164H83.7617Z" fill="white"/>
<path d="M86.4824 25.9863C86.4824 23.1377 88.1601 21.3477 90.7764 21.3477C93.4013 21.3477 95.0713 23.1377 95.0713 25.9863C95.0713 28.8428 93.4101 30.625 90.7764 30.625C88.1435 30.625 86.4824 28.8427 86.4824 25.9863ZM93.1777 25.9863C93.1777 24.0322 92.2822 22.8789 90.7763 22.8789C89.2705 22.8789 88.376 24.041 88.376 25.9863C88.376 27.9482 89.2705 29.0928 90.7763 29.0928C92.2822 29.0928 93.1777 27.9482 93.1777 25.9863H93.1777Z" fill="white"/>
<path d="M96.6035 21.4586H98.376V22.9996H98.419C98.5389 22.5183 98.8209 22.093 99.2174 21.7951C99.614 21.4972 100.101 21.345 100.597 21.3639C100.811 21.3631 101.024 21.3864 101.233 21.4332V23.1715C100.963 23.0889 100.681 23.0509 100.398 23.0592C100.128 23.0482 99.8593 23.0958 99.6095 23.1987C99.3596 23.3016 99.135 23.4573 98.951 23.6552C98.767 23.8531 98.6281 24.0885 98.5436 24.3452C98.4592 24.6018 98.4313 24.8737 98.4619 25.1422V30.5123H96.6035L96.6035 21.4586Z" fill="white"/>
<path d="M109.803 27.8535C109.553 29.497 107.952 30.625 105.904 30.625C103.271 30.625 101.636 28.8603 101.636 26.0293C101.636 23.1894 103.279 21.3477 105.826 21.3477C108.331 21.3477 109.906 23.0683 109.906 25.8135V26.4502H103.512V26.5625C103.482 26.8957 103.524 27.2313 103.634 27.5472C103.744 27.863 103.92 28.1518 104.151 28.3944C104.381 28.6369 104.66 28.8277 104.97 28.954C105.28 29.0803 105.613 29.1392 105.947 29.1269C106.386 29.1681 106.827 29.0664 107.204 28.8369C107.581 28.6075 107.873 28.2626 108.038 27.8535L109.803 27.8535ZM103.521 25.1514H108.047C108.064 24.8518 108.018 24.5519 107.913 24.2707C107.809 23.9895 107.647 23.733 107.439 23.5172C107.23 23.3015 106.979 23.1311 106.702 23.0169C106.424 22.9027 106.126 22.8471 105.826 22.8535C105.524 22.8517 105.224 22.9099 104.943 23.0246C104.663 23.1393 104.409 23.3084 104.195 23.522C103.98 23.7357 103.81 23.9896 103.695 24.2693C103.579 24.5489 103.52 24.8487 103.521 25.1514V25.1514Z" fill="white"/>
<path d="M38.2432 8.74701C38.6328 8.71905 39.0237 8.77791 39.3878 8.91934C39.7519 9.06077 40.0801 9.28125 40.3487 9.56487C40.6173 9.8485 40.8196 10.1882 40.941 10.5595C41.0624 10.9307 41.0999 11.3243 41.0508 11.7118C41.0508 13.6181 40.0205 14.7138 38.2432 14.7138H36.0879V8.74701H38.2432ZM37.0146 13.87H38.1396C38.418 13.8866 38.6966 13.841 38.9552 13.7364C39.2137 13.6318 39.4457 13.4708 39.6342 13.2652C39.8227 13.0597 39.963 12.8147 40.0448 12.5481C40.1267 12.2814 40.1481 11.9999 40.1074 11.724C40.1451 11.4492 40.1216 11.1694 40.0384 10.9047C39.9553 10.6401 39.8147 10.3971 39.6266 10.1931C39.4386 9.9892 39.2077 9.8294 38.9506 9.72516C38.6936 9.62092 38.4166 9.57484 38.1396 9.59021H37.0146V13.87Z" fill="white"/>
<path d="M42.096 12.4604C42.0677 12.1645 42.1015 11.8659 42.1954 11.5838C42.2892 11.3018 42.441 11.0424 42.6409 10.8225C42.8408 10.6025 43.0846 10.4267 43.3564 10.3064C43.6283 10.1862 43.9222 10.124 44.2195 10.124C44.5168 10.124 44.8108 10.1862 45.0826 10.3064C45.3545 10.4267 45.5982 10.6025 45.7981 10.8225C45.9981 11.0424 46.1498 11.3018 46.2437 11.5838C46.3375 11.8659 46.3713 12.1645 46.343 12.4604C46.3719 12.7566 46.3384 13.0556 46.2448 13.3381C46.1513 13.6206 45.9996 13.8805 45.7996 14.1009C45.5996 14.3213 45.3557 14.4974 45.0836 14.618C44.8115 14.7385 44.5171 14.8008 44.2195 14.8008C43.9219 14.8008 43.6276 14.7385 43.3554 14.618C43.0833 14.4974 42.8394 14.3213 42.6394 14.1009C42.4394 13.8805 42.2878 13.6206 42.1942 13.3381C42.1006 13.0556 42.0671 12.7566 42.096 12.4604ZM45.429 12.4604C45.429 11.4843 44.9905 10.9135 44.221 10.9135C43.4485 10.9135 43.014 11.4843 43.014 12.4604C43.014 13.4443 43.4485 14.0107 44.221 14.0107C44.9905 14.0107 45.429 13.4404 45.429 12.4604H45.429Z" fill="white"/>
<path d="M51.9902 14.7139H51.0683L50.1377 11.3975H50.0674L49.1406 14.7139H48.2275L46.9863 10.2109H47.8877L48.6943 13.6469H48.7607L49.6865 10.2109H50.5391L51.4648 13.6469H51.5351L52.3379 10.2109H53.2265L51.9902 14.7139Z" fill="white"/>
<path d="M54.2715 10.2105H55.127V10.9258H55.1934C55.306 10.6689 55.496 10.4535 55.7369 10.3097C55.9778 10.1659 56.2575 10.1008 56.5371 10.1236C56.7562 10.1071 56.9762 10.1401 57.1808 10.2202C57.3854 10.3003 57.5694 10.4254 57.719 10.5863C57.8687 10.7471 57.9803 10.9396 58.0455 11.1494C58.1107 11.3592 58.1279 11.581 58.0957 11.7984V14.7134H57.207V12.0215C57.207 11.2979 56.8926 10.938 56.2353 10.938C56.0866 10.9311 55.9381 10.9564 55.8 11.0123C55.662 11.0681 55.5376 11.1531 55.4355 11.2615C55.3334 11.3699 55.2559 11.4991 55.2084 11.6402C55.1608 11.7813 55.1444 11.9311 55.1601 12.0791V14.7134H54.2715L54.2715 10.2105Z" fill="white"/>
<path d="M59.5107 8.45312H60.3994V14.7138H59.5107V8.45312Z" fill="white"/>
<path d="M61.6331 12.4605C61.6048 12.1645 61.6387 11.866 61.7325 11.5839C61.8264 11.3018 61.9782 11.0424 62.1781 10.8225C62.3781 10.6025 62.6218 10.4267 62.8937 10.3064C63.1656 10.1862 63.4596 10.124 63.7568 10.124C64.0541 10.124 64.3481 10.1862 64.62 10.3064C64.8919 10.4267 65.1356 10.6025 65.3356 10.8225C65.5355 11.0424 65.6873 11.3018 65.7812 11.5839C65.875 11.866 65.9089 12.1645 65.8806 12.4605C65.9094 12.7567 65.8759 13.0557 65.7823 13.3382C65.6887 13.6207 65.537 13.8806 65.337 14.101C65.137 14.3214 64.8931 14.4975 64.6209 14.618C64.3488 14.7386 64.0545 14.8008 63.7568 14.8008C63.4592 14.8008 63.1649 14.7386 62.8927 14.618C62.6206 14.4975 62.3767 14.3214 62.1767 14.101C61.9767 13.8806 61.825 13.6207 61.7314 13.3382C61.6377 13.0557 61.6043 12.7567 61.6331 12.4605ZM64.9661 12.4605C64.9661 11.4844 64.5276 10.9136 63.7581 10.9136C62.9856 10.9136 62.5511 11.4844 62.5511 12.4605C62.5511 13.4444 62.9856 14.0108 63.7581 14.0108C64.5276 14.0108 64.9661 13.4405 64.9661 12.4605H64.9661Z" fill="white"/>
<path d="M66.8184 13.4404C66.8184 12.6299 67.4219 12.1626 68.4932 12.0962L69.7129 12.0259V11.6372C69.7129 11.1616 69.3984 10.8931 68.791 10.8931C68.2949 10.8931 67.9512 11.0752 67.8525 11.3935H66.9922C67.083 10.6201 67.8105 10.124 68.832 10.124C69.9609 10.124 70.5976 10.686 70.5976 11.6372V14.7138H69.7422V14.081H69.6719C69.5292 14.308 69.3287 14.4931 69.0911 14.6173C68.8535 14.7415 68.5872 14.8004 68.3193 14.788C68.1303 14.8077 67.9392 14.7875 67.7585 14.7288C67.5777 14.6701 67.4113 14.5742 67.2699 14.4472C67.1284 14.3203 67.0152 14.1651 66.9374 13.9917C66.8597 13.8183 66.8191 13.6305 66.8184 13.4404ZM69.7129 13.0556V12.6792L68.6133 12.7495C67.9932 12.791 67.7119 13.0019 67.7119 13.3989C67.7119 13.8042 68.0635 14.04 68.5469 14.04C68.6885 14.0543 68.8316 14.04 68.9676 13.998C69.1036 13.9559 69.2298 13.8868 69.3386 13.795C69.4474 13.7032 69.5366 13.5904 69.6009 13.4634C69.6652 13.3363 69.7033 13.1977 69.7129 13.0556Z" fill="white"/>
<path d="M71.7637 12.4605C71.7637 11.0376 72.4951 10.1362 73.6328 10.1362C73.9142 10.1233 74.1935 10.1907 74.438 10.3306C74.6826 10.4705 74.8822 10.6771 75.0137 10.9262H75.0801V8.45312H75.9687V14.7138H75.1172V14.0024H75.0469C74.9053 14.2499 74.6987 14.4539 74.4494 14.5924C74.2002 14.7309 73.9178 14.7986 73.6328 14.7881C72.4873 14.7881 71.7637 13.8867 71.7637 12.4605ZM72.6817 12.4605C72.6817 13.4155 73.1319 13.9902 73.8848 13.9902C74.6338 13.9902 75.0967 13.4072 75.0967 12.4644C75.0967 11.5259 74.6289 10.9346 73.8848 10.9346C73.1367 10.9346 72.6816 11.5132 72.6816 12.4605H72.6817Z" fill="white"/>
<path d="M79.6448 12.4604C79.6165 12.1645 79.6504 11.8659 79.7442 11.5838C79.838 11.3018 79.9898 11.0424 80.1897 10.8225C80.3897 10.6025 80.6334 10.4267 80.9052 10.3064C81.1771 10.1862 81.4711 10.124 81.7683 10.124C82.0656 10.124 82.3596 10.1862 82.6314 10.3064C82.9033 10.4267 83.147 10.6025 83.3469 10.8225C83.5469 11.0424 83.6986 11.3018 83.7925 11.5838C83.8863 11.8659 83.9202 12.1645 83.8919 12.4604C83.9207 12.7566 83.8873 13.0556 83.7937 13.3381C83.7001 13.6206 83.5484 13.8805 83.3484 14.1009C83.1484 14.3213 82.9045 14.4974 82.6324 14.618C82.3603 14.7385 82.066 14.8008 81.7683 14.8008C81.4707 14.8008 81.1764 14.7385 80.9043 14.618C80.6321 14.4974 80.3882 14.3213 80.1883 14.1009C79.9883 13.8805 79.8366 13.6206 79.743 13.3381C79.6494 13.0556 79.616 12.7566 79.6448 12.4604ZM82.9778 12.4604C82.9778 11.4843 82.5393 10.9135 81.7698 10.9135C80.9973 10.9135 80.5628 11.4843 80.5628 12.4604C80.5628 13.4443 80.9974 14.0107 81.7698 14.0107C82.5393 14.0107 82.9778 13.4404 82.9778 12.4604Z" fill="white"/>
<path d="M85.0869 10.2105H85.9424V10.9258H86.0088C86.1214 10.6689 86.3114 10.4535 86.5523 10.3097C86.7932 10.1659 87.0729 10.1008 87.3525 10.1236C87.5716 10.1071 87.7916 10.1401 87.9962 10.2202C88.2008 10.3003 88.3848 10.4254 88.5345 10.5863C88.6841 10.7471 88.7957 10.9396 88.8609 11.1494C88.9261 11.3592 88.9433 11.581 88.9111 11.7984V14.7134H88.0225V12.0215C88.0225 11.2979 87.708 10.938 87.0508 10.938C86.902 10.9311 86.7535 10.9564 86.6155 11.0123C86.4774 11.0681 86.3531 11.1531 86.2509 11.2615C86.1488 11.3699 86.0713 11.4991 86.0238 11.6402C85.9763 11.7813 85.9598 11.9311 85.9756 12.0791V14.7134H85.0869V10.2105Z" fill="white"/>
<path d="M93.9326 9.08984V10.2314H94.9082V10.98H93.9326V13.2954C93.9326 13.7671 94.127 13.9736 94.5693 13.9736C94.6826 13.9733 94.7957 13.9664 94.9082 13.9531V14.6933C94.7486 14.7219 94.5869 14.7371 94.4248 14.7387C93.4365 14.7387 93.043 14.3911 93.043 13.5229V10.9799H92.3281V10.2314H93.043V9.08984H93.9326Z" fill="white"/>
<path d="M96.1191 8.45312H97V10.9346H97.0703C97.1884 10.6752 97.3837 10.4587 97.6294 10.3143C97.875 10.17 98.1593 10.1049 98.4433 10.1279C98.6613 10.1161 98.8791 10.1525 99.0814 10.2345C99.2837 10.3165 99.4654 10.4422 99.6135 10.6026C99.7616 10.7629 99.8725 10.9539 99.9383 11.1621C100.004 11.3702 100.023 11.5903 99.9941 11.8066V14.7139H99.1045V12.0259C99.1045 11.3066 98.7695 10.9424 98.1416 10.9424C97.9889 10.9298 97.8353 10.9508 97.6915 11.0039C97.5477 11.0569 97.4173 11.1408 97.3093 11.2495C97.2013 11.3582 97.1183 11.4893 97.0663 11.6334C97.0142 11.7775 96.9943 11.9313 97.0078 12.084V14.7138H96.1192L96.1191 8.45312Z" fill="white"/>
<path d="M105.177 13.4981C105.057 13.9096 104.795 14.2656 104.438 14.5038C104.082 14.7419 103.653 14.8471 103.226 14.8008C102.93 14.8087 102.635 14.7518 102.362 14.6343C102.09 14.5168 101.846 14.3414 101.648 14.1202C101.45 13.8991 101.303 13.6375 101.216 13.3537C101.129 13.0699 101.106 12.7706 101.146 12.4766C101.107 12.1817 101.131 11.8818 101.217 11.5971C101.304 11.3125 101.451 11.0497 101.647 10.8266C101.844 10.6036 102.087 10.4254 102.359 10.3042C102.63 10.183 102.925 10.1216 103.222 10.1241C104.475 10.1241 105.231 10.9801 105.231 12.3941V12.7042H102.051V12.754C102.038 12.9192 102.058 13.0856 102.112 13.2423C102.167 13.3991 102.253 13.5428 102.366 13.6642C102.479 13.7857 102.616 13.8822 102.768 13.9476C102.92 14.013 103.085 14.0458 103.251 14.044C103.463 14.0695 103.679 14.0312 103.869 13.934C104.06 13.8368 104.218 13.6851 104.322 13.4981L105.177 13.4981ZM102.051 12.0469H104.326C104.337 11.8958 104.316 11.744 104.266 11.6013C104.215 11.4586 104.134 11.3281 104.03 11.2182C103.926 11.1084 103.799 11.0216 103.659 10.9634C103.519 10.9052 103.369 10.877 103.217 10.8804C103.064 10.8785 102.911 10.9074 102.769 10.9653C102.626 11.0233 102.497 11.1091 102.388 11.2178C102.28 11.3265 102.194 11.4559 102.136 11.5983C102.078 11.7407 102.049 11.8932 102.051 12.0469H102.051Z" fill="white"/>
</svg>
