<svg width="24" height="24" viewBox="0 0 24 24" fill="none" xmlns="http://www.w3.org/2000/svg">
<path d="M16 8.00012C16 10.2093 14.2091 12.0001 12 12.0001C9.79086 12.0001 8 10.2093 8 8.00012C8 5.79098 9.79086 4.00012 12 4.00012C14.2091 4.00012 16 5.79098 16 8.00012Z" fill="#FFC72C"/>
<path d="M10.7256 9.74127V6.2688H12.32C12.5493 6.2688 12.746 6.30395 12.91 6.37426C13.074 6.44288 13.1996 6.54164 13.2866 6.67053C13.3753 6.79942 13.4197 6.95426 13.4197 7.13504V7.14006C13.4197 7.26225 13.3912 7.37691 13.3343 7.48404C13.2774 7.59117 13.1996 7.67988 13.1008 7.75019C13.0037 7.82049 12.8941 7.86485 12.7719 7.88326V7.92343C12.9242 7.93013 13.0615 7.97114 13.1837 8.04647C13.3059 8.12012 13.4021 8.21804 13.4724 8.34023C13.5444 8.46075 13.5804 8.59383 13.5804 8.73945V8.74447C13.5804 8.94701 13.531 9.12277 13.4323 9.27175C13.3335 9.42072 13.1929 9.53622 13.0104 9.61824C12.828 9.70026 12.6129 9.74127 12.3652 9.74127H10.7256ZM11.5918 9.11357L12.1417 9.11106C12.3258 9.10938 12.4606 9.07172 12.5459 8.99807C12.6313 8.92442 12.674 8.81394 12.674 8.66664V8.66162C12.674 8.52269 12.6305 8.41556 12.5434 8.34023C12.4581 8.26491 12.3225 8.22808 12.1367 8.22976L11.5918 8.23227V9.11357ZM11.5918 7.68742H12.0739C12.2346 7.68742 12.3601 7.65143 12.4505 7.57945C12.5409 7.50747 12.5861 7.41039 12.5861 7.2882V7.28317C12.5861 7.16265 12.5451 7.06724 12.4631 6.99694C12.3811 6.92664 12.2647 6.89232 12.1141 6.894L11.5918 6.89651V7.68742ZM11.8856 10.1706V5.82941H12.1693V10.1706H11.8856Z" fill="white"/>
<path d="M10.7256 9.74127V6.2688H12.32C12.5493 6.2688 12.746 6.30395 12.91 6.37426C13.074 6.44288 13.1996 6.54164 13.2866 6.67053C13.3753 6.79942 13.4197 6.95426 13.4197 7.13504V7.14006C13.4197 7.26225 13.3912 7.37691 13.3343 7.48404C13.2774 7.59117 13.1996 7.67988 13.1008 7.75019C13.0037 7.82049 12.8941 7.86485 12.7719 7.88326V7.92343C12.9242 7.93013 13.0615 7.97114 13.1837 8.04647C13.3059 8.12012 13.4021 8.21804 13.4724 8.34023C13.5444 8.46075 13.5804 8.59383 13.5804 8.73945V8.74447C13.5804 8.94701 13.531 9.12277 13.4323 9.27175C13.3335 9.42072 13.1929 9.53622 13.0104 9.61824C12.828 9.70026 12.6129 9.74127 12.3652 9.74127H10.7256ZM11.5918 9.11357L12.1417 9.11106C12.3258 9.10938 12.4606 9.07172 12.5459 8.99807C12.6313 8.92442 12.674 8.81394 12.674 8.66664V8.66162C12.674 8.52269 12.6305 8.41556 12.5434 8.34023C12.4581 8.26491 12.3225 8.22808 12.1367 8.22976L11.5918 8.23227V9.11357ZM11.5918 7.68742H12.0739C12.2346 7.68742 12.3601 7.65143 12.4505 7.57945C12.5409 7.50747 12.5861 7.41039 12.5861 7.2882V7.28317C12.5861 7.16265 12.5451 7.06724 12.4631 6.99694C12.3811 6.92664 12.2647 6.89232 12.1141 6.894L11.5918 6.89651V7.68742ZM11.8856 10.1706V5.82941H12.1693V10.1706H11.8856Z" fill="white"/>
<path d="M15.2692 20.0004H5.84766V15.7879C7.08537 13.164 11.4891 13.7811 14.2778 14.4024C15.0938 14.5842 15.6594 15.3205 15.6594 16.1565H16.2736L19.8645 13.4421C20.4431 13.0047 21.2615 13.0893 21.7385 13.6358C22.2596 14.2328 22.1726 15.145 21.5481 15.6329L16.5005 19.5764C16.1489 19.8511 15.7155 20.0004 15.2692 20.0004Z" fill="white"/>
<path d="M15.2692 20.0004H5.84766V15.7879C7.08537 13.164 11.4891 13.7811 14.2778 14.4024C15.0938 14.5842 15.6594 15.3205 15.6594 16.1565H16.2736L19.8645 13.4421C20.4431 13.0047 21.2615 13.0893 21.7385 13.6358C22.2596 14.2328 22.1726 15.145 21.5481 15.6329L16.5005 19.5764C16.1489 19.8511 15.7155 20.0004 15.2692 20.0004Z" fill="#E03C31" fill-opacity="0.3"/>
<path d="M5.84729 20.0005L5.84729 14.3213C5.84729 14.0451 5.62344 13.8213 5.34729 13.8213L2.5 13.8213C2.22386 13.8213 2 14.0451 2 14.3213L2 20.0005L5.84729 20.0005Z" fill="#E03C31"/>
</svg>
