<svg width="20" height="21" viewBox="0 0 20 21" fill="none" xmlns="http://www.w3.org/2000/svg">
<path d="M15.6569 15.6627C14.1566 17.1629 12.1217 18.0058 10 18.0058C7.87827 18.0058 5.84344 17.1629 4.34315 15.6627C2.84285 14.1624 2 12.1275 2 10.0058C2 7.88407 2.84285 5.84924 4.34315 4.34894C5.84344 2.84865 7.87827 2.0058 10 2.0058C12.1217 2.0058 14.1566 2.84865 15.6569 4.34894C17.1571 5.84924 18 7.88407 18 10.0058C18 12.1275 17.1571 14.1624 15.6569 15.6627Z" fill="#00BFB3"/>
<path fill-rule="evenodd" clip-rule="evenodd" d="M13.857 8.19678C13.9149 8.11707 13.9566 8.02673 13.9796 7.93092C14.0026 7.83511 14.0065 7.73572 13.991 7.6384C13.9756 7.54108 13.9412 7.44776 13.8897 7.36375C13.8382 7.27974 13.7707 7.20669 13.691 7.14878C13.6113 7.09087 13.521 7.04922 13.4251 7.02622C13.3293 7.00322 13.2299 6.99932 13.1326 7.01473C13.0353 7.03015 12.942 7.06458 12.858 7.11606C12.774 7.16754 12.7009 7.23507 12.643 7.31478L9.16 12.1048L7.28 10.2248C7.21078 10.1532 7.128 10.0961 7.03648 10.0568C6.94495 10.0176 6.84653 9.99692 6.74694 9.9961C6.64736 9.99528 6.54861 10.0143 6.45646 10.0521C6.3643 10.0898 6.28059 10.1455 6.2102 10.216C6.13982 10.2864 6.08417 10.3702 6.0465 10.4624C6.00883 10.5546 5.9899 10.6534 5.99082 10.7529C5.99173 10.8525 6.01246 10.9509 6.05181 11.0424C6.09116 11.1339 6.14834 11.2166 6.22 11.2858L8.72 13.7858C8.79663 13.8624 8.88896 13.9216 8.99065 13.9592C9.09233 13.9967 9.20095 14.0118 9.30901 14.0033C9.41708 13.9949 9.52203 13.9631 9.61663 13.9102C9.71123 13.8572 9.79324 13.7844 9.857 13.6968L13.857 8.19678Z" fill="white"/>
</svg>
