<svg width="10" height="7" viewBox="0 0 10 7" fill="none" xmlns="http://www.w3.org/2000/svg">
<path fill-rule="evenodd" clip-rule="evenodd" d="M8.86231 1.19129C8.92022 1.11157 8.96187 1.02124 8.98487 0.925428C9.00787 0.829621 9.01177 0.730223 8.99636 0.632907C8.98094 0.535591 8.94651 0.442264 8.89503 0.358255C8.84355 0.274246 8.77602 0.2012 8.69631 0.143287C8.6166 0.0853738 8.52626 0.0437282 8.43045 0.0207282C8.33465 -0.00227178 8.23525 -0.00617572 8.13793 0.0092388C8.04062 0.0246533 7.94729 0.0590849 7.86328 0.110567C7.77927 0.162049 7.70622 0.229574 7.64831 0.309287L4.16531 5.09929L2.28531 3.21929C2.21609 3.14769 2.13331 3.09059 2.04179 3.05133C1.95026 3.01206 1.85184 2.99142 1.75225 2.9906C1.65267 2.98979 1.55392 3.00881 1.46177 3.04656C1.36961 3.08432 1.2859 3.14005 1.21551 3.2105C1.14513 3.28095 1.08948 3.36472 1.05181 3.4569C1.01414 3.54909 0.995213 3.64786 0.996125 3.74745C0.997037 3.84703 1.01777 3.94543 1.05712 4.03692C1.09647 4.1284 1.15365 4.21113 1.22531 4.28029L3.72531 6.78029C3.80194 6.85696 3.89427 6.91611 3.99596 6.95366C4.09764 6.99121 4.20626 7.00628 4.31432 6.99782C4.42239 6.98936 4.52734 6.95758 4.62194 6.90466C4.71654 6.85174 4.79855 6.77895 4.86231 6.69129L8.86231 1.19129Z" fill="white"/>
</svg>
