<svg width="24" height="24" viewBox="0 0 24 24" fill="none" xmlns="http://www.w3.org/2000/svg">
<path d="M12.0854 7.94744L17.2416 13.1037C17.64 13.5021 17.8594 14.0318 17.8594 14.5952C17.8594 15.1587 17.64 15.6884 17.2416 16.0868L13.2846 20.0438C12.8856 20.4427 12.357 20.6616 11.7937 20.6616C11.7863 20.6616 11.7789 20.6616 11.7715 20.6615C11.2 20.6557 10.6672 20.4255 10.2714 20.0132L3.26283 12.7133H0.703125C0.314812 12.7133 0 12.3985 0 12.0102V4.97894C0 4.59063 0.314812 4.27582 0.703125 4.27582H6.67777L7.49114 3.86913C8.18564 3.52188 8.9632 3.33832 9.73978 3.33832C10.8914 3.33832 12.0182 3.73901 12.9125 4.46655L12.0854 7.94744Z" fill="white"/>
<path d="M12.0854 7.94744L17.2416 13.1037C17.64 13.5021 17.8594 14.0318 17.8594 14.5952C17.8594 15.1587 17.64 15.6884 17.2416 16.0868L13.2846 20.0438C12.8856 20.4427 12.357 20.6616 11.7937 20.6616C11.7863 20.6616 11.7789 20.6616 11.7715 20.6615C11.2 20.6557 10.6672 20.4255 10.2714 20.0132L3.26283 12.7133H0.703125C0.314812 12.7133 0 12.3985 0 12.0102V4.97894C0 4.59063 0.314812 4.27582 0.703125 4.27582H6.67777L7.49114 3.86913C8.18564 3.52188 8.9632 3.33832 9.73978 3.33832C10.8914 3.33832 12.0182 3.73901 12.9125 4.46655L12.0854 7.94744Z" fill="#CE0F69" fill-opacity="0.27"/>
<path d="M13.4524 19.876L11.4637 17.8872C11.1891 17.6126 11.1891 17.1675 11.4637 16.8929C11.7383 16.6183 12.1835 16.6183 12.4581 16.8929L14.4468 18.8816L13.4524 19.876ZM17.0874 16.241L15.0987 14.2523C14.8241 13.9777 14.3789 13.9777 14.1043 14.2523C13.8297 14.5269 13.8297 14.972 14.1043 15.2466L16.0931 17.2353L17.0874 16.241ZM23.2969 4.27582H18.2598L17.4465 3.86918C16.7519 3.52188 15.9744 3.33832 15.1978 3.33832C13.8548 3.33832 12.5921 3.86135 11.6423 4.81108L8.1408 8.3126C7.45437 8.99904 7.45437 10.112 8.1408 10.7984C8.82724 11.4849 9.94019 11.4849 10.6266 10.7984L12.7815 8.64358L17.2415 13.1037C17.64 13.5021 17.8594 14.0319 17.8594 14.5953C17.8594 14.7073 17.8504 14.8179 17.8333 14.9265L20.6788 12.7133H23.2969C23.6853 12.7133 24.0001 12.3985 24.0001 12.0102V4.97894C24.0001 4.59063 23.6853 4.27582 23.2969 4.27582Z" fill="#CE0037"/>
</svg>
