<svg width="24" height="24" viewBox="0 0 24 24" fill="none" xmlns="http://www.w3.org/2000/svg">
<path d="M2 8.60767C2 7.5031 2.89543 6.60767 4 6.60767H19.9999C21.1044 6.60767 21.9999 7.5031 21.9999 8.60767V18.0004C21.9999 19.105 21.1044 20.0004 19.9999 20.0004H4C2.89543 20.0004 2 19.105 2 18.0004V8.60767Z" fill="#103D9F"/>
<path d="M19.9999 6.60767H4C2.89543 6.60767 2 7.5031 2 8.60767V11.2415C2 11.6508 2.24943 12.0187 2.62962 12.1703L9.14323 14.7676C9.37889 14.8615 9.63028 14.9098 9.88399 14.9098H11.9999H14.1159C14.3696 14.9098 14.621 14.8615 14.8566 14.7676L21.3703 12.1703C21.7505 12.0187 21.9999 11.6508 21.9999 11.2415V8.60767C21.9999 7.5031 21.1044 6.60767 19.9999 6.60767Z" fill="#E28588"/>
<path d="M19.9999 6.60767H4C2.89543 6.60767 2 7.5031 2 8.60767V11.2415C2 11.6508 2.24943 12.0187 2.62962 12.1703L9.14323 14.7676C9.37889 14.8615 9.63028 14.9098 9.88399 14.9098H11.9999H14.1159C14.3696 14.9098 14.621 14.8615 14.8566 14.7676L21.3703 12.1703C21.7505 12.0187 21.9999 11.6508 21.9999 11.2415V8.60767C21.9999 7.5031 21.1044 6.60767 19.9999 6.60767Z" fill="white"/>
<path d="M19.9999 6.60767H4C2.89543 6.60767 2 7.5031 2 8.60767V11.2415C2 11.6508 2.24943 12.0187 2.62962 12.1703L9.14323 14.7676C9.37889 14.8615 9.63028 14.9098 9.88399 14.9098H11.9999H14.1159C14.3696 14.9098 14.621 14.8615 14.8566 14.7676L21.3703 12.1703C21.7505 12.0187 21.9999 11.6508 21.9999 11.2415V8.60767C21.9999 7.5031 21.1044 6.60767 19.9999 6.60767Z" fill="#00AEC7"/>
<rect x="10.3281" y="13.9497" width="3.34381" height="1.92015" rx="0.5" fill="#F1C2C4"/>
<rect x="10.3281" y="13.9497" width="3.34381" height="1.92015" rx="0.5" fill="white"/>
<rect x="10.3281" y="13.9497" width="3.34381" height="1.92015" rx="0.5" fill="white"/>
<path fill-rule="evenodd" clip-rule="evenodd" d="M8.06641 5.37539C8.06641 4.49173 8.78275 3.77539 9.66641 3.77539H14.3331C15.2167 3.77539 15.9331 4.49174 15.9331 5.37539V6.66715H14.7331V5.37539C14.7331 5.15448 14.554 4.97539 14.3331 4.97539H9.66641C9.44549 4.97539 9.26641 5.15448 9.26641 5.37539V6.66715H8.06641V5.37539Z" fill="#103D9F"/>
</svg>
