<svg width="20" height="20" viewBox="0 0 20 20" fill="none" xmlns="http://www.w3.org/2000/svg">
<path d="M14.2426 6.81807C14.3833 6.67742 14.4623 6.48665 14.4623 6.28774C14.4623 6.08883 14.3833 5.89806 14.2426 5.75741C14.102 5.61676 13.9112 5.53774 13.7123 5.53774C13.5134 5.53774 13.3226 5.61676 13.182 5.75741L10 8.93939L6.81802 5.75741C6.67737 5.61676 6.4866 5.53774 6.28769 5.53774C6.08878 5.53774 5.89801 5.61676 5.75736 5.75741C5.61671 5.89806 5.53769 6.08883 5.53769 6.28774C5.53769 6.48665 5.61671 6.67742 5.75736 6.81807L8.93934 10.0001L5.75736 13.182C5.61671 13.3227 5.53769 13.5134 5.53769 13.7124C5.53769 13.9113 5.61671 14.102 5.75736 14.2427C5.89801 14.3833 6.08878 14.4624 6.28769 14.4624C6.4866 14.4624 6.67737 14.3833 6.81802 14.2427L10 11.0607L13.182 14.2427C13.3226 14.3833 13.5134 14.4624 13.7123 14.4624C13.9112 14.4624 14.102 14.3833 14.2426 14.2427C14.3833 14.102 14.4623 13.9113 14.4623 13.7124C14.4623 13.5134 14.3833 13.3227 14.2426 13.182L11.0607 10.0001L14.2426 6.81807Z" fill="currentColor" fill-opacity="0.95"/>
</svg>
