<svg width="24" height="24" viewBox="0 0 24 24" fill="none" xmlns="http://www.w3.org/2000/svg">
<path fill-rule="evenodd" clip-rule="evenodd" d="M12.0075 3.00012C13.7774 3.00012 15.44 3.45961 16.8825 4.26581L14.1782 8.94981C13.5281 8.59899 12.784 8.39987 11.9934 8.39987C11.2029 8.39987 10.4589 8.59894 9.80876 8.9497L7.11133 4.27761C8.55871 3.4641 10.2289 3.00012 12.0075 3.00012ZM15.157 16.357L18.0218 21.0065C20.0984 19.4426 21.5466 17.0888 21.9198 14.3916H16.3893C16.1506 15.1501 15.7211 15.8241 15.157 16.357ZM16.6008 13.0074H22.0147C22.0147 9.7474 20.4559 6.85142 18.0429 5.0243L15.2915 9.78997C16.1016 10.6203 16.6008 11.7557 16.6008 13.0074Z" fill="#5B6770" fill-opacity="0.3"/>
<path fill-rule="evenodd" clip-rule="evenodd" d="M8.82915 16.3568C8.26515 15.8238 7.8357 15.15 7.5971 14.3916H2.09473C2.46675 17.0804 3.90702 19.4279 5.97326 20.9918L8.82915 16.3568Z" fill="#5B6770"/>
<path d="M8.69531 9.78985L5.95245 5.03906C3.55051 6.867 2 9.75616 2 13.0075L7.38576 13.0075C7.38576 11.7556 7.88503 10.6202 8.69531 9.78985Z" fill="#5B6770" fill-opacity="0.6"/>
<path fill-rule="evenodd" clip-rule="evenodd" d="M19.0827 10.1468C19.2279 10.0493 19.119 9.82412 18.9524 9.87745L12.6313 11.9009C12.4962 11.8507 12.3518 11.8186 12.2009 11.8076C11.3406 11.7447 10.5921 12.3911 10.5292 13.2515C10.4664 14.1118 11.1128 14.8602 11.9731 14.9231C12.7054 14.9766 13.3567 14.5162 13.5731 13.8474L19.0827 10.1468Z" fill="#E03C31"/>
</svg>
