<svg width="24" height="24" viewBox="0 0 24 24" fill="none" xmlns="http://www.w3.org/2000/svg">
<rect x="2" y="5.99976" width="20" height="12" rx="1" fill="white"/>
<rect x="2" y="5" width="20" height="14" rx="2" fill="white"/>
<rect x="2" y="5" width="20" height="14" rx="2" fill="#E03C31"/>
<rect x="4" y="9" width="6" height="2" rx="1" fill="white"/>
<rect x="4" y="9" width="6" height="2" rx="1" fill="white"/>
<rect x="4" y="13" width="6" height="2" rx="1" fill="white"/>
<rect x="4" y="13" width="6" height="2" rx="1" fill="white"/>
<path d="M15.7105 8.22028C15.8016 7.92657 16.1984 7.92657 16.2895 8.22028L17.0251 10.5914C17.0658 10.7227 17.1827 10.8116 17.3146 10.8116H19.695C19.9899 10.8116 20.1125 11.2068 19.8739 11.3883L17.9481 12.8537C17.8414 12.9349 17.7968 13.0788 17.8375 13.2102L18.5731 15.5812C18.6643 15.875 18.3433 16.1192 18.1047 15.9377L16.1789 14.4723C16.0722 14.3911 15.9278 14.3911 15.8211 14.4723L13.8953 15.9377C13.6567 16.1192 13.3357 15.875 13.4269 15.5812L14.1625 13.2102C14.2032 13.0788 14.1586 12.9349 14.0519 12.8537L12.1261 11.3883C11.8875 11.2068 12.0101 10.8116 12.305 10.8116H14.6854C14.8173 10.8116 14.9342 10.7227 14.9749 10.5914L15.7105 8.22028Z" fill="#FFC72C"/>
</svg>
