<svg xmlns="http://www.w3.org/2000/svg" width="26.586" height="26.586" viewBox="0 0 26.586 26.586">
  <path id="Path_1917" data-name="Path 1917" d="M13.543,1A12.543,12.543,0,1,1,1,13.543,12.524,12.524,0,0,1,13.543,1Zm0,0V26.007M1,13.543H26.007M22.378,4.787c-1.893,1.736-5.207,2.84-8.835,2.84-3.708,0-6.942-1.1-8.835-2.84M22.378,22.22c-1.893-1.736-5.128-2.84-8.835-2.84s-6.942,1.1-8.835,2.84m8.678,3.708A15.021,15.021,0,0,1,7.153,13.543,14.874,14.874,0,0,1,13.385,1.237m.473,24.692a15.021,15.021,0,0,0,6.232-12.385A14.874,14.874,0,0,0,13.859,1.237" transform="translate(-0.25 -0.25)" fill="none" stroke="#fff" stroke-miterlimit="10" stroke-width="1.5"/>
</svg>
