<svg width="62" height="25" viewBox="0 0 62 25" fill="none" xmlns="http://www.w3.org/2000/svg">
<path fill-rule="evenodd" clip-rule="evenodd" d="M26.3047 1.38716V18.8696H28.5571V11.7844H32.2588C32.9677 11.8016 33.673 11.6788 34.3343 11.4229C34.9957 11.1671 35.6 10.7833 36.1128 10.2936C36.6336 9.82992 37.0479 9.25896 37.327 8.61995C37.6061 7.98095 37.7435 7.28906 37.7296 6.59189C37.7392 5.89758 37.5999 5.20928 37.321 4.57338C37.0421 3.93748 36.6301 3.36875 36.1128 2.90551C35.6029 2.40986 34.9997 2.02037 34.3381 1.75963C33.6765 1.49888 32.9698 1.37207 32.2588 1.38655L26.3047 1.38716ZM32.3126 3.55458C32.7255 3.54139 33.1364 3.61716 33.5175 3.77675C33.8985 3.93635 34.2408 4.17603 34.521 4.47954C34.8092 4.75381 35.0387 5.08378 35.1954 5.44942C35.3522 5.81506 35.4331 6.20874 35.4331 6.60658C35.4331 7.00441 35.3522 7.3981 35.1954 7.76374C35.0387 8.12938 34.8092 8.45935 34.521 8.73361C34.2374 9.03184 33.8942 9.26709 33.5137 9.42412C33.1333 9.58115 32.7241 9.65644 32.3126 9.64512H28.5565V3.55458H32.3126Z" fill="black"/>
<path fill-rule="evenodd" clip-rule="evenodd" d="M43.5956 6.51002C42.6537 6.45697 41.714 6.64778 40.8675 7.064C40.0209 7.48022 39.2959 8.10779 38.7628 8.88604L40.7387 10.1157C41.0546 9.61739 41.4939 9.20916 42.0139 8.9305C42.5339 8.65184 43.1171 8.51221 43.7069 8.52511C44.5104 8.51492 45.2888 8.80507 45.8896 9.33873C46.1825 9.58307 46.4175 9.88947 46.5774 10.2357C46.7374 10.582 46.8184 10.9595 46.8146 11.341V11.8524C45.8038 11.3196 44.6706 11.0622 43.5289 11.1061C42.1922 11.0409 40.873 11.4305 39.7862 12.2115C39.3314 12.5547 38.966 13.0025 38.7211 13.517C38.4761 14.0315 38.3589 14.5974 38.3792 15.1668C38.3688 15.7221 38.484 16.2725 38.7161 16.777C38.9482 17.2815 39.2912 17.7271 39.7195 18.0806C40.6322 18.8764 41.8128 19.2964 43.023 19.2557C43.7664 19.2666 44.4999 19.0837 45.1512 18.725C45.8025 18.3663 46.3492 17.8442 46.7375 17.2101H46.8335V18.8685H48.9746V11.4951C49.0081 10.8204 48.8973 10.1463 48.6496 9.5178C48.4019 8.88929 48.0231 8.32083 47.5383 7.85036C46.4464 6.91553 45.0372 6.43572 43.6017 6.51002M43.9076 12.8899C44.9481 12.8332 45.9779 13.1248 46.8341 13.7188C46.8348 14.1868 46.7353 14.6495 46.5424 15.0758C46.3496 15.5022 46.0677 15.8824 45.7159 16.1909C45.3856 16.5249 44.9921 16.7897 44.5583 16.9698C44.1245 17.15 43.6591 17.2418 43.1894 17.24C42.5601 17.251 41.9459 17.0468 41.4483 16.6613C41.2167 16.494 41.0281 16.2738 40.8984 16.0192C40.7686 15.7645 40.7013 15.4826 40.702 15.1968C40.7062 14.8677 40.7926 14.5448 40.9533 14.2575C41.1139 13.9703 41.3438 13.7277 41.6221 13.5518C42.2898 13.0903 43.0891 12.8574 43.9002 12.8881" fill="black"/>
<path fill-rule="evenodd" clip-rule="evenodd" d="M49.2148 6.89655L54.159 18.0964L51.3694 24.1172H53.6891L61.1745 6.89655H58.7275L55.2632 15.4855H55.2197L51.6588 6.89655H49.2148Z" fill="black"/>
<path fill-rule="evenodd" clip-rule="evenodd" d="M10.0078 8.26697V12.121H15.4346C15.3319 12.7506 15.0994 13.352 14.7519 13.887C14.4044 14.422 13.9494 14.8789 13.4158 15.2286V17.7417H16.6471C17.6279 16.7867 18.3986 15.6375 18.91 14.3677C19.4214 13.0978 19.6622 11.7353 19.6171 10.3671C19.6181 9.66264 19.554 8.95961 19.4256 8.26697H10.0078Z" fill="#4285F4"/>
<path fill-rule="evenodd" clip-rule="evenodd" d="M1.0625 12.0483V14.6311C1.89349 16.2926 3.17118 17.6895 4.75211 18.6651C6.33305 19.6407 8.15463 20.1562 10.0123 20.1539C12.453 20.2248 14.8285 19.3608 16.6534 17.7387L13.4198 15.2251C12.6435 15.7261 11.7628 16.0428 10.8453 16.151C9.92773 16.2593 8.99758 16.1561 8.12602 15.8495C7.25446 15.5429 6.4646 15.041 5.8169 14.3821C5.1692 13.7233 4.68083 12.925 4.38917 12.0483H1.0625Z" fill="#34A853"/>
<path fill-rule="evenodd" clip-rule="evenodd" d="M1.0619 5.63959C0.363546 7.03763 0 8.57897 0 10.1417C0 11.7045 0.363546 13.2458 1.0619 14.6439L4.39102 12.0611C4.17908 11.4435 4.07097 10.795 4.07107 10.142C4.0697 9.48897 4.17785 8.84029 4.39102 8.22299V5.63959H1.0619Z" fill="#FABB05"/>
<path fill-rule="evenodd" clip-rule="evenodd" d="M10.0092 0.116603C8.15221 0.118185 6.33219 0.635582 4.75211 1.61109C3.17203 2.5866 1.89399 3.98186 1.06055 5.64128L4.38844 8.22162C4.7766 7.03132 5.52703 5.99207 6.5348 5.24919C7.54257 4.5063 8.75731 4.09691 10.0092 4.07827C11.4415 4.05632 12.8252 4.59709 13.8632 5.58438L16.7212 2.7257C14.9046 1.02286 12.5002 0.0880385 10.0104 0.116603" fill="#E94235"/>
</svg>
