<svg width="24" height="24" viewBox="0 0 24 24" fill="none" xmlns="http://www.w3.org/2000/svg">
<path d="M16 10.0001H21C21.5523 10.0001 22 10.4478 22 11.0001V22.0001H16V10.0001Z" fill="#007A53"/>
<path d="M2 3.00012C2 2.44784 2.44772 2.00012 3 2.00012H15C15.5523 2.00012 16 2.44784 16 3.00012V22.0001H2V3.00012Z" fill="#00BFB3"/>
<rect x="18" y="12.0001" width="2" height="2" rx="0.5" fill="white"/>
<rect x="18" y="16.0001" width="2" height="2" rx="0.5" fill="white"/>
<path d="M8 5.50012C8 5.22398 8.22386 5.00012 8.5 5.00012H9.5C9.77614 5.00012 10 5.22398 10 5.50012V10.5001C10 10.7763 9.77614 11.0001 9.5 11.0001H8.5C8.22386 11.0001 8 10.7763 8 10.5001V5.50012Z" fill="white"/>
<path d="M11.5 7.00012C11.7761 7.00012 12 7.22398 12 7.50012V8.50012C12 8.77626 11.7761 9.00012 11.5 9.00012L6.5 9.00012C6.22386 9.00012 6 8.77626 6 8.50012L6 7.50012C6 7.22398 6.22386 7.00012 6.5 7.00012L11.5 7.00012Z" fill="white"/>
</svg>
