<svg width="24" height="25" viewBox="0 0 24 25" fill="none" xmlns="http://www.w3.org/2000/svg">
<g clip-path="url(#clip0_1790_128376)">
<path d="M15.6125 23.1536C16.3211 23.1335 17.0269 23.055 17.7227 22.919C18.9156 22.5632 19.976 21.861 20.769 20.9014C21.5621 19.9418 22.0521 18.7682 22.1769 17.5296C22.2942 14.5963 22.2942 11.6674 22.1769 8.8532C22.0935 7.2644 21.4015 5.76873 20.2446 4.67665C19.0876 3.58457 17.5545 2.97995 15.9636 2.98831H8.10846C7.27064 2.85725 6.41276 2.98113 5.64624 3.34386C4.47767 3.80444 3.47937 4.61386 2.78718 5.662C2.095 6.71013 1.74255 7.94607 1.7778 9.20164V16.7056C1.79799 17.4143 1.87648 18.1201 2.01246 18.8159C2.36833 20.0095 3.07105 21.0704 4.03131 21.8637C4.99157 22.6569 6.16601 23.1468 7.40535 23.271C8.93246 23.271 14.4436 23.1536 15.6125 23.1536Z" fill="#757575"/>
<path d="M6.81885 13.0709C6.82982 12.062 7.13973 11.0791 7.70939 10.2464C8.27904 9.41375 9.08286 8.76872 10.0192 8.39292C10.9554 8.01712 11.9822 7.92744 12.9694 8.13522C13.9567 8.34301 14.8602 8.83892 15.5656 9.56023C16.271 10.2815 16.7466 11.1959 16.9323 12.1875C17.118 13.1792 17.0054 14.2036 16.6088 15.1313C16.2122 16.059 15.5494 16.8482 14.7042 17.3991C13.859 17.9501 12.8695 18.238 11.8606 18.2264C10.5286 18.1509 9.27285 17.5802 8.34001 16.6263C7.40718 15.6724 6.86461 14.4043 6.81885 13.0709ZM11.9744 9.78821C11.11 9.80726 10.2864 10.1593 9.67524 10.7709C9.06413 11.3825 8.71275 12.2065 8.6944 13.0709C8.71275 13.9353 9.06413 14.7592 9.67524 15.3708C10.2864 15.9824 11.11 16.3345 11.9744 16.3535C12.8403 16.3368 13.6662 15.9857 14.2792 15.3739C14.8923 14.762 15.2449 13.9368 15.2633 13.0709C15.2451 12.2048 14.8926 11.3794 14.2795 10.7673C13.6665 10.1553 12.8405 9.80412 11.9744 9.78732V9.78821Z" fill="white"/>
<path d="M16.1982 7.5608C16.1917 7.38751 16.2203 7.21471 16.2822 7.05271C16.344 6.89072 16.4379 6.74287 16.5583 6.618C16.6786 6.49313 16.8228 6.3938 16.9824 6.32596C17.142 6.25811 17.3136 6.22314 17.487 6.22314C17.6604 6.22314 17.8321 6.25811 17.9917 6.32596C18.1512 6.3938 18.2955 6.49313 18.4158 6.618C18.5361 6.74287 18.63 6.89072 18.6919 7.05271C18.7538 7.21471 18.7824 7.38751 18.7759 7.5608C18.7445 7.88079 18.5951 8.17762 18.3568 8.39356C18.1186 8.60951 17.8086 8.72911 17.487 8.72911C17.1655 8.72911 16.8555 8.60951 16.6172 8.39356C16.379 8.17762 16.2296 7.88079 16.1982 7.5608Z" fill="white"/>
<path d="M11.978 9.78809C12.8428 9.80646 13.6672 10.1582 14.2788 10.7699C14.8905 11.3816 15.2423 12.2059 15.2606 13.0708C15.2423 13.9356 14.8905 14.7599 14.2788 15.3716C13.6672 15.9833 12.8428 16.3351 11.978 16.3534C11.1131 16.3351 10.2888 15.9833 9.67712 15.3716C9.06544 14.7599 8.71369 13.9356 8.69532 13.0708C8.69461 12.6395 8.77904 12.2123 8.94376 11.8137C9.10849 11.4151 9.35026 11.053 9.65522 10.748C9.96019 10.443 10.3223 10.2013 10.7209 10.0365C11.1195 9.87182 11.5467 9.78739 11.978 9.78809Z" fill="#757575"/>
</g>
<defs>
<clipPath id="clip0_1790_128376">
<rect width="24" height="24" fill="white" transform="translate(0 0.75)"/>
</clipPath>
</defs>
</svg>
