<svg width="37" height="36" viewBox="0 0 37 36" fill="none" xmlns="http://www.w3.org/2000/svg">
<path d="M6.79118 0.375H28.8503C30.5191 0.375 32.1196 1.03793 33.2996 2.21796C34.4797 3.39798 35.1426 4.99844 35.1426 6.66724V28.7243C35.1426 30.3931 34.4797 31.9935 33.2996 33.1736C32.1196 34.3536 30.5191 35.0165 28.8503 35.0165H6.79224C5.12344 35.0165 3.52298 34.3536 2.34296 33.1736C1.16293 31.9935 0.5 30.3931 0.5 28.7243L0.5 6.66618C0.5 4.99765 1.16282 3.39747 2.34264 2.21764C3.52247 1.03782 5.12265 0.375 6.79118 0.375V0.375Z" fill="#161615"/>
<path opacity="0.2" d="M1.45898 35.0151C1.45898 35.0151 11.6972 3.29761 36.8502 -0.375V35.0493L1.45898 35.0151Z" fill="url(#paint0_linear_1815_18311)"/>
<path d="M14.5947 21.9585C14.3967 22.0114 14.1898 22.022 13.9874 21.9894C13.7851 21.9568 13.5919 21.8819 13.4205 21.7695C13.2491 21.657 13.1034 21.5097 12.9929 21.3371C12.8824 21.1645 12.8096 20.9705 12.7793 20.7678L11.0845 10.9492L11.108 11.0752L10.04 11.1703C9.84499 11.1777 9.65462 11.2321 9.48503 11.3287C9.31543 11.4253 9.17157 11.5613 9.06567 11.7252C8.95976 11.8892 8.89489 12.0762 8.87656 12.2705C8.85822 12.4649 8.88697 12.6607 8.96035 12.8416L8.98064 12.9025L8.52249 12.989C8.32886 13.0151 8.14436 13.0874 7.98457 13.1998C7.82478 13.3122 7.6944 13.4615 7.60443 13.6349C7.51447 13.8084 7.46756 14.0009 7.46768 14.1963C7.46781 14.3917 7.51496 14.5841 7.60515 14.7575L7.91911 15.4708L6.90885 15.8553C6.72207 15.9145 6.55229 16.0178 6.4139 16.1565C6.2755 16.2952 6.17256 16.4652 6.11378 16.6521C6.05501 16.839 6.04213 17.0373 6.07624 17.2302C6.11035 17.4232 6.19044 17.6051 6.30974 17.7605L11.8843 26.0038C11.9968 26.1763 12.1445 26.323 12.3176 26.4344C12.4908 26.5458 12.6855 26.6194 12.889 26.6504C13.0926 26.6813 13.3004 26.6689 13.4988 26.614C13.6972 26.5591 13.8818 26.4629 14.0405 26.3317L21.8278 20.0918L14.5947 21.9585Z" fill="white"/>
<path opacity="0.3" d="M6.30389 17.7621C6.1846 17.6067 6.10449 17.4248 6.07038 17.2319C6.03627 17.039 6.04915 16.8406 6.10793 16.6537C6.1667 16.4668 6.26966 16.2968 6.40805 16.1581C6.54645 16.0194 6.71621 15.9161 6.90299 15.857L16.6884 12.1363C17.6556 11.8278 18.7007 11.8709 19.6391 12.258L25.6761 15.1532C25.8498 15.2063 26.0042 15.309 26.1204 15.4487C26.2365 15.5883 26.3093 15.7589 26.3298 15.9393C26.3504 16.1198 26.3177 16.3024 26.236 16.4645C26.1542 16.6267 26.0268 16.7615 25.8694 16.8523L14.0368 26.3344C13.8781 26.4656 13.6935 26.5618 13.4951 26.6168C13.2966 26.6717 13.0888 26.6841 12.8853 26.6531C12.6817 26.6222 12.4871 26.5486 12.3139 26.4372C12.1408 26.3257 11.9931 26.179 11.8806 26.0066L6.30389 17.7621Z" fill="#C11D2A"/>
<path opacity="0.4" d="M7.59937 14.7575C7.50918 14.5842 7.46204 14.3917 7.46191 14.1963C7.46179 14.001 7.50868 13.8084 7.59865 13.635C7.68861 13.4615 7.81901 13.3123 7.9788 13.1999C8.13859 13.0874 8.3231 13.0151 8.51673 12.989L18.7144 11.0668C19.7129 10.9347 20.7257 11.1638 21.57 11.7128L26.9556 15.6332C27.1163 15.717 27.2493 15.8455 27.3385 16.0033C27.4276 16.1611 27.469 16.3414 27.4577 16.5223C27.4464 16.7032 27.3828 16.8769 27.2747 17.0224C27.1667 17.1679 27.0187 17.2789 26.8488 17.3419L13.646 24.5697C13.4677 24.6705 13.2701 24.7323 13.0661 24.7509C12.8621 24.7695 12.6566 24.7446 12.463 24.6778C12.2694 24.6109 12.0922 24.5037 11.9432 24.3631C11.7942 24.2226 11.6768 24.052 11.5988 23.8627L7.59937 14.7575Z" fill="#C11D2A"/>
<path opacity="0.5" d="M8.95438 12.8414C8.88101 12.6605 8.85228 12.4647 8.87061 12.2704C8.88894 12.076 8.95381 11.889 9.05972 11.7251C9.16563 11.5611 9.30946 11.4251 9.47906 11.3285C9.64866 11.2319 9.83903 11.1776 10.0341 11.1701L20.3684 10.256C21.3739 10.2247 22.3578 10.5513 23.145 11.1776L28.1323 15.6084C28.2843 15.7069 28.4045 15.8475 28.4782 16.013C28.5519 16.1785 28.576 16.3618 28.5475 16.5407C28.519 16.7196 28.4391 16.8864 28.3177 17.0208C28.1962 17.1553 28.0383 17.2515 27.8631 17.2979L14.0335 23.1982C13.8459 23.2806 13.6431 23.3223 13.4383 23.3206C13.2335 23.3189 13.0313 23.2738 12.8452 23.1884C12.659 23.1029 12.4931 22.979 12.3583 22.8248C12.2235 22.6706 12.1229 22.4896 12.0631 22.2936L8.95438 12.8414Z" fill="#C11D2A"/>
<path d="M11.0892 10.9494C11.0422 10.7594 11.0419 10.5609 11.0883 10.3707C11.1348 10.1806 11.2266 10.0046 11.3559 9.85765C11.4852 9.71072 11.6481 9.59729 11.8308 9.52705C12.0134 9.45681 12.2104 9.43184 12.4049 9.45429L22.7574 10.1079C23.7595 10.2276 24.6864 10.6996 25.3727 11.4396L29.6498 16.5742C29.7856 16.6937 29.8839 16.8501 29.9325 17.0243C29.9811 17.1986 29.978 17.3833 29.9235 17.5558C29.8691 17.7284 29.7657 17.8814 29.6259 17.9963C29.4861 18.1111 29.3159 18.1829 29.1361 18.2028L14.5941 21.9565C14.3961 22.0095 14.1892 22.02 13.9868 21.9874C13.7845 21.9548 13.5912 21.8799 13.4199 21.7675C13.2485 21.6551 13.1028 21.5078 12.9923 21.3351C12.8818 21.1625 12.809 20.9685 12.7786 20.7658L11.0892 10.9494Z" fill="#C11D2A"/>
<path d="M14.1896 13.6268C14.1864 13.5781 14.1943 13.5293 14.2129 13.4841C14.2314 13.439 14.2599 13.3986 14.2964 13.3662C14.3728 13.3062 14.4686 13.2762 14.5656 13.2818C14.635 13.281 14.7042 13.2911 14.7706 13.3117L14.8945 13.3566V15.1027C14.9916 15.0023 15.1145 14.8784 15.264 14.731C15.4135 14.5836 15.5651 14.4331 15.72 14.2825C15.8748 14.1319 16.0201 13.992 16.1568 13.8639C16.2935 13.7357 16.3992 13.6353 16.4771 13.568C16.5618 13.4947 16.6506 13.4263 16.7431 13.363C16.8295 13.3064 16.9313 13.2777 17.0346 13.2808C17.1427 13.276 17.2496 13.3055 17.34 13.3651C17.3974 13.4025 17.4489 13.4482 17.4927 13.5008C17.4735 13.521 17.4223 13.5702 17.34 13.6471C17.2578 13.7239 17.1596 13.8169 17.0464 13.9269L16.6704 14.2825L16.2646 14.6648C16.1322 14.7901 16.008 14.9094 15.8919 15.0226C15.7766 15.1347 15.6783 15.2276 15.6078 15.297C15.9994 15.6665 16.365 16.0392 16.7046 16.4151C17.0403 16.7846 17.3524 17.1748 17.639 17.5835H16.7666C16.6598 17.4542 16.5412 17.3037 16.396 17.1328C16.2507 16.9619 16.0969 16.7889 15.9293 16.6095C15.7616 16.4301 15.5897 16.2528 15.4103 16.0755C15.2309 15.8983 15.0547 15.7434 14.887 15.6014V17.5803H14.1875L14.1896 13.6268Z" fill="white"/>
<path d="M19.3027 13.9653H18.128C18.0815 13.9726 18.0338 13.9691 17.9889 13.9548C17.944 13.9405 17.903 13.916 17.8692 13.8831C17.8354 13.8503 17.8098 13.81 17.7943 13.7655C17.7787 13.721 17.7738 13.6735 17.7799 13.6267C17.7797 13.554 17.7921 13.4818 17.8162 13.4132C17.8311 13.3693 17.849 13.3265 17.8696 13.285H21.2239C21.2704 13.2776 21.318 13.2812 21.3629 13.2954C21.4078 13.3097 21.4488 13.3342 21.4825 13.3671C21.5162 13.4 21.5418 13.4403 21.5571 13.4848C21.5725 13.5294 21.5773 13.5769 21.571 13.6235C21.5717 13.696 21.5608 13.7681 21.539 13.8371C21.5261 13.8822 21.507 13.9253 21.4824 13.9653H20.0012V17.5845H19.3027V13.9653Z" fill="white"/>
<path d="M25.1154 17.2961C25.0583 17.3391 24.9988 17.3787 24.9371 17.4146C24.8455 17.468 24.7489 17.5124 24.6488 17.5471C24.5157 17.593 24.3793 17.6287 24.2408 17.6539C24.0645 17.6843 23.8857 17.6986 23.7068 17.6966C23.4261 17.6987 23.1473 17.6491 22.8845 17.5503C22.6238 17.4528 22.3864 17.3018 22.1876 17.107C21.9887 16.9122 21.8329 16.678 21.7301 16.4193C21.6097 16.1116 21.5509 15.7832 21.5571 15.4529C21.5521 15.1231 21.6086 14.7954 21.7237 14.4864C21.8259 14.2182 21.9822 13.9739 22.1829 13.7687C22.3752 13.5749 22.6058 13.4232 22.86 13.3234C23.1239 13.2199 23.4052 13.1677 23.6887 13.1696C23.922 13.1644 24.155 13.1895 24.3818 13.2444C24.5336 13.2818 24.678 13.3446 24.8089 13.4302C24.8971 13.4876 24.9703 13.5652 25.0225 13.6566C25.0571 13.7145 25.0779 13.7795 25.0834 13.8467C25.0834 13.9005 25.0729 13.9539 25.0524 14.0037C25.0321 14.0519 25.0059 14.0975 24.9745 14.1393C24.9478 14.1775 24.9178 14.2133 24.8847 14.2461C24.8592 14.2694 24.8317 14.2905 24.8025 14.3091C24.7538 14.2534 24.6994 14.2029 24.6402 14.1585C24.5649 14.0991 24.4833 14.0482 24.3967 14.0069C24.294 13.958 24.1867 13.9194 24.0763 13.8915C23.9515 13.8594 23.8229 13.8437 23.694 13.8446C23.5028 13.8414 23.313 13.8777 23.1365 13.9513C22.9654 14.023 22.8128 14.1326 22.6902 14.2717C22.5593 14.4204 22.4585 14.593 22.3933 14.7801C22.3186 14.9967 22.2825 15.2248 22.2865 15.4539C22.2812 15.6837 22.3196 15.9124 22.3997 16.1278C22.4686 16.3112 22.5757 16.4778 22.7137 16.6169C22.847 16.7481 23.0069 16.8493 23.1825 16.9138C23.3694 16.9814 23.5668 17.0154 23.7656 17.0142C23.9834 17.019 24.2004 16.985 24.4063 16.9138C24.5434 16.8663 24.6745 16.8032 24.7972 16.7258L25.1069 17.2961H25.1154Z" fill="white"/>
<defs>
<linearGradient id="paint0_linear_1815_18311" x1="31.2584" y1="38.2729" x2="14.7429" y2="9.73432" gradientUnits="userSpaceOnUse">
<stop stop-color="#161615"/>
<stop offset="0.272" stop-color="#1C1C1B"/>
<stop offset="0.665" stop-color="#302F2F"/>
<stop offset="1" stop-color="#464545"/>
</linearGradient>
</defs>
</svg>
