<svg width="34" height="25" viewBox="0 0 34 25" fill="none" xmlns="http://www.w3.org/2000/svg">
<path d="M9.65963 22.4513C9.13003 22.4513 8.60044 22.2748 8.18853 21.9806C7.71778 21.6863 7.36472 21.2744 7.12934 20.7448L1.95109 8.97607L1.18612 9.27029C0.0092412 9.6822 -0.343822 10.9179 0.362304 11.9183L8.18853 23.4517C8.89466 24.452 10.2481 24.6874 11.1896 23.9224L18.8981 17.7438L10.9542 22.0982C10.5423 22.3336 10.0715 22.4513 9.65963 22.4513Z" fill="#5B6670"/>
<path d="M10.366 20.4505C9.77754 20.4505 9.24794 20.274 8.77719 19.9209C8.30644 19.5678 7.95338 19.0971 7.77685 18.5087L3.4224 5.32764C2.24553 5.56301 1.71593 6.68104 2.18668 7.79908L7.77685 20.5093C8.2476 21.6274 9.54216 22.0981 10.6602 21.5097L18.251 17.3906L11.5428 20.274C11.1309 20.3917 10.719 20.4505 10.366 20.4505Z" fill="#5B6670"/>
<path d="M11.425 18.6271C10.7777 18.6271 10.1304 18.3917 9.65965 17.9798C9.1889 17.5679 8.83584 16.9795 8.71815 16.3322L6.3644 2.73926L5.59943 2.7981C4.36371 2.91579 3.71642 3.97498 4.06949 5.15185L8.42393 18.3917C8.83584 19.5686 10.0716 20.157 11.1896 19.6274L15.9559 17.5679L12.1311 18.5094C11.8957 18.5682 11.6603 18.6271 11.425 18.6271Z" fill="#5B6670"/>
<path d="M33.0215 10.3295L27.0195 3.1506C26.2545 2.2091 24.6069 1.38529 23.3712 1.2676L8.89557 0.384943C7.65985 0.267255 6.83604 1.20876 7.07142 2.44448L9.42517 16.1551C9.66054 17.3908 10.7786 18.1558 11.9555 17.8027L32.3154 12.5656C33.4923 12.2714 33.8454 11.271 33.0215 10.3295ZM15.0153 11.7418C14.8976 11.5653 14.7211 11.3299 14.4857 11.0945C14.3092 10.8591 14.0738 10.6238 13.8385 10.3884C13.6031 10.153 13.3677 9.91764 13.1323 9.62342C12.897 9.38805 12.6616 9.15267 12.4262 8.97614V11.7418H11.4259V6.21048C11.4259 6.03395 11.4847 5.91626 11.5435 5.85742C11.6612 5.79857 11.7789 5.73973 11.8966 5.73973C12.0143 5.73973 12.0731 5.73973 12.1908 5.79857C12.2497 5.79857 12.3085 5.85742 12.3674 5.85742V8.32886C12.485 8.21117 12.6616 8.03464 12.897 7.79926C13.1323 7.56389 13.3089 7.38736 13.5442 7.15198C13.7796 6.9166 13.9561 6.74007 14.1327 6.56354C14.3092 6.38701 14.4857 6.26932 14.6034 6.15164C14.7211 6.03395 14.8388 5.91626 14.9565 5.85742C15.0742 5.79857 15.1919 5.73973 15.3684 5.73973C15.5449 5.73973 15.6626 5.79857 15.7803 5.85742C15.898 5.91626 15.9568 5.9751 16.0157 6.03395C16.0157 6.03395 15.898 6.15164 15.7803 6.21048C15.6626 6.32817 15.5449 6.44586 15.3684 6.62239C15.1919 6.79892 15.0153 6.91661 14.8388 7.09314C14.6623 7.26967 14.4857 7.4462 14.2504 7.62273C14.0738 7.79926 13.8973 7.97579 13.7208 8.09348C13.5442 8.27001 13.4265 8.3877 13.3089 8.50539C13.8385 9.03498 14.3681 9.56458 14.8388 10.0942C15.3096 10.6238 15.7215 11.1534 16.1334 11.7418H15.0153ZM21.6058 6.68123H19.5463V11.7418H18.546V6.68123H16.8983C16.6041 6.68123 16.4276 6.5047 16.4276 6.21048C16.4276 6.09279 16.4276 5.9751 16.4864 5.91626C16.5453 5.79857 16.5453 5.73973 16.5453 5.73973H21.2528C21.547 5.73973 21.7235 5.91626 21.7235 6.21048C21.7235 6.32817 21.7235 6.44586 21.6647 6.5047C21.6647 6.56354 21.6058 6.62239 21.6058 6.68123ZM26.431 11.5064C26.3133 11.5653 26.1957 11.6241 26.0191 11.683C25.8426 11.7418 25.6661 11.8006 25.4307 11.8595C25.1953 11.9183 24.9599 11.9183 24.6657 11.9183C24.2538 11.9183 23.9007 11.8595 23.4888 11.683C23.1358 11.5653 22.7827 11.3299 22.5473 11.0945C22.2531 10.8591 22.0766 10.5061 21.9001 10.0942C21.7235 9.68227 21.6647 9.27036 21.6647 8.74076C21.6647 8.21117 21.7235 7.79926 21.9001 7.38736C22.0766 6.97545 22.2531 6.68123 22.5473 6.38701C22.8416 6.09279 23.1358 5.91626 23.4888 5.73973C23.8419 5.62204 24.2538 5.50435 24.6657 5.50435C25.0776 5.50435 25.3718 5.5632 25.6072 5.62204C25.8426 5.68089 26.078 5.79857 26.1957 5.85742C26.3133 5.9751 26.431 6.09279 26.4899 6.15164C26.5487 6.26932 26.5487 6.32817 26.5487 6.44585C26.5487 6.5047 26.5487 6.62239 26.4899 6.68123C26.431 6.74007 26.431 6.79892 26.3722 6.85776C26.3133 6.91661 26.3133 6.97545 26.2545 6.97545C26.1957 7.03429 26.1957 7.03429 26.1368 7.03429C26.078 6.97545 26.0191 6.91661 25.9014 6.79892C25.7838 6.74007 25.6661 6.68123 25.5484 6.56354C25.4307 6.5047 25.2542 6.44585 25.0776 6.38701C24.9011 6.32817 24.7246 6.32817 24.548 6.32817C24.2538 6.32817 24.0184 6.38701 23.7831 6.5047C23.5477 6.62239 23.3123 6.74007 23.1358 6.97545C22.9592 7.15198 22.8416 7.38736 22.7239 7.68158C22.6062 7.97579 22.5473 8.27001 22.5473 8.62308C22.5473 8.97614 22.6062 9.27036 22.7239 9.56458C22.8416 9.8588 22.9592 10.0353 23.1358 10.2707C23.3123 10.4472 23.5477 10.5649 23.7831 10.6826C24.0184 10.8003 24.3127 10.8003 24.6069 10.8003C24.9599 10.8003 25.2542 10.7415 25.4895 10.6826C25.7249 10.5649 25.9014 10.5061 26.0191 10.4472L26.431 11.271C26.6076 11.3887 26.5487 11.4476 26.431 11.5064Z" fill="#5B6670"/>
</svg>
