<svg width="75" height="59" viewBox="0 0 75 59" fill="none" xmlns="http://www.w3.org/2000/svg">
<g filter="url(#filter0_dd_1368_77795)">
<g clip-path="url(#clip0_1368_77795)">
<path d="M59.1183 23.2265L48.4606 13.7023C46.7872 12.3462 44.6893 11.6348 42.5428 11.6958L20.4925 13.6854C20.0746 13.6971 19.6658 13.8107 19.3011 14.0165C18.9364 14.2223 18.6266 14.5141 18.3983 14.867C18.17 15.2198 18.03 15.6232 17.9903 16.0425C17.9505 16.4618 18.0123 16.8846 18.1702 17.2746L18.2095 17.4102L17.2335 17.5968C16.8208 17.653 16.4276 17.8083 16.087 18.0498C15.7464 18.2912 15.4684 18.6116 15.2765 18.984C15.0845 19.3564 14.9843 19.7699 14.9842 20.1895C14.9841 20.6091 15.0841 21.0226 15.2758 21.3951L15.9433 22.9325L13.8062 23.7578C13.4094 23.8878 13.0495 24.1122 12.757 24.412C12.4644 24.7119 12.2479 25.0783 12.1258 25.4804C12.0036 25.8824 11.9794 26.3082 12.0551 26.7216C12.1309 27.1351 12.3043 27.5241 12.5609 27.8557L24.4527 45.5757C24.6925 45.9465 25.0074 46.2621 25.3767 46.5018C25.7459 46.7415 26.1613 46.8998 26.5955 46.9665C27.0298 47.0332 27.4731 47.0068 27.8965 46.8888C28.3199 46.7709 28.7137 46.5642 29.0523 46.2822L45.6559 32.8693L49.4647 30.7666L58.5574 26.8552C60.2402 26.1148 60.5206 24.4813 59.1183 23.2265Z" fill="white"/>
<path opacity="0.3" d="M12.5609 27.8557C12.3048 27.5222 12.1324 27.1313 12.0584 26.7162C11.9845 26.3012 12.0112 25.8743 12.1362 25.4718C12.2613 25.0694 12.481 24.7034 12.7766 24.4049C13.0723 24.1065 13.4351 23.8845 13.8343 23.7577L34.6897 15.7541C36.7514 15.0939 38.9782 15.188 40.9778 16.0197L53.8792 22.2373C55.562 23.0568 55.764 24.7017 54.2887 25.8887L29.0467 46.2765C28.7082 46.5585 28.3143 46.7652 27.8909 46.8831C27.4675 47.0011 27.0242 47.0275 26.59 46.9608C26.1557 46.8941 25.7404 46.7358 25.3711 46.4961C25.0018 46.2564 24.6869 45.9408 24.4471 45.57L12.5609 27.8557Z" fill="#CF3339"/>
<path opacity="0.4" d="M15.2926 21.3951C15.1009 21.0226 15.0009 20.6091 15.001 20.1895C15.0011 19.7698 15.1013 19.3564 15.2933 18.984C15.4852 18.6116 15.7632 18.2912 16.1038 18.0497C16.4444 17.8083 16.8376 17.6529 17.2503 17.5967L39.0089 13.4592C41.1371 13.1783 43.2951 13.6713 45.095 14.8497L56.5941 23.2773C58.1142 24.4078 58.0076 26.0413 56.3641 26.9513L28.1997 42.4895C27.8192 42.7062 27.3973 42.8389 26.962 42.8789C26.5267 42.9189 26.088 42.8653 25.6748 42.7215C25.2617 42.5778 24.8835 42.3472 24.5655 42.045C24.2475 41.7429 23.9968 41.3762 23.83 40.969L15.2926 21.3951Z" fill="#CF3339"/>
<path opacity="0.5" d="M18.1702 17.2746C18.0127 16.8859 17.9507 16.4646 17.9895 16.0466C18.0284 15.6285 18.1669 15.2262 18.3933 14.8737C18.6197 14.5212 18.9273 14.2291 19.2898 14.0222C19.6524 13.8153 20.0592 13.6997 20.4756 13.6854L42.5427 11.6958C44.6892 11.6348 46.7872 12.3462 48.4605 13.7023L59.1182 23.2265C60.5206 24.4813 60.2401 26.1148 58.5573 26.8552L29.0354 39.5447C28.6351 39.7219 28.2021 39.8118 27.7649 39.8083C27.3277 39.8048 26.8961 39.708 26.4987 39.5243C26.1012 39.3406 25.7469 39.0742 25.459 38.7426C25.1712 38.4109 24.9562 38.0216 24.8284 37.6003L18.1702 17.2746Z" fill="#CF3339"/>
<path d="M22.7305 13.2105C22.6308 12.8027 22.6305 12.3767 22.7298 11.9688C22.829 11.561 23.0249 11.1834 23.3005 10.8684C23.5762 10.5534 23.9234 10.3104 24.3126 10.1602C24.7017 10.0099 25.1212 9.95687 25.5352 10.0056L47.6247 11.4074C49.7631 11.6668 51.7408 12.6823 53.206 14.2731L62.3436 25.3064C63.5496 26.759 63.056 28.336 61.2217 28.8108L30.219 36.8767C29.7955 36.9896 29.3532 37.0112 28.9209 36.9402C28.4886 36.8691 28.0761 36.7069 27.7103 36.4641C27.3444 36.2214 27.0335 35.9036 26.7979 35.5315C26.5623 35.1594 26.4073 34.7414 26.3429 34.3049L22.7305 13.2105Z" fill="#CF3339"/>
<path d="M29.3554 18.9645C29.3459 18.8602 29.3602 18.755 29.3972 18.6571C29.4341 18.5592 29.4927 18.471 29.5685 18.3993C29.7287 18.2746 29.9272 18.2106 30.1294 18.2184C30.2798 18.2166 30.4295 18.2395 30.5726 18.2862L30.8362 18.3767V22.1355L31.6327 21.3385L32.6088 20.3776C32.9341 20.0554 33.2482 19.7558 33.5399 19.4732C33.8316 19.1906 34.056 18.9871 34.2186 18.8458C34.3966 18.6858 34.5839 18.5367 34.7796 18.3993C34.9646 18.2783 35.1818 18.2172 35.4022 18.2241C35.6324 18.2156 35.8596 18.2788 36.0529 18.4049C36.1745 18.4848 36.2841 18.5818 36.3782 18.6932C36.339 18.7384 36.2324 18.8458 36.0529 19.0097L35.4303 19.6089C35.1891 19.8463 34.9254 20.1006 34.6281 20.3776C34.3308 20.6546 34.0672 20.9428 33.7643 21.1972L32.9678 21.9659C32.7266 22.2089 32.519 22.4068 32.362 22.5311C33.1959 23.3224 33.9774 24.1232 34.7067 24.9333C35.4149 25.7385 36.0743 26.586 36.6811 27.4712H34.8581C34.6393 27.1943 34.3757 26.8721 34.0672 26.5103C33.7587 26.1486 33.4277 25.7699 33.0687 25.3799C32.7097 24.9899 32.3451 24.6112 31.9469 24.2494C31.5486 23.8877 31.1896 23.5372 30.825 23.232V27.4825H29.3554V18.9645Z" fill="white"/>
<path d="M40.2653 19.6937H37.758C37.6586 19.7096 37.557 19.7018 37.4611 19.6711C37.3653 19.6403 37.2779 19.5874 37.2059 19.5166C37.134 19.4457 37.0795 19.3589 37.0468 19.2631C37.0141 19.1672 37.0041 19.065 37.0175 18.9645C37.0162 18.8066 37.0428 18.6496 37.0961 18.501C37.1233 18.4049 37.1609 18.312 37.2083 18.2241H44.3602C44.4591 18.2092 44.5601 18.2176 44.6552 18.2488C44.7503 18.28 44.837 18.3331 44.9082 18.4038C44.9795 18.4745 45.0335 18.561 45.0659 18.6563C45.0983 18.7517 45.1083 18.8533 45.095 18.9532C45.0967 19.1103 45.074 19.2667 45.0277 19.4167C45.0018 19.5143 44.9621 19.6075 44.9099 19.6937H41.7574V27.4712H40.2653V19.6937Z" fill="white"/>
<path d="M52.662 26.8551C52.5723 26.923 52.4432 27.0077 52.2862 27.1095C52.0899 27.2232 51.8833 27.3178 51.6692 27.3921C51.3861 27.493 51.0953 27.5705 50.7997 27.6239C50.4291 27.6871 50.0537 27.7174 49.6778 27.7143C49.0707 27.722 48.4675 27.6146 47.8997 27.3978C47.3573 27.1919 46.8614 26.8787 46.4413 26.4764C46.006 26.0504 45.6657 25.536 45.4428 24.9673C45.1928 24.3036 45.0747 23.5968 45.095 22.8872C45.0836 22.1796 45.2034 21.4761 45.4484 20.8128C45.6673 20.2374 45.9992 19.7126 46.4244 19.2697C46.8373 18.8513 47.332 18.5241 47.8772 18.3088C48.4401 18.0869 49.0398 17.9756 49.6442 17.981C50.1407 17.9681 50.6367 18.0213 51.1194 18.1393C51.4423 18.2214 51.7494 18.357 52.0282 18.5406C52.2192 18.6633 52.3788 18.8299 52.4937 19.0267C52.5694 19.1495 52.6137 19.2894 52.6227 19.4337C52.6232 19.5501 52.6003 19.6655 52.5554 19.7728C52.5126 19.875 52.458 19.9717 52.3928 20.0611C52.3346 20.1426 52.2689 20.2183 52.1964 20.2872C52.1437 20.3388 52.0854 20.3843 52.0225 20.4228C51.9193 20.3026 51.8047 20.1928 51.6804 20.095C51.5171 19.9711 51.3424 19.8632 51.1587 19.7728C50.9404 19.6694 50.7132 19.5861 50.48 19.5241C50.2145 19.4541 49.941 19.4199 49.6666 19.4224C49.2583 19.4185 48.8535 19.4993 48.4774 19.6597C48.112 19.8141 47.786 20.0499 47.5239 20.3493C47.2446 20.6683 47.0293 21.0387 46.89 21.4402C46.7311 21.9056 46.6533 22.3951 46.66 22.8872C46.6488 23.3829 46.7326 23.8761 46.9068 24.3399C47.0503 24.7353 47.2782 25.0942 47.5743 25.3912C47.8591 25.675 48.2017 25.8929 48.5784 26.0299C48.9751 26.1774 49.3953 26.2502 49.8181 26.2447C50.2798 26.2575 50.7399 26.1847 51.1755 26.0299C51.4708 25.9321 51.7518 25.7953 52.0113 25.6229L52.6732 26.8551H52.662Z" fill="white"/>
</g>
</g>
<defs>
<filter id="filter0_dd_1368_77795" x="0" y="0" width="75" height="61" filterUnits="userSpaceOnUse" color-interpolation-filters="sRGB">
<feFlood flood-opacity="0" result="BackgroundImageFix"/>
<feColorMatrix in="SourceAlpha" type="matrix" values="0 0 0 0 0 0 0 0 0 0 0 0 0 0 0 0 0 0 127 0" result="hardAlpha"/>
<feOffset dy="2"/>
<feGaussianBlur stdDeviation="6"/>
<feComposite in2="hardAlpha" operator="out"/>
<feColorMatrix type="matrix" values="0 0 0 0 0 0 0 0 0 0 0 0 0 0 0 0 0 0 0.03 0"/>
<feBlend mode="normal" in2="BackgroundImageFix" result="effect1_dropShadow_1368_77795"/>
<feColorMatrix in="SourceAlpha" type="matrix" values="0 0 0 0 0 0 0 0 0 0 0 0 0 0 0 0 0 0 127 0" result="hardAlpha"/>
<feOffset dy="1"/>
<feGaussianBlur stdDeviation="1"/>
<feComposite in2="hardAlpha" operator="out"/>
<feColorMatrix type="matrix" values="0 0 0 0 0 0 0 0 0 0 0 0 0 0 0 0 0 0 0.06 0"/>
<feBlend mode="normal" in2="effect1_dropShadow_1368_77795" result="effect2_dropShadow_1368_77795"/>
<feBlend mode="normal" in="SourceGraphic" in2="effect2_dropShadow_1368_77795" result="shape"/>
</filter>
<clipPath id="clip0_1368_77795">
<rect width="51" height="37" fill="white" transform="translate(12 10)"/>
</clipPath>
</defs>
</svg>
