<svg width="24" height="25" viewBox="0 0 24 25" fill="none" xmlns="http://www.w3.org/2000/svg">
<path d="M12 2.75C17.5138 2.75 22 6.41107 22 10.912C22 12.7136 21.3062 14.3354 19.8563 15.9334C17.7587 18.3623 13.0675 21.3206 12 21.7732C10.9625 22.2133 11.0825 21.5255 11.13 21.254L11.1337 21.2314L11.2762 20.3701C11.31 20.1137 11.345 19.7151 11.2437 19.4612C11.1313 19.1808 10.6888 19.035 10.3638 18.9646C5.5575 18.3271 2 14.9464 2 10.912C2 6.41107 6.4875 2.75 12 2.75ZM8.2775 12.4131H6.37125V8.93308C6.37125 8.88128 6.35088 8.83159 6.31458 8.79484C6.27828 8.7581 6.229 8.73729 6.1775 8.73695H5.475C5.44939 8.73695 5.42404 8.74203 5.40038 8.75188C5.37672 8.76174 5.35522 8.77619 5.33711 8.7944C5.31901 8.81261 5.30464 8.83423 5.29484 8.85803C5.28504 8.88182 5.28 8.90733 5.28 8.93308V13.3158C5.28 13.3674 5.30125 13.4164 5.335 13.4503V13.4516L5.3375 13.4541L5.34 13.4566C5.37625 13.4917 5.42471 13.5111 5.475 13.5107H8.2775C8.385 13.5107 8.47125 13.4227 8.47125 13.3145V12.6105C8.47141 12.5847 8.46653 12.5592 8.45689 12.5353C8.44724 12.5115 8.43301 12.4898 8.41502 12.4714C8.39703 12.4531 8.37562 12.4385 8.35203 12.4285C8.32843 12.4185 8.30311 12.4133 8.2775 12.4131ZM9.26625 8.73695C9.21453 8.73695 9.16493 8.75762 9.12836 8.7944C9.09179 8.83118 9.07125 8.88107 9.07125 8.93308V13.3158C9.07125 13.4239 9.15875 13.5107 9.26625 13.5107H9.96875C10.0763 13.5107 10.1625 13.4227 10.1625 13.3158V8.93308C10.1625 8.88128 10.1421 8.83159 10.1058 8.79484C10.0695 8.7581 10.0203 8.73729 9.96875 8.73695H9.26625ZM14.095 8.73695C14.0433 8.73695 13.9937 8.75762 13.9571 8.7944C13.9205 8.83118 13.9 8.88107 13.9 8.93308V11.5356L11.9037 8.82496C11.8987 8.81836 11.8933 8.81206 11.8875 8.8061V8.80484C11.8835 8.80044 11.8794 8.79625 11.875 8.79227L11.8713 8.7885C11.867 8.78438 11.8624 8.78059 11.8575 8.77718H11.8563L11.85 8.77216L11.8462 8.76964C11.8443 8.76818 11.8422 8.76691 11.84 8.76587L11.83 8.75958H11.8275L11.8238 8.75707L11.8112 8.75204L11.8062 8.74953C11.8022 8.74803 11.798 8.74677 11.7937 8.74575H11.7913L11.7875 8.7445L11.7762 8.74198H11.7688L11.765 8.74073H11.76L11.7575 8.73947H11.04C10.9885 8.73947 10.9391 8.75996 10.9026 8.79647C10.866 8.83298 10.8453 8.88254 10.845 8.93434V13.3171C10.845 13.4252 10.9325 13.5119 11.04 13.5119H11.74C11.8488 13.5119 11.9362 13.4239 11.9362 13.3171V10.7146L13.9362 13.4302C13.9495 13.4489 13.9661 13.4651 13.985 13.478L13.9862 13.4792L13.9987 13.4868L14.0037 13.4893C14.007 13.4912 14.0103 13.4929 14.0138 13.4943L14.0225 13.4981L14.0288 13.5006C14.0329 13.502 14.037 13.5033 14.0413 13.5044H14.045C14.0613 13.5091 14.0781 13.5116 14.095 13.5119H14.795C14.9038 13.5119 14.9912 13.4239 14.9912 13.3171V8.93308C14.9912 8.88107 14.9707 8.83118 14.9341 8.7944C14.8976 8.75762 14.848 8.73695 14.7963 8.73695H14.095ZM18.8638 9.63839V8.93434C18.8639 8.90858 18.859 8.88305 18.8494 8.85919C18.8397 8.83533 18.8255 8.81361 18.8075 8.79529C18.7895 8.77696 18.7681 8.76237 18.7445 8.75236C18.7209 8.74235 18.6956 8.73712 18.67 8.73695H15.8675C15.8171 8.73701 15.7686 8.75686 15.7325 8.79227H15.7312L15.73 8.79479L15.7275 8.79856C15.6926 8.83458 15.6729 8.88278 15.6725 8.93308V13.3158C15.6725 13.3674 15.6938 13.4164 15.7275 13.4503L15.73 13.4541L15.7325 13.4566C15.7688 13.4916 15.8172 13.511 15.8675 13.5107H18.67C18.7775 13.5107 18.8638 13.4227 18.8638 13.3145V12.6105C18.8639 12.5847 18.859 12.5592 18.8494 12.5353C18.8397 12.5115 18.8255 12.4898 18.8075 12.4714C18.7895 12.4531 18.7681 12.4385 18.7445 12.4285C18.7209 12.4185 18.6956 12.4133 18.67 12.4131H16.7625V11.6726H18.6688C18.7763 11.6726 18.8625 11.5846 18.8625 11.4765V10.7724C18.8627 10.7467 18.8578 10.7211 18.8481 10.6973C18.8385 10.6734 18.8243 10.6517 18.8063 10.6334C18.7883 10.615 18.7669 10.6004 18.7433 10.5904C18.7197 10.5804 18.6944 10.5752 18.6688 10.575H16.7625V9.83452H18.6688C18.7763 9.83452 18.8625 9.74651 18.8625 9.63839H18.8638Z" fill="#757575"/>
</svg>
