<svg width="40" height="40" viewBox="0 0 40 40" fill="none" xmlns="http://www.w3.org/2000/svg">
<path d="M24.1108 28.83H15.5552C14.9664 28.8282 14.4022 28.5935 13.9858 28.1772C13.5695 27.7608 13.3348 27.1966 13.333 26.6078V20.9411C13.3348 20.3523 13.5695 19.7881 13.9858 19.3717C14.4022 18.9553 14.9664 18.7206 15.5552 18.7189H24.1108C24.6996 18.7206 25.2638 18.9553 25.6802 19.3717C26.0966 19.7881 26.3312 20.3523 26.333 20.9411V26.6078C26.3312 27.1966 26.0966 27.7608 25.6802 28.1772C25.2638 28.5935 24.6996 28.8282 24.1108 28.83Z" stroke="white" stroke-width="1.5" stroke-miterlimit="10"/>
<path d="M15.5547 18.7189V16.0967C15.5741 15.5517 15.7025 15.016 15.9322 14.5214C16.1619 14.0267 16.4882 13.583 16.8921 13.2164C17.2959 12.8499 17.769 12.5679 18.2836 12.387C18.7981 12.2061 19.3436 12.1301 19.888 12.1634V12.1634C20.9831 12.1147 22.0531 12.5008 22.8648 13.2375C23.6765 13.9743 24.1641 15.002 24.2214 16.0967V18.7189" stroke="white" stroke-width="1.5" stroke-miterlimit="10"/>
<path d="M19.8887 22.4967V25.0523" stroke="white" stroke-width="2" stroke-miterlimit="10" stroke-linecap="round" stroke-linejoin="round"/>
</svg>
