<svg width="40" height="40" viewBox="0 0 40 40" fill="none" xmlns="http://www.w3.org/2000/svg">
<path d="M28.05 19H11.95C11.4253 19 11 19.4253 11 19.95V20.05C11 20.5747 11.4253 21 11.95 21H28.05C28.5747 21 29 20.5747 29 20.05V19.95C29 19.4253 28.5747 19 28.05 19Z" fill="white"/>
<path d="M28.05 25H11.95C11.4253 25 11 25.4253 11 25.95V26.05C11 26.5747 11.4253 27 11.95 27H28.05C28.5747 27 29 26.5747 29 26.05V25.95C29 25.4253 28.5747 25 28.05 25Z" fill="white"/>
<path d="M28.05 13H11.95C11.4253 13 11 13.4253 11 13.95V14.05C11 14.5747 11.4253 15 11.95 15H28.05C28.5747 15 29 14.5747 29 14.05V13.95C29 13.4253 28.5747 13 28.05 13Z" fill="white"/>
</svg>
