<svg xmlns="http://www.w3.org/2000/svg" width="80" height="80" viewBox="0 0 80 80">
  <g id="ico-personal-loans" transform="translate(-189 -92)">
    <rect id="Rectangle_2" data-name="Rectangle 2" width="80" height="80" transform="translate(189 92)" fill="none"/>
    <g id="ico-personal-loans-2" data-name="ico-personal-loans" transform="translate(-2333 -638)">
      <g id="Symbol_263_1" data-name="Symbol 263 – 1" transform="translate(2530 738)">
        <rect id="Rectangle_2470" data-name="Rectangle 2470" width="65" height="65" transform="translate(0 0)" fill="none"/>
      </g>
      <g id="Group_3649" data-name="Group 3649" transform="translate(2535.572 750.065)">
        <g id="Group_3649-2" data-name="Group 3649" transform="translate(28.584 0.333)" opacity="0.3">
          <path id="Path_2299" data-name="Path 2299" d="M56.854,8.893A123.922,123.922,0,0,0,45.526,35.868a.941.941,0,0,1-1.1.715q-6.365-1.8-12.991-4.216a1.153,1.153,0,0,1-.613-1.356A149.666,149.666,0,0,1,41.384.842.915.915,0,0,1,42.7.5q6.95,3.97,13.715,7.224a.826.826,0,0,1,.436,1.17Z" transform="translate(-30.783 -0.346)" fill="#f08b8f"/>
        </g>
        <path id="Path_2300" data-name="Path 2300" d="M34.581,30.61l.279,7.317a17.238,17.238,0,0,1-.186,2.219c-.26.826-.984.724-1.551.074a7.442,7.442,0,0,1-1.449-3.4l-.594-5.051" transform="translate(-2.22 -2.175)" fill="#cf3339"/>
        <path id="Path_2301" data-name="Path 2301" d="M32.144,30.14l-1.69,10.753s-.167,3.352-.836,3.213c-1.839-.39-2.024-2.554-2.154-3.64a22.886,22.886,0,0,1-.214-3.055l.455-4.114" transform="translate(-1.946 -2.141)" fill="#cf3339"/>
        <g id="Group_3650" data-name="Group 3650" transform="translate(25.511)" opacity="0.3">
          <path id="Path_2302" data-name="Path 2302" d="M45.912,5.338a173.107,173.107,0,0,0-4.773,27.755,1.042,1.042,0,0,1-.938.956q-5.892.265-11.876.288a.953.953,0,0,1-.845-1.059A221.846,221.846,0,0,1,30.72.7.844.844,0,0,1,31.862.046q6.686,2.229,13.3,4.188a.977.977,0,0,1,.752,1.105Z" transform="translate(-27.473 0.013)" fill="#cf3339"/>
        </g>
        <path id="Path_2303" data-name="Path 2303" d="M31.214,30.47a3.188,3.188,0,0,1,1.857,4.1L30.09,33.451Z" transform="translate(-2.149 -2.165)" fill="#cf3339"/>
        <path id="Path_2304" data-name="Path 2304" d="M26.02,34.584a34.915,34.915,0,0,0,4.55-3.891c2.405-1.012,3.5-1.894,4.634-2.3" transform="translate(-1.859 -2.016)" fill="#f08b8f"/>
        <g id="Group_3651" data-name="Group 3651" transform="translate(27.084 0.974)">
          <path id="Path_2305" data-name="Path 2305" d="M53.953,8.923A132.329,132.329,0,0,0,44.1,36.26a.957.957,0,0,1-1.049.771q-6.463-1.323-13.186-3.194a1.1,1.1,0,0,1-.669-1.281A163.409,163.409,0,0,1,38.047,1.578a.889.889,0,0,1,1.272-.418Q46.478,4.8,53.452,7.781a.847.847,0,0,1,.5,1.142Z" transform="translate(-29.168 -1.036)" fill="#cf3339"/>
        </g>
        <path id="Path_2306" data-name="Path 2306" d="M43.844,15.537a4.964,4.964,0,1,1-6.8,1.755A4.964,4.964,0,0,1,43.844,15.537Z" transform="translate(-2.597 -1.049)" fill="#f08b8f"/>
        <g id="Group_3652" data-name="Group 3652" transform="translate(36.173 14.622)">
          <line id="Line_1680" data-name="Line 1680" y2="1.179" transform="translate(2.41 6.153)" fill="none" stroke="#fff" stroke-linecap="round" stroke-linejoin="round" stroke-miterlimit="10" stroke-width="0.75"/>
          <line id="Line_1681" data-name="Line 1681" y2="1.179" transform="translate(2.41 0.916)" fill="none" stroke="#fff" stroke-linecap="round" stroke-linejoin="round" stroke-miterlimit="10" stroke-width="0.75"/>
          <text id="B" transform="translate(0 6)" fill="#fff" font-size="6" font-family="GothamRounded-Medium, Gotham Rounded" font-weight="500"><tspan x="0" y="0">B</tspan></text>
        </g>
        <path id="Path_2307" data-name="Path 2307" d="M20.463,43.7H7.714L7.63,31.731H9.989a2.749,2.749,0,0,0,1.959-.826l8.329-8.543L27,19.27l-.539,6.593-.594.334-.474,2.646-.548,4.114a.357.357,0,0,0,.594.316c.91-.808,2.507-2.21,3.826-3.241,2.405-1.012,3.5-1.894,4.634-2.3,0,0,2.108-.492,2.145.966.037,1.764-1.634,3.909-2.619,4.624-2.656,2.544-2.312,2.024-7.8,7.642C23.611,43.023,22.116,43.7,20.463,43.7Z" transform="translate(-0.545 -1.365)" fill="#f08b8f"/>
        <g id="Group_3653" data-name="Group 3653" transform="translate(0 27.404)">
          <path id="Path_2308" data-name="Path 2308" d="M5.33,47.18H1.848A1.847,1.847,0,0,1,0,45.332V31.348A1.847,1.847,0,0,1,1.848,29.5H5.33a1.847,1.847,0,0,1,1.848,1.848V45.332A1.847,1.847,0,0,1,5.33,47.18Z" transform="translate(0 -29.5)" fill="#cf3339"/>
        </g>
      </g>
    </g>
  </g>
</svg>
