<svg width="134" height="41" viewBox="0 0 134 41" fill="none" xmlns="http://www.w3.org/2000/svg">
<path d="M128.639 40.0166H5.02597C2.30544 40.0166 0.0810547 37.7673 0.0810547 35.0163V5.01686C0.0810547 2.26588 2.30544 0.0166016 5.02597 0.0166016H128.639C131.357 0.0166016 133.583 2.26588 133.583 5.01686V35.0163C133.581 37.7673 131.357 40.0166 128.639 40.0166Z" fill="#100F0D"/>
<path d="M128.639 0.0186958H5.02597C2.30751 0.0186958 0.0810547 2.26797 0.0810547 5.01896V35.0163C0.0810547 37.7673 2.30544 40.0166 5.02597 40.0166H128.639C131.357 40.0166 133.583 37.7673 133.583 35.0163V5.01686C133.581 2.26797 131.357 0.0186958 128.639 0.0186958ZM128.639 0.81723C130.929 0.81723 132.792 2.70069 132.792 5.01686V35.0163C132.792 37.3325 130.929 39.216 128.639 39.216H5.02597C2.73543 39.216 0.87282 37.3325 0.87282 35.0163V5.01686C0.87282 2.70069 2.73543 0.81723 5.02597 0.81723H128.639Z" fill="#A2A09F"/>
<path d="M20.5667 19.4408L10.0381 30.7415C10.0381 30.7436 10.0402 30.7457 10.0402 30.7478C10.3626 31.9749 11.4707 32.8779 12.7876 32.8779C13.3126 32.8779 13.8067 32.7337 14.2305 32.4828L14.2636 32.4619L26.1153 25.5469L20.5667 19.4408Z" fill="#D8432B"/>
<path d="M31.2175 17.5176L31.2072 17.5113L26.0907 14.5116L20.3271 19.6979L26.1114 25.5469L31.201 22.5764C32.0941 22.0893 32.6998 21.1382 32.6998 20.0407C32.6998 18.9516 32.1023 18.0068 31.2175 17.5176Z" fill="#FBC81D"/>
<path d="M10.0376 9.29667C9.97351 9.53288 9.94043 9.77955 9.94043 10.0367V30.0022C9.94043 30.2593 9.97351 30.506 10.0376 30.7422L20.928 19.732L10.0376 9.29667Z" fill="#3371C1"/>
<path d="M20.6471 20.0176L26.0964 14.5093L14.2592 7.56918C13.8292 7.30788 13.3269 7.15737 12.7894 7.15737C11.4746 7.15737 10.3645 8.06252 10.042 9.29168V9.29377L20.6471 20.0176Z" fill="#32A472"/>
<path d="M46.9727 10.2623C46.9727 11.1005 46.7267 11.7674 46.2368 12.2649C45.6786 12.8565 44.9509 13.1533 44.0579 13.1533C43.202 13.1533 42.4723 12.8544 41.8748 12.2524C41.2753 11.6524 40.9756 10.9082 40.9756 10.0198C40.9756 9.13137 41.2753 8.38719 41.8748 7.78724C42.4744 7.18729 43.202 6.88627 44.0579 6.88627C44.4837 6.88627 44.8889 6.96989 45.2755 7.13712C45.6621 7.30435 45.9722 7.52803 46.2037 7.80814L45.6828 8.33493C45.29 7.8604 44.7484 7.6221 44.0579 7.6221C43.4336 7.6221 42.894 7.84368 42.4371 8.28894C41.9803 8.73419 41.7529 9.30906 41.7529 10.0198C41.7529 10.7284 41.9803 11.3054 42.4371 11.7507C42.894 12.1959 43.4336 12.4175 44.0579 12.4175C44.7215 12.4175 45.2734 12.1938 45.7158 11.7465C46.0032 11.4559 46.1686 11.0504 46.2141 10.5319H44.06V9.81075H46.9355C46.9583 9.96544 46.9727 10.116 46.9727 10.2623Z" fill="white"/>
<path d="M51.5313 7.75588H48.8293V9.65815H51.2646V10.3793H48.8273V12.2816H51.5292V13.0195H48.0645V7.02005H51.5292V7.75588" fill="white"/>
<path d="M54.746 13.0176H53.9831V7.75602H52.3252V7.0181H56.4019V7.75602H54.7439L54.746 13.0176Z" fill="white"/>
<path d="M59.3535 13.0176V7.0181H60.1163V13.0176H59.3535Z" fill="white"/>
<path d="M63.495 13.0176H62.7322V7.75602H61.0742V7.0181H65.1509V7.75602H63.4929L63.495 13.0176Z" fill="white"/>
<path d="M69.0852 11.7402C69.5255 12.1896 70.0609 12.4154 70.6977 12.4154C71.3323 12.4154 71.8719 12.1917 72.3101 11.7402C72.7505 11.2908 72.9696 10.7159 72.9696 10.0177C72.9696 9.31951 72.7484 8.74465 72.3101 8.29521C71.8719 7.84577 71.3344 7.62001 70.6977 7.62001C70.063 7.62001 69.5255 7.84368 69.0852 8.29521C68.6469 8.74465 68.4257 9.31951 68.4257 10.0177C68.4257 10.7159 68.6469 11.2908 69.0852 11.7402ZM72.8745 12.244C72.2915 12.8502 71.5659 13.1533 70.6977 13.1533C69.8315 13.1533 69.1059 12.8502 68.5229 12.244C67.9399 11.6378 67.6484 10.8957 67.6484 10.0198C67.6484 9.14391 67.9399 8.40182 68.5229 7.7956C69.1059 7.18938 69.8315 6.88627 70.6977 6.88627C71.5597 6.88627 72.2833 7.19147 72.8704 7.79978C73.4554 8.40809 73.749 9.14809 73.749 10.0198C73.7469 10.8957 73.4554 11.6378 72.8745 12.244Z" fill="white"/>
<path d="M74.8174 13.0174V7.01796H75.7456L78.6294 11.6859H78.6625L78.6294 10.5299V7.02005H79.3923V13.0195H78.5964L75.5802 8.12588H75.5471L75.5802 9.28188V13.0195L74.8174 13.0174Z" fill="white"/>
<path d="M105.831 30.0183H107.675V17.5176H105.831V30.0183ZM122.451 22.0204L120.335 27.4387H120.27L118.075 22.0183H116.086L119.382 29.5939L117.504 33.8082H119.429L124.502 22.0204H122.451ZM111.985 28.5968C111.381 28.5968 110.538 28.2916 110.538 27.5349C110.538 26.5691 111.588 26.1991 112.493 26.1991C113.304 26.1991 113.686 26.3768 114.178 26.6172C114.038 27.7774 113.052 28.5968 111.985 28.5968ZM112.208 21.7465C110.873 21.7465 109.488 22.3423 108.915 23.6614L110.554 24.3533C110.904 23.6614 111.557 23.4377 112.239 23.4377C113.194 23.4377 114.164 24.0167 114.18 25.0452V25.1748C113.845 24.9825 113.13 24.6919 112.256 24.6919C110.49 24.6919 108.694 25.6723 108.694 27.5056C108.694 29.1779 110.141 30.2566 111.764 30.2566C113.004 30.2566 113.688 29.6943 114.118 29.0337H114.182V29.9995H115.964V25.2062C115.962 22.9841 114.323 21.7465 112.208 21.7465ZM100.805 23.5422H98.1817V19.2569H100.805C102.184 19.2569 102.967 20.4129 102.967 21.3995C102.967 22.3674 102.184 23.5422 100.805 23.5422ZM100.757 17.5155H96.3356V30.0162H98.1817V25.2793H100.757C102.804 25.2793 104.813 23.7826 104.813 21.3974C104.813 19.0123 102.802 17.5155 100.757 17.5155ZM76.6469 28.601C75.3734 28.601 74.3047 27.5223 74.3047 26.0402C74.3047 24.5414 75.3714 23.446 76.6469 23.446C77.9059 23.446 78.894 24.5414 78.894 26.0402C78.8919 27.5202 77.9038 28.601 76.6469 28.601ZM78.7658 22.7207H78.7018C78.2883 22.2211 77.4903 21.7695 76.4877 21.7695C74.3853 21.7695 72.4565 23.6384 72.4565 26.0381C72.4565 28.4233 74.3853 30.2754 76.4877 30.2754C77.4924 30.2754 78.2883 29.8239 78.7018 29.3096H78.7658V29.9221C78.7658 31.5485 77.9059 32.4202 76.5187 32.4202C75.3879 32.4202 74.6871 31.5986 74.3998 30.9067L72.7914 31.584C73.2545 32.7107 74.4804 34.0967 76.5187 34.0967C78.6852 34.0967 80.5168 32.809 80.5168 29.6671V22.0308H78.7638V22.7207H78.7658ZM81.7923 30.0183H83.6405V17.5176H81.7923V30.0183ZM86.3651 25.8939C86.3176 24.2508 87.6241 23.4126 88.5647 23.4126C89.2986 23.4126 89.9188 23.7826 90.1255 24.3156L86.3651 25.8939ZM92.0997 24.4766C91.7483 23.5255 90.6816 21.7695 88.4986 21.7695C86.3321 21.7695 84.5315 23.4941 84.5315 26.0214C84.5315 28.4066 86.3155 30.2754 88.7053 30.2754C90.6341 30.2754 91.7483 29.0839 92.2093 28.3899L90.7746 27.4241C90.2971 28.1327 89.6438 28.601 88.7032 28.601C87.7626 28.601 87.0949 28.1662 86.6649 27.3112L92.2879 24.9595L92.0997 24.4766ZM47.2937 23.0739V24.878H51.5626C51.4344 25.8918 51.1016 26.6339 50.591 27.1502C49.9687 27.7795 48.9971 28.4714 47.2937 28.4714C44.6641 28.4714 42.6093 26.3287 42.6093 23.6718C42.6093 21.0128 44.6641 18.8701 47.2937 18.8701C48.7118 18.8701 49.7475 19.4345 50.5124 20.1599L51.7714 18.8869C50.7047 17.8563 49.2865 17.0661 47.2937 17.0661C43.6925 17.0661 40.666 20.0303 40.666 23.6718C40.666 27.3133 43.6925 30.2775 47.2937 30.2775C49.2369 30.2775 50.7026 29.6337 51.85 28.4254C53.0283 27.2339 53.3963 25.5574 53.3963 24.2049C53.3963 23.7868 53.3653 23.4001 53.3012 23.0781H47.2937V23.0739ZM58.2502 28.601C56.9747 28.601 55.877 27.537 55.877 26.0235C55.877 24.4933 56.9768 23.446 58.2502 23.446C59.5237 23.446 60.6235 24.4933 60.6235 26.0235C60.6235 27.537 59.5257 28.601 58.2502 28.601ZM58.2502 21.7695C55.9245 21.7695 54.0289 23.5568 54.0289 26.0214C54.0289 28.4693 55.9245 30.2754 58.2502 30.2754C60.5759 30.2754 62.4716 28.4714 62.4716 26.0214C62.4716 23.5568 60.5759 21.7695 58.2502 21.7695ZM67.4599 28.601C66.1844 28.601 65.0867 27.537 65.0867 26.0235C65.0867 24.4933 66.1865 23.446 67.4599 23.446C68.7334 23.446 69.8332 24.4933 69.8332 26.0235C69.8332 27.537 68.7354 28.601 67.4599 28.601ZM67.4599 21.7695C65.1342 21.7695 63.2386 23.5568 63.2386 26.0214C63.2386 28.4693 65.1342 30.2754 67.4599 30.2754C69.7856 30.2754 71.6813 28.4714 71.6813 26.0214C71.6813 23.5568 69.7856 21.7695 67.4599 21.7695Z" fill="white"/>
</svg>
