<svg width="100" height="100" viewBox="0 0 100 100" fill="none" xmlns="http://www.w3.org/2000/svg">
<path d="M82.4512 16.3299H80.3631L59.4998 19.348L38.6366 16.3299H36.247C33.6706 16.3299 31.582 14.2413 31.582 11.6649C31.5819 9.08853 33.6706 7 36.247 7H82.4512C85.0276 7 87.1161 9.08853 87.1161 11.6649C87.1163 14.2413 85.0276 16.3299 82.4512 16.3299Z" fill="#615851"/>
<path d="M80.0615 22.1863V16.3301H38.6367V22.1863C38.6367 31.2708 44.4433 38.998 52.5473 41.8616C53.6658 42.2568 54.4137 43.3139 54.4137 44.5C54.4137 45.6863 53.6658 46.7434 52.5473 47.1385C44.4434 50.0021 38.6367 57.7293 38.6367 66.8138V72.67H80.0613V66.8138C80.0613 57.7293 74.2548 50.0021 66.1507 47.1385C65.0322 46.7433 64.2843 45.6862 64.2843 44.5H64.5861C64.5861 43.3138 65.0322 42.2568 66.1507 41.8616C74.2548 38.9982 80.0615 31.2708 80.0615 22.1863Z" fill="#EFEDEF"/>
<path d="M82.4512 82.0003H36.247C33.6706 82.0003 31.582 79.9118 31.582 77.3354C31.582 74.759 33.6706 72.6705 36.247 72.6705H38.6369L59.5001 69.6523L80.3634 72.6705H82.4515C85.0279 72.6705 87.1164 74.759 87.1164 77.3354C87.1163 79.9118 85.0276 82.0003 82.4512 82.0003Z" fill="#615851"/>
<path d="M69.5464 56.3028H67.349C65.1393 56.3028 62.9523 54.7042 62.5908 52.5244L61.6943 47.117C61.238 44.3648 63.3609 41.861 66.1507 41.861C71.5644 39.9481 75.9496 35.8628 78.2668 30.6543H40.4311C42.7481 35.8629 47.1335 39.9481 52.5472 41.861C55.337 41.861 57.4599 44.3648 57.0036 47.117L56.107 52.5244C55.7456 54.7042 53.8602 56.3028 51.6507 56.3028H49.1515C43.3908 56.3028 38.6681 60.9378 38.637 66.6984C38.6369 66.7367 38.6367 66.775 38.6367 66.8134V72.6695H80.0613V66.8134C80.0613 66.775 80.0612 66.7367 80.061 66.6984C80.0298 60.9378 75.307 56.3028 69.5464 56.3028Z" fill="#FFC72C"/>
<rect x="3" y="54" width="59.475" height="39" rx="5" fill="#4383FF"/>
<path d="M56.4083 79.0623V86.1763C56.4083 86.9543 55.7732 87.5863 54.987 87.5863H47.8217C47.0375 87.5863 46.4004 86.9563 46.4004 86.1763V79.0623C46.4004 78.2843 47.0355 77.6523 47.8217 77.6523H54.987C55.7732 77.6543 56.4083 78.2843 56.4083 79.0623Z" fill="#FFBC50"/>
<path d="M52.0751 77.6543H50.7344V87.5843H52.0751V77.6543Z" fill="#F49F16"/>
<path d="M51.4849 81.9531H46.4023V83.2831H51.4849V81.9531Z" fill="#F49F16"/>
<path d="M56.4078 79.627H51.3252V80.957H56.4078V79.627Z" fill="#F49F16"/>
<path d="M56.4078 84.2812H51.3252V85.6112H56.4078V84.2812Z" fill="#F49F16"/>
<rect x="7.03223" y="84.5" width="14.1127" height="2.5" rx="1.25" fill="white"/>
<rect x="7.03223" y="79.5" width="21.1691" height="2.5" rx="1.25" fill="white"/>
<rect x="3" y="63" width="59.475" height="8" fill="#24272B"/>
<path d="M5.47801 38.7153C5.23901 38.4747 5 38.1046 5 37.6974C5 36.9571 5.62509 36.3278 6.36049 36.3278C6.76497 36.3278 7.04074 36.4944 7.26136 36.6795C7.95999 37.3087 8.47478 37.6234 9.61465 37.6234C10.9935 37.6234 12.0415 36.7535 12.0415 35.8096C12.0415 34.8102 11.0855 34.2735 9.52272 34.2735H9.46757C8.80571 34.2735 8.43801 33.8663 8.43801 33.2C8.43801 32.8114 8.62186 32.4968 9.0631 32.1451L12.4092 29.443H8.97117C8.30931 29.443 7.75776 28.8878 7.75776 28.2215C7.75776 27.5552 8.30931 27 8.97117 27H15.1853C16.0126 27 16.6194 27.3887 16.6194 28.166C16.6194 28.8693 16.2149 29.2024 15.6449 29.6466L12.1518 32.3302C13.7697 32.7188 14.8912 33.6627 14.8912 35.5505C14.8912 38.1601 12.5563 40.1774 9.48595 40.1774C7.57391 40.1774 6.30534 39.5667 5.47801 38.7153Z" fill="white"/>
<path d="M5.47801 38.7153C5.23901 38.4747 5 38.1046 5 37.6974C5 36.9571 5.62509 36.3278 6.36049 36.3278C6.76497 36.3278 7.04074 36.4944 7.26136 36.6795C7.95999 37.3087 8.47478 37.6234 9.61465 37.6234C10.9935 37.6234 12.0415 36.7535 12.0415 35.8096C12.0415 34.8102 11.0855 34.2735 9.52272 34.2735H9.46757C8.80571 34.2735 8.43801 33.8663 8.43801 33.2C8.43801 32.8114 8.62186 32.4968 9.0631 32.1451L12.4092 29.443H8.97117C8.30931 29.443 7.75776 28.8878 7.75776 28.2215C7.75776 27.5552 8.30931 27 8.97117 27H15.1853C16.0126 27 16.6194 27.3887 16.6194 28.166C16.6194 28.8693 16.2149 29.2024 15.6449 29.6466L12.1518 32.3302C13.7697 32.7188 14.8912 33.6627 14.8912 35.5505C14.8912 38.1601 12.5563 40.1774 9.48595 40.1774C7.57391 40.1774 6.30534 39.5667 5.47801 38.7153Z" fill="url(#paint0_linear_685_196362)"/>
<path d="M21.7399 35.569H18.5409C17.8055 35.569 17.1988 34.9583 17.1988 34.218C17.1988 33.4777 17.8055 32.8669 18.5409 32.8669H21.7399C22.4753 32.8669 23.082 33.4777 23.082 34.218C23.082 34.9583 22.4753 35.569 21.7399 35.569Z" fill="white"/>
<path d="M21.7399 35.569H18.5409C17.8055 35.569 17.1988 34.9583 17.1988 34.218C17.1988 33.4777 17.8055 32.8669 18.5409 32.8669H21.7399C22.4753 32.8669 23.082 33.4777 23.082 34.218C23.082 34.9583 22.4753 35.569 21.7399 35.569Z" fill="url(#paint1_linear_685_196362)"/>
<path d="M24.4813 38.8264C24.1687 38.5672 23.9113 38.1971 23.9113 37.7159C23.9113 36.9756 24.4813 36.3648 25.2167 36.3648C25.5844 36.3648 25.8418 36.4944 26.1727 36.7535C26.7978 37.2532 27.5883 37.5863 28.5444 37.5863C30.0703 37.5863 31.155 36.661 31.155 35.569C31.155 34.6436 30.4013 33.9033 28.8753 33.9033C28.1583 33.9033 27.7538 34.1624 27.3493 34.1624C27 34.1624 26.5955 33.9959 26.2095 33.6812C25.805 33.3666 25.6763 32.9039 25.8234 32.4412L27.2574 28.0919C27.478 27.4442 27.8825 27 28.5995 27H33.9128C34.593 27 35.163 27.5737 35.163 28.2585C35.163 28.9433 34.593 29.4985 33.9128 29.4985H29.482L28.7466 31.7009C29.1695 31.6084 29.6107 31.5529 30.0519 31.5529C32.4052 31.5529 34.0599 32.9965 34.0599 35.2544C34.0599 37.8269 31.8169 40.1589 28.3054 40.1589C26.9816 40.1589 25.4924 39.6407 24.4813 38.8264Z" fill="white"/>
<path d="M24.4813 38.8264C24.1687 38.5672 23.9113 38.1971 23.9113 37.7159C23.9113 36.9756 24.4813 36.3648 25.2167 36.3648C25.5844 36.3648 25.8418 36.4944 26.1727 36.7535C26.7978 37.2532 27.5883 37.5863 28.5444 37.5863C30.0703 37.5863 31.155 36.661 31.155 35.569C31.155 34.6436 30.4013 33.9033 28.8753 33.9033C28.1583 33.9033 27.7538 34.1624 27.3493 34.1624C27 34.1624 26.5955 33.9959 26.2095 33.6812C25.805 33.3666 25.6763 32.9039 25.8234 32.4412L27.2574 28.0919C27.478 27.4442 27.8825 27 28.5995 27H33.9128C34.593 27 35.163 27.5737 35.163 28.2585C35.163 28.9433 34.593 29.4985 33.9128 29.4985H29.482L28.7466 31.7009C29.1695 31.6084 29.6107 31.5529 30.0519 31.5529C32.4052 31.5529 34.0599 32.9965 34.0599 35.2544C34.0599 37.8269 31.8169 40.1589 28.3054 40.1589C26.9816 40.1589 25.4924 39.6407 24.4813 38.8264Z" fill="url(#paint2_linear_685_196362)"/>
<path d="M25.9271 46.8215C26.7031 46.8215 27.4471 46.0455 27.4471 45.1495C27.4471 44.5335 27.0071 44.0855 26.3751 44.0855C25.5911 44.0855 24.9191 44.8375 24.9191 45.7815C24.9191 46.4215 25.3191 46.8215 25.9271 46.8215ZM27.2871 47.6055C27.0071 47.6055 26.8551 47.4375 26.8631 47.1815L26.9111 47.0055C26.5271 47.3895 26.1111 47.6535 25.5591 47.6535C24.6231 47.6535 23.9111 46.9655 23.9111 45.8455C23.9111 44.3495 25.0551 43.2535 26.2631 43.2535C27.0071 43.2535 27.4311 43.6215 27.6871 44.0935L28.1991 42.1655C28.2791 41.8615 28.4871 41.6855 28.7431 41.6855C29.0631 41.6855 29.2391 41.9175 29.1271 42.3095L27.8471 47.1255C27.7671 47.4295 27.5591 47.6055 27.2871 47.6055Z" fill="white"/>
<path d="M25.9271 46.8215C26.7031 46.8215 27.4471 46.0455 27.4471 45.1495C27.4471 44.5335 27.0071 44.0855 26.3751 44.0855C25.5911 44.0855 24.9191 44.8375 24.9191 45.7815C24.9191 46.4215 25.3191 46.8215 25.9271 46.8215ZM27.2871 47.6055C27.0071 47.6055 26.8551 47.4375 26.8631 47.1815L26.9111 47.0055C26.5271 47.3895 26.1111 47.6535 25.5591 47.6535C24.6231 47.6535 23.9111 46.9655 23.9111 45.8455C23.9111 44.3495 25.0551 43.2535 26.2631 43.2535C27.0071 43.2535 27.4311 43.6215 27.6871 44.0935L28.1991 42.1655C28.2791 41.8615 28.4871 41.6855 28.7431 41.6855C29.0631 41.6855 29.2391 41.9175 29.1271 42.3095L27.8471 47.1255C27.7671 47.4295 27.5591 47.6055 27.2871 47.6055Z" fill="url(#paint3_linear_685_196362)"/>
<path d="M30.6549 46.9575C31.2389 46.9575 31.7989 46.5175 31.9589 45.9495L32.0149 45.7575C31.7429 45.6695 31.3749 45.5975 30.9909 45.5975C30.3909 45.5975 29.9669 45.9095 29.9669 46.3895C29.9669 46.7255 30.2309 46.9575 30.6549 46.9575ZM32.0309 47.6055C31.6629 47.6055 31.5989 47.3655 31.6229 47.1575L31.6629 47.0055C31.3029 47.4055 30.8389 47.6535 30.2709 47.6535C29.5509 47.6535 28.9989 47.1975 28.9989 46.5015C28.9989 45.5335 29.7909 44.9735 30.8469 44.9735C31.3429 44.9735 31.7829 45.0695 32.1589 45.1815L32.1829 45.1095C32.2069 45.0055 32.2309 44.8855 32.2309 44.7575C32.2309 44.3655 31.9589 44.1175 31.2949 44.1175C30.9909 44.1175 30.6869 44.1735 30.4629 44.2375C30.4069 44.2535 30.3429 44.2615 30.2949 44.2615C30.0709 44.2615 29.9109 44.0935 29.9109 43.8695C29.9109 43.6775 30.0389 43.5415 30.2149 43.4855C30.6069 43.3575 31.0229 43.2855 31.4869 43.2855C32.5909 43.2855 33.1749 43.7655 33.1749 44.5895C33.1749 44.7975 33.1349 44.9975 33.0869 45.2055L32.5749 47.1255C32.4869 47.4295 32.2869 47.6055 32.0309 47.6055Z" fill="white"/>
<path d="M30.6549 46.9575C31.2389 46.9575 31.7989 46.5175 31.9589 45.9495L32.0149 45.7575C31.7429 45.6695 31.3749 45.5975 30.9909 45.5975C30.3909 45.5975 29.9669 45.9095 29.9669 46.3895C29.9669 46.7255 30.2309 46.9575 30.6549 46.9575ZM32.0309 47.6055C31.6629 47.6055 31.5989 47.3655 31.6229 47.1575L31.6629 47.0055C31.3029 47.4055 30.8389 47.6535 30.2709 47.6535C29.5509 47.6535 28.9989 47.1975 28.9989 46.5015C28.9989 45.5335 29.7909 44.9735 30.8469 44.9735C31.3429 44.9735 31.7829 45.0695 32.1589 45.1815L32.1829 45.1095C32.2069 45.0055 32.2309 44.8855 32.2309 44.7575C32.2309 44.3655 31.9589 44.1175 31.2949 44.1175C30.9909 44.1175 30.6869 44.1735 30.4629 44.2375C30.4069 44.2535 30.3429 44.2615 30.2949 44.2615C30.0709 44.2615 29.9109 44.0935 29.9109 43.8695C29.9109 43.6775 30.0389 43.5415 30.2149 43.4855C30.6069 43.3575 31.0229 43.2855 31.4869 43.2855C32.5909 43.2855 33.1749 43.7655 33.1749 44.5895C33.1749 44.7975 33.1349 44.9975 33.0869 45.2055L32.5749 47.1255C32.4869 47.4295 32.2869 47.6055 32.0309 47.6055Z" fill="url(#paint4_linear_685_196362)"/>
<path d="M33.5648 47.9495C33.7088 48.0055 33.8288 48.0455 33.9888 48.0455C34.2128 48.0455 34.4208 47.9255 34.6688 47.5735L34.0768 43.9975C34.0688 43.9255 34.0608 43.8215 34.0608 43.7575C34.0608 43.4935 34.2688 43.2935 34.5408 43.2935C34.8048 43.2935 34.9968 43.4615 35.0208 43.7255L35.3968 46.4935L37.1568 43.6135C37.2688 43.4215 37.4368 43.2935 37.6608 43.2935C37.9088 43.2935 38.0848 43.4375 38.0848 43.6775C38.0848 43.7655 38.0368 43.8855 37.9568 44.0135L35.5888 47.6855C35.0208 48.5575 34.5328 48.8695 33.8688 48.8695C33.6448 48.8695 33.4288 48.8375 33.2528 48.7495C33.1008 48.6855 32.9568 48.5655 32.9568 48.3255C32.9568 48.0935 33.1408 47.9015 33.3488 47.9015C33.4208 47.9015 33.4848 47.9255 33.5648 47.9495Z" fill="white"/>
<path d="M33.5648 47.9495C33.7088 48.0055 33.8288 48.0455 33.9888 48.0455C34.2128 48.0455 34.4208 47.9255 34.6688 47.5735L34.0768 43.9975C34.0688 43.9255 34.0608 43.8215 34.0608 43.7575C34.0608 43.4935 34.2688 43.2935 34.5408 43.2935C34.8048 43.2935 34.9968 43.4615 35.0208 43.7255L35.3968 46.4935L37.1568 43.6135C37.2688 43.4215 37.4368 43.2935 37.6608 43.2935C37.9088 43.2935 38.0848 43.4375 38.0848 43.6775C38.0848 43.7655 38.0368 43.8855 37.9568 44.0135L35.5888 47.6855C35.0208 48.5575 34.5328 48.8695 33.8688 48.8695C33.6448 48.8695 33.4288 48.8375 33.2528 48.7495C33.1008 48.6855 32.9568 48.5655 32.9568 48.3255C32.9568 48.0935 33.1408 47.9015 33.3488 47.9015C33.4208 47.9015 33.4848 47.9255 33.5648 47.9495Z" fill="url(#paint5_linear_685_196362)"/>
<path d="M39.6642 46.9015C40.0402 46.9015 40.3362 46.7095 40.3362 46.3975C40.3362 46.1895 40.1442 46.0455 39.7202 45.8695C39.0162 45.5815 38.5042 45.3095 38.5042 44.6615C38.5042 43.8695 39.1442 43.2535 40.1602 43.2535C40.6802 43.2535 41.2002 43.4535 41.5202 43.6535C41.6562 43.7335 41.7442 43.8535 41.7442 44.0215C41.7442 44.2535 41.5682 44.4455 41.3362 44.4455C41.2482 44.4455 41.1602 44.4055 41.0722 44.3495C40.7602 44.1335 40.4402 44.0135 40.0882 44.0135C39.6722 44.0135 39.4402 44.2215 39.4402 44.4935C39.4402 44.7095 39.6322 44.8455 40.1122 45.0455C40.7522 45.3175 41.2722 45.6135 41.2722 46.2295C41.2722 47.1015 40.5522 47.6615 39.5842 47.6615C38.9762 47.6615 38.4002 47.4455 37.9522 47.1095C37.8322 47.0215 37.7762 46.9095 37.7762 46.7655C37.7762 46.5335 37.9522 46.3495 38.1682 46.3495C38.2802 46.3495 38.3762 46.3975 38.4482 46.4535C38.8562 46.7815 39.2562 46.9015 39.6642 46.9015Z" fill="white"/>
<path d="M39.6642 46.9015C40.0402 46.9015 40.3362 46.7095 40.3362 46.3975C40.3362 46.1895 40.1442 46.0455 39.7202 45.8695C39.0162 45.5815 38.5042 45.3095 38.5042 44.6615C38.5042 43.8695 39.1442 43.2535 40.1602 43.2535C40.6802 43.2535 41.2002 43.4535 41.5202 43.6535C41.6562 43.7335 41.7442 43.8535 41.7442 44.0215C41.7442 44.2535 41.5682 44.4455 41.3362 44.4455C41.2482 44.4455 41.1602 44.4055 41.0722 44.3495C40.7602 44.1335 40.4402 44.0135 40.0882 44.0135C39.6722 44.0135 39.4402 44.2215 39.4402 44.4935C39.4402 44.7095 39.6322 44.8455 40.1122 45.0455C40.7522 45.3175 41.2722 45.6135 41.2722 46.2295C41.2722 47.1015 40.5522 47.6615 39.5842 47.6615C38.9762 47.6615 38.4002 47.4455 37.9522 47.1095C37.8322 47.0215 37.7762 46.9095 37.7762 46.7655C37.7762 46.5335 37.9522 46.3495 38.1682 46.3495C38.2802 46.3495 38.3762 46.3975 38.4482 46.4535C38.8562 46.7815 39.2562 46.9015 39.6642 46.9015Z" fill="url(#paint6_linear_685_196362)"/>
<defs>
<linearGradient id="paint0_linear_685_196362" x1="15" y1="27" x2="15.8791" y2="51.5873" gradientUnits="userSpaceOnUse">
<stop stop-color="#D6A2FF"/>
<stop offset="0.552083" stop-color="#9331FF"/>
<stop offset="1" stop-color="#D6A2FF"/>
</linearGradient>
<linearGradient id="paint1_linear_685_196362" x1="15" y1="27" x2="15.8791" y2="51.5873" gradientUnits="userSpaceOnUse">
<stop stop-color="#D6A2FF"/>
<stop offset="0.552083" stop-color="#9331FF"/>
<stop offset="1" stop-color="#D6A2FF"/>
</linearGradient>
<linearGradient id="paint2_linear_685_196362" x1="15" y1="27" x2="15.8791" y2="51.5873" gradientUnits="userSpaceOnUse">
<stop stop-color="#D6A2FF"/>
<stop offset="0.552083" stop-color="#9331FF"/>
<stop offset="1" stop-color="#D6A2FF"/>
</linearGradient>
<linearGradient id="paint3_linear_685_196362" x1="15" y1="27" x2="15.8791" y2="51.5873" gradientUnits="userSpaceOnUse">
<stop stop-color="#D6A2FF"/>
<stop offset="0.552083" stop-color="#9331FF"/>
<stop offset="1" stop-color="#D6A2FF"/>
</linearGradient>
<linearGradient id="paint4_linear_685_196362" x1="15" y1="27" x2="15.8791" y2="51.5873" gradientUnits="userSpaceOnUse">
<stop stop-color="#D6A2FF"/>
<stop offset="0.552083" stop-color="#9331FF"/>
<stop offset="1" stop-color="#D6A2FF"/>
</linearGradient>
<linearGradient id="paint5_linear_685_196362" x1="15" y1="27" x2="15.8791" y2="51.5873" gradientUnits="userSpaceOnUse">
<stop stop-color="#D6A2FF"/>
<stop offset="0.552083" stop-color="#9331FF"/>
<stop offset="1" stop-color="#D6A2FF"/>
</linearGradient>
<linearGradient id="paint6_linear_685_196362" x1="15" y1="27" x2="15.8791" y2="51.5873" gradientUnits="userSpaceOnUse">
<stop stop-color="#D6A2FF"/>
<stop offset="0.552083" stop-color="#9331FF"/>
<stop offset="1" stop-color="#D6A2FF"/>
</linearGradient>
</defs>
</svg>
