<svg width="40" height="40" viewBox="0 0 40 40" fill="none" xmlns="http://www.w3.org/2000/svg">
<path d="M18.2455 25.4247C19.8547 25.4247 21.4177 24.8878 22.6872 23.8991L27.4765 28.6884C27.8343 29.0339 28.4044 29.024 28.7499 28.6662C29.087 28.3172 29.087 27.7639 28.7499 27.4149L23.9606 22.6256C26.4142 19.4673 25.8428 14.9179 22.6844 12.4643C19.5261 10.0108 14.9767 10.5821 12.5232 13.7405C10.0696 16.8989 10.641 21.4483 13.7993 23.9018C15.0709 24.8896 16.6354 25.4255 18.2455 25.4247ZM14.3974 14.3358C16.5227 12.2104 19.9685 12.2104 22.0938 14.3357C24.2192 16.461 24.2192 19.9068 22.0939 22.0321C19.9686 24.1575 16.5228 24.1575 14.3975 22.0322C14.3974 22.0322 14.3974 22.0322 14.3974 22.0321C12.2721 19.9223 12.2596 16.4891 14.3694 14.3638C14.3787 14.3544 14.388 14.3451 14.3974 14.3358Z" fill="currentColor"/>
</svg>
