<svg width="134" height="19" viewBox="0 0 134 19" fill="none" xmlns="http://www.w3.org/2000/svg">
<path d="M7.01623 15.2107C7.85818 15.2107 8.53866 15.1185 9.06536 14.9339C10.0611 14.5802 10.557 13.919 10.557 12.954C10.557 12.3889 10.311 11.9544 9.81504 11.6469C9.32294 11.347 8.54635 11.0779 7.48911 10.8472L5.68219 10.4435C3.90602 10.0437 2.67962 9.60544 2.00299 9.13641C0.853481 8.34828 0.276805 7.11804 0.276805 5.44184C0.276805 3.91556 0.834259 2.64303 1.94532 1.63192C3.05639 0.620818 4.68646 0.117188 6.83939 0.117188C8.63862 0.117188 10.1726 0.593907 11.4413 1.54735C12.71 2.50078 13.3751 3.88481 13.4366 5.69557H10.0111C9.9496 4.66909 9.50363 3.93863 8.66937 3.50805C8.11576 3.22355 7.42375 3.08131 6.59718 3.08131C5.67834 3.08131 4.94404 3.26584 4.39812 3.63876C3.84836 4.00783 3.5754 4.52684 3.5754 5.1881C3.5754 5.79937 3.84451 6.25303 4.38659 6.5529C4.73259 6.75281 5.47458 6.98733 6.60872 7.26029L9.54977 7.96768C10.8377 8.27524 11.8103 8.69045 12.4677 9.20561C13.4865 10.0091 13.994 11.1702 13.994 12.6887C13.994 14.2073 13.3981 15.5414 12.2063 16.5717C11.0145 17.602 9.33063 18.1172 7.15464 18.1172C4.97864 18.1172 3.18326 17.6097 1.91072 16.5948C0.638189 15.5798 0 14.1843 0 12.4119H3.40239C3.51004 13.1924 3.72149 13.7729 4.04058 14.1612C4.6211 14.8647 5.60914 15.2146 7.01623 15.2146V15.2107Z" fill="#C81A5A"/>
<path d="M25.9394 17.6787L23.9595 8.4865L21.9565 17.6787H18.531L14.9902 5.06104H18.531L20.4994 14.1149L22.3179 5.06104H25.6626L27.5849 14.1495L29.5532 5.06104H32.9902L29.3341 17.6787H25.9432H25.9394Z" fill="#C81A5A"/>
<path d="M35.2813 6.42633C36.154 5.31527 37.6495 4.75781 39.7717 4.75781C41.1519 4.75781 42.3783 5.03077 43.4509 5.58054C44.5235 6.1303 45.0617 7.16063 45.0617 8.68306V14.4729C45.0617 14.8727 45.0694 15.361 45.0848 15.93C45.1079 16.3605 45.1732 16.6566 45.2809 16.8104C45.3885 16.9641 45.55 17.091 45.7653 17.191V17.6754H42.1784C42.0784 17.4216 42.0092 17.1833 41.9708 16.9564C41.9323 16.7335 41.9016 16.4797 41.8785 16.1914C41.4248 16.6835 40.8981 17.1064 40.3022 17.4524C39.591 17.8599 38.7913 18.0675 37.8956 18.0675C36.7538 18.0675 35.8119 17.7407 35.066 17.091C34.3202 16.4374 33.9473 15.5148 33.9473 14.3191C33.9473 12.7659 34.547 11.6433 35.7427 10.9513C36.4001 10.5746 37.365 10.3016 38.6376 10.1401L39.7602 10.0017C40.3714 9.92483 40.8059 9.82872 41.0673 9.71339C41.5363 9.51347 41.7747 9.20207 41.7747 8.77533C41.7747 8.26016 41.594 7.90262 41.2365 7.70271C40.8789 7.50664 40.3522 7.40668 39.6564 7.40668C38.8759 7.40668 38.3262 7.59891 37.9994 7.9872C37.7687 8.2717 37.6149 8.65999 37.538 9.1444H34.3548C34.424 8.04102 34.7315 7.13372 35.2813 6.42249V6.42633ZM37.7341 15.2918C38.0417 15.5455 38.4223 15.6724 38.8682 15.6724C39.5795 15.6724 40.233 15.4648 40.8289 15.0457C41.4287 14.6305 41.7362 13.8693 41.7593 12.7659V11.5395C41.5517 11.6702 41.3403 11.7779 41.1288 11.8586C40.9174 11.9394 40.6252 12.0162 40.2561 12.0855L39.5141 12.2239C38.8183 12.3469 38.3223 12.4968 38.0224 12.6737C37.515 12.9735 37.2574 13.4426 37.2574 14.0731C37.2574 14.6382 37.415 15.0419 37.7303 15.2879L37.7341 15.2918Z" fill="#C81A5A"/>
<path d="M53.7692 15.3264V17.7907L52.2083 17.8484C50.6475 17.9022 49.5825 17.6331 49.0136 17.0372C48.6445 16.6604 48.4561 16.076 48.4561 15.2879V7.522H46.6953V5.173H48.4561V1.65527H51.7201V5.173H53.7692V7.522H51.7201V14.1884C51.7201 14.7035 51.7854 15.0265 51.9162 15.1534C52.0469 15.2802 52.4505 15.3456 53.1195 15.3456C53.2194 15.3456 53.3271 15.3456 53.4386 15.3379C53.5501 15.3379 53.6616 15.3302 53.7692 15.3225V15.3264Z" fill="#C81A5A"/>
<path d="M66.8016 9.58597H63.4223C63.3607 9.11694 63.2031 8.6902 62.9494 8.31343C62.5803 7.80596 62.0036 7.54838 61.2232 7.54838C60.1121 7.54838 59.3509 8.10199 58.9434 9.20536C58.7281 9.79357 58.6205 10.5702 58.6205 11.5428C58.6205 12.5155 58.7281 13.2152 58.9434 13.7765C59.3355 14.826 60.0775 15.3489 61.1655 15.3489C61.9383 15.3489 62.4842 15.1413 62.811 14.7222C63.1378 14.3032 63.33 13.765 63.403 13.0999H66.7708C66.6939 14.1033 66.3326 15.0529 65.6828 15.9486C64.6487 17.3903 63.1185 18.1131 61.0886 18.1131C59.0587 18.1131 57.5671 17.5095 56.6098 16.3062C55.6525 15.1028 55.1758 13.5381 55.1758 11.6197C55.1758 9.45141 55.7025 7.76367 56.7597 6.56034C57.817 5.35701 59.274 4.75342 61.1348 4.75342C62.7187 4.75342 64.0105 5.10711 65.0177 5.81835C66.025 6.52958 66.6209 7.78289 66.8054 9.58212L66.8016 9.58597Z" fill="#C81A5A"/>
<path d="M80.4736 10.2705V17.6788H77.1058V10.0052C77.1058 9.32471 76.9904 8.77879 76.7598 8.35974C76.4599 7.77153 75.8871 7.47934 75.0451 7.47934C74.2032 7.47934 73.5112 7.77153 73.0613 8.35205C72.6115 8.93641 72.3847 9.76683 72.3847 10.8471V17.675H69.0977V0.674561H72.3847V6.7066C72.8614 5.9723 73.415 5.46098 74.0455 5.17264C74.676 4.8843 75.3373 4.73821 76.0293 4.73821C76.8097 4.73821 77.5171 4.87277 78.1515 5.14188C78.7897 5.411 79.3125 5.82621 79.72 6.37981C80.066 6.84885 80.2813 7.33325 80.3582 7.83304C80.4351 8.32898 80.4736 9.14402 80.4736 10.2705Z" fill="#C81A5A"/>
<path d="M91.0647 11.543H87.4431V17.6788H83.9023V0.613037H91.3338C93.0484 0.613037 94.4132 1.05131 95.432 1.9317C96.4508 2.8121 96.9583 4.17305 96.9583 6.01842C96.9583 8.03294 96.447 9.45541 95.432 10.2897C94.4132 11.1239 92.96 11.5391 91.0685 11.5391L91.0647 11.543ZM92.7332 7.99065C93.1984 7.58313 93.429 6.93341 93.429 6.04533C93.429 5.15725 93.1945 4.52675 92.7293 4.14614C92.2642 3.76938 91.6067 3.57715 90.7686 3.57715H87.447V8.60193H90.7686C91.6106 8.60193 92.2642 8.39817 92.737 7.98681L92.7332 7.99065Z" fill="#C81A5A"/>
<path d="M107.873 14.1688H101.587L100.407 17.675H96.6777L102.767 0.613037H106.796L112.84 17.675H108.972L107.873 14.1688ZM106.877 11.2277L104.747 4.51522L102.548 11.2277H106.877Z" fill="#C81A5A"/>
<path d="M126.6 0.613037L120.895 11.2623V17.675H117.331V11.2623L111.426 0.613037H115.628L119.169 8.04448L122.559 0.613037H126.6Z" fill="#C81A5A"/>
<path d="M133.063 5.00348L132.125 12.9655H130.399L129.438 5.00348V0.674561H133.059V5.00348H133.063ZM132.971 14.3341V17.6788H129.522V14.3341H132.971Z" fill="#C81A5A"/>
</svg>
