<svg width="22" height="22" viewBox="0 0 22 22" fill="none" xmlns="http://www.w3.org/2000/svg">
<g clip-path="url(#clip0_1790_128269)">
<path d="M2.05762 9.44349C3.2169 11.521 4.65776 13.4282 6.33929 15.1112C8.02222 16.7927 9.92949 18.2335 12.007 19.3928C13.3631 20.1401 14.7994 20.7315 16.2886 21.1557C16.7754 21.2955 17.2913 21.299 17.7799 21.1656C18.2685 21.0323 18.7111 20.7674 19.0595 20.3997L19.5635 19.8957L20.8211 18.6368C21.0636 18.3822 21.1988 18.044 21.1988 17.6924C21.1988 17.3408 21.0636 17.0026 20.8211 16.748L18.1763 14.1032C17.9216 13.8607 17.5835 13.7255 17.2319 13.7255C16.8803 13.7255 16.5421 13.8607 16.2875 14.1032L15.0286 15.362C14.8438 15.5435 14.5952 15.6451 14.3362 15.6451C14.0772 15.6451 13.8286 15.5435 13.6438 15.362C12.259 14.228 11.125 13.0952 9.61412 11.7103C8.22929 10.3255 7.22129 9.19149 6.08729 7.93265C5.90581 7.74788 5.80413 7.49923 5.80413 7.24024C5.80413 6.98124 5.90581 6.7326 6.08729 6.54782L7.34729 5.28782C7.58973 5.03316 7.72496 4.69502 7.72496 4.34341C7.72496 3.99179 7.58973 3.65365 7.34729 3.39899L4.70246 0.628155C4.4478 0.385711 4.10965 0.250488 3.75804 0.250488C3.40643 0.250488 3.06828 0.385711 2.81362 0.628155L1.55362 1.88349L1.04962 2.38749C0.688492 2.74104 0.428171 3.1845 0.29549 3.67216C0.162809 4.15982 0.162567 4.67404 0.29479 5.16182C0.640796 6.67696 1.23655 8.12395 2.05762 9.44349Z" fill="black"/>
</g>
<defs>
<clipPath id="clip0_1790_128269">
<rect width="21" height="21" fill="white" transform="translate(0.200195 0.25)"/>
</clipPath>
</defs>
</svg>
