<svg width="24" height="24" viewBox="0 0 24 24" fill="none" xmlns="http://www.w3.org/2000/svg">
<path d="M18.577 8.09393L21.5421 4.88733C22.1692 4.20922 22.1486 3.15689 21.4955 2.50381C20.8424 1.85073 19.7901 1.83015 19.112 2.4572L15.9054 5.42233C14.5889 6.65409 11.3055 9.8365 9.03638 12.8784C7.0701 15.5143 5.82946 17.2948 5.29403 18.0948C5.17732 18.2691 5.20258 18.5 5.35093 18.6484C5.49928 18.7967 5.7302 18.822 5.90455 18.7053C6.70448 18.1699 8.48496 16.9292 11.1209 14.9629C14.1628 12.6938 17.3452 9.41043 18.577 8.09393Z" fill="#00B5E2"/>
<path d="M6.51694 18.288C7.1551 17.8479 8.06521 17.2057 9.22826 16.3584L9.49258 21.3169C9.51119 21.6659 9.24985 21.967 8.90162 21.9976C8.64022 22.0206 8.39071 21.8839 8.26945 21.6512L6.51694 18.288Z" fill="#0057B8"/>
<path d="M5.71213 17.4832C6.15228 16.845 6.79444 15.9349 7.64174 14.7719L2.68328 14.5076C2.3342 14.4889 2.03314 14.7503 2.00251 15.0985C1.97951 15.3599 2.11625 15.6094 2.34896 15.7307L5.71213 17.4832Z" fill="#0057B8"/>
<path d="M14.4127 12.2115C16.2296 10.5548 17.7955 8.92887 18.5766 8.09394L18.8561 20.9008C18.8623 21.1831 18.6387 21.4171 18.3564 21.4236C18.1227 21.429 17.915 21.2754 17.8518 21.0504L17.0751 18.2864C16.5903 16.5612 15.9058 14.8985 15.0353 13.332L14.4127 12.2115Z" fill="#0057B8"/>
<path d="M11.7892 9.58801C13.4459 7.77108 15.0719 6.20532 15.9068 5.42413L3.09989 5.14453C2.81758 5.13837 2.58362 5.36203 2.57708 5.64433C2.57167 5.878 2.72525 6.08565 2.95027 6.14888L5.71432 6.92557C7.43952 7.41035 9.10222 8.09491 10.6686 8.96534L11.7892 9.58801Z" fill="#0057B8"/>
</svg>
