<svg width="24" height="25" viewBox="0 0 24 25" fill="none" xmlns="http://www.w3.org/2000/svg">
<path d="M19.9442 8.79822C19.9569 8.97588 19.9569 9.15357 19.9569 9.33123C19.9569 14.75 15.8326 20.9937 8.29444 20.9937C5.97209 20.9937 3.81473 20.3211 2 19.1536C2.32996 19.1917 2.64719 19.2044 2.98985 19.2044C4.90607 19.2044 6.67006 18.5572 8.0787 17.4531C6.27666 17.415 4.7665 16.2348 4.24618 14.6104C4.50001 14.6485 4.7538 14.6739 5.02032 14.6739C5.38833 14.6739 5.75638 14.6231 6.099 14.5343C4.22083 14.1536 2.81215 12.5038 2.81215 10.5114V10.4607C3.35782 10.7653 3.99239 10.9556 4.66493 10.981C3.56087 10.2449 2.83754 8.98857 2.83754 7.56724C2.83754 6.80583 3.04055 6.10786 3.3959 5.49871C5.41369 7.98603 8.4467 9.61037 11.8477 9.78807C11.7843 9.4835 11.7462 9.16627 11.7462 8.849C11.7462 6.59009 13.5736 4.75 15.8452 4.75C17.0254 4.75 18.0914 5.24492 18.8401 6.04442C19.7665 5.86676 20.6548 5.5241 21.4416 5.05457C21.137 6.00637 20.4898 6.80587 19.6396 7.31345C20.4645 7.22466 21.264 6.99618 22 6.67895C21.4417 7.4911 20.7437 8.21443 19.9442 8.79822Z" fill="#757575"/>
</svg>
