<svg xmlns="http://www.w3.org/2000/svg" xmlns:xlink="http://www.w3.org/1999/xlink" version="1.1" shape-rendering="crispEdges" viewBox="0 0 37 37"><rect x="0" y="0" height="37" width="37" fill="#FFF"/><rect x="0" y="0" height="1" width="7" fill="#000"/><rect x="8" y="0" height="1" width="3" fill="#000"/><rect x="12" y="0" height="1" width="4" fill="#000"/><rect x="17" y="0" height="1" width="2" fill="#000"/><rect x="22" y="0" height="3" width="1" fill="#000"/><rect x="28" y="0" height="3" width="1" fill="#000"/><rect x="30" y="0" height="1" width="7" fill="#000"/><rect x="0" y="1" height="6" width="1" fill="#000"/><rect x="6" y="1" height="6" width="1" fill="#000"/><rect x="8" y="1" height="2" width="1" fill="#000"/><rect x="10" y="1" height="1" width="2" fill="#000"/><rect x="18" y="1" height="3" width="1" fill="#000"/><rect x="21" y="1" height="3" width="1" fill="#000"/><rect x="23" y="1" height="1" width="2" fill="#000"/><rect x="26" y="1" height="1" width="2" fill="#000"/><rect x="30" y="1" height="6" width="1" fill="#000"/><rect x="36" y="1" height="6" width="1" fill="#000"/><rect x="2" y="2" height="3" width="3" fill="#000"/><rect x="9" y="2" height="2" width="1" fill="#000"/><rect x="13" y="2" height="3" width="1" fill="#000"/><rect x="17" y="2" height="4" width="1" fill="#000"/><rect x="19" y="2" height="1" width="1" fill="#000"/><rect x="24" y="2" height="1" width="1" fill="#000"/><rect x="32" y="2" height="3" width="3" fill="#000"/><rect x="10" y="3" height="4" width="1" fill="#000"/><rect x="15" y="3" height="3" width="1" fill="#000"/><rect x="20" y="3" height="2" width="1" fill="#000"/><rect x="23" y="3" height="1" width="1" fill="#000"/><rect x="25" y="3" height="1" width="2" fill="#000"/><rect x="12" y="4" height="1" width="1" fill="#000"/><rect x="14" y="4" height="1" width="1" fill="#000"/><rect x="16" y="4" height="1" width="1" fill="#000"/><rect x="8" y="5" height="1" width="2" fill="#000"/><rect x="11" y="5" height="1" width="1" fill="#000"/><rect x="19" y="5" height="1" width="1" fill="#000"/><rect x="23" y="5" height="1" width="2" fill="#000"/><rect x="27" y="5" height="1" width="2" fill="#000"/><rect x="1" y="6" height="1" width="5" fill="#000"/><rect x="8" y="6" height="3" width="1" fill="#000"/><rect x="12" y="6" height="3" width="1" fill="#000"/><rect x="14" y="6" height="2" width="1" fill="#000"/><rect x="16" y="6" height="2" width="1" fill="#000"/><rect x="18" y="6" height="2" width="1" fill="#000"/><rect x="20" y="6" height="4" width="1" fill="#000"/><rect x="22" y="6" height="3" width="1" fill="#000"/><rect x="24" y="6" height="1" width="1" fill="#000"/><rect x="26" y="6" height="2" width="1" fill="#000"/><rect x="28" y="6" height="2" width="1" fill="#000"/><rect x="31" y="6" height="1" width="5" fill="#000"/><rect x="9" y="7" height="1" width="1" fill="#000"/><rect x="11" y="7" height="3" width="1" fill="#000"/><rect x="13" y="7" height="1" width="1" fill="#000"/><rect x="15" y="7" height="1" width="1" fill="#000"/><rect x="17" y="7" height="5" width="1" fill="#000"/><rect x="21" y="7" height="3" width="1" fill="#000"/><rect x="23" y="7" height="2" width="1" fill="#000"/><rect x="2" y="8" height="2" width="3" fill="#000"/><rect x="6" y="8" height="1" width="1" fill="#000"/><rect x="10" y="8" height="2" width="1" fill="#000"/><rect x="19" y="8" height="3" width="1" fill="#000"/><rect x="24" y="8" height="2" width="1" fill="#000"/><rect x="29" y="8" height="1" width="3" fill="#000"/><rect x="34" y="8" height="1" width="3" fill="#000"/><rect x="0" y="9" height="1" width="1" fill="#000"/><rect x="5" y="9" height="2" width="1" fill="#000"/><rect x="7" y="9" height="1" width="1" fill="#000"/><rect x="18" y="9" height="1" width="1" fill="#000"/><rect x="25" y="9" height="1" width="6" fill="#000"/><rect x="33" y="9" height="1" width="1" fill="#000"/><rect x="35" y="9" height="2" width="1" fill="#000"/><rect x="3" y="10" height="1" width="1" fill="#000"/><rect x="6" y="10" height="1" width="1" fill="#000"/><rect x="9" y="10" height="2" width="1" fill="#000"/><rect x="12" y="10" height="2" width="1" fill="#000"/><rect x="14" y="10" height="1" width="3" fill="#000"/><rect x="25" y="10" height="1" width="2" fill="#000"/><rect x="30" y="10" height="1" width="2" fill="#000"/><rect x="36" y="10" height="2" width="1" fill="#000"/><rect x="1" y="11" height="1" width="2" fill="#000"/><rect x="4" y="11" height="2" width="1" fill="#000"/><rect x="7" y="11" height="1" width="1" fill="#000"/><rect x="10" y="11" height="2" width="1" fill="#000"/><rect x="15" y="11" height="1" width="2" fill="#000"/><rect x="20" y="11" height="1" width="1" fill="#000"/><rect x="24" y="11" height="1" width="1" fill="#000"/><rect x="26" y="11" height="2" width="1" fill="#000"/><rect x="28" y="11" height="4" width="1" fill="#000"/><rect x="30" y="11" height="2" width="1" fill="#000"/><rect x="33" y="11" height="1" width="1" fill="#000"/><rect x="0" y="12" height="3" width="1" fill="#000"/><rect x="2" y="12" height="1" width="1" fill="#000"/><rect x="5" y="12" height="1" width="2" fill="#000"/><rect x="8" y="12" height="1" width="1" fill="#000"/><rect x="13" y="12" height="1" width="1" fill="#000"/><rect x="16" y="12" height="1" width="1" fill="#000"/><rect x="18" y="12" height="1" width="1" fill="#000"/><rect x="21" y="12" height="1" width="3" fill="#000"/><rect x="25" y="12" height="1" width="1" fill="#000"/><rect x="29" y="12" height="2" width="1" fill="#000"/><rect x="32" y="12" height="1" width="1" fill="#000"/><rect x="34" y="12" height="1" width="2" fill="#000"/><rect x="3" y="13" height="1" width="1" fill="#000"/><rect x="5" y="13" height="1" width="1" fill="#000"/><rect x="9" y="13" height="2" width="1" fill="#000"/><rect x="14" y="13" height="1" width="1" fill="#000"/><rect x="17" y="13" height="1" width="1" fill="#000"/><rect x="19" y="13" height="1" width="1" fill="#000"/><rect x="21" y="13" height="7" width="1" fill="#000"/><rect x="24" y="13" height="1" width="1" fill="#000"/><rect x="31" y="13" height="1" width="1" fill="#000"/><rect x="33" y="13" height="1" width="2" fill="#000"/><rect x="4" y="14" height="1" width="1" fill="#000"/><rect x="6" y="14" height="1" width="2" fill="#000"/><rect x="10" y="14" height="1" width="2" fill="#000"/><rect x="13" y="14" height="3" width="1" fill="#000"/><rect x="15" y="14" height="1" width="2" fill="#000"/><rect x="18" y="14" height="1" width="1" fill="#000"/><rect x="23" y="14" height="4" width="1" fill="#000"/><rect x="27" y="14" height="2" width="1" fill="#000"/><rect x="30" y="14" height="1" width="1" fill="#000"/><rect x="33" y="14" height="1" width="1" fill="#000"/><rect x="36" y="14" height="1" width="1" fill="#000"/><rect x="3" y="15" height="1" width="1" fill="#000"/><rect x="5" y="15" height="1" width="1" fill="#000"/><rect x="7" y="15" height="1" width="2" fill="#000"/><rect x="15" y="15" height="2" width="1" fill="#000"/><rect x="17" y="15" height="1" width="1" fill="#000"/><rect x="19" y="15" height="2" width="1" fill="#000"/><rect x="24" y="15" height="4" width="1" fill="#000"/><rect x="26" y="15" height="3" width="1" fill="#000"/><rect x="31" y="15" height="4" width="1" fill="#000"/><rect x="35" y="15" height="1" width="1" fill="#000"/><rect x="1" y="16" height="1" width="2" fill="#000"/><rect x="4" y="16" height="1" width="1" fill="#000"/><rect x="6" y="16" height="1" width="1" fill="#000"/><rect x="8" y="16" height="1" width="5" fill="#000"/><rect x="18" y="16" height="4" width="1" fill="#000"/><rect x="20" y="16" height="6" width="1" fill="#000"/><rect x="25" y="16" height="1" width="1" fill="#000"/><rect x="29" y="16" height="1" width="2" fill="#000"/><rect x="32" y="16" height="1" width="1" fill="#000"/><rect x="34" y="16" height="3" width="1" fill="#000"/><rect x="36" y="16" height="1" width="1" fill="#000"/><rect x="0" y="17" height="1" width="1" fill="#000"/><rect x="3" y="17" height="2" width="1" fill="#000"/><rect x="7" y="17" height="2" width="1" fill="#000"/><rect x="9" y="17" height="1" width="1" fill="#000"/><rect x="11" y="17" height="1" width="2" fill="#000"/><rect x="14" y="17" height="1" width="1" fill="#000"/><rect x="2" y="18" height="3" width="1" fill="#000"/><rect x="5" y="18" height="1" width="2" fill="#000"/><rect x="8" y="18" height="1" width="1" fill="#000"/><rect x="11" y="18" height="1" width="1" fill="#000"/><rect x="13" y="18" height="3" width="1" fill="#000"/><rect x="15" y="18" height="1" width="1" fill="#000"/><rect x="17" y="18" height="1" width="1" fill="#000"/><rect x="19" y="18" height="1" width="1" fill="#000"/><rect x="22" y="18" height="2" width="1" fill="#000"/><rect x="27" y="18" height="1" width="2" fill="#000"/><rect x="33" y="18" height="1" width="1" fill="#000"/><rect x="35" y="18" height="1" width="2" fill="#000"/><rect x="1" y="19" height="2" width="1" fill="#000"/><rect x="5" y="19" height="1" width="1" fill="#000"/><rect x="9" y="19" height="4" width="1" fill="#000"/><rect x="14" y="19" height="4" width="1" fill="#000"/><rect x="16" y="19" height="1" width="1" fill="#000"/><rect x="23" y="19" height="1" width="1" fill="#000"/><rect x="26" y="19" height="2" width="1" fill="#000"/><rect x="29" y="19" height="2" width="2" fill="#000"/><rect x="35" y="19" height="1" width="1" fill="#000"/><rect x="0" y="20" height="1" width="1" fill="#000"/><rect x="3" y="20" height="1" width="1" fill="#000"/><rect x="6" y="20" height="1" width="1" fill="#000"/><rect x="8" y="20" height="5" width="1" fill="#000"/><rect x="10" y="20" height="1" width="3" fill="#000"/><rect x="17" y="20" height="1" width="1" fill="#000"/><rect x="24" y="20" height="2" width="2" fill="#000"/><rect x="27" y="20" height="1" width="1" fill="#000"/><rect x="31" y="20" height="1" width="4" fill="#000"/><rect x="36" y="20" height="1" width="1" fill="#000"/><rect x="4" y="21" height="5" width="1" fill="#000"/><rect x="7" y="21" height="5" width="1" fill="#000"/><rect x="10" y="21" height="1" width="1" fill="#000"/><rect x="12" y="21" height="2" width="1" fill="#000"/><rect x="15" y="21" height="1" width="2" fill="#000"/><rect x="19" y="21" height="1" width="1" fill="#000"/><rect x="21" y="21" height="5" width="1" fill="#000"/><rect x="31" y="21" height="1" width="1" fill="#000"/><rect x="33" y="21" height="1" width="3" fill="#000"/><rect x="0" y="22" height="2" width="1" fill="#000"/><rect x="3" y="22" height="4" width="1" fill="#000"/><rect x="5" y="22" height="1" width="2" fill="#000"/><rect x="17" y="22" height="1" width="2" fill="#000"/><rect x="22" y="22" height="3" width="1" fill="#000"/><rect x="25" y="22" height="1" width="3" fill="#000"/><rect x="29" y="22" height="1" width="1" fill="#000"/><rect x="35" y="22" height="1" width="2" fill="#000"/><rect x="1" y="23" height="2" width="1" fill="#000"/><rect x="13" y="23" height="2" width="1" fill="#000"/><rect x="18" y="23" height="1" width="1" fill="#000"/><rect x="20" y="23" height="1" width="1" fill="#000"/><rect x="23" y="23" height="1" width="1" fill="#000"/><rect x="25" y="23" height="1" width="1" fill="#000"/><rect x="31" y="23" height="1" width="1" fill="#000"/><rect x="33" y="23" height="6" width="1" fill="#000"/><rect x="36" y="23" height="2" width="1" fill="#000"/><rect x="2" y="24" height="3" width="1" fill="#000"/><rect x="6" y="24" height="1" width="1" fill="#000"/><rect x="9" y="24" height="1" width="4" fill="#000"/><rect x="19" y="24" height="1" width="1" fill="#000"/><rect x="24" y="24" height="1" width="1" fill="#000"/><rect x="26" y="24" height="1" width="1" fill="#000"/><rect x="28" y="24" height="1" width="2" fill="#000"/><rect x="34" y="24" height="1" width="2" fill="#000"/><rect x="0" y="25" height="4" width="1" fill="#000"/><rect x="5" y="25" height="4" width="1" fill="#000"/><rect x="9" y="25" height="2" width="1" fill="#000"/><rect x="12" y="25" height="2" width="1" fill="#000"/><rect x="15" y="25" height="2" width="1" fill="#000"/><rect x="25" y="25" height="2" width="1" fill="#000"/><rect x="27" y="25" height="5" width="1" fill="#000"/><rect x="30" y="25" height="1" width="3" fill="#000"/><rect x="6" y="26" height="1" width="1" fill="#000"/><rect x="8" y="26" height="1" width="1" fill="#000"/><rect x="11" y="26" height="1" width="1" fill="#000"/><rect x="13" y="26" height="4" width="2" fill="#000"/><rect x="16" y="26" height="1" width="2" fill="#000"/><rect x="22" y="26" height="1" width="3" fill="#000"/><rect x="28" y="26" height="1" width="1" fill="#000"/><rect x="30" y="26" height="1" width="1" fill="#000"/><rect x="32" y="26" height="8" width="1" fill="#000"/><rect x="35" y="26" height="1" width="2" fill="#000"/><rect x="7" y="27" height="2" width="1" fill="#000"/><rect x="10" y="27" height="1" width="1" fill="#000"/><rect x="18" y="27" height="1" width="2" fill="#000"/><rect x="22" y="27" height="3" width="2" fill="#000"/><rect x="26" y="27" height="3" width="1" fill="#000"/><rect x="29" y="27" height="2" width="1" fill="#000"/><rect x="31" y="27" height="2" width="1" fill="#000"/><rect x="36" y="27" height="2" width="1" fill="#000"/><rect x="4" y="28" height="1" width="1" fill="#000"/><rect x="6" y="28" height="1" width="1" fill="#000"/><rect x="11" y="28" height="1" width="1" fill="#000"/><rect x="16" y="28" height="1" width="1" fill="#000"/><rect x="19" y="28" height="1" width="3" fill="#000"/><rect x="24" y="28" height="1" width="2" fill="#000"/><rect x="28" y="28" height="6" width="1" fill="#000"/><rect x="30" y="28" height="1" width="1" fill="#000"/><rect x="8" y="29" height="1" width="1" fill="#000"/><rect x="10" y="29" height="1" width="1" fill="#000"/><rect x="12" y="29" height="1" width="1" fill="#000"/><rect x="18" y="29" height="1" width="1" fill="#000"/><rect x="20" y="29" height="1" width="2" fill="#000"/><rect x="0" y="30" height="1" width="7" fill="#000"/><rect x="9" y="30" height="5" width="1" fill="#000"/><rect x="14" y="30" height="2" width="1" fill="#000"/><rect x="16" y="30" height="2" width="1" fill="#000"/><rect x="19" y="30" height="1" width="1" fill="#000"/><rect x="30" y="30" height="1" width="1" fill="#000"/><rect x="33" y="30" height="1" width="1" fill="#000"/><rect x="35" y="30" height="1" width="2" fill="#000"/><rect x="0" y="31" height="6" width="1" fill="#000"/><rect x="6" y="31" height="6" width="1" fill="#000"/><rect x="11" y="31" height="1" width="1" fill="#000"/><rect x="15" y="31" height="1" width="1" fill="#000"/><rect x="18" y="31" height="1" width="1" fill="#000"/><rect x="20" y="31" height="1" width="1" fill="#000"/><rect x="22" y="31" height="1" width="1" fill="#000"/><rect x="36" y="31" height="2" width="1" fill="#000"/><rect x="2" y="32" height="3" width="3" fill="#000"/><rect x="8" y="32" height="3" width="1" fill="#000"/><rect x="12" y="32" height="5" width="1" fill="#000"/><rect x="17" y="32" height="1" width="1" fill="#000"/><rect x="23" y="32" height="1" width="1" fill="#000"/><rect x="25" y="32" height="1" width="3" fill="#000"/><rect x="29" y="32" height="1" width="3" fill="#000"/><rect x="34" y="32" height="1" width="2" fill="#000"/><rect x="11" y="33" height="2" width="1" fill="#000"/><rect x="13" y="33" height="1" width="2" fill="#000"/><rect x="16" y="33" height="3" width="1" fill="#000"/><rect x="21" y="33" height="1" width="2" fill="#000"/><rect x="24" y="33" height="1" width="3" fill="#000"/><rect x="30" y="33" height="1" width="1" fill="#000"/><rect x="33" y="33" height="1" width="1" fill="#000"/><rect x="10" y="34" height="2" width="1" fill="#000"/><rect x="17" y="34" height="1" width="5" fill="#000"/><rect x="26" y="34" height="1" width="1" fill="#000"/><rect x="29" y="34" height="2" width="1" fill="#000"/><rect x="31" y="34" height="3" width="1" fill="#000"/><rect x="34" y="34" height="1" width="1" fill="#000"/><rect x="36" y="34" height="3" width="1" fill="#000"/><rect x="13" y="35" height="2" width="3" fill="#000"/><rect x="17" y="35" height="1" width="1" fill="#000"/><rect x="21" y="35" height="2" width="1" fill="#000"/><rect x="24" y="35" height="2" width="1" fill="#000"/><rect x="28" y="35" height="1" width="1" fill="#000"/><rect x="30" y="35" height="2" width="1" fill="#000"/><rect x="1" y="36" height="1" width="5" fill="#000"/><rect x="9" y="36" height="1" width="1" fill="#000"/><rect x="19" y="36" height="1" width="1" fill="#000"/><rect x="25" y="36" height="1" width="1" fill="#000"/><rect x="32" y="36" height="1" width="4" fill="#000"/></svg>