<svg width="390" height="1169" viewBox="0 0 390 1169" fill="none" xmlns="http://www.w3.org/2000/svg">
<g opacity="0.2" clip-path="url(#clip0_1815_19473)">
<path d="M486.954 709.13L143.481 1052.37L252.479 1161.37L-170.329 1583.94" stroke="#E03C31" stroke-width="0.75" stroke-miterlimit="10"/>
<path opacity="0.9619" d="M510.731 709.13L167.494 1052.37L276.256 1161.37L-146.316 1583.94" stroke="#E1453B" stroke-width="0.75" stroke-miterlimit="10"/>
<path opacity="0.9238" d="M534.744 709.13L191.271 1052.37L300.269 1161.37L-122.304 1583.94" stroke="#E34F45" stroke-width="0.75" stroke-miterlimit="10"/>
<path opacity="0.8857" d="M558.521 709.13L215.283 1052.37L324.046 1161.37L-98.5273 1583.94" stroke="#E4584E" stroke-width="0.75" stroke-miterlimit="10"/>
<path opacity="0.8476" d="M582.533 709.13L239.06 1052.37L348.058 1161.37L-74.5146 1583.94" stroke="#E66158" stroke-width="0.75" stroke-miterlimit="10"/>
<path opacity="0.8095" d="M606.311 709.13L263.073 1052.37L371.836 1161.37L-50.7373 1583.94" stroke="#E76A62" stroke-width="0.75" stroke-miterlimit="10"/>
<path opacity="0.7714" d="M630.323 709.13L286.85 1052.37L395.848 1161.37L-26.7246 1583.94" stroke="#E9746C" stroke-width="0.75" stroke-miterlimit="10"/>
<path opacity="0.7333" d="M654.1 709.13L310.862 1052.37L419.86 1161.37L-2.94824 1583.94" stroke="#EA7D76" stroke-width="0.75" stroke-miterlimit="10"/>
<path opacity="0.6952" d="M678.112 709.13L334.639 1052.37L443.637 1161.37L21.0645 1583.94" stroke="#EC867F" stroke-width="0.75" stroke-miterlimit="10"/>
<path opacity="0.6571" d="M701.89 709.13L358.652 1052.37L467.65 1161.37L44.8418 1583.94" stroke="#ED9089" stroke-width="0.75" stroke-miterlimit="10"/>
<path opacity="0.619" d="M725.902 709.13L382.429 1052.37L491.427 1161.37L68.8545 1583.94" stroke="#EF9993" stroke-width="0.75" stroke-miterlimit="10"/>
<path opacity="0.581" d="M749.679 709.13L406.441 1052.37L515.439 1161.37L92.6309 1583.94" stroke="#F0A29D" stroke-width="0.75" stroke-miterlimit="10"/>
<path opacity="0.5429" d="M773.691 709.13L430.454 1052.37L539.216 1161.37L116.644 1583.94" stroke="#F2ABA7" stroke-width="0.75" stroke-miterlimit="10"/>
<path opacity="0.5048" d="M797.469 709.13L454.231 1052.37L563.229 1161.37L140.421 1583.94" stroke="#F3B5B1" stroke-width="0.75" stroke-miterlimit="10"/>
<path opacity="0.4667" d="M821.481 709.13L478.244 1052.37L587.006 1161.37L164.434 1583.94" stroke="#F5BEBA" stroke-width="0.75" stroke-miterlimit="10"/>
<path opacity="0.4286" d="M845.494 709.13L502.021 1052.37L611.019 1161.37L188.211 1583.94" stroke="#F6C7C4" stroke-width="0.75" stroke-miterlimit="10"/>
<path opacity="0.3905" d="M869.271 709.13L526.033 1052.37L634.796 1161.37L212.223 1583.94" stroke="#F8D1CE" stroke-width="0.75" stroke-miterlimit="10"/>
<path opacity="0.3524" d="M893.283 709.13L549.81 1052.37L658.808 1161.37L236.235 1583.94" stroke="#F9DAD8" stroke-width="0.75" stroke-miterlimit="10"/>
<path opacity="0.3143" d="M917.061 709.13L573.823 1052.37L682.586 1161.37L260.013 1583.94" stroke="#FBE3E2" stroke-width="0.75" stroke-miterlimit="10"/>
<path opacity="0.2762" d="M941.073 709.13L597.6 1052.37L706.598 1161.37L284.025 1583.94" stroke="#FCECEB" stroke-width="0.75" stroke-miterlimit="10"/>
<path opacity="0.2381" d="M964.85 709.13L621.612 1052.37L730.61 1161.37L307.802 1583.94" stroke="#FEF6F5" stroke-width="0.75" stroke-miterlimit="10"/>
<path opacity="0.2" d="M988.862 709.13L645.389 1052.37L754.387 1161.37L331.814 1583.94" stroke="white" stroke-width="0.75" stroke-miterlimit="10"/>
</g>
<g opacity="0.5" filter="url(#filter0_f_1815_19473)">
<circle cx="311.735" cy="1543.03" r="431.391" transform="rotate(101.5 311.735 1543.03)" fill="url(#paint0_radial_1815_19473)" fill-opacity="0.4"/>
<circle cx="311.735" cy="1543.03" r="431.391" transform="rotate(101.5 311.735 1543.03)" fill="url(#paint1_radial_1815_19473)" fill-opacity="0.3"/>
</g>
<g opacity="0.4" filter="url(#filter1_f_1815_19473)">
<circle cx="0.0631947" cy="150.361" r="210.565" transform="rotate(-23.5 0.0631947 150.361)" fill="url(#paint2_radial_1815_19473)" fill-opacity="0.5"/>
<circle cx="0.0631947" cy="150.361" r="210.565" transform="rotate(-23.5 0.0631947 150.361)" fill="url(#paint3_radial_1815_19473)" fill-opacity="0.5"/>
</g>
<g opacity="0.5" filter="url(#filter2_f_1815_19473)">
<circle cx="177" cy="302.297" r="100" fill="url(#paint4_radial_1815_19473)" fill-opacity="0.4"/>
<circle cx="177" cy="302.297" r="100" fill="url(#paint5_radial_1815_19473)" fill-opacity="0.3"/>
</g>
<g opacity="0.5" filter="url(#filter3_f_1815_19473)">
<circle cx="177" cy="669.297" r="100" fill="url(#paint6_radial_1815_19473)" fill-opacity="0.4"/>
<circle cx="177" cy="669.297" r="100" fill="url(#paint7_radial_1815_19473)" fill-opacity="0.3"/>
</g>
<g opacity="0.5" filter="url(#filter4_f_1815_19473)">
<circle cx="177" cy="1004.3" r="100" fill="url(#paint8_radial_1815_19473)" fill-opacity="0.4"/>
<circle cx="177" cy="1004.3" r="100" fill="url(#paint9_radial_1815_19473)" fill-opacity="0.3"/>
</g>
<defs>
<filter id="filter0_f_1815_19473" x="-175.74" y="1055.56" width="974.95" height="974.951" filterUnits="userSpaceOnUse" color-interpolation-filters="sRGB">
<feFlood flood-opacity="0" result="BackgroundImageFix"/>
<feBlend mode="normal" in="SourceGraphic" in2="BackgroundImageFix" result="shape"/>
<feGaussianBlur stdDeviation="28" result="effect1_foregroundBlur_1815_19473"/>
</filter>
<filter id="filter1_f_1815_19473" x="-266.555" y="-116.258" width="533.236" height="533.237" filterUnits="userSpaceOnUse" color-interpolation-filters="sRGB">
<feFlood flood-opacity="0" result="BackgroundImageFix"/>
<feBlend mode="normal" in="SourceGraphic" in2="BackgroundImageFix" result="shape"/>
<feGaussianBlur stdDeviation="28" result="effect1_foregroundBlur_1815_19473"/>
</filter>
<filter id="filter2_f_1815_19473" x="21" y="146.297" width="312" height="312" filterUnits="userSpaceOnUse" color-interpolation-filters="sRGB">
<feFlood flood-opacity="0" result="BackgroundImageFix"/>
<feBlend mode="normal" in="SourceGraphic" in2="BackgroundImageFix" result="shape"/>
<feGaussianBlur stdDeviation="28" result="effect1_foregroundBlur_1815_19473"/>
</filter>
<filter id="filter3_f_1815_19473" x="21" y="513.297" width="312" height="312" filterUnits="userSpaceOnUse" color-interpolation-filters="sRGB">
<feFlood flood-opacity="0" result="BackgroundImageFix"/>
<feBlend mode="normal" in="SourceGraphic" in2="BackgroundImageFix" result="shape"/>
<feGaussianBlur stdDeviation="28" result="effect1_foregroundBlur_1815_19473"/>
</filter>
<filter id="filter4_f_1815_19473" x="21" y="848.297" width="312" height="312" filterUnits="userSpaceOnUse" color-interpolation-filters="sRGB">
<feFlood flood-opacity="0" result="BackgroundImageFix"/>
<feBlend mode="normal" in="SourceGraphic" in2="BackgroundImageFix" result="shape"/>
<feGaussianBlur stdDeviation="28" result="effect1_foregroundBlur_1815_19473"/>
</filter>
<radialGradient id="paint0_radial_1815_19473" cx="0" cy="0" r="1" gradientUnits="userSpaceOnUse" gradientTransform="translate(311.735 1176.17) rotate(90) scale(798.249 2553.26)">
<stop offset="0.0619802" stop-color="#796E65"/>
<stop offset="0.274189" stop-color="#796E65" stop-opacity="0.692827"/>
<stop offset="0.569844" stop-color="#796E65" stop-opacity="0.430995"/>
<stop offset="1" stop-color="#796E65" stop-opacity="0"/>
</radialGradient>
<radialGradient id="paint1_radial_1815_19473" cx="0" cy="0" r="1" gradientUnits="userSpaceOnUse" gradientTransform="translate(311.735 1111.64) rotate(90) scale(862.781 1639.29)">
<stop stop-color="#796E65"/>
<stop offset="0.0983848" stop-color="#796E65" stop-opacity="0"/>
</radialGradient>
<radialGradient id="paint2_radial_1815_19473" cx="0" cy="0" r="1" gradientUnits="userSpaceOnUse" gradientTransform="translate(-0.84371 -36.2519) rotate(89.8692) scale(397.179 1270.4)">
<stop offset="0.0619802" stop-color="#BE673A"/>
<stop offset="0.418388" stop-color="#BE673A" stop-opacity="0.692827"/>
<stop offset="1" stop-color="#BE673A" stop-opacity="0"/>
</radialGradient>
<radialGradient id="paint3_radial_1815_19473" cx="0" cy="0" r="1" gradientUnits="userSpaceOnUse" gradientTransform="translate(0.0632848 -60.2041) rotate(90) scale(421.13 800.15)">
<stop stop-color="#BE673A"/>
<stop offset="0.0983848" stop-color="#BE673A" stop-opacity="0"/>
</radialGradient>
<radialGradient id="paint4_radial_1815_19473" cx="0" cy="0" r="1" gradientUnits="userSpaceOnUse" gradientTransform="translate(177 217.256) rotate(90) scale(185.041 591.867)">
<stop offset="0.0619802" stop-color="#9331FF"/>
<stop offset="0.274189" stop-color="#5F259F" stop-opacity="0.692827"/>
<stop offset="0.569844" stop-color="#5F259F" stop-opacity="0.430995"/>
<stop offset="1" stop-color="#5F259F" stop-opacity="0"/>
</radialGradient>
<radialGradient id="paint5_radial_1815_19473" cx="0" cy="0" r="1" gradientUnits="userSpaceOnUse" gradientTransform="translate(177 202.297) rotate(90) scale(200 380.001)">
<stop stop-color="#C98BDB"/>
<stop offset="0.0983848" stop-color="#C98BDB" stop-opacity="0"/>
</radialGradient>
<radialGradient id="paint6_radial_1815_19473" cx="0" cy="0" r="1" gradientUnits="userSpaceOnUse" gradientTransform="translate(177 584.255) rotate(90) scale(185.041 591.867)">
<stop offset="0.0619802" stop-color="#FF3007"/>
<stop offset="0.274189" stop-color="#E03C31" stop-opacity="0.692827"/>
<stop offset="0.569844" stop-color="#E03C31" stop-opacity="0.430995"/>
<stop offset="1" stop-color="#E03C31" stop-opacity="0"/>
</radialGradient>
<radialGradient id="paint7_radial_1815_19473" cx="0" cy="0" r="1" gradientUnits="userSpaceOnUse" gradientTransform="translate(177 569.296) rotate(90) scale(200 380.001)">
<stop stop-color="#CE0037"/>
<stop offset="0.0983848" stop-color="#CE0037" stop-opacity="0"/>
</radialGradient>
<radialGradient id="paint8_radial_1815_19473" cx="0" cy="0" r="1" gradientUnits="userSpaceOnUse" gradientTransform="translate(177 919.255) rotate(90) scale(185.041 591.867)">
<stop offset="0.0619802" stop-color="#00BF63"/>
<stop offset="0.274189" stop-color="#00BFB3" stop-opacity="0.692827"/>
<stop offset="0.569844" stop-color="#00BFB3" stop-opacity="0.430995"/>
<stop offset="1" stop-color="#00BFB3" stop-opacity="0"/>
</radialGradient>
<radialGradient id="paint9_radial_1815_19473" cx="0" cy="0" r="1" gradientUnits="userSpaceOnUse" gradientTransform="translate(177 904.296) rotate(90) scale(200 380.001)">
<stop stop-color="#C4D600"/>
<stop offset="0.0983848" stop-color="#C4D600" stop-opacity="0"/>
</radialGradient>
<clipPath id="clip0_1815_19473">
<rect width="1440" height="678" fill="white" transform="translate(-282 803.297)"/>
</clipPath>
</defs>
</svg>
