<svg width="100" height="101" viewBox="0 0 100 101" fill="none" xmlns="http://www.w3.org/2000/svg">
<path d="M90.0005 54.5263C89.5555 54.4016 89.094 54.3392 88.6304 54.3409H29.1704C27.7991 54.3409 26.484 54.8619 25.5144 55.7893C24.5447 56.7168 24 57.9747 24 59.2863V86.486C24.002 87.5678 24.3747 88.6191 25.0611 89.4788C25.7475 90.3386 26.7097 90.9593 27.8003 91.246C28.2452 91.3707 28.7067 91.4331 29.1704 91.4314H88.6304C90.0016 91.4314 91.3168 90.9104 92.2864 89.983C93.256 89.0555 93.8008 87.7976 93.8008 86.486V59.2863C93.7988 58.2045 93.4261 57.1532 92.7397 56.2935C92.0532 55.4337 91.0911 54.813 90.0005 54.5263ZM88.6304 81.5406C87.2591 81.5406 85.944 82.0616 84.9743 82.9891C84.0047 83.9165 83.4599 85.1744 83.4599 86.486H34.3409C34.3409 85.1744 33.7961 83.9165 32.8265 82.9891C31.8568 82.0616 30.5417 81.5406 29.1704 81.5406V64.2317C30.5417 64.2317 31.8568 63.7106 32.8265 62.7832C33.7961 61.8558 34.3409 60.5979 34.3409 59.2863H83.4599C83.4599 60.5979 84.0047 61.8558 84.9743 62.7832C85.944 63.7106 87.2591 64.2317 88.6304 64.2317V81.5406Z" fill="#45981E"/>
<path d="M88.6298 64.2315V81.5405C87.2586 81.5405 85.9434 82.0615 84.9738 82.989C84.0042 83.9164 83.4594 85.1743 83.4594 86.4859H34.3404C34.3404 85.1743 33.7956 83.9164 32.826 82.989C31.8563 82.0615 30.5412 81.5405 29.1699 81.5405V64.2315C30.5412 64.2315 31.8563 63.7105 32.826 62.7831C33.7956 61.8556 34.3404 60.5977 34.3404 59.2861H83.4594C83.4594 60.5977 84.0042 61.8556 84.9738 62.7831C85.9434 63.7105 87.2586 64.2315 88.6298 64.2315Z" fill="#C4D600"/>
<path d="M90.0015 54.5261C89.5565 54.4014 89.095 54.3389 88.6313 54.3406H83.9262L79.6736 47.2934L77.5408 43.7574C76.4465 44.3625 75.1585 44.5633 73.92 44.3219C72.6816 44.0804 71.5785 43.4134 70.8192 42.4469C70.7146 42.2959 70.6196 42.139 70.5348 41.9771L48.0176 54.3406H37.6768L66.1141 38.6266L71.2845 35.7706L72.3445 35.1895C72.9354 34.863 73.588 34.6516 74.2647 34.5676C74.9414 34.4835 75.6288 34.5284 76.2873 34.6996C76.9458 34.8709 77.5623 35.1651 78.1014 35.5654C78.6404 35.9656 79.0913 36.464 79.428 37.0317L90.0015 54.5261Z" fill="#45981E"/>
<path d="M83.9252 54.3406H48.0166L70.5338 41.9771C70.638 42.1534 70.7546 42.3227 70.8828 42.484C71.6421 43.4505 72.7452 44.1175 73.9837 44.3589C75.2221 44.6004 76.5102 44.3996 77.6044 43.7945L79.7372 47.3305L83.9252 54.3406Z" fill="#C4D600"/>
<path d="M71.31 35.7952L66.1395 38.6512L55.5918 32.828C54.9033 33.9529 53.7783 34.7722 52.4615 35.108C51.1447 35.4437 49.7426 35.2686 48.5601 34.6207L36.6164 54.3405H30.6445L46.6341 27.8579C46.974 27.2916 47.4278 26.7953 47.9693 26.3977C48.5109 26.0001 49.1293 25.7089 49.7891 25.5411C50.4488 25.3733 51.1368 25.3321 51.8133 25.4199C52.4898 25.5077 53.1414 25.7228 53.7305 26.0528L71.31 35.7952Z" fill="#45981E"/>
<path d="M58.9002 81.5404C63.1835 81.5404 66.6558 77.6656 66.6558 72.8859C66.6558 68.1062 63.1835 64.2314 58.9002 64.2314C54.6169 64.2314 51.1445 68.1062 51.1445 72.8859C51.1445 77.6656 54.6169 81.5404 58.9002 81.5404Z" fill="#F6FF94"/>
<path d="M66.1384 38.6264L37.6881 54.3405H36.6152L48.5589 34.6207C49.1477 34.9462 49.7979 35.1575 50.4722 35.2423C51.1465 35.3272 51.8316 35.2839 52.4884 35.1151C53.1452 34.9463 53.7608 34.6552 54.2998 34.2585C54.8388 33.8618 55.2906 33.3672 55.6295 32.8032L66.1384 38.6264Z" fill="#C4D600"/>
<rect x="6" y="62.375" width="49" height="32" rx="5" fill="#4383FF"/>
<path d="M50.0021 82.9387V88.7758C50.0021 89.4141 49.4789 89.9327 48.8311 89.9327H42.9279C42.2817 89.9327 41.7568 89.4158 41.7568 88.7758V82.9387C41.7568 82.3003 42.2801 81.7817 42.9279 81.7817H48.8311C49.4789 81.7834 50.0021 82.3003 50.0021 82.9387Z" fill="#FFBC50"/>
<path d="M46.4327 81.7832H45.3281V89.9309H46.4327V81.7832Z" fill="#F49F16"/>
<path d="M45.9462 85.3101H41.7588V86.4013H45.9462V85.3101Z" fill="#F49F16"/>
<path d="M50.0019 83.4014H45.8145V84.4926H50.0019V83.4014Z" fill="#F49F16"/>
<path d="M50.0019 87.2202H45.8145V88.3115H50.0019V87.2202Z" fill="#F49F16"/>
<rect x="9.32227" y="87.4009" width="11.6271" height="2.05128" rx="1.02564" fill="white"/>
<rect x="9.32227" y="83.2983" width="17.4407" height="2.05128" rx="1.02564" fill="white"/>
<rect x="6" y="69.7598" width="49" height="6.5641" fill="#24272B"/>
</svg>
