<svg xmlns="http://www.w3.org/2000/svg" width="50" height="50" viewBox="0 0 50 50">
  <g id="Symbol_506_1" data-name="Symbol 506 – 1" transform="translate(-80 -3159)">
    <path id="Path_2130" data-name="Path 2130" d="M0,0H50V50H0Z" transform="translate(80 3159)" fill="none"/>
    <g id="Group_3488" data-name="Group 3488" transform="translate(90 3165)">
      <g id="Group_3393" data-name="Group 3393" transform="translate(0 0)">
        <g id="Group_3386" data-name="Group 3386">
          <g id="Group_3385" data-name="Group 3385">
            <g id="Group_3384" data-name="Group 3384">
              <path id="Path_1502" data-name="Path 1502" d="M15.82,38.23c8.8-2.783,15.273-10.6,15.273-17.639,0-2.484.039-12.121.047-14.927A27.292,27.292,0,0,1,19.727,2.905,23.251,23.251,0,0,1,15.82.5a22.1,22.1,0,0,1-3.907,2.405A27.366,27.366,0,0,1,.5,5.672C.508,8.47.547,18.115.547,20.6.547,27.626,7.024,35.447,15.82,38.23Z" transform="translate(-0.5 -0.5)" fill="none" stroke="#5b6670" stroke-linecap="round" stroke-linejoin="round" stroke-miterlimit="10" stroke-width="1"/>
            </g>
          </g>
        </g>
        <g id="Group_3389" data-name="Group 3389" transform="translate(15.516 3.404)" opacity="0.3">
          <g id="Group_3388" data-name="Group 3388">
            <g id="Group_3387" data-name="Group 3387">
              <path id="Path_1503" data-name="Path 1503" d="M20.24,35.753c7.208-2.28,12.522-8.694,12.522-14.455,0-2.036.031-9.936.039-12.231A22.506,22.506,0,0,1,23.439,6.8a18.187,18.187,0,0,1-3.2-1.973Z" transform="translate(-20.24 -4.83)" fill="#cf3339"/>
            </g>
          </g>
        </g>
        <path id="Path_1504" data-name="Path 1504" d="M26.69,31.09" transform="translate(-6.104 -7.045)" fill="#fff" stroke="#5b6670" stroke-linecap="round" stroke-linejoin="round" stroke-miterlimit="10" stroke-width="2"/>
        <path id="Path_1505" data-name="Path 1505" d="M35.63,28.86" transform="translate(-8.016 -6.568)" fill="#fff" stroke="#5b6670" stroke-linecap="round" stroke-linejoin="round" stroke-miterlimit="10" stroke-width="2"/>
        <g id="Group_3391" data-name="Group 3391" transform="translate(6.942 6.131)">
          <g id="Group_3390" data-name="Group 3390" transform="translate(0 5.392)">
            <path id="Path_1506" data-name="Path 1506" d="M24.076,15.16H11.838a1.08,1.08,0,0,0-1.069.959L9.338,29.639a1.072,1.072,0,0,0,1.069,1.187H25.02a1.075,1.075,0,0,0,1.069-1.148l-.943-13.52A1.067,1.067,0,0,0,24.076,15.16Z" transform="translate(-9.332 -15.16)" fill="#fff" stroke="#5b6670" stroke-linecap="round" stroke-miterlimit="10" stroke-width="1"/>
          </g>
          <circle id="Ellipse_149" data-name="Ellipse 149" cx="0.943" cy="0.943" r="0.943" transform="translate(4.519 7.271)" fill="none" stroke="#5b6670" stroke-linecap="round" stroke-miterlimit="10" stroke-width="1"/>
          <circle id="Ellipse_150" data-name="Ellipse 150" cx="0.943" cy="0.943" r="0.943" transform="translate(10.39 7.271)" fill="none" stroke="#5b6670" stroke-linecap="round" stroke-miterlimit="10" stroke-width="1"/>
          <path id="Path_1507" data-name="Path 1507" d="M16.28,15.571v-4.2A3.015,3.015,0,0,1,19.212,8.3h0a3.015,3.015,0,0,1,2.932,3.073v4.2" transform="translate(-10.818 -8.3)" fill="none" stroke="#5b6670" stroke-linecap="round" stroke-miterlimit="10" stroke-width="1"/>
        </g>
        <path id="Path_1508" data-name="Path 1508" d="M25.66,29.29l1.155,6.477,1.478-1.737a.23.23,0,0,1,.314.016l1.839,2.036,1.376-1.187-1.839-2.036A.23.23,0,0,1,30,32.544l2.146-1.289Z" transform="translate(-5.883 -6.66)" fill="#5b6670" stroke="#fff" stroke-linecap="round" stroke-linejoin="round" stroke-miterlimit="10" stroke-width="0.5"/>
        <g id="Group_3392" data-name="Group 3392" transform="translate(17.144 20.131)" opacity="0.3">
          <line id="Line_1251" data-name="Line 1251" y1="1.666" x2="0.597" transform="translate(3.82)" fill="none" stroke="#cf3339" stroke-linecap="round" stroke-linejoin="round" stroke-miterlimit="10" stroke-width="0.5"/>
          <line id="Line_1252" data-name="Line 1252" x1="0.755" y1="1.604" transform="translate(1.776 0.126)" fill="none" stroke="#cf3339" stroke-linecap="round" stroke-linejoin="round" stroke-miterlimit="10" stroke-width="0.5"/>
          <line id="Line_1253" data-name="Line 1253" x1="1.666" y1="0.605" transform="translate(0 2.083)" fill="none" stroke="#cf3339" stroke-linecap="round" stroke-linejoin="round" stroke-miterlimit="10" stroke-width="0.5"/>
          <line id="Line_1254" data-name="Line 1254" x1="1.604" y2="0.762" transform="translate(0.126 3.97)" fill="none" stroke="#cf3339" stroke-linecap="round" stroke-linejoin="round" stroke-miterlimit="10" stroke-width="0.5"/>
        </g>
      </g>
    </g>
  </g>
</svg>
