<svg xmlns="http://www.w3.org/2000/svg" width="50" height="50" viewBox="0 0 50 50">
  <g id="Symbol_136" data-name="Symbol 136" transform="translate(-723 -7468)">
    <rect id="Rectangle_1999" data-name="Rectangle 1999" width="50" height="50" transform="translate(723 7468)" fill="none"/>
    <g id="Group_3764" data-name="Group 3764" transform="translate(-873.959 7326.76)">
      <path id="Rectangle_3104" data-name="Rectangle 3104" d="M3,0H33a3,3,0,0,1,3,3V8.036a0,0,0,0,1,0,0H0a0,0,0,0,1,0,0V3A3,3,0,0,1,3,0Z" transform="translate(1603.959 149.758)" fill="#cf3339" opacity="0.3"/>
      <rect id="Rectangle_3105" data-name="Rectangle 3105" width="36" height="36" rx="3" transform="translate(1603.959 149.758)" stroke-width="1" stroke="#5b6670" stroke-linecap="round" stroke-linejoin="round" fill="none"/>
      <line id="Line_1391" data-name="Line 1391" y2="5.435" transform="translate(1613.834 146.24)" fill="none" stroke="#5b6670" stroke-linecap="round" stroke-linejoin="round" stroke-width="1"/>
      <line id="Line_1392" data-name="Line 1392" y2="5.435" transform="translate(1630.084 146.24)" fill="none" stroke="#5b6670" stroke-linecap="round" stroke-linejoin="round" stroke-width="1"/>
      <path id="Path_2307" data-name="Path 2307" d="M8.568.288c4.32,0,7.1-3.984,7.1-8.688v-.048c0-4.7-2.736-8.64-7.056-8.64S1.488-13.1,1.488-8.4v.048C1.488-3.648,4.224.288,8.568.288ZM8.616-1.44c-3.144,0-5.16-3.288-5.16-6.96v-.048c0-3.7,1.968-6.912,5.112-6.912,3.12,0,5.136,3.288,5.136,6.96v.048C13.7-4.68,11.76-1.44,8.616-1.44Z" transform="translate(1610.959 178.783)" fill="#5b6670"/>
      <path id="Path_2308" data-name="Path 2308" d="M1.5-2.45A1.2,1.2,0,0,0,2.695-3.7v-.014A1.178,1.178,0,0,0,1.512-4.956,1.193,1.193,0,0,0,.315-3.7v.014A1.178,1.178,0,0,0,1.5-2.45ZM1.1-.287a.329.329,0,0,0,.329.329A.355.355,0,0,0,1.715-.1L4.844-4.389a.347.347,0,0,0,.077-.224.329.329,0,0,0-.329-.329.355.355,0,0,0-.287.147L1.176-.511A.392.392,0,0,0,1.1-.287ZM4.508.056A1.2,1.2,0,0,0,5.7-1.2v-.014A1.178,1.178,0,0,0,4.522-2.45,1.193,1.193,0,0,0,3.325-1.2v.014A1.178,1.178,0,0,0,4.508.056Zm-3-3.143c-.28,0-.462-.287-.462-.616v-.014c0-.322.154-.6.448-.6s.462.287.462.616v.014C1.96-3.374,1.806-3.087,1.512-3.087ZM4.522-.581c-.28,0-.462-.287-.462-.616v-.014c0-.322.154-.6.448-.6s.462.287.462.616v.014C4.97-.868,4.816-.581,4.522-.581Z" transform="translate(1628.238 178.173)" fill="#5b6670" stroke="#5b6670" stroke-width="0.1"/>
    </g>
  </g>
</svg>
