<svg xmlns="http://www.w3.org/2000/svg" width="50" height="50" viewBox="0 0 50 50">
  <g id="Symbol_503_6" data-name="Symbol 503 – 6" transform="translate(-80 -7468)">
    <g id="Group_3230" data-name="Group 3230" transform="translate(0 -15)">
      <rect id="Rectangle_1998" data-name="Rectangle 1998" width="50" height="50" transform="translate(80 7483)" fill="none"/>
    </g>
    <g id="Group_3740" data-name="Group 3740" transform="translate(-1643.103 7383.11)">
      <path id="Path_2075" data-name="Path 2075" d="M1762.106,118.989l-7.61-2.109a2.211,2.211,0,0,1-1.213-3.281,21.8,21.8,0,0,0,2.707-10.391c0-6.585-3.531-8.552-7.886-8.552s-7.885,1.967-7.885,8.552a21.8,21.8,0,0,0,2.705,10.391,2.21,2.21,0,0,1-1.212,3.281l-7.61,2.109a6.634,6.634,0,0,0-5,6.308v.982a2.416,2.416,0,0,0,2.1,2.429h0a149.353,149.353,0,0,0,33.789,0h0a2.417,2.417,0,0,0,2.106-2.429V125.3A6.634,6.634,0,0,0,1762.106,118.989Z" transform="translate(0 0.139)" fill="none" stroke="#5b6670" stroke-miterlimit="10" stroke-width="1"/>
      <g id="Group_3738" data-name="Group 3738" transform="translate(1735.617 91.89)">
        <path id="Path_2076" data-name="Path 2076" d="M1744.236,112.292c-4.87,0-6.92-1.867-7.376-4.279" transform="translate(-1735.227 -91.079)" fill="none" stroke="#5b6670" stroke-linecap="round" stroke-linejoin="round" stroke-width="1"/>
        <path id="Path_2077" data-name="Path 2077" d="M1736.815,102a10.909,10.909,0,0,1,21.768.132" transform="translate(-1735.229 -91.89)" fill="none" stroke="#5b6670" stroke-linecap="round" stroke-linejoin="round" stroke-width="1"/>
        <rect id="Rectangle_3095" data-name="Rectangle 3095" width="2.98" height="6.41" rx="1" transform="translate(0 10.426)" stroke-width="1" stroke="#5b6670" stroke-linecap="round" stroke-linejoin="round" fill="none"/>
        <rect id="Rectangle_3096" data-name="Rectangle 3096" width="2.98" height="6.41" rx="1" transform="translate(21.944 10.426)" stroke-width="1" stroke="#5b6670" stroke-linecap="round" stroke-linejoin="round" fill="none"/>
        <ellipse id="Ellipse_173" data-name="Ellipse 173" cx="1.911" cy="2.03" rx="1.911" ry="2.03" transform="translate(9.008 19.182)" fill="#fff" stroke="#5b6670" stroke-linecap="round" stroke-linejoin="round" stroke-width="1"/>
      </g>
      <rect id="Rectangle_3097" data-name="Rectangle 3097" width="7.157" height="1.923" rx="0.502" transform="translate(1755.268 124.193)" fill="#cf3339" opacity="0.3"/>
      <g id="Group_3739" data-name="Group 3739" transform="translate(1746.677 116.425)">
        <path id="Path_2078" data-name="Path 2078" d="M1747.962,116.537h-.394l-1.719,7.46a.516.516,0,0,0,.068.394l1.736,2.728a.135.135,0,0,0,.224,0l1.736-2.728a.511.511,0,0,0,.069-.394Z" transform="translate(-1745.835 -115.186)" fill="#cf3339" opacity="0.3"/>
        <path id="Path_2079" data-name="Path 2079" d="M1747.931,116.6h-.4l-.964-1.151a.064.064,0,0,1,.057-.069l.5-.081a3.751,3.751,0,0,1,1.216,0l.5.081a.064.064,0,0,1,.057.069Z" transform="translate(-1745.799 -115.251)" fill="#cf3339" opacity="0.3"/>
      </g>
    </g>
  </g>
</svg>
