<svg xmlns="http://www.w3.org/2000/svg" width="50" height="50" viewBox="0 0 50 50">
  <g id="Symbol_500_6" data-name="Symbol 500 – 6" transform="translate(-80 -8270)">
    <rect id="Rectangle_2000" data-name="Rectangle 2000" width="50" height="50" transform="translate(80 8270)" fill="none"/>
    <g id="Group_3763" data-name="Group 3763" transform="translate(-1514.656 7862.31)">
      <g id="Group_3762" data-name="Group 3762" transform="translate(1599.656 415.69)">
        <g id="Group_3759" data-name="Group 3759" transform="translate(10.565)">
          <line id="Line_1390" data-name="Line 1390" y2="19.211" transform="translate(13.291 5.867)" fill="none" stroke="#cf3339" stroke-miterlimit="10" stroke-width="1" opacity="0.3"/>
          <path id="Rectangle_3101" data-name="Rectangle 3101" d="M0,0H20.138a0,0,0,0,1,0,0V12.332a3,3,0,0,1-3,3H3a3,3,0,0,1-3-3V0A0,0,0,0,1,0,0Z" transform="translate(3.222 10.284)" fill="none" stroke="#5b6670" stroke-linecap="round" stroke-miterlimit="10" stroke-width="1"/>
          <rect id="Rectangle_3102" data-name="Rectangle 3102" width="26.583" height="4.842" rx="1" transform="translate(0 5.443)" fill="#f0c0c2"/>
          <g id="Group_3758" data-name="Group 3758" transform="translate(6.899)">
            <path id="Path_2093" data-name="Path 2093" d="M1623.892,421.106s-1.033-5.351-4.008-5.415a2.4,2.4,0,0,0-2.37,2.183C1617.369,419.389,1618.219,421.387,1623.892,421.106Z" transform="translate(-1617.5 -415.69)" fill="none" stroke="#f0c0c2" stroke-miterlimit="10" stroke-width="1"/>
            <path id="Path_2094" data-name="Path 2094" d="M1624.031,421.106s1.035-5.351,4.008-5.415a2.4,2.4,0,0,1,2.369,2.183C1630.555,419.389,1629.7,421.387,1624.031,421.106Z" transform="translate(-1617.639 -415.69)" fill="none" stroke="#f0c0c2" stroke-miterlimit="10" stroke-width="1"/>
          </g>
          <rect id="Rectangle_3103" data-name="Rectangle 3103" width="26.583" height="4.842" rx="1" transform="translate(0 5.443)" fill="none" stroke="#5b6670" stroke-linecap="round" stroke-miterlimit="10" stroke-width="1"/>
        </g>
        <g id="Group_3761" data-name="Group 3761" transform="translate(0 17.276)">
          <g id="Group_3760" data-name="Group 3760">
            <path id="Path_2095" data-name="Path 2095" d="M1639.431,440.625a2.264,2.264,0,0,0-2.995-1.071l-2.626,1.221a7.758,7.758,0,0,1-3.268.722h-6.484a7.745,7.745,0,0,1-4.5-1.443l3.324-1.575a2.7,2.7,0,0,0-1.943-5.02l-5.5,1.678a19.069,19.069,0,0,0-6.849,3.762h-2.217a1.979,1.979,0,0,0-1.956-1.7h-2.773a1.985,1.985,0,0,0-1.985,1.985v8.85a1.985,1.985,0,0,0,1.985,1.985h2.773a1.983,1.983,0,0,0,1.819-1.2c.553.021,1.106.032,1.66.032h8.552a45.083,45.083,0,0,0,7.89-.7l3.238-.575a33.312,33.312,0,0,0,10.96-4.025A2.263,2.263,0,0,0,1639.431,440.625Z" transform="translate(-1599.656 -433.343)" fill="#fff" stroke="#5b6670" stroke-linecap="round" stroke-linejoin="round" stroke-width="1"/>
          </g>
        </g>
      </g>
      <path id="Path_2096" data-name="Path 2096" d="M1606.006,448.617v-9.6a.519.519,0,0,0,.506.487h.479v8.969l-.618-.021A.519.519,0,0,0,1606.006,448.617Z" transform="translate(-0.135 -0.496)" fill="#f0c0c2"/>
    </g>
  </g>
</svg>
