<svg xmlns="http://www.w3.org/2000/svg" viewBox="0 0 18 18">
  <defs>
    <style>
      .cls-1, .cls-2, .cls-4 {
        fill: none;
      }

      .cls-2, .cls-4 {
        stroke: #5b6670;
        stroke-miterlimit: 10;
      }

      .cls-3 {
        opacity: 0.5;
      }

      .cls-4 {
        stroke-linecap: round;
        stroke-linejoin: round;
      }
    </style>
  </defs>
  <g id="ico-password" transform="translate(-2144 -958)">
    <g id="Symbol_338_1" data-name="Symbol 338 – 1" transform="translate(-661 313)">
      <rect id="Rectangle_2733" data-name="Rectangle 2733" class="cls-1" width="18" height="18" transform="translate(2805 645)"/>
    </g>
    <g id="Group_3334" data-name="Group 3334" transform="translate(2146 959)">
      <path id="Path_1934" data-name="Path 1934" class="cls-2" d="M10.7,16H3a2.006,2.006,0,0,1-2-2V8.9a2.006,2.006,0,0,1,2-2h7.7a2.006,2.006,0,0,1,2,2V14A2.006,2.006,0,0,1,10.7,16Z"/>
      <path id="Path_1935" data-name="Path 1935" class="cls-2" d="M3,6.9V4.54A3.678,3.678,0,0,1,6.9,1h0a3.739,3.739,0,0,1,3.9,3.54V6.9"/>
      <g id="Group_3333" data-name="Group 3333" class="cls-3">
        <line id="Line_1539" data-name="Line 1539" class="cls-4" y2="2.3" transform="translate(6.9 10.3)"/>
      </g>
    </g>
  </g>
</svg>
