<svg xmlns="http://www.w3.org/2000/svg" xmlns:xlink="http://www.w3.org/1999/xlink" width="80" height="80" viewBox="0 0 80 80">
  <defs>
    <filter id="Path_1827" x="25.759" y="13.903" width="51.324" height="51.324" filterUnits="userSpaceOnUse">
      <feOffset dy="3" input="SourceAlpha"/>
      <feGaussianBlur stdDeviation="3" result="blur"/>
      <feFlood flood-opacity="0.255"/>
      <feComposite operator="in" in2="blur"/>
      <feComposite in="SourceGraphic"/>
    </filter>
  </defs>
  <g id="ico-travel-service" transform="translate(-459 -92)">
    <rect id="Rectangle_5" data-name="Rectangle 5" width="80" height="80" transform="translate(459 92)" fill="none"/>
    <g id="ico-travel-service-2" data-name="ico-travel-service" transform="translate(-2064.25 -823)">
      <g id="Group_2945" data-name="Group 2945" transform="translate(2530 922)">
        <g id="Symbol_263_6" data-name="Symbol 263 – 6" transform="translate(0)">
          <rect id="Rectangle_2470" data-name="Rectangle 2470" width="66.25" height="66.25" fill="none"/>
        </g>
      </g>
      <g id="Group_2944" data-name="Group 2944" transform="translate(2534.692 934.903)">
        <g id="Group_2943" data-name="Group 2943" transform="translate(2.321 9.507)" opacity="0.3">
          <circle id="Ellipse_223" data-name="Ellipse 223" cx="15.768" cy="15.768" r="15.768" transform="translate(0 0.01)" fill="none" stroke="#f08b8f" stroke-miterlimit="10" stroke-width="2"/>
          <g id="Group_2939" data-name="Group 2939" transform="translate(1.86 19.575)">
            <path id="Path_1828" data-name="Path 1828" d="M5.3,39.073c1.213-.242,2.507-.568,3.719-.808.4-.08.97-.242,1.136-.647.162-.242.162-.568.324-.808a1.129,1.129,0,0,1,.728-.242c1.374-.162,2.83-.4,4.2-.568a.486.486,0,0,1,.324.08.606.606,0,0,1,.08.4,5.721,5.721,0,0,0,.808,2.507,12.787,12.787,0,0,1,.568,6.065A2.107,2.107,0,0,1,16.14,47c-.97.728-2.345.242-3.4-.324-3.235-1.941-5.9-4.124-7.439-7.6" transform="translate(-5.3 -35.996)" fill="#f08b8f"/>
          </g>
          <g id="Group_2940" data-name="Group 2940" transform="translate(1.779 0)">
            <path id="Path_1829" data-name="Path 1829" d="M8.6,22.39c.162.162.4.242.486.486.324.647-.324,1.456-.08,2.1a1.1,1.1,0,0,0,1.294.568,2.971,2.971,0,0,0,1.294-.728c.97-.728,1.86-1.456,2.83-2.183.162-.162.324-.242.4-.486.242-.4,0-.89-.08-1.374a2.61,2.61,0,0,1,2.1-2.912,8.748,8.748,0,0,1,1.456,0,3.726,3.726,0,0,0,2.51-1.615,3.077,3.077,0,0,0,.97-2.992c-.487-1.216-1.941-1.54-3.232-1.457-5.661.162-11.806,3.88-13.345,9.218" transform="translate(-5.2 -11.787)" fill="#f08b8f"/>
          </g>
          <g id="Group_2941" data-name="Group 2941" transform="translate(16.577 16.711)">
            <path id="Path_1830" data-name="Path 1830" d="M23.821,35.81c-.08.89,1.374,1.051,1.536,1.941a.3.3,0,0,0,.08.242c.162.242.568.08.728-.08a3.536,3.536,0,0,0,.568-4.285c-.486-.808-1.456-1.456-2.264-1.051a1.7,1.7,0,0,0-.969,1.612,4.194,4.194,0,0,0,.4,1.941" transform="translate(-23.498 -32.452)" fill="#f08b8f"/>
          </g>
          <g id="Group_2942" data-name="Group 2942" transform="translate(22.993 6.37)">
            <path id="Path_1831" data-name="Path 1831" d="M36.58,39.1A2.058,2.058,0,0,1,34.8,37.482a13.164,13.164,0,0,1-.242-2.507c-.242-2.745-1.941-5.175-2.83-7.844a4.077,4.077,0,0,1-.242-2.183A2.082,2.082,0,0,1,32.78,23.33a5.861,5.861,0,0,1,2.022.162c.728.08,1.536-.162,1.617-.89a2.2,2.2,0,0,0-.486-1.374c-.242-.4-.4-1.051-.08-1.374.08-.08.162-.162.242-.162.486-.162.97.4,1.213.808a16.9,16.9,0,0,1-.729,18.6" transform="translate(-31.432 -19.664)" fill="#f08b8f"/>
          </g>
        </g>
        <g id="Group_2937" data-name="Group 2937" transform="translate(0 33.812)">
          <path id="Path_1822" data-name="Path 1822" d="M3.335,41.889a16.3,16.3,0,0,0-2.264,3.8A6.969,6.969,0,0,0,.5,49.9a4.583,4.583,0,0,0,.97,1.86,2.518,2.518,0,0,0,1.7.89,10.611,10.611,0,0,0,4.123-.971,47.4,47.4,0,0,0,7.6-4.367c2.426-1.617,4.771-3.4,7.035-5.256h0a.782.782,0,0,1,1.136.08.859.859,0,0,1-.08,1.136h0c-2.426,1.779-4.851,3.477-7.358,5.016A52.459,52.459,0,0,1,7.7,52.4a10.361,10.361,0,0,1-4.448.808,4.638,4.638,0,0,1-1.136-.324,2.151,2.151,0,0,1-.89-.808,4.592,4.592,0,0,1-.965-2.1,7,7,0,0,1,.568-4.448,18.24,18.24,0,0,1,2.5-3.638Z" transform="translate(-0.125 -41.843)" fill="#cf3339"/>
        </g>
        <g id="Group_2938" data-name="Group 2938" transform="translate(16.661 0)">
          <path id="Path_1823" data-name="Path 1823" d="M23.379,7.4l27.493.89-8,9.622-8.976-5.175L22.975,9.992a1.265,1.265,0,0,1-.406-2.269h0a1.041,1.041,0,0,1,.81-.324Z" transform="translate(-20.981 -1.44)" fill="#cf3339"/>
          <path id="Path_1824" data-name="Path 1824" d="M60.312,39.993,59.422,12.5l-9.622,8,5.175,8.976L57.8,40.4a1.265,1.265,0,0,0,2.264.4h0a1.366,1.366,0,0,0,.243-.808Z" transform="translate(-26.297 -2.416)" fill="#cf3339"/>
          <path id="Path_1825" data-name="Path 1825" d="M22.405,30.5l10.269,1.048-3.4,5.741-7.761-3.962a1.476,1.476,0,0,1-.162-2.507h0a1.357,1.357,0,0,1,1.05-.32Z" transform="translate(-20.735 -5.857)" fill="#cf3339"/>
          <path id="Path_1826" data-name="Path 1826" d="M38.093,44.97,37.041,34.7,31.3,38.1l3.962,7.761a1.476,1.476,0,0,0,2.507.162h0a1.11,1.11,0,0,0,.324-1.049Z" transform="translate(-22.756 -6.665)" fill="#cf3339"/>
          <g transform="matrix(1, 0, 0, 1, -28.1, -19.9)" filter="url(#Path_1827)">
            <path id="Path_1827-2" data-name="Path 1827" d="M51.712,15.773l.242-.242q1.941-1.941,3.639-3.88l5.822-6.227a3.172,3.172,0,0,0-.08-4.448h0a3.174,3.174,0,0,0-4.448-.08L50.664,6.8q-1.941,1.7-3.88,3.639l-.242.242h0C39.348,17.871,27.7,31.864,29.075,33.238,30.529,34.613,44.437,22.889,51.712,15.773Z" transform="translate(5.8 19.88)" fill="#f08b8f"/>
          </g>
        </g>
      </g>
    </g>
  </g>
</svg>
