<svg xmlns="http://www.w3.org/2000/svg" xmlns:xlink="http://www.w3.org/1999/xlink" width="80.366" height="80" viewBox="0 0 80.366 80">
  <defs>
    <filter id="Path_1794" x="0" y="23.909" width="68.065" height="52.866" filterUnits="userSpaceOnUse">
      <feOffset dy="3" input="SourceAlpha"/>
      <feGaussianBlur stdDeviation="3" result="blur"/>
      <feFlood flood-opacity="0.251"/>
      <feComposite operator="in" in2="blur"/>
      <feComposite in="SourceGraphic"/>
    </filter>
  </defs>
  <g id="ico-creditcard" transform="translate(-98.634 -92)">
    <rect id="Rectangle_1" data-name="Rectangle 1" width="80" height="80" transform="translate(99 92)" fill="none"/>
    <g id="ico-creditcard-2" data-name="ico-creditcard" transform="translate(-2221 -643)">
      <g id="Symbol_263_2" data-name="Symbol 263 – 2" transform="translate(-23 210)">
        <rect id="Rectangle_2470" data-name="Rectangle 2470" width="70" height="70" transform="translate(2348 528)" fill="none"/>
      </g>
      <g id="Group_2919" data-name="Group 2919" transform="translate(2328.634 754.719)">
        <path id="Path_1793" data-name="Path 1793" d="M54.252,43.27l-43.8-9.119A2.591,2.591,0,0,1,8.4,31.022l5.99-28.875A2.591,2.591,0,0,1,17.51.091L61.31,9.21a2.591,2.591,0,0,1,2.056,3.129l-5.99,28.875a2.591,2.591,0,0,1-3.124,2.056Z" transform="translate(-0.882)" fill="#f08b8f" opacity="0.3"/>
        <g transform="matrix(1, 0, 0, 1, -9, -19.72)" filter="url(#Path_1794)">
          <path id="Path_1794-2" data-name="Path 1794" d="M47.38,46.265H2.682A2.634,2.634,0,0,1,0,43.583v-29.5A2.634,2.634,0,0,1,2.682,11.4h44.7a2.634,2.634,0,0,1,2.682,2.682v29.5a2.634,2.634,0,0,1-2.684,2.683Z" transform="translate(9 18.51)" fill="#f08b8f"/>
        </g>
        <rect id="Rectangle_2469" data-name="Rectangle 2469" width="50.062" height="7.241" transform="translate(0 16.183)" fill="#cf3339"/>
      </g>
    </g>
  </g>
</svg>
