<svg xmlns="http://www.w3.org/2000/svg" width="80" height="60" viewBox="0 0 80 60">
  <g id="Group_2224" data-name="Group 2224" transform="translate(-960.271 -1368.915)">
    <rect id="Rectangle_2016" data-name="Rectangle 2016" width="80" height="60" transform="translate(960.271 1368.915)" fill="none"/>
    <g id="Group_2222" data-name="Group 2222">
      <g id="Group_949" data-name="Group 949">
        <rect id="Rectangle_680" data-name="Rectangle 680" width="60.87" height="8.81" transform="translate(969.841 1385.299)" fill="#f08b8f"/>
        <path id="Path_902" data-name="Path 902" d="M1025.824,1419.9H974.506a4.543,4.543,0,0,1-4.519-4.519v-32.949a4.542,4.542,0,0,1,4.519-4.519h51.464a4.542,4.542,0,0,1,4.517,4.519v32.949A4.77,4.77,0,0,1,1025.824,1419.9Z" fill="none" stroke="#cf3339" stroke-linejoin="round" stroke-width="2"/>
      </g>
      <g id="KTC_PROUD" data-name="KTC PROUD">
        <path id="Path_2168" data-name="Path 2168" d="M.672-.568a.611.611,0,0,0,.616.616A.611.611,0,0,0,1.9-.568v-1.12l.7-.656,1.6,2.1a.622.622,0,0,0,.52.3.6.6,0,0,0,.624-.6.656.656,0,0,0-.168-.432l-1.72-2.16L5.04-4.616a.617.617,0,0,0,.224-.464A.555.555,0,0,0,4.7-5.648a.694.694,0,0,0-.52.24L1.9-3.152v-1.88a.611.611,0,0,0-.616-.616.611.611,0,0,0-.616.616Zm6.92,0a.611.611,0,0,0,.616.616.611.611,0,0,0,.616-.616v-3.9h1.184a.57.57,0,0,0,.568-.568.57.57,0,0,0-.568-.568h-3.6a.57.57,0,0,0-.568.568.57.57,0,0,0,.568.568H7.592ZM13.856.1a2.814,2.814,0,0,0,1.992-.7.58.58,0,0,0,.208-.44.577.577,0,0,0-.576-.568.576.576,0,0,0-.368.136,1.8,1.8,0,0,1-1.216.44A1.663,1.663,0,0,1,12.272-2.8v-.016A1.659,1.659,0,0,1,13.9-4.56a1.842,1.842,0,0,1,1.144.4.647.647,0,0,0,.368.12.6.6,0,0,0,.608-.6.616.616,0,0,0-.24-.488A2.965,2.965,0,0,0,13.9-5.7a2.846,2.846,0,0,0-2.92,2.9v.016A2.827,2.827,0,0,0,13.856.1Zm5.68-.664a.611.611,0,0,0,.616.616.611.611,0,0,0,.616-.616V-1.68H21.7a2,2,0,0,0,2.264-1.968v-.016A1.918,1.918,0,0,0,21.824-5.6H20.152a.611.611,0,0,0-.616.616Zm1.232-2.208V-4.488h.952c.616,0,1,.3,1,.848v.016a.867.867,0,0,1-.976.848ZM24.88-.568A.611.611,0,0,0,25.5.048a.611.611,0,0,0,.616-.616V-1.792H27.1l1.2,1.52a.737.737,0,0,0,.608.32.573.573,0,0,0,.584-.568.718.718,0,0,0-.2-.472l-.856-1.04a1.709,1.709,0,0,0,1.12-1.7v-.016a1.758,1.758,0,0,0-.48-1.28A2.232,2.232,0,0,0,27.44-5.6H25.5a.611.611,0,0,0-.616.616ZM26.112-2.88V-4.488h1.224c.6,0,.968.272.968.8v.016c0,.472-.344.792-.944.792ZM33.384.1a2.9,2.9,0,0,0,2.984-2.9v-.016A2.869,2.869,0,0,0,33.4-5.7a2.9,2.9,0,0,0-2.984,2.9v.016A2.869,2.869,0,0,0,33.384.1ZM33.4-1.04A1.7,1.7,0,0,1,31.7-2.8v-.016a1.675,1.675,0,0,1,1.68-1.744,1.7,1.7,0,0,1,1.7,1.76v.016A1.675,1.675,0,0,1,33.4-1.04ZM39.8.088A2.254,2.254,0,0,0,42.256-2.44V-5.032a.611.611,0,0,0-.616-.616.611.611,0,0,0-.616.616v2.64c0,.888-.456,1.344-1.208,1.344s-1.208-.472-1.208-1.384v-2.6a.611.611,0,0,0-.616-.616.611.611,0,0,0-.616.616V-2.4A2.222,2.222,0,0,0,39.8.088Zm3.712-.7A.611.611,0,0,0,44.128,0H45.7a2.8,2.8,0,0,0,2.976-2.8v-.016A2.791,2.791,0,0,0,45.7-5.6H44.128a.611.611,0,0,0-.616.616Zm1.232-.5V-4.488H45.7A1.608,1.608,0,0,1,47.384-2.8v.016A1.6,1.6,0,0,1,45.7-1.112Z" transform="translate(975.322 1409.725)" fill="#f08b8f"/>
      </g>
    </g>
  </g>
</svg>
