<svg xmlns="http://www.w3.org/2000/svg" width="80" height="80" viewBox="0 0 80 80">
  <g id="ico-privilege" transform="translate(-279 -92)">
    <rect id="Rectangle_3" data-name="Rectangle 3" width="80" height="80" transform="translate(279 92)" fill="none"/>
    <g id="ico-privilege-2" data-name="ico-privilege" transform="translate(-2453.106 -632.518)">
      <g id="Symbol_263_3" data-name="Symbol 263 – 3" transform="translate(2743 738)">
        <rect id="Rectangle_2470" data-name="Rectangle 2470" width="57.958" height="57.958" transform="translate(0 0)" fill="none"/>
      </g>
      <g id="Group_3654" data-name="Group 3654" transform="translate(2752.936 745.455)">
        <g id="Group_3655" data-name="Group 3655" transform="translate(0 5.841)" opacity="0.3">
          <g id="Group_3654-2" data-name="Group 3654">
            <path id="Path_2309" data-name="Path 2309" d="M37.251,12.664a2.1,2.1,0,0,0-1.623-2.111L23.73,8.11a4.348,4.348,0,0,0-3.121.72L.688,24.114a1.764,1.764,0,0,0-.323,2.467l12.27,16A1.764,1.764,0,0,0,15.1,42.9L35.023,27.625a4.388,4.388,0,0,0,1.5-2.832ZM26.735,19.056a3.543,3.543,0,1,1,4.968.654,3.543,3.543,0,0,1-4.968-.654Z" transform="translate(-0.002 -8.061)" fill="#f08b8f"/>
          </g>
        </g>
        <g id="Group_3657" data-name="Group 3657" transform="translate(1.959 7.835)">
          <g id="Group_3656" data-name="Group 3656">
            <path id="Path_2310" data-name="Path 2310" d="M37.641,13.219a2.092,2.092,0,0,0-1.879-1.879L23.648,10.47a4.377,4.377,0,0,0-3,1.118L2.883,29.339a1.764,1.764,0,0,0,0,2.492L17.141,46.089a1.764,1.764,0,0,0,2.492,0L37.384,28.337a4.367,4.367,0,0,0,1.118-3Zm-9.588,7.7a3.542,3.542,0,1,1,5.009,0A3.542,3.542,0,0,1,28.053,20.919Z" transform="translate(-2.368 -10.469)" fill="#f08b8f"/>
          </g>
        </g>
        <path id="Path_2311" data-name="Path 2311" d="M36.41,2.831A4.372,4.372,0,0,1,42.5,1.821h0a4.356,4.356,0,0,1,.911,6.1l-5.647,7.758" transform="translate(-6.265 -1.006)" fill="none" stroke="#cf3339" stroke-linecap="round" stroke-linejoin="round" stroke-miterlimit="10" stroke-width="2"/>
        <g id="Group_3659" data-name="Group 3659" transform="translate(13.752 20.736)">
          <g id="Group_3658" data-name="Group 3658">
            <path id="Path_2312" data-name="Path 2312" d="M16.619,29v-.033a2.752,2.752,0,0,1,2.7-2.914,2.712,2.712,0,0,1,2.666,2.881v.033A2.691,2.691,0,1,1,16.619,29Zm3.916,0v-.033c0-.911-.522-1.656-1.25-1.656-.762,0-1.217.745-1.217,1.623v.033c0,.927.522,1.656,1.25,1.656C20.079,30.62,20.535,29.875,20.535,29ZM18.49,36.59,25.95,26.4a.611.611,0,0,1,.555-.29.642.642,0,0,1,.654.638.724.724,0,0,1-.149.422L19.55,37.352a.657.657,0,0,1-.571.29A.628.628,0,0,1,18.341,37,.719.719,0,0,1,18.49,36.59ZM23.5,34.818v-.033a2.691,2.691,0,1,1,5.365-.033v.033a2.761,2.761,0,0,1-2.7,2.914A2.726,2.726,0,0,1,23.5,34.818Zm3.916,0v-.033c0-.911-.522-1.656-1.25-1.656-.762,0-1.217.745-1.217,1.623v.033c0,.927.522,1.656,1.25,1.656C26.96,36.441,27.415,35.7,27.415,34.818Z" transform="translate(-16.612 -26.05)" fill="#fff"/>
          </g>
        </g>
      </g>
    </g>
  </g>
</svg>
