<svg xmlns="http://www.w3.org/2000/svg" viewBox="0 0 18 18">
  <defs>
    <style>
      .cls-1, .cls-2, .cls-3 {
        fill: none;
      }

      .cls-2, .cls-3 {
        stroke: #5b6670;
      }

      .cls-2 {
        stroke-linecap: round;
        stroke-linejoin: round;
        stroke-miterlimit: 10;
        opacity: 0.5;
      }
    </style>
  </defs>
  <g id="ico-username" transform="translate(-2096 -710)">
    <rect id="Rectangle_2491" data-name="Rectangle 2491" class="cls-1" width="18" height="18" transform="translate(2096 710)"/>
    <g id="Group_3298" data-name="Group 3298" transform="translate(2095.903 709.5)">
      <path id="Path_1913" data-name="Path 1913" class="cls-2" d="M9.445,16.895A2.422,2.422,0,0,1,10.7,15.384c.577-.218,1.173-.418,1.768-.636.231-.091.461-.164.692-.254a.646.646,0,0,0,.327-.4.508.508,0,0,0-.077-.4A4.9,4.9,0,0,1,12.7,12.24a4.63,4.63,0,0,1-.192-2.29,1.664,1.664,0,0,1,1.4-1.381,3.935,3.935,0,0,1,1.307-.036l.078.011A1.752,1.752,0,0,1,16.8,9.9a3.953,3.953,0,0,1,.038,1.345,5.6,5.6,0,0,1-.865,2.381.538.538,0,0,0-.077.418.711.711,0,0,0,.308.454c.192.091.4.164.6.236.6.218,1.211.418,1.807.654l.647.331.276.233a2.45,2.45,0,0,1,.634,1.363" transform="translate(-5.488 -3.155)"/>
      <path id="Path_1914" data-name="Path 1914" class="cls-3" d="M7.387,0a7.387,7.387,0,0,1,7.387,7.387,7.515,7.515,0,0,1-1.835,4.872,7.246,7.246,0,0,1-5.552,2.515A7.387,7.387,0,0,1,7.387,0Z" transform="translate(1.912 1.912)"/>
    </g>
  </g>
</svg>
