<svg width="29" height="28" viewBox="0 0 29 28" fill="none" xmlns="http://www.w3.org/2000/svg">
<g clip-path="url(#clip0_498_4272)">
<path d="M18.3634 2H10.3671C5.94778 2 2.36523 5.58254 2.36523 10.0018V17.9982C2.36523 22.4175 5.94778 26 10.3671 26H18.3634C22.7827 26 26.3652 22.4175 26.3652 17.9982V10.0018C26.3652 5.58254 22.7827 2 18.3634 2Z" fill="#757575"/>
<path fill-rule="evenodd" clip-rule="evenodd" d="M14.786 5.81821C14.786 5.71075 14.8077 5.60434 14.85 5.50506C14.8924 5.40577 14.9544 5.31556 15.0326 5.23958C15.1108 5.16359 15.2036 5.10332 15.3058 5.06222C15.408 5.02111 15.5175 4.99997 15.6281 5H17.4088C17.6036 5.00004 17.7923 5.06565 17.9428 5.18567C18.0934 5.30569 18.1965 5.47269 18.2346 5.65825C18.387 6.39631 18.7979 7.06023 19.3976 7.53695C19.9972 8.01368 20.7483 8.27373 21.5231 8.27283C21.6337 8.2728 21.7432 8.29394 21.8454 8.33505C21.9476 8.37615 22.0404 8.43642 22.1187 8.51241C22.1969 8.58839 22.2589 8.6786 22.3012 8.77789C22.3435 8.87717 22.3653 8.98358 22.3652 9.09104V10.7275C22.3653 10.8349 22.3435 10.9413 22.3012 11.0406C22.2589 11.1399 22.1969 11.2301 22.1187 11.3061C22.0404 11.3821 21.9476 11.4423 21.8454 11.4834C21.7432 11.5246 21.6337 11.5457 21.5231 11.5457C20.3403 11.5473 19.1781 11.2449 18.1546 10.669V17.2731C18.1545 18.4058 17.8087 19.5131 17.161 20.4549C16.5133 21.3966 15.5926 22.1307 14.5155 22.5641C13.4385 22.9975 12.2533 23.1109 11.1098 22.8899C9.96641 22.6689 8.91611 22.1235 8.09174 21.3225C7.26738 20.5216 6.70597 19.5011 6.47852 18.3902C6.25106 17.2793 6.36777 16.1278 6.81388 15.0813C7.26 14.0348 8.01549 13.1403 8.98481 12.511C9.95414 11.8817 11.0938 11.5457 12.2596 11.5457C12.3702 11.5456 12.4797 11.5668 12.5819 11.6079C12.6841 11.649 12.7769 11.7093 12.8552 11.7852C12.9334 11.8612 12.9954 11.9514 13.0377 12.0507C13.08 12.15 13.1018 12.2564 13.1017 12.3639V14.0003C13.1018 14.1077 13.08 14.2142 13.0377 14.3134C12.9954 14.4127 12.9334 14.5029 12.8552 14.5789C12.7769 14.6549 12.6841 14.7152 12.5819 14.7563C12.4797 14.7974 12.3702 14.8185 12.2596 14.8185C11.7599 14.8185 11.2713 14.9624 10.8558 15.2321C10.4403 15.5018 10.1164 15.8852 9.92514 16.3338C9.73388 16.7824 9.68383 17.276 9.78131 17.7522C9.87879 18.2284 10.1194 18.6658 10.4728 19.0091C10.8262 19.3525 11.2764 19.5863 11.7665 19.681C12.2567 19.7757 12.7647 19.7271 13.2264 19.5412C13.6881 19.3554 14.0827 19.0407 14.3603 18.637C14.6379 18.2333 14.7861 17.7587 14.786 17.2731V5.81821Z" fill="white"/>
</g>
<defs>
<clipPath id="clip0_498_4272">
<rect width="24" height="24" fill="white" transform="translate(2.36523 2)"/>
</clipPath>
</defs>
</svg>
