<svg width="29" height="28" viewBox="0 0 29 28" fill="none" xmlns="http://www.w3.org/2000/svg">
<path d="M18.2956 25.8637C19.1185 25.8403 19.9382 25.7491 20.7462 25.5912C22.1315 25.1781 23.3629 24.3625 24.2839 23.2482C25.2049 22.1339 25.774 20.771 25.9189 19.3326C26.0551 15.9261 26.0551 12.5248 25.9189 9.25662C25.822 7.41156 25.0184 5.67463 23.6748 4.4064C22.3313 3.13816 20.5509 2.43602 18.7033 2.44572H9.58117C8.6082 2.29352 7.61195 2.43738 6.72179 2.85863C5.36472 3.3935 4.20539 4.33348 3.40156 5.55068C2.59773 6.76788 2.18843 8.20318 2.22936 9.66127V18.3757C2.2528 19.1986 2.34395 20.0183 2.50188 20.8263C2.91514 22.2124 3.73121 23.4444 4.84636 24.3657C5.96151 25.2869 7.32539 25.8558 8.76464 26C10.5381 26 16.9381 25.8637 18.2956 25.8637Z" fill="#757575"/>
<path d="M8.08398 14.1578C8.11368 15.7137 8.73611 17.1997 9.82422 18.3124C10.9123 19.4251 12.3841 20.0805 13.939 20.1449C15.502 20.138 17.001 19.5229 18.1185 18.4301C19.236 17.3373 19.8843 15.8524 19.9262 14.2899C19.8973 12.7345 19.2763 11.2488 18.1896 10.1357C17.1029 9.02253 15.6326 8.36587 14.0784 8.29964C12.5133 8.30395 11.0116 8.91831 9.8923 10.0122C8.77299 11.106 8.12428 12.5932 8.08398 14.1578ZM18.9765 7.7577C18.9769 8.05367 19.065 8.34289 19.2296 8.58885C19.3943 8.8348 19.6281 9.02646 19.9016 9.13963C20.1751 9.2528 20.4759 9.28241 20.7662 9.22472C21.0565 9.16702 21.3232 9.02462 21.5327 8.81547C21.7421 8.60633 21.8849 8.33983 21.943 8.04961C22.0011 7.75939 21.9719 7.45846 21.8591 7.18482C21.7463 6.91118 21.5549 6.67709 21.3092 6.5121C21.0635 6.34712 20.7744 6.25863 20.4784 6.25781C20.0812 6.26024 19.7009 6.41898 19.4198 6.69968C19.1387 6.98038 18.9794 7.36047 18.9765 7.7577Z" fill="#757575"/>
<path d="M8.08398 14.1547C8.09672 12.9831 8.45662 11.8416 9.11817 10.8746C9.77971 9.90764 10.7132 9.15856 11.8005 8.72214C12.8878 8.28573 14.0801 8.18158 15.2267 8.42288C16.3732 8.66418 17.4224 9.24008 18.2416 10.0777C19.0607 10.9154 19.6131 11.9772 19.8287 13.1288C20.0444 14.2804 19.9137 15.4701 19.4531 16.5474C18.9925 17.6247 18.2228 18.5413 17.2413 19.1811C16.2598 19.8209 15.1106 20.1552 13.939 20.1418C12.3921 20.0541 10.9338 19.3913 9.85051 18.2836C8.76721 17.1758 8.13713 15.7032 8.08398 14.1547ZM14.0711 10.3425C13.0673 10.3646 12.1108 10.7735 11.4011 11.4837C10.6914 12.194 10.2834 13.1508 10.2621 14.1547C10.2834 15.1585 10.6914 16.1153 11.4011 16.8256C12.1108 17.5359 13.0673 17.9447 14.0711 17.9668C15.0768 17.9473 16.0359 17.5397 16.7478 16.8291C17.4596 16.1186 17.8691 15.1602 17.8905 14.1547C17.8694 13.1489 17.46 12.1903 16.7481 11.4795C16.0362 10.7688 15.0769 10.361 14.0711 10.3415V10.3425Z" fill="white"/>
<path d="M18.9756 7.75557C18.9682 7.55433 19.0013 7.35365 19.0732 7.16553C19.1451 6.97741 19.2541 6.80571 19.3938 6.66069C19.5336 6.51568 19.7011 6.40033 19.8864 6.32154C20.0717 6.24276 20.2711 6.20215 20.4724 6.20215C20.6738 6.20215 20.8731 6.24276 21.0584 6.32154C21.2438 6.40033 21.4113 6.51568 21.551 6.66069C21.6908 6.80571 21.7998 6.97741 21.8717 7.16553C21.9435 7.35365 21.9767 7.55433 21.9692 7.75557C21.9327 8.12717 21.7592 8.47189 21.4825 8.72266C21.2059 8.97343 20.8458 9.11233 20.4724 9.11233C20.099 9.11233 19.739 8.97343 19.4623 8.72266C19.1857 8.47189 19.0122 8.12717 18.9756 7.75557Z" fill="white"/>
<path d="M14.0739 10.3428C15.0782 10.3641 16.0355 10.7726 16.7459 11.4829C17.4562 12.1933 17.8647 13.1506 17.886 14.1549C17.8647 15.1593 17.4562 16.1166 16.7459 16.8269C16.0355 17.5373 15.0782 17.9458 14.0739 17.9671C13.0695 17.9458 12.1122 17.5373 11.4019 16.8269C10.6915 16.1166 10.2831 15.1593 10.2617 14.1549C10.2609 13.6541 10.359 13.158 10.5502 12.6951C10.7415 12.2322 11.0223 11.8117 11.3765 11.4575C11.7306 11.1034 12.1512 10.8226 12.6141 10.6313C13.077 10.44 13.573 10.342 14.0739 10.3428Z" fill="#757575"/>
</svg>
