<svg width="30" height="28" viewBox="0 0 30 28" fill="none" xmlns="http://www.w3.org/2000/svg">
<path d="M26.5091 7.6193C25.3339 5.74905 23.6901 4.41102 21.7259 3.45045C19.6948 2.45746 17.5367 2.00498 14.7771 2.00025C13.2001 1.98866 11.1994 2.37818 9.29369 3.21096C7.38179 4.04658 5.7283 5.23386 4.47263 6.92189C2.82459 9.13766 2.23888 11.5988 2.90316 14.299C3.44604 16.5058 4.74005 18.2326 6.51328 19.6128C8.40507 21.085 10.5711 21.9088 12.9253 22.2803C13.2337 22.3291 13.5392 22.4233 13.8324 22.5335C14.1997 22.6715 14.4068 22.9548 14.3838 23.3571C14.3592 23.7887 14.3107 24.2192 14.2643 24.6492C14.2333 24.9363 14.1659 25.2207 14.1538 25.5078C14.1372 25.8973 14.2946 26.0431 14.6841 25.9894C14.9139 25.9577 15.1489 25.885 15.3558 25.7799C15.8944 25.5061 16.4311 25.2245 16.9465 24.91C19.1159 23.5866 21.1949 22.1357 23.1314 20.4856C24.206 19.57 25.1986 18.577 26.0432 17.4434C27.1306 15.984 27.8015 14.3646 27.8578 12.527C27.912 10.7564 27.452 9.11991 26.5091 7.61954V7.6193ZM10.7697 15.1685C10.7593 15.3453 10.6675 15.4373 10.489 15.4506C10.4048 15.4567 10.3205 15.4574 10.2564 15.4577C9.76889 15.4577 9.28115 15.4581 8.79365 15.4581C8.30615 15.4581 7.79948 15.4581 7.30227 15.4577C7.20998 15.4577 7.11981 15.4567 7.03296 15.4458C6.8931 15.4286 6.81264 15.3472 6.79371 15.2037C6.77998 15.1003 6.77998 14.9915 6.77998 14.8956C6.77927 13.382 6.77951 11.8684 6.77951 10.3548V10.0909V10.0516C6.77927 10.0007 6.77903 9.94795 6.78282 9.89754C6.80483 9.60575 6.86257 9.54872 7.14561 9.53783C7.25234 9.53381 7.35812 9.53168 7.45988 9.53168C7.56164 9.53168 7.67074 9.53381 7.77179 9.53831C8.04204 9.55014 8.09624 9.60291 8.11304 9.87057C8.11777 9.94487 8.11683 10.0218 8.11612 10.0959C8.11588 10.1247 8.11564 10.1536 8.11564 10.1825C8.11564 11.104 8.11564 13.5301 8.11564 13.5301V14.1009L8.16061 14.1033C8.22876 14.1069 8.29005 14.1104 8.34661 14.114C8.45689 14.1206 8.55226 14.1265 8.64692 14.127C8.79483 14.1277 8.9425 14.1279 9.09041 14.1279C9.19241 14.1279 9.60016 14.1275 9.70192 14.1275C9.92626 14.1275 10.099 14.1279 10.2618 14.1291C10.7302 14.1322 10.7737 14.1769 10.778 14.6604C10.7794 14.8144 10.7799 14.9936 10.7697 15.169V15.1685ZM12.9109 15.1043C12.8877 15.3767 12.8274 15.4385 12.5711 15.4525C12.4629 15.4584 12.3543 15.4612 12.248 15.4612C12.1333 15.4612 12.0187 15.4577 11.9073 15.451C11.6654 15.4364 11.5999 15.3703 11.5883 15.1304C11.5783 14.9219 11.5797 14.7089 11.5812 14.5028C11.5816 14.424 11.5823 14.3449 11.5821 14.2661C11.5816 13.7561 11.5819 13.2459 11.5821 12.7359V12.4541C11.5821 12.2013 11.5821 11.9488 11.5819 11.6961C11.5814 11.1312 11.5807 10.5469 11.5838 9.97256C11.5859 9.57523 11.6181 9.54257 12.0157 9.53594L12.0526 9.53523C12.138 9.53381 12.2263 9.53215 12.3131 9.53215C12.4241 9.53215 12.5162 9.53452 12.603 9.53996C12.8224 9.55322 12.8794 9.60859 12.9074 9.83601C12.9152 9.89849 12.9147 9.96428 12.9145 10.0282V10.0663C12.9147 11.6814 12.9147 13.2966 12.9145 14.9115C12.9145 14.9254 12.9145 14.9394 12.9145 14.9536C12.9147 15.0059 12.9152 15.0551 12.9109 15.1043ZM18.9957 10.0204C18.9957 10.0391 18.9955 10.058 18.9955 10.0767C18.9955 11.5162 18.9955 12.9558 18.9955 14.3953V14.9129C18.9955 14.943 18.9955 14.973 18.995 15.0031C18.985 15.4082 18.937 15.4548 18.5274 15.4558C18.4495 15.4558 18.3797 15.4567 18.317 15.4572C18.2583 15.4577 18.2057 15.4581 18.1584 15.4581C17.78 15.4581 17.766 15.439 17.5363 15.1169C17.4892 15.0511 17.4362 14.9766 17.3692 14.8871C16.9839 14.3724 16.5968 13.8456 16.2221 13.3361C16.0037 13.0391 15.7853 12.7421 15.5661 12.4456C15.5093 12.3687 15.4478 12.2936 15.3766 12.2066C15.3392 12.1609 15.2985 12.1112 15.2535 12.0549L15.1799 11.9633L15.1695 12.0802C15.1648 12.1318 15.16 12.177 15.1555 12.2177C15.147 12.297 15.1402 12.3594 15.1399 12.4238C15.139 12.8091 15.1392 13.1941 15.1392 13.5794C15.1392 14.0404 15.1392 14.5172 15.1378 14.986C15.1361 15.4255 15.1094 15.4518 14.6581 15.457L14.5947 15.4577C14.5334 15.4584 14.4719 15.4593 14.4106 15.4593C14.3249 15.4593 14.2541 15.4577 14.1881 15.4544C13.8902 15.4392 13.8263 15.3734 13.8081 15.0629C13.8052 15.0142 13.8055 14.9638 13.8057 14.915C13.8057 14.8996 13.8057 14.884 13.8057 14.8686V14.2344C13.8057 12.8689 13.8055 11.5035 13.8062 10.1382C13.8062 10.0187 13.8073 9.90228 13.8201 9.78963C13.8386 9.62705 13.9278 9.54328 14.0852 9.54067C14.1943 9.53878 14.3128 9.53807 14.4584 9.53807C14.5419 9.53807 14.6257 9.53831 14.7092 9.53854L14.8727 9.53902C15.0481 9.53925 15.1385 9.66326 15.2341 9.79436C15.2429 9.80643 15.2516 9.8185 15.2606 9.83057L15.667 10.3794C16.2041 11.1045 16.7411 11.8298 17.2785 12.5549C17.3263 12.6195 17.376 12.6844 17.4241 12.7471C17.4466 12.7764 17.4691 12.8058 17.4913 12.8351L17.5076 12.8566L17.6676 12.8379V11.866C17.6676 11.2985 17.6676 10.731 17.6681 10.1633V10.1444C17.6681 10.035 17.6681 9.92216 17.6778 9.81306C17.6936 9.63013 17.7859 9.54044 17.9596 9.53925C18.0221 9.53878 18.0848 9.53783 18.1475 9.53689C18.2339 9.53547 18.3231 9.53428 18.4104 9.53428C18.5236 9.53428 18.6173 9.53641 18.7056 9.54115C18.9261 9.55298 18.9715 9.60126 18.9919 9.84406C18.9966 9.9018 18.9962 9.96191 18.9957 10.0201V10.0204ZM23.8835 15.1001C23.8674 15.3822 23.8085 15.4385 23.5131 15.4548C23.4604 15.4577 23.4043 15.4591 23.3314 15.4591C23.2966 15.4591 23.2616 15.4589 23.2268 15.4586C23.1918 15.4584 23.1565 15.4581 23.1215 15.4581C22.877 15.4581 22.6328 15.4581 22.3883 15.4586C22.1193 15.4586 21.8502 15.4591 21.5811 15.4591C21.1218 15.4591 20.7464 15.4584 20.4005 15.4572C19.9589 15.4555 19.9326 15.4286 19.9319 14.9775C19.93 13.6234 19.9307 12.2463 19.9312 10.9149V10.0097C19.9314 9.92571 19.9342 9.8495 19.9399 9.77709C19.9518 9.62776 20.0249 9.55369 20.17 9.54328C20.2438 9.53807 20.32 9.53547 20.4031 9.53547L21.0186 9.53499C21.4005 9.53476 21.7827 9.53452 22.1647 9.53452C22.5765 9.53452 22.988 9.53476 23.3998 9.53594C23.8646 9.53712 23.8828 9.55582 23.8873 10.0372L23.888 10.1082C23.8894 10.2265 23.8908 10.3488 23.8851 10.4681C23.8705 10.7793 23.8061 10.8449 23.5013 10.8574C23.2949 10.8659 23.0928 10.8671 22.9222 10.8671C22.8486 10.8671 22.775 10.8669 22.7014 10.8666C22.6278 10.8664 22.554 10.8662 22.4804 10.8662C22.4136 10.8662 22.3471 10.8662 22.2806 10.8669C22.0667 10.8688 21.8535 10.8725 21.628 10.8763C21.5243 10.8782 21.4185 10.8799 21.3092 10.8818L21.2626 10.8825V11.831H21.8002C21.9581 11.831 22.1157 11.8307 22.2733 11.8303C22.4309 11.83 22.5885 11.8296 22.7461 11.8296C23.0386 11.8296 23.276 11.8307 23.4932 11.8336C23.8309 11.8378 23.875 11.8826 23.8856 12.234C23.8911 12.4098 23.8908 12.5812 23.8851 12.7435C23.8731 13.0966 23.8127 13.1551 23.4549 13.16C23.2019 13.1636 22.9534 13.164 22.7653 13.164C22.6576 13.164 22.55 13.164 22.4425 13.1638C22.3348 13.1638 22.2272 13.1636 22.1195 13.1636C21.9995 13.1636 21.8798 13.1636 21.7598 13.1645C21.6635 13.165 21.5664 13.1721 21.4637 13.1794C21.4136 13.183 21.361 13.1868 21.3054 13.1901L21.2609 13.1927V14.1284H21.8911C22.0357 14.1284 22.1803 14.1282 22.3251 14.1277C22.4697 14.1274 22.6143 14.127 22.7589 14.127C23.0341 14.127 23.2573 14.1284 23.4611 14.1312C23.8144 14.1364 23.8738 14.1956 23.8851 14.5532C23.8899 14.7049 23.8941 14.9044 23.8828 15.1008L23.8835 15.1001Z" fill="#39C900"/>
</svg>
