<svg width="24" height="24" viewBox="0 0 24 24" fill="none" xmlns="http://www.w3.org/2000/svg">
<path d="M2.30701 11.8985C2.30697 11.9642 2.31989 12.0293 2.34502 12.09C2.37015 12.1507 2.40701 12.2059 2.45347 12.2523C2.49993 12.2988 2.5551 12.3357 2.61581 12.3608C2.67653 12.3859 2.7416 12.3988 2.80731 12.3988L11.4976 12.3992L11.4998 21.0913C11.4998 21.2239 11.5525 21.3512 11.6463 21.445C11.7401 21.5388 11.8674 21.5916 12.0001 21.5916C12.1328 21.5916 12.26 21.5389 12.3538 21.4451C12.4476 21.3512 12.5003 21.224 12.5003 21.0913L12.4982 12.3992L21.1903 12.3978C21.3229 12.3979 21.4502 12.3452 21.544 12.2513C21.6378 12.1575 21.6905 12.0303 21.6905 11.8976C21.6905 11.7649 21.6378 11.6377 21.544 11.5438C21.4501 11.45 21.3229 11.3973 21.1902 11.3973L12.4981 11.3987L12.496 2.7066C12.4863 2.58104 12.4295 2.46377 12.3371 2.37822C12.2447 2.29268 12.1234 2.24515 11.9974 2.24514C11.8715 2.24514 11.7502 2.29265 11.6578 2.37819C11.5654 2.46373 11.5087 2.581 11.499 2.70655L11.4976 11.3986L2.80549 11.4C2.6734 11.4004 2.54684 11.453 2.45344 11.5464C2.36004 11.6398 2.3074 11.7664 2.30701 11.8985Z" fill="#B3B3B3"/>
</svg>
