<svg width="44" height="44" viewBox="0 0 44 44" fill="none" xmlns="http://www.w3.org/2000/svg">
<path d="M43.9997 36.4783C43.9997 40.6317 40.6308 43.9999 36.4766 43.9999H7.5152C3.36103 43.9999 0 40.6317 0 36.4783V7.52256C0 3.3692 3.36103 0.000976562 7.5152 0.000976562H36.4766C40.6308 0.000976562 43.9997 3.3692 43.9997 7.51471V36.4705V36.4783Z" fill="#231F20"/>
<mask id="mask0_1_1831" style="mask-type:luminance" maskUnits="userSpaceOnUse" x="0" y="0" width="44" height="44">
<path d="M43.9997 36.4773C43.9997 40.6307 40.6308 43.9989 36.4766 43.9989H7.5152C3.36103 43.9989 0 40.6307 0 36.4773V7.52159C0 3.36823 3.36103 0 7.5152 0H36.4766C40.6308 0 43.9997 3.36823 43.9997 7.51373V36.4695V36.4773Z" fill="white"/>
</mask>
<g mask="url(#mask0_1_1831)">
<path opacity="0.2" d="M1.21796 43.9909C1.21796 43.9909 14.2145 3.7135 46.1678 -0.950195V44.038L1.21796 43.9987V43.9909Z" fill="url(#paint0_linear_1_1831)"/>
</g>
<path d="M17.9035 27.4101C16.8277 27.6849 15.7911 27.0097 15.6026 25.8948L13.4509 13.4268L13.4823 13.5839L12.1238 13.7095C11.0165 13.8037 10.3962 14.7616 10.7495 15.8294L10.7731 15.9079L10.192 16.0178C9.10044 16.2219 8.5743 17.2347 9.02976 18.2633L9.43026 19.1662L8.15024 19.653C7.09795 20.0534 6.76028 21.1447 7.38851 22.0712L14.464 32.537C15.1 33.4713 16.3251 33.6519 17.2046 32.9531L27.0914 25.0233L17.9114 27.3944L17.9035 27.4101Z" fill="white"/>
<path opacity="0.3" d="M7.37423 22.0872C6.746 21.1528 7.08367 20.0694 8.13596 19.6689L20.5671 14.9424C21.6115 14.542 23.2999 14.6127 24.3129 15.0995L31.9852 18.7739C32.9982 19.2607 33.1003 20.2264 32.2286 20.933L17.1982 32.977C16.3187 33.6836 15.0936 33.4952 14.4575 32.5608L7.38208 22.095L7.37423 22.0872Z" fill="#D13238"/>
<path opacity="0.4" d="M9.01569 18.2706C8.56022 17.2421 9.08636 16.2292 10.1779 16.0251L23.1352 13.5833C24.2267 13.3792 25.8601 13.7482 26.7632 14.4077L33.6031 19.3855C34.5061 20.045 34.4433 21.0186 33.4617 21.5525L16.6958 30.7307C15.7142 31.2646 14.5441 30.8641 14.0965 29.8278L9.01569 18.2706Z" fill="#D13238"/>
<path opacity="0.5" d="M10.735 15.8377C10.3816 14.7699 11.002 13.812 12.1092 13.7178L25.2314 12.5558C26.3387 12.4537 27.9328 12.9876 28.7652 13.7257L35.1025 19.3551C35.9349 20.101 35.7857 21.0667 34.7569 21.4985L17.1901 28.9887C16.1692 29.4284 15.0384 28.9102 14.6928 27.8424L10.735 15.8377Z" fill="#D13238"/>
<path d="M13.4443 13.4352C13.2559 12.3281 14.0019 11.4723 15.117 11.543L28.2627 12.3674C29.37 12.438 30.8699 13.1996 31.5845 14.0554L37.0265 20.572C37.7411 21.4278 37.4506 22.3621 36.3747 22.6369L17.9048 27.4027C16.8289 27.6775 15.7923 27.0023 15.6039 25.8874L13.4522 13.4195L13.4443 13.4352Z" fill="#D13238"/>
<path d="M17.3869 16.8341C17.3869 16.6849 17.4341 16.575 17.5204 16.5043C17.6068 16.4336 17.7168 16.4022 17.8581 16.4022C17.9524 16.4022 18.0466 16.4179 18.1173 16.4415C18.1958 16.4729 18.2508 16.4886 18.2743 16.4965V18.711C18.4 18.5853 18.557 18.4204 18.7455 18.2398C18.934 18.0513 19.1303 17.8629 19.3266 17.6665C19.5229 17.4781 19.7035 17.2975 19.8842 17.1325C20.0569 16.9676 20.1904 16.842 20.2847 16.7556C20.4103 16.6457 20.5202 16.5593 20.6223 16.4965C20.7244 16.4258 20.8422 16.3944 20.9914 16.3944C21.1485 16.3944 21.282 16.4336 21.3762 16.4965C21.4783 16.575 21.5411 16.63 21.5725 16.6692C21.549 16.7006 21.4783 16.7556 21.3762 16.8577C21.2741 16.9598 21.1406 17.0776 21.0071 17.2111C20.8579 17.3524 20.7009 17.5016 20.5281 17.6587C20.3553 17.8236 20.1826 17.9885 20.0098 18.1456C19.837 18.3026 19.68 18.4518 19.5386 18.601C19.3894 18.7424 19.2716 18.8602 19.1774 18.9466C19.68 19.4177 20.1355 19.8889 20.5674 20.3679C21.0071 20.847 21.3998 21.3417 21.7531 21.8521H20.6537C20.5281 21.6872 20.371 21.4987 20.1904 21.2789C20.002 21.059 19.8056 20.8391 19.5936 20.6114C19.3816 20.3836 19.1617 20.1559 18.934 19.936C18.6984 19.7083 18.4785 19.512 18.2665 19.3313V21.8443H17.3791V16.8184L17.3869 16.8341Z" fill="white"/>
<path d="M23.8808 17.258H22.3887C22.0982 17.258 21.949 17.1166 21.949 16.8261C21.949 16.724 21.9647 16.6376 21.9961 16.5512C22.0275 16.4727 22.0432 16.4099 22.0589 16.3863H26.323C26.6136 16.3863 26.7549 16.5277 26.7549 16.8182C26.7549 16.9203 26.7471 17.0145 26.7157 17.0931C26.6921 17.1795 26.6607 17.2344 26.645 17.258H24.7682V21.8519H23.8808V17.258Z" fill="white"/>
<path d="M31.2637 21.4885C31.2087 21.5277 31.1302 21.5827 31.0359 21.6376C30.9417 21.6926 30.816 21.7554 30.6747 21.8025C30.5255 21.8575 30.3527 21.9046 30.1564 21.936C29.9601 21.9753 29.7323 21.991 29.4811 21.991C29.112 21.991 28.7664 21.9281 28.4366 21.8025C28.1068 21.6769 27.8162 21.4963 27.5649 21.2529C27.3137 21.0174 27.1173 20.719 26.976 20.3657C26.8268 20.0124 26.7561 19.5963 26.7561 19.1331C26.7561 18.6698 26.8268 18.2694 26.9681 17.9083C27.1095 17.5471 27.3058 17.2487 27.5492 16.9975C27.7927 16.7463 28.0832 16.5657 28.4131 16.4322C28.7429 16.3066 29.0963 16.2359 29.4653 16.2359C29.8344 16.2359 30.1171 16.2673 30.3449 16.3301C30.5726 16.393 30.7532 16.4715 30.8867 16.5657C31.0202 16.6599 31.1066 16.7541 31.1616 16.8562C31.2165 16.9504 31.2401 17.0368 31.2401 17.0996C31.2401 17.1702 31.2244 17.233 31.2008 17.2959C31.1694 17.3587 31.138 17.4215 31.0987 17.4686C31.0595 17.5157 31.0202 17.5628 30.981 17.6021C30.9417 17.6413 30.9024 17.6649 30.8789 17.6806C30.8239 17.6178 30.7611 17.5549 30.6747 17.4921C30.5883 17.4215 30.4862 17.3587 30.3606 17.2959C30.2428 17.233 30.1093 17.1938 29.9601 17.1467C29.8109 17.1074 29.646 17.0917 29.4732 17.0917C29.2141 17.0917 28.9863 17.1388 28.7664 17.233C28.5466 17.3273 28.3581 17.4607 28.201 17.6413C28.044 17.8219 27.9183 18.0339 27.8241 18.2851C27.7299 18.5364 27.6827 18.819 27.6827 19.1409C27.6827 19.4628 27.7299 19.7533 27.8241 19.9967C27.9262 20.248 28.0597 20.4521 28.2246 20.617C28.3895 20.7819 28.5937 20.9075 28.8214 20.9938C29.057 21.0724 29.3004 21.1195 29.5674 21.1195C29.8816 21.1195 30.1485 21.0724 30.3763 20.9938C30.604 20.9075 30.7689 20.829 30.871 20.7504L31.2637 21.4728H31.2715L31.2637 21.4885Z" fill="white"/>
<defs>
<linearGradient id="paint0_linear_1_1831" x1="39.061" y1="48.1364" x2="18.1235" y2="11.8596" gradientUnits="userSpaceOnUse">
<stop stop-color="#231F20"/>
<stop offset="0.24" stop-color="#292526"/>
<stop offset="0.58" stop-color="#3A383A"/>
<stop offset="0.99" stop-color="#565759"/>
<stop offset="1" stop-color="#58595B"/>
</linearGradient>
</defs>
</svg>
