<svg width="29" height="29" viewBox="0 0 29 29" fill="none" xmlns="http://www.w3.org/2000/svg">
<rect y="0.75" width="29" height="28" rx="14" fill="#CE0037"/>
<path d="M10.809 18.938C10.809 18.616 10.963 18.322 11.257 18.084L14.267 15.522C15.611 14.402 16.101 13.758 16.101 12.876C16.101 11.91 15.415 11.35 14.519 11.35C13.735 11.35 13.189 11.714 12.587 12.442C12.461 12.596 12.265 12.708 11.985 12.708C11.551 12.708 11.201 12.358 11.201 11.924C11.201 11.728 11.271 11.546 11.397 11.392C12.181 10.384 13.119 9.81 14.645 9.81C16.549 9.81 17.879 10.986 17.879 12.736V12.764C17.879 14.318 17.053 15.13 15.331 16.558L13.315 18.238H17.291C17.725 18.238 18.047 18.56 18.047 18.994C18.047 19.428 17.725 19.75 17.291 19.75H11.733C11.187 19.75 10.809 19.442 10.809 18.938Z" fill="white"/>
</svg>
