<svg width="29" height="29" viewBox="0 0 29 29" fill="none" xmlns="http://www.w3.org/2000/svg">
<rect y="0.75" width="29" height="28" rx="14" fill="#CE0037"/>
<path d="M14.5269 19.918C13.0709 19.918 12.0069 19.428 11.2089 18.644C11.0549 18.518 10.9289 18.294 10.9289 18.028C10.9289 17.58 11.3069 17.202 11.7549 17.202C12.0209 17.202 12.1749 17.3 12.3289 17.426C12.9449 18.042 13.6449 18.364 14.5549 18.364C15.5209 18.364 16.2489 17.776 16.2489 16.88V16.852C16.2489 15.886 15.3809 15.34 13.9949 15.34H13.6449C13.2389 15.34 12.9029 15.004 12.9029 14.598C12.9029 14.374 13.0009 14.164 13.2669 13.898L15.5629 11.448H12.0069C11.5729 11.448 11.2509 11.112 11.2509 10.706C11.2509 10.272 11.5729 9.95 12.0069 9.95H17.0189C17.5089 9.95 17.8729 10.244 17.8729 10.706C17.8729 11.112 17.6769 11.35 17.3829 11.644L15.0729 14.038C16.5569 14.22 17.9569 14.976 17.9569 16.782V16.81C17.9569 18.616 16.5709 19.918 14.5269 19.918Z" fill="white"/>
</svg>
