<svg width="100" height="101" viewBox="0 0 100 101" fill="none" xmlns="http://www.w3.org/2000/svg">
<rect x="23.4072" y="47.1797" width="67.3464" height="44.5171" rx="8" fill="#4383FF"/>
<path d="M83.8842 75.7867V83.9071C83.8842 84.7951 83.1651 85.5166 82.2748 85.5166H74.1612C73.2732 85.5166 72.5518 84.7974 72.5518 83.9071V75.7867C72.5518 74.8987 73.2709 74.1772 74.1612 74.1772H82.2748C83.1651 74.1795 83.8842 74.8987 83.8842 75.7867Z" fill="#FFBC50"/>
<path d="M78.9781 74.1797H77.46V85.5144H78.9781V74.1797Z" fill="#F49F16"/>
<path d="M78.309 79.0854H72.5537V80.6036H78.309V79.0854Z" fill="#F49F16"/>
<path d="M83.8842 76.4307H78.1289V77.9488H83.8842V76.4307Z" fill="#F49F16"/>
<path d="M83.8842 81.7427H78.1289V83.2608H83.8842V81.7427Z" fill="#F49F16"/>
<rect x="27.9727" y="81.9941" width="15.9805" height="2.85366" rx="1.42683" fill="white"/>
<rect x="27.9727" y="76.2866" width="23.9708" height="2.85366" rx="1.42683" fill="white"/>
<rect x="23.4072" y="57.4526" width="67.3464" height="9.13172" fill="#24272B"/>
<path d="M57.4511 63.9022C66.4818 63.9022 73.8026 56.5814 73.8026 47.5507C73.8026 38.52 66.4818 31.1992 57.4511 31.1992C48.4204 31.1992 41.0996 38.52 41.0996 47.5507C41.0996 56.5814 48.4204 63.9022 57.4511 63.9022Z" fill="#FFC72C"/>
<path d="M57.3744 58.7717C63.6142 58.7717 68.6726 53.7133 68.6726 47.4735C68.6726 41.2337 63.6142 36.1753 57.3744 36.1753C51.1346 36.1753 46.0762 41.2337 46.0762 47.4735C46.0762 53.7133 51.1346 58.7717 57.3744 58.7717Z" fill="#FFAB2C"/>
<path d="M48.5469 48.8363C48.5469 52.5962 50.3824 55.9248 53.2087 57.9817C49.0378 56.3265 46.0791 52.2355 46.0791 47.4734C46.0791 41.2364 51.1335 36.1729 57.3705 36.1729C59.8566 36.1729 62.1532 36.9742 64.0184 38.3394C62.7239 37.828 61.3222 37.5472 59.8474 37.5472C53.6105 37.5449 48.5469 42.5993 48.5469 48.8363Z" fill="#F15A38" fill-opacity="0.2"/>
<path opacity="0.3" d="M57.3706 32.3672C57.7656 32.3672 58.1605 32.3786 58.5669 32.4128C59.0668 32.4471 59.4618 32.8763 59.4618 33.3762V33.447C59.4161 33.9926 58.9504 34.3876 58.4162 34.3533C58.0783 34.3191 57.7313 34.3077 57.3706 34.3077C56.8364 34.3077 56.4072 33.8785 56.4072 33.3329C56.4072 32.7964 56.8364 32.3672 57.3706 32.3672Z" fill="white"/>
<path opacity="0.3" d="M61.5271 32.9471C65.1159 33.9699 68.1796 36.2802 70.1771 39.4375C70.4808 39.9694 70.2936 40.5082 69.8644 40.7844C69.4877 41.0355 68.8553 40.9716 68.5289 40.4831C66.7984 37.7207 64.116 35.698 60.9929 34.8168C60.4815 34.6662 60.1802 34.1205 60.3309 33.6092C60.4815 33.0818 61.0409 32.785 61.5271 32.9471Z" fill="white"/>
<path d="M61.8904 49.0987C61.6644 49.3156 61.5639 49.6352 61.6142 49.9525L62.1849 53.2445C62.3196 54.0321 61.4886 54.6348 60.7763 54.2581L57.8268 52.6989C57.5414 52.5573 57.2058 52.5573 56.9227 52.6989L53.9732 54.2581C53.2609 54.6348 52.4322 54.0321 52.5646 53.2445L53.1354 49.9525C53.1856 49.6352 53.0851 49.3156 52.8591 49.0987L50.4621 46.761C49.8913 46.1994 50.2109 45.2268 50.9985 45.1195L54.2997 44.6424C54.617 44.5922 54.8864 44.4004 55.0279 44.115L56.5118 41.1084C56.8634 40.3962 57.8861 40.3962 58.2377 41.1084L59.7216 44.115C59.8631 44.4004 60.1325 44.5922 60.4499 44.6424L63.751 45.1195C64.5386 45.2291 64.8559 46.1994 64.2875 46.761L61.8904 49.0987Z" fill="white"/>
<path d="M60.7743 54.2603L57.8248 52.7011C57.5417 52.5618 57.2084 52.5618 56.923 52.7011L53.9735 54.2603C53.2612 54.6347 52.4302 54.0343 52.5626 53.2467L53.1311 49.9547C53.1836 49.6328 53.0831 49.3178 52.8571 49.0964L50.4601 46.7586C49.8916 46.2016 50.2089 45.2245 50.9966 45.1172L53.4781 44.7588C54.3798 48.6032 57.7883 51.4866 61.8907 51.5733L62.1806 53.2467C62.3176 54.0343 61.4866 54.6347 60.7743 54.2603Z" fill="#E5F5F9"/>
<rect x="23.4072" y="57.4531" width="67.3464" height="9.13172" fill="#24272B"/>
<path d="M33.11 40.902C39.4141 40.902 44.5246 35.7915 44.5246 29.4874C44.5246 23.1833 39.4141 18.0728 33.11 18.0728C26.8058 18.0728 21.6953 23.1833 21.6953 29.4874C21.6953 35.7915 26.8058 40.902 33.11 40.902Z" fill="#FFC72C"/>
<path d="M33.056 37.3205C37.4119 37.3205 40.9431 33.7894 40.9431 29.4335C40.9431 25.0775 37.4119 21.5464 33.056 21.5464C28.7001 21.5464 25.1689 25.0775 25.1689 29.4335C25.1689 33.7894 28.7001 37.3205 33.056 37.3205Z" fill="#FFAB2C"/>
<path d="M26.8937 30.385C26.8937 33.0098 28.175 35.3333 30.1479 36.7692C27.2363 35.6138 25.1709 32.758 25.1709 29.4336C25.1709 25.0797 28.6993 21.5449 33.0532 21.5449C34.7887 21.5449 36.3919 22.1043 37.6939 23.0573C36.7903 22.7003 35.8118 22.5043 34.7823 22.5043C30.4284 22.5027 26.8937 26.0311 26.8937 30.385Z" fill="#F15A38" fill-opacity="0.2"/>
<path opacity="0.3" d="M33.0534 18.8882C33.3291 18.8882 33.6048 18.8962 33.8885 18.9201C34.2375 18.944 34.5132 19.2436 34.5132 19.5926V19.642C34.4813 20.0229 34.1562 20.2986 33.7833 20.2747C33.5474 20.2508 33.3052 20.2428 33.0534 20.2428C32.6805 20.2428 32.3809 19.9432 32.3809 19.5623C32.3809 19.1878 32.6805 18.8882 33.0534 18.8882Z" fill="white"/>
<path opacity="0.3" d="M35.955 19.2931C38.4602 20.0071 40.5989 21.6199 41.9934 23.8239C42.2054 24.1952 42.0747 24.5714 41.7751 24.7642C41.5121 24.9395 41.0707 24.8949 40.8428 24.5538C39.6348 22.6255 37.7622 21.2135 35.5821 20.5983C35.2251 20.4932 35.0147 20.1123 35.1199 19.7553C35.2251 19.3872 35.6155 19.18 35.955 19.2931Z" fill="white"/>
<path d="M36.2088 30.5679C36.051 30.7193 35.9809 30.9425 36.016 31.164L36.4144 33.462C36.5084 34.0119 35.9283 34.4326 35.4311 34.1696L33.3721 33.0812C33.1728 32.9823 32.9386 32.9823 32.741 33.0812L30.6819 34.1696C30.1847 34.4326 29.6062 34.0119 29.6987 33.462L30.0971 31.164C30.1321 30.9425 30.062 30.7193 29.9042 30.5679L28.2309 28.936C27.8325 28.544 28.0556 27.8651 28.6054 27.7902L30.9098 27.4571C31.1314 27.422 31.3194 27.2882 31.4182 27.089L32.4541 24.9901C32.6995 24.4929 33.4135 24.4929 33.6589 24.9901L34.6948 27.089C34.7936 27.2882 34.9817 27.422 35.2032 27.4571L37.5076 27.7902C38.0574 27.8667 38.279 28.544 37.8821 28.936L36.2088 30.5679Z" fill="white"/>
<path d="M35.4294 34.1714L33.3704 33.0829C33.1728 32.9857 32.9401 32.9857 32.7409 33.0829L30.6819 34.1714C30.1846 34.4328 29.6045 34.0136 29.697 33.4638L30.0938 31.1658C30.1304 30.9411 30.0603 30.7211 29.9026 30.5665L28.2292 28.9346C27.8324 28.5458 28.0539 27.8637 28.6037 27.7888L30.336 27.5386C30.9655 30.2223 33.3449 32.2351 36.2087 32.2957L36.4111 33.4638C36.5067 34.0136 35.9266 34.4328 35.4294 34.1714Z" fill="#E5F5F9"/>
<path d="M78.6104 34.0022C83.347 34.0022 87.1867 30.1624 87.1867 25.4259C87.1867 20.6893 83.347 16.8496 78.6104 16.8496C73.8739 16.8496 70.0342 20.6893 70.0342 25.4259C70.0342 30.1624 73.8739 34.0022 78.6104 34.0022Z" fill="#FFC72C"/>
<path d="M78.5704 31.3112C81.8432 31.3112 84.4963 28.6581 84.4963 25.3853C84.4963 22.1126 81.8432 19.4595 78.5704 19.4595C75.2976 19.4595 72.6445 22.1126 72.6445 25.3853C72.6445 28.6581 75.2976 31.3112 78.5704 31.3112Z" fill="#FFAB2C"/>
<path d="M73.9399 26.1004C73.9399 28.0725 74.9026 29.8183 76.3849 30.8971C74.1973 30.029 72.6455 27.8833 72.6455 25.3856C72.6455 22.1143 75.2965 19.4585 78.5678 19.4585C79.8717 19.4585 81.0763 19.8788 82.0546 20.5948C81.3756 20.3266 80.6404 20.1793 79.8669 20.1793C76.5957 20.1781 73.9399 22.8291 73.9399 26.1004Z" fill="#F15A38" fill-opacity="0.2"/>
<path opacity="0.3" d="M78.5678 17.4624C78.7749 17.4624 78.9821 17.4684 79.1952 17.4864C79.4575 17.5043 79.6646 17.7294 79.6646 17.9916V18.0288C79.6407 18.3149 79.3964 18.5221 79.1162 18.5041C78.939 18.4862 78.757 18.4802 78.5678 18.4802C78.2876 18.4802 78.0625 18.2551 78.0625 17.9689C78.0625 17.6875 78.2876 17.4624 78.5678 17.4624Z" fill="white"/>
<path opacity="0.3" d="M80.7484 17.7664C82.6307 18.3028 84.2376 19.5146 85.2853 21.1706C85.4445 21.4496 85.3464 21.7321 85.1213 21.877C84.9237 22.0087 84.592 21.9752 84.4208 21.719C83.5132 20.2701 82.1062 19.2092 80.4682 18.7471C80.2 18.668 80.0419 18.3818 80.121 18.1136C80.2 17.837 80.4934 17.6814 80.7484 17.7664Z" fill="white"/>
<path d="M80.9383 26.2376C80.8198 26.3514 80.7671 26.519 80.7934 26.6855L81.0928 28.4121C81.1634 28.8252 80.7276 29.1413 80.354 28.9437L78.807 28.1259C78.6573 28.0517 78.4813 28.0517 78.3328 28.1259L76.7858 28.9437C76.4122 29.1413 75.9775 28.8252 76.047 28.4121L76.3463 26.6855C76.3727 26.519 76.32 26.3514 76.2014 26.2376L74.9442 25.0115C74.6448 24.717 74.8125 24.2069 75.2256 24.1506L76.957 23.9003C77.1234 23.874 77.2647 23.7734 77.339 23.6237L78.1173 22.0468C78.3017 21.6732 78.8381 21.6732 79.0225 22.0468L79.8008 23.6237C79.875 23.7734 80.0163 23.874 80.1827 23.9003L81.9142 24.1506C82.3273 24.2081 82.4937 24.717 82.1956 25.0115L80.9383 26.2376Z" fill="white"/>
<path d="M80.3534 28.9449L78.8064 28.1271C78.6579 28.0541 78.4831 28.0541 78.3335 28.1271L76.7864 28.9449C76.4128 29.1413 75.977 28.8264 76.0465 28.4133L76.3446 26.6867C76.3721 26.5178 76.3195 26.3526 76.2009 26.2365L74.9437 25.0103C74.6455 24.7182 74.8119 24.2057 75.225 24.1494L76.5266 23.9614C76.9996 25.9778 78.7873 27.4901 80.939 27.5356L81.091 28.4133C81.1629 28.8264 80.727 29.1413 80.3534 28.9449Z" fill="#E5F5F9"/>
<path d="M25.8685 65.8268C23.0975 66.0689 21.8788 72.4894 21.4634 75.2987C21.3953 75.6253 21.5626 75.9301 21.7652 76.162C21.949 76.34 22.2032 76.3722 22.4575 76.4044C22.5117 76.3855 22.5658 76.3666 22.693 76.3827C25.3837 75.5631 31.61 73.3865 31.4273 70.6045C31.1528 67.7336 28.7126 65.6197 25.8685 65.8268ZM25.3079 69.9585C26.3768 69.8876 27.2577 70.6695 27.3429 71.6085C27.1854 72.0269 25.7637 72.8266 23.9959 73.5052C24.407 71.7266 24.9666 70.1989 25.3079 69.9585Z" fill="url(#paint0_linear_1815_19214)"/>
<path d="M23.2928 75.1438C22.4768 72.4622 20.3077 66.2573 17.5178 66.4454C14.6737 66.6525 12.5678 69.1447 12.7504 71.9267C12.9873 74.6897 19.4225 75.8914 22.2386 76.2995C22.3116 76.3346 22.3657 76.3156 22.4198 76.2967C22.6553 76.2749 22.926 76.1803 23.0318 75.9617C23.319 75.7402 23.3871 75.4136 23.2928 75.1438ZM16.9651 72.5119C16.8963 71.4461 17.6823 70.5659 18.6781 70.4599C19.0973 70.6161 19.8961 72.0322 20.5727 73.7938C18.7361 73.4066 17.1513 72.8707 16.9651 72.5119Z" fill="url(#paint1_linear_1815_19214)"/>
<path d="M33.8915 74.5263L10.8686 76.2777L14.0349 94.5466C14.1317 94.9971 14.5533 95.3342 15.0242 95.2906L32.6133 93.9857C33.0842 93.9422 33.496 93.556 33.4534 93.0865L33.8915 74.5263Z" fill="#FFC72C"/>
<path d="M9.66856 77.3632L10.4056 82.2523L35.2578 80.3458L35.3001 75.4265C35.2928 74.8841 34.8334 74.4392 34.3084 74.5017L10.5062 76.2833C9.98119 76.3457 9.55294 76.8587 9.66856 77.3632Z" fill="#FFC72C"/>
<path d="M33.7306 81.3644L33.7914 80.4954L11.8915 82.157L12.0661 83.0042L33.7306 81.3644Z" fill="#F15A38" fill-opacity="0.2"/>
<path d="M19.6366 75.6347C19.5252 74.0993 20.7041 72.779 22.2438 72.6646C23.7835 72.5501 25.105 73.723 25.2164 75.2584L19.6366 75.6347Z" fill="url(#paint2_linear_1815_19214)"/>
<path d="M25.1975 75.2044L19.6366 75.6347L21.0023 94.8358L26.582 94.4595L25.1975 75.2044Z" fill="url(#paint3_linear_1815_19214)"/>
<path d="M62.2444 5.5491C63.5868 5.20636 65.2148 8.03394 65.8717 9.29064C65.9574 9.43345 65.9288 9.60482 65.8717 9.74763C65.8146 9.86187 65.7003 9.91899 65.5861 9.97612C65.5575 9.97612 65.529 9.97612 65.4718 10.0047C64.0723 10.0618 60.7878 10.0618 60.4165 8.71941C60.0737 7.3199 60.8735 5.92039 62.2444 5.5491ZM63.1869 7.40559C62.6728 7.5484 62.3872 8.0625 62.5015 8.51948C62.6443 8.69085 63.444 8.83366 64.3865 8.86222C63.901 8.09106 63.3869 7.46271 63.1869 7.40559Z" fill="url(#paint4_linear_1815_19214)"/>
<path d="M64.9868 9.51929C64.9296 8.11978 64.9296 4.83522 66.272 4.46392C67.643 4.09262 69.0425 4.9209 69.4138 6.26329C69.7565 7.60568 66.929 9.23368 65.6722 9.89059C65.6437 9.91915 65.6151 9.91915 65.5866 9.91915C65.4723 9.94771 65.3295 9.94772 65.2438 9.86203C65.0725 9.80491 64.9868 9.6621 64.9868 9.51929ZM67.5287 7.23438C67.3859 6.72027 66.8718 6.43466 66.3863 6.5489C66.2149 6.69171 66.0721 7.49143 66.0435 8.43396C66.8433 7.94841 67.5002 7.43431 67.5287 7.23438Z" fill="url(#paint5_linear_1815_19214)"/>
<path d="M59.9025 10.9758L71.0129 8.00537L72.5267 17.145C72.5552 17.3735 72.4124 17.602 72.1839 17.6591L63.7012 19.944C63.4727 20.0012 63.2156 19.8869 63.1585 19.6584L59.9025 10.9758Z" fill="#FFC72C"/>
<path d="M71.7559 8.31981L72.2129 10.7475L60.2171 13.9464L59.3888 11.6329C59.3031 11.3759 59.4459 11.0903 59.703 11.0331L71.1847 7.94851C71.4417 7.89138 71.7273 8.06275 71.7559 8.31981Z" fill="#FFC72C"/>
<path d="M61.1022 14.1747L60.9308 13.7748L71.4985 10.9473L71.5557 11.3757L61.1022 14.1747Z" fill="#F15A38" fill-opacity="0.2"/>
<path d="M66.7861 9.14808C66.5862 8.40548 65.815 7.97706 65.0724 8.17699C64.3298 8.37692 63.9014 9.14808 64.1014 9.89067L66.7861 9.14808Z" fill="url(#paint6_linear_1815_19214)"/>
<path d="M64.1006 9.86199L66.7854 9.14795L69.2988 18.4304L66.6141 19.173L64.1006 9.86199Z" fill="url(#paint7_linear_1815_19214)"/>
<defs>
<linearGradient id="paint0_linear_1815_19214" x1="20.0475" y1="68.9414" x2="24.8466" y2="76.3929" gradientUnits="userSpaceOnUse">
<stop stop-color="#D6A2FF"/>
<stop offset="1" stop-color="#9331FF"/>
</linearGradient>
<linearGradient id="paint1_linear_1815_19214" x1="12.5454" y1="69.4038" x2="19.2775" y2="77.5364" gradientUnits="userSpaceOnUse">
<stop stop-color="#D6A2FF"/>
<stop offset="1" stop-color="#9331FF"/>
</linearGradient>
<linearGradient id="paint2_linear_1815_19214" x1="19.5037" y1="73.9649" x2="21.2645" y2="76.9954" gradientUnits="userSpaceOnUse">
<stop stop-color="#D6A2FF"/>
<stop offset="1" stop-color="#9331FF"/>
</linearGradient>
<linearGradient id="paint3_linear_1815_19214" x1="16.4269" y1="79.2959" x2="29.7423" y2="90.796" gradientUnits="userSpaceOnUse">
<stop stop-color="#D6A2FF"/>
<stop offset="1" stop-color="#9331FF"/>
</linearGradient>
<linearGradient id="paint4_linear_1815_19214" x1="65.4926" y1="6.05839" x2="64.4544" y2="10.363" gradientUnits="userSpaceOnUse">
<stop stop-color="#D6A2FF"/>
<stop offset="1" stop-color="#9331FF"/>
</linearGradient>
<linearGradient id="paint5_linear_1815_19214" x1="69.0956" y1="5.03943" x2="67.2563" y2="9.9816" gradientUnits="userSpaceOnUse">
<stop stop-color="#D6A2FF"/>
<stop offset="1" stop-color="#9331FF"/>
</linearGradient>
<linearGradient id="paint6_linear_1815_19214" x1="66.5742" y1="8.33853" x2="66.2423" y2="10.058" gradientUnits="userSpaceOnUse">
<stop stop-color="#D6A2FF"/>
<stop offset="1" stop-color="#9331FF"/>
</linearGradient>
<linearGradient id="paint7_linear_1815_19214" x1="68.8959" y1="10.3457" x2="64.5037" y2="17.9529" gradientUnits="userSpaceOnUse">
<stop stop-color="#D6A2FF"/>
<stop offset="1" stop-color="#9331FF"/>
</linearGradient>
</defs>
</svg>
