<?xml version="1.0" encoding="utf-8"?>
<!-- Generator: Adobe Illustrator 28.1.0, SVG Export Plug-In . SVG Version: 6.00 Build 0)  -->
<svg version="1.1" id="Layer_1" xmlns="http://www.w3.org/2000/svg" xmlns:xlink="http://www.w3.org/1999/xlink" x="0px" y="0px"
	 viewBox="0 0 1125 1125" style="enable-background:new 0 0 1125 1125;" xml:space="preserve">
<style type="text/css">
	.st0{fill:#FFFFFF;}
	.st1{clip-path:url(#SVGID_00000161604300556717864500000000247019191307748226_);}
	.st2{fill:#231F20;}
	.st3{opacity:0.2;fill:url(#SVGID_00000158744607798264110240000012038165638085874820_);enable-background:new    ;}
	.st4{opacity:0.3;fill:#CF3339;enable-background:new    ;}
	.st5{opacity:0.4;fill:#CF3339;enable-background:new    ;}
	.st6{opacity:0.5;fill:#CF3339;enable-background:new    ;}
	.st7{fill:#CF3339;}
</style>
<g>
	<rect x="49.9" y="49.9" class="st0" width="1025.2" height="1025.2"/>
	<rect x="49.9" y="49.9" width="194" height="27.7"/>
	<rect x="299.3" y="49.9" width="27.7" height="55.4"/>
	<rect x="382.4" y="49.9" width="27.7" height="27.7"/>
	<rect x="437.8" y="49.9" width="27.7" height="83.1"/>
	<rect x="520.9" y="49.9" width="55.4" height="55.4"/>
	<rect x="659.5" y="49.9" width="55.4" height="27.7"/>
	<rect x="742.6" y="49.9" width="110.8" height="27.7"/>
	<rect x="881.1" y="49.9" width="194" height="27.7"/>
	<rect x="49.9" y="77.6" width="27.7" height="166.2"/>
	<rect x="216.2" y="77.6" width="27.7" height="166.2"/>
	<rect x="271.6" y="77.6" width="27.7" height="27.7"/>
	<rect x="327" y="77.6" width="27.7" height="27.7"/>
	<rect x="465.5" y="77.6" width="27.7" height="27.7"/>
	<rect x="604.1" y="77.6" width="83.1" height="27.7"/>
	<rect x="742.6" y="77.6" width="27.7" height="27.7"/>
	<rect x="825.7" y="77.6" width="27.7" height="27.7"/>
	<rect x="881.1" y="77.6" width="27.7" height="166.2"/>
	<rect x="1047.4" y="77.6" width="27.7" height="166.2"/>
	<rect x="105.3" y="105.3" width="83.1" height="83.1"/>
	<rect x="354.7" y="105.3" width="55.4" height="55.4"/>
	<rect x="493.2" y="105.3" width="27.7" height="27.7"/>
	<rect x="576.4" y="105.3" width="83.1" height="27.7"/>
	<rect x="714.9" y="105.3" width="27.7" height="27.7"/>
	<rect x="936.5" y="105.3" width="83.1" height="83.1"/>
	<rect x="299.3" y="133" width="55.4" height="27.7"/>
	<rect x="410.1" y="133" width="27.7" height="27.7"/>
	<rect x="465.5" y="133" width="27.7" height="27.7"/>
	<rect x="520.9" y="133" width="27.7" height="27.7"/>
	<rect x="576.4" y="133" width="27.7" height="55.4"/>
	<rect x="742.6" y="133" width="55.4" height="27.7"/>
	<rect x="825.7" y="133" width="27.7" height="27.7"/>
	<rect x="327" y="160.7" width="27.7" height="27.7"/>
	<rect x="493.2" y="160.7" width="27.7" height="110.8"/>
	<rect x="548.6" y="160.7" width="27.7" height="83.1"/>
	<rect x="659.5" y="160.7" width="27.7" height="27.7"/>
	<rect x="714.9" y="160.7" width="27.7" height="27.7"/>
	<rect x="770.3" y="160.7" width="55.4" height="27.7"/>
	<rect x="271.6" y="188.5" width="27.7" height="83.1"/>
	<rect x="382.4" y="188.5" width="27.7" height="55.4"/>
	<rect x="465.5" y="188.5" width="27.7" height="27.7"/>
	<rect x="604.1" y="188.5" width="55.4" height="27.7"/>
	<rect x="687.2" y="188.5" width="27.7" height="27.7"/>
	<rect x="825.7" y="188.5" width="27.7" height="55.4"/>
	<rect x="77.6" y="216.2" width="138.5" height="27.7"/>
	<rect x="327" y="216.2" width="27.7" height="83.1"/>
	<rect x="437.8" y="216.2" width="27.7" height="83.1"/>
	<rect x="604.1" y="216.2" width="27.7" height="27.7"/>
	<rect x="659.5" y="216.2" width="27.7" height="55.4"/>
	<rect x="714.9" y="216.2" width="27.7" height="83.1"/>
	<rect x="770.3" y="216.2" width="27.7" height="27.7"/>
	<rect x="908.8" y="216.2" width="138.5" height="27.7"/>
	<rect x="354.7" y="243.9" width="27.7" height="55.4"/>
	<rect x="520.9" y="243.9" width="27.7" height="27.7"/>
	<rect x="687.2" y="243.9" width="27.7" height="27.7"/>
	<rect x="742.6" y="243.9" width="27.7" height="55.4"/>
	<rect x="160.7" y="271.6" width="110.8" height="27.7"/>
	<rect x="299.3" y="271.6" width="27.7" height="55.4"/>
	<rect x="548.6" y="271.6" width="55.4" height="27.7"/>
	<rect x="631.8" y="271.6" width="27.7" height="27.7"/>
	<rect x="798" y="271.6" width="27.7" height="27.7"/>
	<rect x="881.1" y="271.6" width="55.4" height="27.7"/>
	<rect x="1019.7" y="271.6" width="27.7" height="27.7"/>
	<rect x="77.6" y="299.3" width="27.7" height="55.4"/>
	<rect x="160.7" y="299.3" width="55.4" height="27.7"/>
	<rect x="271.6" y="299.3" width="27.7" height="27.7"/>
	<rect x="382.4" y="299.3" width="55.4" height="27.7"/>
	<rect x="465.5" y="299.3" width="27.7" height="55.4"/>
	<rect x="520.9" y="299.3" width="55.4" height="55.4"/>
	<rect x="604.1" y="299.3" width="27.7" height="110.8"/>
	<rect x="687.2" y="299.3" width="27.7" height="110.8"/>
	<rect x="770.3" y="299.3" width="27.7" height="83.1"/>
	<rect x="936.5" y="299.3" width="27.7" height="55.4"/>
	<rect x="133" y="327" width="55.4" height="55.4"/>
	<rect x="216.2" y="327" width="55.4" height="27.7"/>
	<rect x="354.7" y="327" width="55.4" height="27.7"/>
	<rect x="437.8" y="327" width="27.7" height="27.7"/>
	<rect x="493.2" y="327" width="27.7" height="27.7"/>
	<rect x="631.8" y="327" width="55.4" height="27.7"/>
	<rect x="742.6" y="327" width="27.7" height="27.7"/>
	<rect x="798" y="327" width="83.1" height="27.7"/>
	<rect x="908.8" y="327" width="27.7" height="27.7"/>
	<rect x="992" y="327" width="27.7" height="221.7"/>
	<rect x="49.9" y="354.7" width="27.7" height="27.7"/>
	<rect x="105.3" y="354.7" width="27.7" height="27.7"/>
	<rect x="271.6" y="354.7" width="27.7" height="138.5"/>
	<rect x="548.6" y="354.7" width="55.4" height="27.7"/>
	<rect x="631.8" y="354.7" width="27.7" height="27.7"/>
	<rect x="714.9" y="354.7" width="27.7" height="55.4"/>
	<rect x="798" y="354.7" width="27.7" height="27.7"/>
	<rect x="853.4" y="354.7" width="27.7" height="166.2"/>
	<rect x="160.7" y="382.4" width="27.7" height="55.4"/>
	<rect x="216.2" y="382.4" width="27.7" height="27.7"/>
	<rect x="382.4" y="382.4" width="27.7" height="110.8"/>
	<rect x="465.5" y="382.4" width="27.7" height="27.7"/>
	<rect x="576.4" y="382.4" width="27.7" height="110.8"/>
	<rect x="659.5" y="382.4" width="27.7" height="55.4"/>
	<rect x="881.1" y="382.4" width="55.4" height="27.7"/>
	<rect x="1019.7" y="382.4" width="27.7" height="27.7"/>
	<rect x="49.9" y="410.1" width="27.7" height="110.8"/>
	<rect x="105.3" y="410.1" width="55.4" height="27.7"/>
	<rect x="188.5" y="410.1" width="27.7" height="110.8"/>
	<rect x="327" y="410.1" width="55.4" height="27.7"/>
	<rect x="493.2" y="410.1" width="27.7" height="83.1"/>
	<rect x="770.3" y="410.1" width="83.1" height="27.7"/>
	<rect x="936.5" y="410.1" width="27.7" height="27.7"/>
	<rect x="105.3" y="437.8" width="27.7" height="27.7"/>
	<rect x="216.2" y="437.8" width="55.4" height="27.7"/>
	<rect x="327" y="437.8" width="27.7" height="55.4"/>
	<rect x="687.2" y="437.8" width="27.7" height="27.7"/>
	<rect x="742.6" y="437.8" width="27.7" height="27.7"/>
	<rect x="798" y="437.8" width="27.7" height="138.5"/>
	<rect x="908.8" y="437.8" width="27.7" height="27.7"/>
	<rect x="964.3" y="437.8" width="27.7" height="27.7"/>
	<rect x="1019.7" y="437.8" width="27.7" height="27.7"/>
	<rect x="133" y="465.5" width="27.7" height="27.7"/>
	<rect x="299.3" y="465.5" width="27.7" height="27.7"/>
	<rect x="354.7" y="465.5" width="27.7" height="55.4"/>
	<rect x="437.8" y="465.5" width="27.7" height="27.7"/>
	<rect x="520.9" y="465.5" width="27.7" height="27.7"/>
	<rect x="631.8" y="465.5" width="27.7" height="27.7"/>
	<rect x="770.3" y="465.5" width="27.7" height="27.7"/>
	<rect x="881.1" y="465.5" width="27.7" height="55.4"/>
	<rect x="936.5" y="465.5" width="27.7" height="27.7"/>
	<rect x="1047.4" y="465.5" width="27.7" height="55.4"/>
	<rect x="77.6" y="493.2" width="55.4" height="55.4"/>
	<rect x="160.7" y="493.2" width="27.7" height="83.1"/>
	<rect x="216.2" y="493.2" width="55.4" height="27.7"/>
	<rect x="410.1" y="493.2" width="27.7" height="110.8"/>
	<rect x="465.5" y="493.2" width="27.7" height="27.7"/>
	<rect x="604.1" y="493.2" width="27.7" height="27.7"/>
	<rect x="659.5" y="493.2" width="83.1" height="27.7"/>
	<rect x="964.3" y="493.2" width="27.7" height="83.1"/>
	<rect x="133" y="520.9" width="27.7" height="27.7"/>
	<rect x="243.9" y="520.9" width="27.7" height="55.4"/>
	<rect x="327" y="520.9" width="27.7" height="27.7"/>
	<rect x="382.4" y="520.9" width="27.7" height="27.7"/>
	<rect x="548.6" y="520.9" width="55.4" height="27.7"/>
	<rect x="631.8" y="520.9" width="55.4" height="27.7"/>
	<rect x="936.5" y="520.9" width="27.7" height="27.7"/>
	<rect x="49.9" y="548.6" width="55.4" height="27.7"/>
	<rect x="216.2" y="548.6" width="27.7" height="27.7"/>
	<rect x="299.3" y="548.6" width="27.7" height="83.1"/>
	<rect x="354.7" y="548.6" width="27.7" height="55.4"/>
	<rect x="437.8" y="548.6" width="27.7" height="83.1"/>
	<rect x="576.4" y="548.6" width="55.4" height="27.7"/>
	<rect x="659.5" y="548.6" width="27.7" height="27.7"/>
	<rect x="714.9" y="548.6" width="27.7" height="27.7"/>
	<rect x="881.1" y="548.6" width="55.4" height="27.7"/>
	<rect x="77.6" y="576.4" width="55.4" height="27.7"/>
	<rect x="188.5" y="576.4" width="27.7" height="83.1"/>
	<rect x="382.4" y="576.4" width="27.7" height="27.7"/>
	<rect x="493.2" y="576.4" width="83.1" height="27.7"/>
	<rect x="631.8" y="576.4" width="27.7" height="55.4"/>
	<rect x="687.2" y="576.4" width="27.7" height="27.7"/>
	<rect x="770.3" y="576.4" width="27.7" height="27.7"/>
	<rect x="825.7" y="576.4" width="55.4" height="27.7"/>
	<rect x="992" y="576.4" width="55.4" height="27.7"/>
	<rect x="133" y="604.1" width="27.7" height="27.7"/>
	<rect x="216.2" y="604.1" width="55.4" height="27.7"/>
	<rect x="327" y="604.1" width="27.7" height="55.4"/>
	<rect x="465.5" y="604.1" width="27.7" height="55.4"/>
	<rect x="520.9" y="604.1" width="110.8" height="27.7"/>
	<rect x="659.5" y="604.1" width="27.7" height="27.7"/>
	<rect x="853.4" y="604.1" width="55.4" height="27.7"/>
	<rect x="992" y="604.1" width="27.7" height="55.4"/>
	<rect x="160.7" y="631.8" width="27.7" height="27.7"/>
	<rect x="354.7" y="631.8" width="27.7" height="27.7"/>
	<rect x="410.1" y="631.8" width="27.7" height="27.7"/>
	<rect x="576.4" y="631.8" width="27.7" height="27.7"/>
	<rect x="687.2" y="631.8" width="138.5" height="27.7"/>
	<rect x="936.5" y="631.8" width="55.4" height="27.7"/>
	<rect x="49.9" y="659.5" width="27.7" height="27.7"/>
	<rect x="105.3" y="659.5" width="27.7" height="83.1"/>
	<rect x="216.2" y="659.5" width="55.4" height="27.7"/>
	<rect x="299.3" y="659.5" width="27.7" height="138.5"/>
	<rect x="493.2" y="659.5" width="55.4" height="27.7"/>
	<rect x="604.1" y="659.5" width="27.7" height="27.7"/>
	<rect x="687.2" y="659.5" width="55.4" height="27.7"/>
	<rect x="798" y="659.5" width="83.1" height="27.7"/>
	<rect x="188.5" y="687.2" width="27.7" height="83.1"/>
	<rect x="354.7" y="687.2" width="27.7" height="27.7"/>
	<rect x="410.1" y="687.2" width="27.7" height="27.7"/>
	<rect x="520.9" y="687.2" width="27.7" height="55.4"/>
	<rect x="576.4" y="687.2" width="27.7" height="27.7"/>
	<rect x="714.9" y="687.2" width="27.7" height="27.7"/>
	<rect x="770.3" y="687.2" width="27.7" height="55.4"/>
	<rect x="825.7" y="687.2" width="27.7" height="27.7"/>
	<rect x="908.8" y="687.2" width="27.7" height="55.4"/>
	<rect x="992" y="687.2" width="55.4" height="55.4"/>
	<rect x="77.6" y="714.9" width="27.7" height="55.4"/>
	<rect x="133" y="714.9" width="55.4" height="27.7"/>
	<rect x="216.2" y="714.9" width="27.7" height="27.7"/>
	<rect x="271.6" y="714.9" width="27.7" height="55.4"/>
	<rect x="382.4" y="714.9" width="27.7" height="55.4"/>
	<rect x="465.5" y="714.9" width="55.4" height="110.8"/>
	<rect x="548.6" y="714.9" width="27.7" height="83.1"/>
	<rect x="604.1" y="714.9" width="83.1" height="27.7"/>
	<rect x="742.6" y="714.9" width="27.7" height="27.7"/>
	<rect x="798" y="714.9" width="27.7" height="83.1"/>
	<rect x="853.4" y="714.9" width="55.4" height="27.7"/>
	<rect x="1047.4" y="714.9" width="27.7" height="27.7"/>
	<rect x="49.9" y="742.6" width="27.7" height="27.7"/>
	<rect x="160.7" y="742.6" width="27.7" height="27.7"/>
	<rect x="327" y="742.6" width="27.7" height="55.4"/>
	<rect x="410.1" y="742.6" width="27.7" height="55.4"/>
	<rect x="576.4" y="742.6" width="55.4" height="83.1"/>
	<rect x="714.9" y="742.6" width="27.7" height="55.4"/>
	<rect x="825.7" y="742.6" width="55.4" height="55.4"/>
	<rect x="936.5" y="742.6" width="83.1" height="27.7"/>
	<rect x="105.3" y="770.3" width="27.7" height="83.1"/>
	<rect x="216.2" y="770.3" width="55.4" height="27.7"/>
	<rect x="437.8" y="770.3" width="27.7" height="27.7"/>
	<rect x="659.5" y="770.3" width="55.4" height="55.4"/>
	<rect x="742.6" y="770.3" width="27.7" height="27.7"/>
	<rect x="908.8" y="770.3" width="27.7" height="83.1"/>
	<rect x="964.3" y="770.3" width="55.4" height="55.4"/>
	<rect x="243.9" y="798" width="27.7" height="27.7"/>
	<rect x="382.4" y="798" width="27.7" height="27.7"/>
	<rect x="520.9" y="798" width="27.7" height="27.7"/>
	<rect x="770.3" y="798" width="27.7" height="27.7"/>
	<rect x="825.7" y="798" width="27.7" height="166.2"/>
	<rect x="881.1" y="798" width="27.7" height="55.4"/>
	<rect x="936.5" y="798" width="27.7" height="166.2"/>
	<rect x="1047.4" y="798" width="27.7" height="55.4"/>
	<rect x="49.9" y="825.7" width="55.4" height="27.7"/>
	<rect x="160.7" y="825.7" width="27.7" height="27.7"/>
	<rect x="216.2" y="825.7" width="27.7" height="27.7"/>
	<rect x="327" y="825.7" width="55.4" height="27.7"/>
	<rect x="493.2" y="825.7" width="27.7" height="27.7"/>
	<rect x="576.4" y="825.7" width="27.7" height="27.7"/>
	<rect x="659.5" y="825.7" width="27.7" height="55.4"/>
	<rect x="853.4" y="825.7" width="27.7" height="27.7"/>
	<rect x="992" y="825.7" width="27.7" height="27.7"/>
	<rect x="271.6" y="853.4" width="27.7" height="110.8"/>
	<rect x="382.4" y="853.4" width="83.1" height="55.4"/>
	<rect x="548.6" y="853.4" width="27.7" height="55.4"/>
	<rect x="687.2" y="853.4" width="27.7" height="110.8"/>
	<rect x="742.6" y="853.4" width="27.7" height="27.7"/>
	<rect x="964.3" y="853.4" width="27.7" height="55.4"/>
	<rect x="49.9" y="881.1" width="194" height="27.7"/>
	<rect x="299.3" y="881.1" width="27.7" height="55.4"/>
	<rect x="493.2" y="881.1" width="55.4" height="27.7"/>
	<rect x="714.9" y="881.1" width="27.7" height="27.7"/>
	<rect x="770.3" y="881.1" width="27.7" height="27.7"/>
	<rect x="881.1" y="881.1" width="27.7" height="27.7"/>
	<rect x="992" y="881.1" width="27.7" height="83.1"/>
	<rect x="49.9" y="908.8" width="27.7" height="166.2"/>
	<rect x="216.2" y="908.8" width="27.7" height="166.2"/>
	<rect x="327" y="908.8" width="55.4" height="55.4"/>
	<rect x="659.5" y="908.8" width="27.7" height="83.1"/>
	<rect x="798" y="908.8" width="27.7" height="27.7"/>
	<rect x="1019.7" y="908.8" width="27.7" height="55.4"/>
	<rect x="105.3" y="936.5" width="83.1" height="83.1"/>
	<rect x="437.8" y="936.5" width="27.7" height="110.8"/>
	<rect x="520.9" y="936.5" width="27.7" height="27.7"/>
	<rect x="631.8" y="936.5" width="27.7" height="83.1"/>
	<rect x="714.9" y="936.5" width="27.7" height="27.7"/>
	<rect x="853.4" y="936.5" width="83.1" height="27.7"/>
	<rect x="964.3" y="936.5" width="27.7" height="27.7"/>
	<rect x="1047.4" y="936.5" width="27.7" height="27.7"/>
	<rect x="299.3" y="964.3" width="55.4" height="27.7"/>
	<rect x="382.4" y="964.3" width="27.7" height="55.4"/>
	<rect x="465.5" y="964.3" width="55.4" height="27.7"/>
	<rect x="576.4" y="964.3" width="27.7" height="27.7"/>
	<rect x="742.6" y="964.3" width="83.1" height="27.7"/>
	<rect x="881.1" y="964.3" width="55.4" height="55.4"/>
	<rect x="327" y="992" width="27.7" height="27.7"/>
	<rect x="493.2" y="992" width="83.1" height="27.7"/>
	<rect x="742.6" y="992" width="55.4" height="27.7"/>
	<rect x="825.7" y="992" width="27.7" height="27.7"/>
	<rect x="1019.7" y="992" width="27.7" height="83.1"/>
	<rect x="493.2" y="1019.7" width="55.4" height="27.7"/>
	<rect x="659.5" y="1019.7" width="27.7" height="27.7"/>
	<rect x="714.9" y="1019.7" width="27.7" height="55.4"/>
	<rect x="770.3" y="1019.7" width="27.7" height="27.7"/>
	<rect x="936.5" y="1019.7" width="27.7" height="55.4"/>
	<rect x="992" y="1019.7" width="27.7" height="55.4"/>
	<rect x="77.6" y="1047.4" width="138.5" height="27.7"/>
	<rect x="299.3" y="1047.4" width="138.5" height="27.7"/>
	<rect x="465.5" y="1047.4" width="27.7" height="27.7"/>
	<rect x="520.9" y="1047.4" width="138.5" height="27.7"/>
	<rect x="687.2" y="1047.4" width="27.7" height="27.7"/>
	<rect x="798" y="1047.4" width="27.7" height="27.7"/>
	<rect x="881.1" y="1047.4" width="55.4" height="27.7"/>
	<rect x="1047.4" y="1047.4" width="27.7" height="27.7"/>
</g>
<g transform="translate(350,350) scale(10.15625,10.15625)">
	<g>
		<defs>
			<rect id="SVGID_1_" x="-149.7" y="-144.3" width="341.2" height="330.4"/>
		</defs>
		<clipPath id="SVGID_00000182495304727334442980000004870137052265756557_">
			<use xlink:href="#SVGID_1_"  style="overflow:visible;"/>
		</clipPath>
		<g style="clip-path:url(#SVGID_00000182495304727334442980000004870137052265756557_);">
			<path class="st2" d="M8.1,5.2h24c2.2,0,4,1.8,4,4v24c0,2.2-1.8,4-4,4h-24c-2.2,0-4-1.8-4-4v-24C4.1,7,5.9,5.2,8.1,5.2z"/>
			<path class="st2" d="M9.6,5.2h21.1c3,0,5.5,2.5,5.5,5.5v21.1c0,3-2.5,5.5-5.5,5.5H9.6c-3,0-5.5-2.5-5.5-5.5V10.7
				C4.1,7.6,6.6,5.2,9.6,5.2z"/>
			
				<linearGradient id="SVGID_00000139986497045803733910000016766690356743968187_" gradientUnits="userSpaceOnUse" x1="-48.4805" y1="67.355" x2="-63.2421" y2="93.0974" gradientTransform="matrix(10.1562 0 0 -10.1562 523.5107 724.1262)">
				<stop  offset="0" style="stop-color:#231F20"/>
				<stop  offset="0.24" style="stop-color:#292526"/>
				<stop  offset="0.58" style="stop-color:#3A383A"/>
				<stop  offset="0.99" style="stop-color:#565759"/>
				<stop  offset="1" style="stop-color:#58595B"/>
			</linearGradient>
			<path style="opacity:0.2;fill:url(#SVGID_00000139986497045803733910000016766690356743968187_);enable-background:new    ;" d="
				M6.3,37.2c-1.1,0-1.8-1-1.4-2.1C7.4,28.7,16.5,9.4,34.3,5.7c1-0.2,1.8,0.6,1.8,1.5v28.4c0,0.9-0.7,1.6-1.6,1.6L6.3,37.2z"/>
			<path class="st0" d="M17.1,25.2c-0.8,0.2-1.5-0.3-1.7-1.1l-1.6-9l0,0.1l-1,0.1c-0.8,0.1-1.3,0.8-1,1.5l0,0.1l-0.4,0.1
				c-0.8,0.2-1.2,0.9-0.8,1.6l0.3,0.7l-0.9,0.4c-0.8,0.3-1,1.1-0.6,1.8l5.2,7.6c0.5,0.7,1.4,0.8,2,0.3l7.2-5.7L17.1,25.2L17.1,25.2z
				"/>
			<path class="st4" d="M9.5,21.3C9,20.6,9.3,19.9,10,19.6l9-3.4c0.8-0.3,2-0.2,2.7,0.1l5.6,2.7c0.7,0.4,0.8,1,0.2,1.6l-10.9,8.7
				c-0.6,0.5-1.5,0.4-2-0.3L9.5,21.3L9.5,21.3z"/>
			<path class="st5" d="M10.7,18.6c-0.3-0.7,0-1.5,0.8-1.6l9.4-1.8c0.8-0.2,2,0.1,2.6,0.6l5,3.6c0.7,0.5,0.6,1.2-0.1,1.6l-12.2,6.6
				c-0.7,0.4-1.6,0.1-1.9-0.6L10.7,18.6L10.7,18.6z"/>
			<path class="st6" d="M11.9,16.8c-0.3-0.8,0.2-1.5,1-1.5l9.6-0.8c0.8-0.1,2,0.3,2.6,0.8l4.6,4.1c0.6,0.5,0.5,1.2-0.2,1.6
				l-12.8,5.4c-0.7,0.3-1.6-0.1-1.8-0.8L11.9,16.8L11.9,16.8z"/>
			<path class="st7" d="M13.9,15.1c-0.1-0.8,0.4-1.4,1.2-1.4l9.6,0.6c0.8,0,1.9,0.6,2.4,1.2l4,4.7c0.5,0.6,0.3,1.3-0.5,1.5
				l-13.4,3.4c-0.8,0.2-1.5-0.3-1.7-1.1L13.9,15.1L13.9,15.1z"/>
			<path class="st0" d="M16.8,17.5c0-0.1,0-0.2,0.1-0.2c0.1,0,0.1-0.1,0.2-0.1c0.1,0,0.1,0,0.2,0c0.1,0,0.1,0,0.1,0v1.6
				c0.1-0.1,0.2-0.2,0.3-0.3c0.1-0.1,0.3-0.3,0.4-0.4c0.1-0.1,0.3-0.3,0.4-0.4c0.1-0.1,0.2-0.2,0.3-0.3c0.1-0.1,0.2-0.1,0.2-0.2
				c0.1,0,0.2-0.1,0.3-0.1c0.1,0,0.2,0,0.3,0.1c0.1,0,0.1,0.1,0.1,0.1c0,0-0.1,0.1-0.1,0.1c-0.1,0.1-0.2,0.2-0.3,0.3
				c-0.1,0.1-0.2,0.2-0.3,0.3c-0.1,0.1-0.2,0.2-0.4,0.4c-0.1,0.1-0.2,0.2-0.3,0.3c-0.1,0.1-0.2,0.2-0.3,0.2c0.4,0.3,0.7,0.7,1,1
				c0.3,0.3,0.6,0.7,0.9,1.1h-0.8c-0.1-0.1-0.2-0.3-0.3-0.4s-0.3-0.3-0.4-0.5c-0.2-0.2-0.3-0.3-0.5-0.5c-0.2-0.2-0.3-0.3-0.5-0.4
				v1.8h-0.6L16.8,17.5L16.8,17.5z"/>
			<path class="st0" d="M21.5,17.8h-1.1c-0.2,0-0.3-0.1-0.3-0.3c0-0.1,0-0.1,0-0.2c0-0.1,0-0.1,0-0.1h3.1c0.2,0,0.3,0.1,0.3,0.3
				c0,0.1,0,0.1,0,0.2c0,0.1,0,0.1,0,0.1h-1.4v3.3h-0.6V17.8z"/>
			<path class="st0" d="M26.9,20.9c0,0-0.1,0.1-0.2,0.1c-0.1,0-0.2,0.1-0.3,0.1c-0.1,0-0.2,0.1-0.4,0.1c-0.1,0-0.3,0-0.5,0
				c-0.3,0-0.5,0-0.8-0.1c-0.2-0.1-0.5-0.2-0.6-0.4c-0.2-0.2-0.3-0.4-0.4-0.6c-0.1-0.3-0.2-0.6-0.2-0.9c0-0.3,0-0.6,0.2-0.9
				c0.1-0.3,0.2-0.5,0.4-0.7c0.2-0.2,0.4-0.3,0.6-0.4c0.2-0.1,0.5-0.1,0.8-0.1c0.3,0,0.5,0,0.6,0.1c0.2,0,0.3,0.1,0.4,0.2
				c0.1,0.1,0.2,0.1,0.2,0.2c0,0.1,0.1,0.1,0.1,0.2c0,0,0,0.1,0,0.1c0,0,0,0.1-0.1,0.1c0,0-0.1,0.1-0.1,0.1c0,0-0.1,0-0.1,0.1
				c0,0-0.1-0.1-0.2-0.1c-0.1,0-0.1-0.1-0.2-0.1c-0.1,0-0.2-0.1-0.3-0.1c-0.1,0-0.2,0-0.4,0c-0.2,0-0.4,0-0.5,0.1
				c-0.2,0.1-0.3,0.2-0.4,0.3c-0.1,0.1-0.2,0.3-0.3,0.5c-0.1,0.2-0.1,0.4-0.1,0.6c0,0.2,0,0.4,0.1,0.6c0.1,0.2,0.2,0.3,0.3,0.4
				c0.1,0.1,0.3,0.2,0.4,0.3c0.2,0.1,0.3,0.1,0.5,0.1c0.2,0,0.4,0,0.6-0.1c0.2-0.1,0.3-0.1,0.4-0.2L26.9,20.9L26.9,20.9z"/>
		</g>
	</g>
</g>
</svg>
