<?xml version="1.0" encoding="UTF-8"?><svg id="Layer_1" xmlns="http://www.w3.org/2000/svg" viewBox="0 0 1035 1035"><defs><style>.cls-1,.cls-2{stroke-width:0px;}.cls-2{fill:#fff;}</style></defs><rect class="cls-2" width="1035" height="1035"/><rect class="cls-1" width="195.81" height="27.97"/><rect class="cls-1" x="223.78" width="83.92" height="27.97"/><rect class="cls-1" x="335.68" width="111.89" height="27.97"/><rect class="cls-1" x="475.54" width="55.95" height="27.97"/><rect class="cls-1" x="615.41" width="27.97" height="83.92"/><rect class="cls-1" x="783.24" width="27.97" height="83.92"/><rect class="cls-1" x="839.19" width="195.81" height="27.97"/><rect class="cls-1" y="27.97" width="27.97" height="167.84"/><rect class="cls-1" x="167.84" y="27.97" width="27.97" height="167.84"/><rect class="cls-1" x="223.78" y="27.97" width="27.97" height="55.95"/><rect class="cls-1" x="279.73" y="27.97" width="55.95" height="27.97"/><rect class="cls-1" x="503.51" y="27.97" width="27.97" height="83.92"/><rect class="cls-1" x="587.43" y="27.97" width="27.97" height="83.92"/><rect class="cls-1" x="643.38" y="27.97" width="55.95" height="27.97"/><rect class="cls-1" x="727.3" y="27.97" width="55.95" height="27.97"/><rect class="cls-1" x="839.19" y="27.97" width="27.97" height="167.84"/><rect class="cls-1" x="1007.03" y="27.97" width="27.97" height="167.84"/><rect class="cls-1" x="55.95" y="55.95" width="83.92" height="83.92"/><rect class="cls-1" x="251.76" y="55.95" width="27.97" height="55.95"/><rect class="cls-1" x="363.65" y="55.95" width="27.97" height="83.92"/><rect class="cls-1" x="475.54" y="55.95" width="27.97" height="111.89"/><rect class="cls-1" x="531.49" y="55.95" width="27.97" height="27.97"/><rect class="cls-1" x="671.35" y="55.95" width="27.97" height="27.97"/><rect class="cls-1" x="895.14" y="55.95" width="83.92" height="83.92"/><rect class="cls-1" x="279.73" y="83.92" width="27.97" height="111.89"/><rect class="cls-1" x="419.59" y="83.92" width="27.97" height="83.92"/><rect class="cls-1" x="559.46" y="83.92" width="27.97" height="55.95"/><rect class="cls-1" x="643.38" y="83.92" width="27.97" height="27.97"/><rect class="cls-1" x="699.32" y="83.92" width="55.95" height="27.97"/><rect class="cls-1" x="335.68" y="111.89" width="27.97" height="27.97"/><rect class="cls-1" x="391.62" y="111.89" width="27.97" height="27.97"/><rect class="cls-1" x="447.57" y="111.89" width="27.97" height="27.97"/><rect class="cls-1" x="223.78" y="139.86" width="55.95" height="27.97"/><rect class="cls-1" x="307.7" y="139.86" width="27.97" height="27.97"/><rect class="cls-1" x="531.49" y="139.86" width="27.97" height="27.97"/><rect class="cls-1" x="643.38" y="139.86" width="55.95" height="27.97"/><rect class="cls-1" x="755.27" y="139.86" width="55.95" height="27.97"/><rect class="cls-1" x="27.97" y="167.84" width="139.86" height="27.97"/><rect class="cls-1" x="223.78" y="167.84" width="27.97" height="83.92"/><rect class="cls-1" x="335.68" y="167.84" width="27.97" height="83.92"/><rect class="cls-1" x="391.62" y="167.84" width="27.97" height="55.95"/><rect class="cls-1" x="447.57" y="167.84" width="27.97" height="55.95"/><rect class="cls-1" x="503.51" y="167.84" width="27.97" height="55.95"/><rect class="cls-1" x="559.46" y="167.84" width="27.97" height="111.89"/><rect class="cls-1" x="615.41" y="167.84" width="27.97" height="83.92"/><rect class="cls-1" x="671.35" y="167.84" width="27.97" height="27.97"/><rect class="cls-1" x="727.3" y="167.84" width="27.97" height="55.95"/><rect class="cls-1" x="783.24" y="167.84" width="27.97" height="55.95"/><rect class="cls-1" x="867.16" y="167.84" width="139.86" height="27.97"/><rect class="cls-1" x="251.76" y="195.81" width="27.97" height="27.97"/><rect class="cls-1" x="307.7" y="195.81" width="27.97" height="83.92"/><rect class="cls-1" x="363.65" y="195.81" width="27.97" height="27.97"/><rect class="cls-1" x="419.59" y="195.81" width="27.97" height="27.97"/><rect class="cls-1" x="475.54" y="195.81" width="27.97" height="139.86"/><rect class="cls-1" x="587.43" y="195.81" width="27.97" height="83.92"/><rect class="cls-1" x="643.38" y="195.81" width="27.97" height="55.95"/><rect class="cls-1" x="55.95" y="223.78" width="83.92" height="55.95"/><rect class="cls-1" x="167.84" y="223.78" width="27.97" height="27.97"/><rect class="cls-1" x="279.73" y="223.78" width="27.97" height="55.95"/><rect class="cls-1" x="531.49" y="223.78" width="27.97" height="83.92"/><rect class="cls-1" x="671.35" y="223.78" width="27.97" height="55.95"/><rect class="cls-1" x="811.22" y="223.78" width="83.92" height="27.97"/><rect class="cls-1" x="951.08" y="223.78" width="83.92" height="27.97"/><rect class="cls-1" y="251.76" width="27.97" height="27.97"/><rect class="cls-1" x="139.86" y="251.76" width="27.97" height="55.95"/><rect class="cls-1" x="195.81" y="251.76" width="27.97" height="27.97"/><rect class="cls-1" x="503.51" y="251.76" width="27.97" height="27.97"/><rect class="cls-1" x="699.32" y="251.76" width="167.84" height="27.97"/><rect class="cls-1" x="923.11" y="251.76" width="27.97" height="27.97"/><rect class="cls-1" x="979.05" y="251.76" width="27.97" height="55.95"/><rect class="cls-1" x="83.92" y="279.73" width="27.97" height="27.97"/><rect class="cls-1" x="167.84" y="279.73" width="27.97" height="27.97"/><rect class="cls-1" x="251.76" y="279.73" width="27.97" height="55.95"/><rect class="cls-1" x="335.68" y="279.73" width="27.97" height="55.95"/><rect class="cls-1" x="391.62" y="279.73" width="83.92" height="27.97"/><rect class="cls-1" x="699.32" y="279.73" width="55.95" height="27.97"/><rect class="cls-1" x="839.19" y="279.73" width="55.95" height="27.97"/><rect class="cls-1" x="1007.03" y="279.73" width="27.97" height="55.95"/><rect class="cls-1" x="27.97" y="307.7" width="55.95" height="27.97"/><rect class="cls-1" x="111.89" y="307.7" width="27.97" height="55.95"/><rect class="cls-1" x="195.81" y="307.7" width="27.97" height="27.97"/><rect class="cls-1" x="279.73" y="307.7" width="27.97" height="55.95"/><rect class="cls-1" x="419.59" y="307.7" width="55.95" height="27.97"/><rect class="cls-1" x="559.46" y="307.7" width="27.97" height="27.97"/><rect class="cls-1" x="671.35" y="307.7" width="27.97" height="27.97"/><rect class="cls-1" x="727.3" y="307.7" width="27.97" height="55.95"/><rect class="cls-1" x="783.24" y="307.7" width="27.97" height="111.89"/><rect class="cls-1" x="839.19" y="307.7" width="27.97" height="55.95"/><rect class="cls-1" x="923.11" y="307.7" width="27.97" height="27.97"/><rect class="cls-1" y="335.68" width="27.97" height="83.92"/><rect class="cls-1" x="55.95" y="335.68" width="27.97" height="27.97"/><rect class="cls-1" x="139.86" y="335.68" width="55.95" height="27.97"/><rect class="cls-1" x="223.78" y="335.68" width="27.97" height="27.97"/><rect class="cls-1" x="363.65" y="335.68" width="27.97" height="27.97"/><rect class="cls-1" x="447.57" y="335.68" width="27.97" height="27.97"/><rect class="cls-1" x="503.51" y="335.68" width="27.97" height="27.97"/><rect class="cls-1" x="587.43" y="335.68" width="83.92" height="27.97"/><rect class="cls-1" x="699.32" y="335.68" width="27.97" height="27.97"/><rect class="cls-1" x="811.22" y="335.68" width="27.97" height="55.95"/><rect class="cls-1" x="895.14" y="335.68" width="27.97" height="27.97"/><rect class="cls-1" x="951.08" y="335.68" width="55.95" height="27.97"/><rect class="cls-1" x="83.92" y="363.65" width="27.97" height="27.97"/><rect class="cls-1" x="139.86" y="363.65" width="27.97" height="27.97"/><rect class="cls-1" x="251.76" y="363.65" width="27.97" height="55.95"/><rect class="cls-1" x="391.62" y="363.65" width="27.97" height="27.97"/><rect class="cls-1" x="475.54" y="363.65" width="27.97" height="27.97"/><rect class="cls-1" x="531.49" y="363.65" width="27.97" height="27.97"/><rect class="cls-1" x="587.43" y="363.65" width="27.97" height="195.81"/><rect class="cls-1" x="671.35" y="363.65" width="27.97" height="27.97"/><rect class="cls-1" x="867.16" y="363.65" width="27.97" height="27.97"/><rect class="cls-1" x="923.11" y="363.65" width="55.95" height="27.97"/><rect class="cls-1" x="111.89" y="391.62" width="27.97" height="27.97"/><rect class="cls-1" x="167.84" y="391.62" width="55.95" height="27.97"/><rect class="cls-1" x="279.73" y="391.62" width="55.95" height="27.97"/><rect class="cls-1" x="363.65" y="391.62" width="27.97" height="83.92"/><rect class="cls-1" x="419.59" y="391.62" width="55.95" height="27.97"/><rect class="cls-1" x="503.51" y="391.62" width="27.97" height="27.97"/><rect class="cls-1" x="643.38" y="391.62" width="27.97" height="111.89"/><rect class="cls-1" x="755.27" y="391.62" width="27.97" height="55.95"/><rect class="cls-1" x="839.19" y="391.62" width="27.97" height="27.97"/><rect class="cls-1" x="923.11" y="391.62" width="27.97" height="27.97"/><rect class="cls-1" x="1007.03" y="391.62" width="27.97" height="27.97"/><rect class="cls-1" x="83.92" y="419.59" width="27.97" height="27.97"/><rect class="cls-1" x="139.86" y="419.59" width="27.97" height="27.97"/><rect class="cls-1" x="195.81" y="419.59" width="55.95" height="27.97"/><rect class="cls-1" x="419.59" y="419.59" width="27.97" height="55.95"/><rect class="cls-1" x="475.54" y="419.59" width="27.97" height="27.97"/><rect class="cls-1" x="531.49" y="419.59" width="27.97" height="55.95"/><rect class="cls-1" x="671.35" y="419.59" width="27.97" height="111.89"/><rect class="cls-1" x="727.3" y="419.59" width="27.97" height="83.92"/><rect class="cls-1" x="867.16" y="419.59" width="27.97" height="111.89"/><rect class="cls-1" x="979.05" y="419.59" width="27.97" height="27.97"/><rect class="cls-1" x="27.97" y="447.57" width="55.95" height="27.97"/><rect class="cls-1" x="111.89" y="447.57" width="27.97" height="27.97"/><rect class="cls-1" x="167.84" y="447.57" width="27.97" height="27.97"/><rect class="cls-1" x="223.78" y="447.57" width="139.86" height="27.97"/><rect class="cls-1" x="503.51" y="447.57" width="27.97" height="111.89"/><rect class="cls-1" x="559.46" y="447.57" width="27.97" height="167.84"/><rect class="cls-1" x="699.32" y="447.57" width="27.97" height="27.97"/><rect class="cls-1" x="811.22" y="447.57" width="55.95" height="27.97"/><rect class="cls-1" x="895.14" y="447.57" width="27.97" height="27.97"/><rect class="cls-1" x="951.08" y="447.57" width="27.97" height="83.92"/><rect class="cls-1" x="1007.03" y="447.57" width="27.97" height="27.97"/><rect class="cls-1" y="475.54" width="27.97" height="27.97"/><rect class="cls-1" x="83.92" y="475.54" width="27.97" height="55.95"/><rect class="cls-1" x="195.81" y="475.54" width="27.97" height="55.95"/><rect class="cls-1" x="251.76" y="475.54" width="27.97" height="27.97"/><rect class="cls-1" x="307.7" y="475.54" width="55.95" height="27.97"/><rect class="cls-1" x="391.62" y="475.54" width="27.97" height="27.97"/><rect class="cls-1" x="55.95" y="503.51" width="27.97" height="83.92"/><rect class="cls-1" x="139.86" y="503.51" width="55.95" height="27.97"/><rect class="cls-1" x="223.78" y="503.51" width="27.97" height="27.97"/><rect class="cls-1" x="307.7" y="503.51" width="27.97" height="27.97"/><rect class="cls-1" x="363.65" y="503.51" width="27.97" height="83.92"/><rect class="cls-1" x="419.59" y="503.51" width="27.97" height="27.97"/><rect class="cls-1" x="475.54" y="503.51" width="27.97" height="27.97"/><rect class="cls-1" x="531.49" y="503.51" width="27.97" height="27.97"/><rect class="cls-1" x="615.41" y="503.51" width="27.97" height="55.95"/><rect class="cls-1" x="755.27" y="503.51" width="55.95" height="27.97"/><rect class="cls-1" x="923.11" y="503.51" width="27.97" height="27.97"/><rect class="cls-1" x="979.05" y="503.51" width="55.95" height="27.97"/><rect class="cls-1" x="27.97" y="531.49" width="27.97" height="55.95"/><rect class="cls-1" x="139.86" y="531.49" width="27.97" height="27.97"/><rect class="cls-1" x="251.76" y="531.49" width="27.97" height="111.89"/><rect class="cls-1" x="391.62" y="531.49" width="27.97" height="111.89"/><rect class="cls-1" x="447.57" y="531.49" width="27.97" height="27.97"/><rect class="cls-1" x="643.38" y="531.49" width="27.97" height="27.97"/><rect class="cls-1" x="727.3" y="531.49" width="27.97" height="55.95"/><rect class="cls-1" x="811.22" y="531.49" width="55.95" height="55.95"/><rect class="cls-1" x="979.05" y="531.49" width="27.97" height="27.97"/><rect class="cls-1" y="559.46" width="27.97" height="27.97"/><rect class="cls-1" x="83.92" y="559.46" width="27.97" height="27.97"/><rect class="cls-1" x="167.84" y="559.46" width="27.97" height="27.97"/><rect class="cls-1" x="223.78" y="559.46" width="27.97" height="139.86"/><rect class="cls-1" x="279.73" y="559.46" width="83.92" height="27.97"/><rect class="cls-1" x="475.54" y="559.46" width="27.97" height="27.97"/><rect class="cls-1" x="671.35" y="559.46" width="55.95" height="55.95"/><rect class="cls-1" x="755.27" y="559.46" width="27.97" height="27.97"/><rect class="cls-1" x="867.16" y="559.46" width="111.89" height="27.97"/><rect class="cls-1" x="1007.03" y="559.46" width="27.97" height="27.97"/><rect class="cls-1" x="111.89" y="587.43" width="27.97" height="139.86"/><rect class="cls-1" x="195.81" y="587.43" width="27.97" height="139.86"/><rect class="cls-1" x="279.73" y="587.43" width="27.97" height="27.97"/><rect class="cls-1" x="335.68" y="587.43" width="27.97" height="55.95"/><rect class="cls-1" x="419.59" y="587.43" width="55.95" height="27.97"/><rect class="cls-1" x="531.49" y="587.43" width="27.97" height="27.97"/><rect class="cls-1" x="587.43" y="587.43" width="27.97" height="139.86"/><rect class="cls-1" x="867.16" y="587.43" width="27.97" height="27.97"/><rect class="cls-1" x="923.11" y="587.43" width="83.92" height="27.97"/><rect class="cls-1" y="615.41" width="27.97" height="55.95"/><rect class="cls-1" x="83.92" y="615.41" width="27.97" height="111.89"/><rect class="cls-1" x="139.86" y="615.41" width="55.95" height="27.97"/><rect class="cls-1" x="475.54" y="615.41" width="55.95" height="27.97"/><rect class="cls-1" x="615.41" y="615.41" width="27.97" height="83.92"/><rect class="cls-1" x="699.32" y="615.41" width="83.92" height="27.97"/><rect class="cls-1" x="811.22" y="615.41" width="27.97" height="27.97"/><rect class="cls-1" x="979.05" y="615.41" width="55.95" height="27.97"/><rect class="cls-1" x="27.97" y="643.38" width="27.97" height="55.95"/><rect class="cls-1" x="363.65" y="643.38" width="27.97" height="55.95"/><rect class="cls-1" x="503.51" y="643.38" width="27.97" height="27.97"/><rect class="cls-1" x="559.46" y="643.38" width="27.97" height="27.97"/><rect class="cls-1" x="643.38" y="643.38" width="27.97" height="27.97"/><rect class="cls-1" x="699.32" y="643.38" width="27.97" height="27.97"/><rect class="cls-1" x="867.16" y="643.38" width="27.97" height="27.97"/><rect class="cls-1" x="923.11" y="643.38" width="27.97" height="167.84"/><rect class="cls-1" x="1007.03" y="643.38" width="27.97" height="55.95"/><rect class="cls-1" x="55.95" y="671.35" width="27.97" height="83.92"/><rect class="cls-1" x="167.84" y="671.35" width="27.97" height="27.97"/><rect class="cls-1" x="251.76" y="671.35" width="111.89" height="27.97"/><rect class="cls-1" x="531.49" y="671.35" width="27.97" height="27.97"/><rect class="cls-1" x="671.35" y="671.35" width="27.97" height="27.97"/><rect class="cls-1" x="727.3" y="671.35" width="27.97" height="27.97"/><rect class="cls-1" x="783.24" y="671.35" width="55.95" height="27.97"/><rect class="cls-1" x="951.08" y="671.35" width="55.95" height="27.97"/><rect class="cls-1" y="699.32" width="27.97" height="111.89"/><rect class="cls-1" x="139.86" y="699.32" width="27.97" height="111.89"/><rect class="cls-1" x="251.76" y="699.32" width="27.97" height="55.95"/><rect class="cls-1" x="335.68" y="699.32" width="27.97" height="55.95"/><rect class="cls-1" x="419.59" y="699.32" width="27.97" height="55.95"/><rect class="cls-1" x="699.32" y="699.32" width="27.97" height="55.95"/><rect class="cls-1" x="755.27" y="699.32" width="27.97" height="139.86"/><rect class="cls-1" x="839.19" y="699.32" width="83.92" height="27.97"/><rect class="cls-1" x="167.84" y="727.3" width="27.97" height="27.97"/><rect class="cls-1" x="223.78" y="727.3" width="27.97" height="27.97"/><rect class="cls-1" x="307.7" y="727.3" width="27.97" height="27.97"/><rect class="cls-1" x="363.65" y="727.3" width="55.95" height="111.89"/><rect class="cls-1" x="447.57" y="727.3" width="55.95" height="27.97"/><rect class="cls-1" x="615.41" y="727.3" width="83.92" height="27.97"/><rect class="cls-1" x="783.24" y="727.3" width="27.97" height="27.97"/><rect class="cls-1" x="839.19" y="727.3" width="27.97" height="27.97"/><rect class="cls-1" x="895.14" y="727.3" width="27.97" height="223.78"/><rect class="cls-1" x="979.05" y="727.3" width="55.95" height="27.97"/><rect class="cls-1" x="195.81" y="755.27" width="27.97" height="55.95"/><rect class="cls-1" x="279.73" y="755.27" width="27.97" height="27.97"/><rect class="cls-1" x="503.51" y="755.27" width="55.95" height="27.97"/><rect class="cls-1" x="615.41" y="755.27" width="55.95" height="83.92"/><rect class="cls-1" x="727.3" y="755.27" width="27.97" height="83.92"/><rect class="cls-1" x="811.22" y="755.27" width="27.97" height="55.95"/><rect class="cls-1" x="867.16" y="755.27" width="27.97" height="55.95"/><rect class="cls-1" x="1007.03" y="755.27" width="27.97" height="55.95"/><rect class="cls-1" x="111.89" y="783.24" width="27.97" height="27.97"/><rect class="cls-1" x="167.84" y="783.24" width="27.97" height="27.97"/><rect class="cls-1" x="307.7" y="783.24" width="27.97" height="27.97"/><rect class="cls-1" x="447.57" y="783.24" width="27.97" height="27.97"/><rect class="cls-1" x="531.49" y="783.24" width="83.92" height="27.97"/><rect class="cls-1" x="671.35" y="783.24" width="55.95" height="27.97"/><rect class="cls-1" x="783.24" y="783.24" width="27.97" height="167.84"/><rect class="cls-1" x="839.19" y="783.24" width="27.97" height="27.97"/><rect class="cls-1" x="223.78" y="811.22" width="27.97" height="27.97"/><rect class="cls-1" x="279.73" y="811.22" width="27.97" height="27.97"/><rect class="cls-1" x="335.68" y="811.22" width="27.97" height="27.97"/><rect class="cls-1" x="503.51" y="811.22" width="27.97" height="27.97"/><rect class="cls-1" x="559.46" y="811.22" width="55.95" height="27.97"/><rect class="cls-1" y="839.19" width="195.81" height="27.97"/><rect class="cls-1" x="251.76" y="839.19" width="27.97" height="139.86"/><rect class="cls-1" x="391.62" y="839.19" width="27.97" height="55.95"/><rect class="cls-1" x="447.57" y="839.19" width="27.97" height="55.95"/><rect class="cls-1" x="531.49" y="839.19" width="27.97" height="27.97"/><rect class="cls-1" x="839.19" y="839.19" width="27.97" height="27.97"/><rect class="cls-1" x="923.11" y="839.19" width="27.97" height="27.97"/><rect class="cls-1" x="979.05" y="839.19" width="55.95" height="27.97"/><rect class="cls-1" y="867.16" width="27.97" height="167.84"/><rect class="cls-1" x="167.84" y="867.16" width="27.97" height="167.84"/><rect class="cls-1" x="307.7" y="867.16" width="27.97" height="27.97"/><rect class="cls-1" x="419.59" y="867.16" width="27.97" height="27.97"/><rect class="cls-1" x="503.51" y="867.16" width="27.97" height="27.97"/><rect class="cls-1" x="559.46" y="867.16" width="27.97" height="27.97"/><rect class="cls-1" x="615.41" y="867.16" width="27.97" height="27.97"/><rect class="cls-1" x="1007.03" y="867.16" width="27.97" height="55.95"/><rect class="cls-1" x="55.95" y="895.14" width="83.92" height="83.92"/><rect class="cls-1" x="223.78" y="895.14" width="27.97" height="83.92"/><rect class="cls-1" x="335.68" y="895.14" width="27.97" height="139.86"/><rect class="cls-1" x="475.54" y="895.14" width="27.97" height="27.97"/><rect class="cls-1" x="643.38" y="895.14" width="27.97" height="27.97"/><rect class="cls-1" x="699.32" y="895.14" width="83.92" height="27.97"/><rect class="cls-1" x="811.22" y="895.14" width="83.92" height="27.97"/><rect class="cls-1" x="951.08" y="895.14" width="55.95" height="27.97"/><rect class="cls-1" x="307.7" y="923.11" width="27.97" height="55.95"/><rect class="cls-1" x="363.65" y="923.11" width="55.95" height="27.97"/><rect class="cls-1" x="447.57" y="923.11" width="27.97" height="83.92"/><rect class="cls-1" x="587.43" y="923.11" width="55.95" height="27.97"/><rect class="cls-1" x="671.35" y="923.11" width="83.92" height="27.97"/><rect class="cls-1" x="839.19" y="923.11" width="27.97" height="27.97"/><rect class="cls-1" x="923.11" y="923.11" width="27.97" height="27.97"/><rect class="cls-1" x="279.73" y="951.08" width="27.97" height="55.95"/><rect class="cls-1" x="475.54" y="951.08" width="139.86" height="27.97"/><rect class="cls-1" x="727.3" y="951.08" width="27.97" height="27.97"/><rect class="cls-1" x="811.22" y="951.08" width="27.97" height="55.95"/><rect class="cls-1" x="867.16" y="951.08" width="27.97" height="83.92"/><rect class="cls-1" x="951.08" y="951.08" width="27.97" height="27.97"/><rect class="cls-1" x="1007.03" y="951.08" width="27.97" height="83.92"/><rect class="cls-1" x="363.65" y="979.05" width="83.92" height="55.95"/><rect class="cls-1" x="475.54" y="979.05" width="27.97" height="27.97"/><rect class="cls-1" x="587.43" y="979.05" width="27.97" height="55.95"/><rect class="cls-1" x="671.35" y="979.05" width="27.97" height="55.95"/><rect class="cls-1" x="783.24" y="979.05" width="27.97" height="27.97"/><rect class="cls-1" x="839.19" y="979.05" width="27.97" height="55.95"/><rect class="cls-1" x="27.97" y="1007.03" width="139.86" height="27.97"/><rect class="cls-1" x="251.76" y="1007.03" width="27.97" height="27.97"/><rect class="cls-1" x="531.49" y="1007.03" width="27.97" height="27.97"/><rect class="cls-1" x="699.32" y="1007.03" width="27.97" height="27.97"/><rect class="cls-1" x="895.14" y="1007.03" width="111.89" height="27.97"/></svg>