<?xml version="1.0" encoding="utf-8"?>
<!-- Generator: Adobe Illustrator 28.1.0, SVG Export Plug-In . SVG Version: 6.00 Build 0)  -->
<svg version="1.1" id="Layer_1" xmlns="http://www.w3.org/2000/svg" xmlns:xlink="http://www.w3.org/1999/xlink" x="0px" y="0px"
	 viewBox="0 0 1148 1148" style="enable-background:new 0 0 1148 1148;" xml:space="preserve">
<style type="text/css">
	.st0{fill:#FFFFFF;}
</style>
<g>
	<rect x="56.5" y="56.5" class="st0" width="1035" height="1035"/>
	<rect x="56.5" y="56.5" width="195.8" height="28"/>
	<rect x="280.3" y="56.5" width="83.9" height="28"/>
	<rect x="392.2" y="56.5" width="111.9" height="28"/>
	<rect x="532" y="56.5" width="55.9" height="28"/>
	<rect x="671.9" y="56.5" width="28" height="83.9"/>
	<rect x="839.7" y="56.5" width="28" height="83.9"/>
	<rect x="895.7" y="56.5" width="195.8" height="28"/>
	<rect x="56.5" y="84.5" width="28" height="167.8"/>
	<rect x="224.3" y="84.5" width="28" height="167.8"/>
	<rect x="280.3" y="84.5" width="28" height="55.9"/>
	<rect x="336.2" y="84.5" width="55.9" height="28"/>
	<rect x="560" y="84.5" width="28" height="83.9"/>
	<rect x="643.9" y="84.5" width="28" height="83.9"/>
	<rect x="699.9" y="84.5" width="55.9" height="28"/>
	<rect x="783.8" y="84.5" width="55.9" height="28"/>
	<rect x="895.7" y="84.5" width="28" height="167.8"/>
	<rect x="1063.5" y="84.5" width="28" height="167.8"/>
	<rect x="112.4" y="112.4" width="83.9" height="83.9"/>
	<rect x="308.3" y="112.4" width="28" height="55.9"/>
	<rect x="420.1" y="112.4" width="28" height="83.9"/>
	<rect x="532" y="112.4" width="28" height="111.9"/>
	<rect x="588" y="112.4" width="28" height="28"/>
	<rect x="727.9" y="112.4" width="28" height="28"/>
	<rect x="951.6" y="112.4" width="83.9" height="83.9"/>
	<rect x="336.2" y="140.4" width="28" height="111.9"/>
	<rect x="476.1" y="140.4" width="28" height="83.9"/>
	<rect x="616" y="140.4" width="28" height="55.9"/>
	<rect x="699.9" y="140.4" width="28" height="28"/>
	<rect x="755.8" y="140.4" width="55.9" height="28"/>
	<rect x="392.2" y="168.4" width="28" height="28"/>
	<rect x="448.1" y="168.4" width="28" height="28"/>
	<rect x="504.1" y="168.4" width="28" height="28"/>
	<rect x="280.3" y="196.4" width="55.9" height="28"/>
	<rect x="364.2" y="196.4" width="28" height="28"/>
	<rect x="588" y="196.4" width="28" height="28"/>
	<rect x="699.9" y="196.4" width="55.9" height="28"/>
	<rect x="811.8" y="196.4" width="55.9" height="28"/>
	<rect x="84.5" y="224.3" width="139.9" height="28"/>
	<rect x="280.3" y="224.3" width="28" height="83.9"/>
	<rect x="392.2" y="224.3" width="28" height="83.9"/>
	<rect x="448.1" y="224.3" width="28" height="55.9"/>
	<rect x="504.1" y="224.3" width="28" height="55.9"/>
	<rect x="560" y="224.3" width="28" height="55.9"/>
	<rect x="616" y="224.3" width="28" height="111.9"/>
	<rect x="671.9" y="224.3" width="28" height="83.9"/>
	<rect x="727.9" y="224.3" width="28" height="28"/>
	<rect x="783.8" y="224.3" width="28" height="55.9"/>
	<rect x="839.7" y="224.3" width="28" height="55.9"/>
	<rect x="923.7" y="224.3" width="139.9" height="28"/>
	<rect x="308.3" y="252.3" width="28" height="28"/>
	<rect x="364.2" y="252.3" width="28" height="83.9"/>
	<rect x="420.1" y="252.3" width="28" height="28"/>
	<rect x="476.1" y="252.3" width="28" height="28"/>
	<rect x="532" y="252.3" width="28" height="139.9"/>
	<rect x="643.9" y="252.3" width="28" height="83.9"/>
	<rect x="699.9" y="252.3" width="28" height="55.9"/>
	<rect x="112.4" y="280.3" width="83.9" height="55.9"/>
	<rect x="224.3" y="280.3" width="28" height="28"/>
	<rect x="336.2" y="280.3" width="28" height="55.9"/>
	<rect x="588" y="280.3" width="28" height="83.9"/>
	<rect x="727.9" y="280.3" width="28" height="55.9"/>
	<rect x="867.7" y="280.3" width="83.9" height="28"/>
	<rect x="1007.6" y="280.3" width="83.9" height="28"/>
	<rect x="56.5" y="308.3" width="28" height="28"/>
	<rect x="196.4" y="308.3" width="28" height="55.9"/>
	<rect x="252.3" y="308.3" width="28" height="28"/>
	<rect x="560" y="308.3" width="28" height="28"/>
	<rect x="755.8" y="308.3" width="167.8" height="28"/>
	<rect x="979.6" y="308.3" width="28" height="28"/>
	<rect x="1035.6" y="308.3" width="28" height="55.9"/>
	<rect x="140.4" y="336.2" width="28" height="28"/>
	<rect x="224.3" y="336.2" width="28" height="28"/>
	<rect x="308.3" y="336.2" width="28" height="55.9"/>
	<rect x="392.2" y="336.2" width="28" height="55.9"/>
	<rect x="448.1" y="336.2" width="83.9" height="28"/>
	<rect x="755.8" y="336.2" width="55.9" height="28"/>
	<rect x="895.7" y="336.2" width="55.9" height="28"/>
	<rect x="1063.5" y="336.2" width="28" height="55.9"/>
	<rect x="84.5" y="364.2" width="55.9" height="28"/>
	<rect x="168.4" y="364.2" width="28" height="55.9"/>
	<rect x="252.3" y="364.2" width="28" height="28"/>
	<rect x="336.2" y="364.2" width="28" height="55.9"/>
	<rect x="476.1" y="364.2" width="55.9" height="28"/>
	<rect x="616" y="364.2" width="28" height="28"/>
	<rect x="727.9" y="364.2" width="28" height="28"/>
	<rect x="783.8" y="364.2" width="28" height="55.9"/>
	<rect x="839.7" y="364.2" width="28" height="111.9"/>
	<rect x="895.7" y="364.2" width="28" height="55.9"/>
	<rect x="979.6" y="364.2" width="28" height="28"/>
	<rect x="56.5" y="392.2" width="28" height="83.9"/>
	<rect x="112.4" y="392.2" width="28" height="28"/>
	<rect x="196.4" y="392.2" width="55.9" height="28"/>
	<rect x="280.3" y="392.2" width="28" height="28"/>
	<rect x="420.1" y="392.2" width="28" height="28"/>
	<rect x="504.1" y="392.2" width="28" height="28"/>
	<rect x="560" y="392.2" width="28" height="28"/>
	<rect x="643.9" y="392.2" width="83.9" height="28"/>
	<rect x="755.8" y="392.2" width="28" height="28"/>
	<rect x="867.7" y="392.2" width="28" height="55.9"/>
	<rect x="951.6" y="392.2" width="28" height="28"/>
	<rect x="1007.6" y="392.2" width="55.9" height="28"/>
	<rect x="140.4" y="420.1" width="28" height="28"/>
	<rect x="196.4" y="420.1" width="28" height="28"/>
	<rect x="308.3" y="420.1" width="28" height="55.9"/>
	<rect x="448.1" y="420.1" width="28" height="28"/>
	<rect x="532" y="420.1" width="28" height="28"/>
	<rect x="588" y="420.1" width="28" height="28"/>
	<rect x="643.9" y="420.1" width="28" height="195.8"/>
	<rect x="727.9" y="420.1" width="28" height="28"/>
	<rect x="923.7" y="420.1" width="28" height="28"/>
	<rect x="979.6" y="420.1" width="55.9" height="28"/>
	<rect x="168.4" y="448.1" width="28" height="28"/>
	<rect x="224.3" y="448.1" width="55.9" height="28"/>
	<rect x="336.2" y="448.1" width="55.9" height="28"/>
	<rect x="420.1" y="448.1" width="28" height="83.9"/>
	<rect x="476.1" y="448.1" width="55.9" height="28"/>
	<rect x="560" y="448.1" width="28" height="28"/>
	<rect x="699.9" y="448.1" width="28" height="111.9"/>
	<rect x="811.8" y="448.1" width="28" height="55.9"/>
	<rect x="895.7" y="448.1" width="28" height="28"/>
	<rect x="979.6" y="448.1" width="28" height="28"/>
	<rect x="1063.5" y="448.1" width="28" height="28"/>
	<rect x="140.4" y="476.1" width="28" height="28"/>
	<rect x="196.4" y="476.1" width="28" height="28"/>
	<rect x="252.3" y="476.1" width="55.9" height="28"/>
	<rect x="476.1" y="476.1" width="28" height="55.9"/>
	<rect x="532" y="476.1" width="28" height="28"/>
	<rect x="588" y="476.1" width="28" height="55.9"/>
	<rect x="727.9" y="476.1" width="28" height="111.9"/>
	<rect x="783.8" y="476.1" width="28" height="83.9"/>
	<rect x="923.7" y="476.1" width="28" height="111.9"/>
	<rect x="1035.6" y="476.1" width="28" height="28"/>
	<rect x="84.5" y="504.1" width="55.9" height="28"/>
	<rect x="168.4" y="504.1" width="28" height="28"/>
	<rect x="224.3" y="504.1" width="28" height="28"/>
	<rect x="280.3" y="504.1" width="139.9" height="28"/>
	<rect x="560" y="504.1" width="28" height="111.9"/>
	<rect x="616" y="504.1" width="28" height="167.8"/>
	<rect x="755.8" y="504.1" width="28" height="28"/>
	<rect x="867.7" y="504.1" width="55.9" height="28"/>
	<rect x="951.6" y="504.1" width="28" height="28"/>
	<rect x="1007.6" y="504.1" width="28" height="83.9"/>
	<rect x="1063.5" y="504.1" width="28" height="28"/>
	<rect x="56.5" y="532" width="28" height="28"/>
	<rect x="140.4" y="532" width="28" height="55.9"/>
	<rect x="252.3" y="532" width="28" height="55.9"/>
	<rect x="308.3" y="532" width="28" height="28"/>
	<rect x="364.2" y="532" width="55.9" height="28"/>
	<rect x="448.1" y="532" width="28" height="28"/>
	<rect x="112.4" y="560" width="28" height="83.9"/>
	<rect x="196.4" y="560" width="55.9" height="28"/>
	<rect x="280.3" y="560" width="28" height="28"/>
	<rect x="364.2" y="560" width="28" height="28"/>
	<rect x="420.1" y="560" width="28" height="83.9"/>
	<rect x="476.1" y="560" width="28" height="28"/>
	<rect x="532" y="560" width="28" height="28"/>
	<rect x="588" y="560" width="28" height="28"/>
	<rect x="671.9" y="560" width="28" height="55.9"/>
	<rect x="811.8" y="560" width="55.9" height="28"/>
	<rect x="979.6" y="560" width="28" height="28"/>
	<rect x="1035.6" y="560" width="55.9" height="28"/>
	<rect x="84.5" y="588" width="28" height="55.9"/>
	<rect x="196.4" y="588" width="28" height="28"/>
	<rect x="308.3" y="588" width="28" height="111.9"/>
	<rect x="448.1" y="588" width="28" height="111.9"/>
	<rect x="504.1" y="588" width="28" height="28"/>
	<rect x="699.9" y="588" width="28" height="28"/>
	<rect x="783.8" y="588" width="28" height="55.9"/>
	<rect x="867.7" y="588" width="55.9" height="55.9"/>
	<rect x="1035.6" y="588" width="28" height="28"/>
	<rect x="56.5" y="616" width="28" height="28"/>
	<rect x="140.4" y="616" width="28" height="28"/>
	<rect x="224.3" y="616" width="28" height="28"/>
	<rect x="280.3" y="616" width="28" height="139.9"/>
	<rect x="336.2" y="616" width="83.9" height="28"/>
	<rect x="532" y="616" width="28" height="28"/>
	<rect x="727.9" y="616" width="55.9" height="55.9"/>
	<rect x="811.8" y="616" width="28" height="28"/>
	<rect x="923.7" y="616" width="111.9" height="28"/>
	<rect x="1063.5" y="616" width="28" height="28"/>
	<rect x="168.4" y="643.9" width="28" height="139.9"/>
	<rect x="252.3" y="643.9" width="28" height="139.9"/>
	<rect x="336.2" y="643.9" width="28" height="28"/>
	<rect x="392.2" y="643.9" width="28" height="55.9"/>
	<rect x="476.1" y="643.9" width="55.9" height="28"/>
	<rect x="588" y="643.9" width="28" height="28"/>
	<rect x="643.9" y="643.9" width="28" height="139.9"/>
	<rect x="923.7" y="643.9" width="28" height="28"/>
	<rect x="979.6" y="643.9" width="83.9" height="28"/>
	<rect x="56.5" y="671.9" width="28" height="55.9"/>
	<rect x="140.4" y="671.9" width="28" height="111.9"/>
	<rect x="196.4" y="671.9" width="55.9" height="28"/>
	<rect x="532" y="671.9" width="55.9" height="28"/>
	<rect x="671.9" y="671.9" width="28" height="83.9"/>
	<rect x="755.8" y="671.9" width="83.9" height="28"/>
	<rect x="867.7" y="671.9" width="28" height="28"/>
	<rect x="1035.6" y="671.9" width="55.9" height="28"/>
	<rect x="84.5" y="699.9" width="28" height="55.9"/>
	<rect x="420.1" y="699.9" width="28" height="55.9"/>
	<rect x="560" y="699.9" width="28" height="28"/>
	<rect x="616" y="699.9" width="28" height="28"/>
	<rect x="699.9" y="699.9" width="28" height="28"/>
	<rect x="755.8" y="699.9" width="28" height="28"/>
	<rect x="923.7" y="699.9" width="28" height="28"/>
	<rect x="979.6" y="699.9" width="28" height="167.8"/>
	<rect x="1063.5" y="699.9" width="28" height="55.9"/>
	<rect x="112.4" y="727.9" width="28" height="83.9"/>
	<rect x="224.3" y="727.9" width="28" height="28"/>
	<rect x="308.3" y="727.9" width="111.9" height="28"/>
	<rect x="588" y="727.9" width="28" height="28"/>
	<rect x="727.9" y="727.9" width="28" height="28"/>
	<rect x="783.8" y="727.9" width="28" height="28"/>
	<rect x="839.7" y="727.9" width="55.9" height="28"/>
	<rect x="1007.6" y="727.9" width="55.9" height="28"/>
	<rect x="56.5" y="755.8" width="28" height="111.9"/>
	<rect x="196.4" y="755.8" width="28" height="111.9"/>
	<rect x="308.3" y="755.8" width="28" height="55.9"/>
	<rect x="392.2" y="755.8" width="28" height="55.9"/>
	<rect x="476.1" y="755.8" width="28" height="55.9"/>
	<rect x="755.8" y="755.8" width="28" height="55.9"/>
	<rect x="811.8" y="755.8" width="28" height="139.9"/>
	<rect x="895.7" y="755.8" width="83.9" height="28"/>
	<rect x="224.3" y="783.8" width="28" height="28"/>
	<rect x="280.3" y="783.8" width="28" height="28"/>
	<rect x="364.2" y="783.8" width="28" height="28"/>
	<rect x="420.1" y="783.8" width="55.9" height="111.9"/>
	<rect x="504.1" y="783.8" width="55.9" height="28"/>
	<rect x="671.9" y="783.8" width="83.9" height="28"/>
	<rect x="839.7" y="783.8" width="28" height="28"/>
	<rect x="895.7" y="783.8" width="28" height="28"/>
	<rect x="951.6" y="783.8" width="28" height="223.8"/>
	<rect x="1035.6" y="783.8" width="55.9" height="28"/>
	<rect x="252.3" y="811.8" width="28" height="55.9"/>
	<rect x="336.2" y="811.8" width="28" height="28"/>
	<rect x="560" y="811.8" width="55.9" height="28"/>
	<rect x="671.9" y="811.8" width="55.9" height="83.9"/>
	<rect x="783.8" y="811.8" width="28" height="83.9"/>
	<rect x="867.7" y="811.8" width="28" height="55.9"/>
	<rect x="923.7" y="811.8" width="28" height="55.9"/>
	<rect x="1063.5" y="811.8" width="28" height="55.9"/>
	<rect x="168.4" y="839.7" width="28" height="28"/>
	<rect x="224.3" y="839.7" width="28" height="28"/>
	<rect x="364.2" y="839.7" width="28" height="28"/>
	<rect x="504.1" y="839.7" width="28" height="28"/>
	<rect x="588" y="839.7" width="83.9" height="28"/>
	<rect x="727.9" y="839.7" width="55.9" height="28"/>
	<rect x="839.7" y="839.7" width="28" height="167.8"/>
	<rect x="895.7" y="839.7" width="28" height="28"/>
	<rect x="280.3" y="867.7" width="28" height="28"/>
	<rect x="336.2" y="867.7" width="28" height="28"/>
	<rect x="392.2" y="867.7" width="28" height="28"/>
	<rect x="560" y="867.7" width="28" height="28"/>
	<rect x="616" y="867.7" width="55.9" height="28"/>
	<rect x="56.5" y="895.7" width="195.8" height="28"/>
	<rect x="308.3" y="895.7" width="28" height="139.9"/>
	<rect x="448.1" y="895.7" width="28" height="55.9"/>
	<rect x="504.1" y="895.7" width="28" height="55.9"/>
	<rect x="588" y="895.7" width="28" height="28"/>
	<rect x="895.7" y="895.7" width="28" height="28"/>
	<rect x="979.6" y="895.7" width="28" height="28"/>
	<rect x="1035.6" y="895.7" width="55.9" height="28"/>
	<rect x="56.5" y="923.7" width="28" height="167.8"/>
	<rect x="224.3" y="923.7" width="28" height="167.8"/>
	<rect x="364.2" y="923.7" width="28" height="28"/>
	<rect x="476.1" y="923.7" width="28" height="28"/>
	<rect x="560" y="923.7" width="28" height="28"/>
	<rect x="616" y="923.7" width="28" height="28"/>
	<rect x="671.9" y="923.7" width="28" height="28"/>
	<rect x="1063.5" y="923.7" width="28" height="55.9"/>
	<rect x="112.4" y="951.6" width="83.9" height="83.9"/>
	<rect x="280.3" y="951.6" width="28" height="83.9"/>
	<rect x="392.2" y="951.6" width="28" height="139.9"/>
	<rect x="532" y="951.6" width="28" height="28"/>
	<rect x="699.9" y="951.6" width="28" height="28"/>
	<rect x="755.8" y="951.6" width="83.9" height="28"/>
	<rect x="867.7" y="951.6" width="83.9" height="28"/>
	<rect x="1007.6" y="951.6" width="55.9" height="28"/>
	<rect x="364.2" y="979.6" width="28" height="55.9"/>
	<rect x="420.1" y="979.6" width="55.9" height="28"/>
	<rect x="504.1" y="979.6" width="28" height="83.9"/>
	<rect x="643.9" y="979.6" width="55.9" height="28"/>
	<rect x="727.9" y="979.6" width="83.9" height="28"/>
	<rect x="895.7" y="979.6" width="28" height="28"/>
	<rect x="979.6" y="979.6" width="28" height="28"/>
	<rect x="336.2" y="1007.6" width="28" height="55.9"/>
	<rect x="532" y="1007.6" width="139.9" height="28"/>
	<rect x="783.8" y="1007.6" width="28" height="28"/>
	<rect x="867.7" y="1007.6" width="28" height="55.9"/>
	<rect x="923.7" y="1007.6" width="28" height="83.9"/>
	<rect x="1007.6" y="1007.6" width="28" height="28"/>
	<rect x="1063.5" y="1007.6" width="28" height="83.9"/>
	<rect x="420.1" y="1035.6" width="83.9" height="55.9"/>
	<rect x="532" y="1035.6" width="28" height="28"/>
	<rect x="643.9" y="1035.6" width="28" height="55.9"/>
	<rect x="727.9" y="1035.6" width="28" height="55.9"/>
	<rect x="839.7" y="1035.6" width="28" height="28"/>
	<rect x="895.7" y="1035.6" width="28" height="55.9"/>
	<rect x="84.5" y="1063.5" width="139.9" height="28"/>
	<rect x="308.3" y="1063.5" width="28" height="28"/>
	<rect x="588" y="1063.5" width="28" height="28"/>
	<rect x="755.8" y="1063.5" width="28" height="28"/>
	<rect x="951.6" y="1063.5" width="111.9" height="28"/>
</g>
</svg>
