<?xml version="1.0" encoding="utf-8"?>
<!-- Generator: Adobe Illustrator 24.1.0, SVG Export Plug-In . SVG Version: 6.00 Build 0)  -->
<svg version="1.1" id="Layer_1" xmlns="http://www.w3.org/2000/svg" xmlns:xlink="http://www.w3.org/1999/xlink" x="0px" y="0px"
	 viewBox="0 0 55 55" style="enable-background:new 0 0 55 55;" xml:space="preserve">
<style type="text/css">
	.st0{fill:none;}
	.st1{fill:none;stroke:#F0C0C2;stroke-width:2;stroke-linecap:round;stroke-linejoin:round;stroke-miterlimit:10;}
	.st2{fill:#F08B8F;stroke:#FFFFFF;stroke-linecap:round;stroke-linejoin:round;stroke-miterlimit:10;}
</style>
<g id="Group_3617" transform="translate(-625 -1221)">
	<g id="Symbol_350_30" transform="translate(433 -1)">
		<rect id="Rectangle_2707" x="192" y="1222" class="st0" width="55" height="55"/>
	</g>
	<g id="Group_3385" transform="translate(634 1228)">
		<g id="Group_2344" transform="translate(0 0)">
			<path id="Path_1530" class="st1" d="M33.2,6.4C29,9.3,24.1,10.8,19,10.7C13.9,10.8,9,9.3,4.8,6.4"/>
			<path id="Path_1531" class="st1" d="M5.2,31.9c4.1-2.7,8.8-4.1,13.7-3.9c4.9-0.1,9.6,1.3,13.7,3.9"/>
			<ellipse id="Ellipse_140" class="st1" cx="18.9" cy="18.9" rx="10.1" ry="18.9"/>
			<line id="Line_1210" class="st1" x1="0" y1="18.9" x2="37.9" y2="18.9"/>
			<ellipse id="Ellipse_141" class="st1" cx="18.9" cy="18.9" rx="18.9" ry="18.9"/>
		</g>
		<path id="Path_1532" class="st2" d="M25.2,23.3l0.7,15.4l3.9-3.6c0.3-0.1,0.6-0.1,0.8,0.1l3.7,5.3l3.6-2.4l-3.7-5.3
			c-0.1-0.3-0.1-0.6,0.1-0.8l5.4-2.4L25.2,23.3z"/>
	</g>
</g>
</svg>
