<svg width="101" height="101" viewBox="0 0 101 101" fill="none" xmlns="http://www.w3.org/2000/svg">
<path d="M9.3335 29.2049V72.8792C9.3335 76.7636 12.4822 79.9123 16.3666 79.9123H83.366C87.2505 79.9123 90.3991 76.7636 90.3991 72.8792V29.2049C90.3991 25.3613 87.2839 22.2461 83.4404 22.2461H16.2923C12.4487 22.2461 9.3335 25.3613 9.3335 29.2049Z" fill="#E5F5F9"/>
<path d="M66.2176 89.2971L49.8667 93.023L33.5146 89.2971L35.7548 79.9131L49.1725 74.9795L63.9775 79.9131L64.7021 82.9509L66.2176 89.2971Z" fill="#2D303B"/>
<path d="M90.3991 72.0513V72.8787C90.3991 76.7631 87.2492 79.913 83.3648 79.913H16.366C12.4815 79.913 9.3335 76.7631 9.3335 72.8787V72.0513H90.3991Z" fill="#3C3F4D"/>
<path d="M75.8549 94.5215V96.7499H23.8804V94.5215C23.8804 91.6361 26.2196 89.2969 29.105 89.2969H70.6303C73.5157 89.2969 75.8549 91.6361 75.8549 94.5215Z" fill="#2D303B"/>
<path d="M66.2177 89.2969H41.208L42.7235 82.9507H64.7022L66.2177 89.2969Z" fill="#3C3F4D"/>
<path d="M75.8546 94.5215V96.7499H32.812V94.5215C32.812 91.6361 35.1512 89.2969 38.0385 89.2969H70.63C73.5154 89.2969 75.8546 91.6361 75.8546 94.5215Z" fill="#3C3F4D"/>
<path d="M23.3335 7.75C23.3335 7.19772 23.7812 6.75 24.3335 6.75H73.3335C73.8858 6.75 74.3335 7.19772 74.3335 7.75V70.75C74.3335 71.3023 73.8858 71.75 73.3335 71.75H24.3335C23.7812 71.75 23.3335 71.3023 23.3335 70.75V7.75Z" fill="#24272B" fill-opacity="0.1"/>
<path d="M25.3335 8.75C25.3335 8.19772 25.7812 7.75 26.3335 7.75H75.3335C75.8858 7.75 76.3335 8.19772 76.3335 8.75V70.75C76.3335 71.3023 75.8858 71.75 75.3335 71.75H26.3335C25.7812 71.75 25.3335 71.3023 25.3335 70.75V8.75Z" fill="white"/>
<path fill-rule="evenodd" clip-rule="evenodd" d="M36.121 39.2784C35.6861 39.2784 35.3335 38.8151 35.3335 38.2436C35.3335 37.6721 35.6861 37.2088 36.121 37.2088H65.546C65.9809 37.2088 66.3335 37.6721 66.3335 38.2436C66.3335 38.8151 65.9809 39.2784 65.546 39.2784H36.121ZM36.121 30.8196C35.6861 30.8196 35.3335 30.3563 35.3335 29.7848C35.3335 29.2133 35.6861 28.75 36.121 28.75H65.546C65.9809 28.75 66.3335 29.2133 66.3335 29.7848C66.3335 30.3563 65.9809 30.8196 65.546 30.8196H36.121ZM36.121 47.75C35.6861 47.75 35.3335 47.2867 35.3335 46.7152C35.3335 46.1437 35.6861 45.6804 36.121 45.6804H44.5124C44.9474 45.6804 45.3 46.1437 45.3 46.7152C45.3 47.2867 44.9474 47.75 44.5124 47.75H36.121Z" fill="#24272B"/>
<rect x="65.5547" y="48.8604" width="16.6667" height="16.6667" fill="white"/>
<path d="M66.3335 67.75H80.3335C81.1284 67.7477 81.8901 67.4309 82.4522 66.8688C83.0144 66.3066 83.3312 65.5449 83.3335 64.75V50.75C83.3312 49.9551 83.0144 49.1934 82.4522 48.6312C81.8901 48.0691 81.1284 47.7523 80.3335 47.75H66.3335C65.5386 47.7523 64.7769 48.0691 64.2147 48.6312C63.6526 49.1934 63.3358 49.9551 63.3335 50.75V64.75C63.3358 65.5449 63.6526 66.3066 64.2147 66.8688C64.7769 67.4309 65.5386 67.7477 66.3335 67.75ZM69.1235 57.04L72.2935 60.22L77.4435 53.16C77.6025 52.9518 77.8366 52.8142 78.0957 52.7765C78.3549 52.7388 78.6185 52.804 78.8302 52.9582C79.0419 53.1124 79.1848 53.3433 79.2284 53.6015C79.272 53.8598 79.2128 54.1248 79.0635 54.34L73.2235 62.34C73.1377 62.4563 73.0279 62.5529 72.9015 62.6231C72.7751 62.6933 72.635 62.7355 72.4909 62.7469C72.3468 62.7583 72.2019 62.7385 72.066 62.689C71.9302 62.6395 71.8065 62.5614 71.7035 62.46L67.7035 58.46C67.5225 58.2702 67.4229 58.0171 67.426 57.7549C67.429 57.4926 67.5346 57.242 67.72 57.0565C67.9055 56.8711 68.1561 56.7655 68.4184 56.7624C68.6806 56.7593 68.9337 56.8589 69.1235 57.04Z" fill="#00BFB3"/>
</svg>
