<svg width="100" height="101" viewBox="0 0 100 101" fill="none" xmlns="http://www.w3.org/2000/svg">
<path fill-rule="evenodd" clip-rule="evenodd" d="M81.921 28.392L81.9214 28.3887H76.902L72.1104 48.4666H71.522L68.832 58.5055H91.4196C92.8057 58.5055 94.2305 57.3819 94.6018 55.9958L94.602 55.9957L96.6194 48.4665H96.62L96.9116 47.3778C97.1477 46.4961 96.9041 45.6792 96.2698 45.2257L92.0268 42.1922L87.1954 39.0449L91.9848 33.4081L91.9697 30.238C91.9644 29.1462 91.1757 28.3887 90.0439 28.3887H81.9219L81.921 28.392Z" fill="#FFBC50"/>
<path fill-rule="evenodd" clip-rule="evenodd" d="M78.829 25.8789H67.9641L67.9634 25.879H43.6929C42.9997 25.879 42.2874 26.4408 42.1017 27.1339L34.0319 57.2507C33.8462 57.9437 34.2575 58.5056 34.9505 58.5056H71.3414L72.0139 55.9958H72.0117L72.014 55.9957L79.7475 27.1338C79.9333 26.4408 79.5219 25.8789 78.829 25.8789Z" fill="#4383FF"/>
<path d="M88.098 61.8027C90.4838 59.7148 91.122 56.5415 89.5236 54.7151C87.9252 52.8887 84.6954 53.1007 82.3096 55.1887C79.9238 57.2766 79.2855 60.4498 80.8839 62.2763C82.4824 64.1027 85.7122 63.8907 88.098 61.8027Z" fill="#24272B"/>
<path d="M86.6519 60.1493C87.8448 59.1053 88.1639 57.5187 87.3646 56.6054C86.5654 55.6922 84.9505 55.7982 83.7576 56.8421C82.5647 57.8861 82.2456 59.4727 83.0448 60.386C83.844 61.2992 85.459 61.1933 86.6519 60.1493Z" fill="#DAD8DB"/>
<path d="M49.182 61.8227C51.5677 59.7348 52.206 56.5615 50.6076 54.7351C49.0092 52.9087 45.7794 53.1207 43.3936 55.2087C41.0078 57.2966 40.3695 60.4699 41.9679 62.2963C43.5663 64.1227 46.7962 63.9107 49.182 61.8227Z" fill="#24272B"/>
<path d="M47.7349 60.1693C48.9278 59.1253 49.2469 57.5387 48.4477 56.6254C47.6484 55.7122 46.0335 55.8182 44.8406 56.8622C43.6477 57.9061 43.3286 59.4928 44.1278 60.406C44.9271 61.3193 46.542 61.2133 47.7349 60.1693Z" fill="#DAD8DB"/>
<path fill-rule="evenodd" clip-rule="evenodd" d="M85.596 33.4083L85.596 33.4082C84.2099 33.4082 82.7852 34.5318 82.4138 35.9179L81.4051 39.6825C81.0337 41.0686 81.8563 42.1923 83.2424 42.1923H92.0264L92.0144 39.6851L92.0264 39.6825L91.9844 33.4082H85.5961L85.596 33.4083Z" fill="white"/>
<path d="M82.0518 21.55H73.0519C72.5544 21.55 72.1519 21.147 72.1519 20.65C72.1519 20.153 72.5544 19.75 73.0519 19.75H82.0518C82.5493 19.75 82.9518 20.153 82.9518 20.65C82.9518 21.147 82.5493 21.55 82.0518 21.55Z" fill="url(#paint0_linear_1790_128964)"/>
<path d="M76.3 25.1359H70.9C70.4025 25.1359 70 24.7329 70 24.2359C70 23.7389 70.4025 23.3359 70.9 23.3359H76.3C76.7974 23.3359 77.2 23.7389 77.2 24.2359C77.2 24.7329 76.7974 25.1359 76.3 25.1359Z" fill="url(#paint1_linear_1790_128964)"/>
<path d="M80.2508 28.7502H78.4508C77.9533 28.7502 77.5508 28.3472 77.5508 27.8502C77.5508 27.3532 77.9533 26.9502 78.4508 26.9502H80.2508C80.7482 26.9502 81.1508 27.3532 81.1508 27.8502C81.1508 28.3472 80.7482 28.7502 80.2508 28.7502Z" fill="url(#paint2_linear_1790_128964)"/>
<path d="M71.9903 61.2936L63.5866 52.8899L48.7635 43.0078H33.9404L19.1173 52.8899L10.7136 61.2936C9.85325 62.1539 9.17082 63.1752 8.70522 64.2993C8.23963 65.4233 8 66.628 8 67.8447V75.4333C8 76.6618 8.48804 77.8401 9.35674 78.7088C10.2255 79.5775 11.4037 80.0655 12.6322 80.0655H16.6468L17.8821 78.8303H64.8218L66.0571 80.0655H70.0716C71.3002 80.0655 72.4784 79.5775 73.3471 78.7088C74.2158 77.8401 74.7039 76.6618 74.7039 75.4333V67.8447C74.7039 66.628 74.4642 65.4233 73.9986 64.2993C73.533 63.1752 72.8506 62.1539 71.9903 61.2936Z" fill="#F73427"/>
<path d="M66.0571 71.748H69.7629V74.2186H66.0571V71.748Z" fill="#C4180C"/>
<path d="M12.9409 71.748H16.6467V74.2186H12.9409V71.748Z" fill="#C4180C"/>
<path d="M21.588 71.748H16.647V80.3948H30.2348C30.2348 78.1016 29.3238 75.9022 27.7022 74.2806C26.0806 72.659 23.8813 71.748 21.588 71.748Z" fill="#FFD4CF"/>
<path d="M61.116 71.748H66.0571V80.3948H52.4692C52.4692 78.1016 53.3802 75.9022 55.0018 74.2806C56.6234 72.659 58.8228 71.748 61.116 71.748Z" fill="#FFD4CF"/>
<path d="M48.763 43.3374L41.3515 50.749L33.9399 43.3374L35.1752 37.1611H47.5278L48.763 43.3374Z" fill="#FFD4CF"/>
<path d="M48.1351 40.2006L47.5272 37.1611H35.1746L34.5601 40.2338L38.8563 42.3818C39.6324 42.7699 40.4886 42.9708 41.3563 42.9686C42.2241 42.9664 43.0792 42.7611 43.8534 42.3691L48.1351 40.2006Z" fill="#FBB8B0"/>
<path d="M53.0863 23.5729H51.2335V18.6318H31.4693V23.5729H29.6165C28.7974 23.5729 28.012 23.8982 27.4328 24.4774C26.8537 25.0565 26.5283 25.842 26.5283 26.661V27.8963C26.5283 28.7153 26.8537 29.5008 27.4328 30.0799C28.012 30.659 28.7974 30.9844 29.6165 30.9844H31.4693V33.0626C31.4693 33.9228 31.7089 34.7661 32.1611 35.4979C32.6134 36.2296 33.2605 36.821 34.0299 37.2058L39.9617 40.1716C40.3929 40.3872 40.8685 40.4989 41.3506 40.4977C41.8327 40.4965 42.3077 40.3824 42.7378 40.1647L48.6941 37.1485C49.458 36.7616 50.0997 36.1706 50.5479 35.4411C50.9962 34.7115 51.2335 33.872 51.2335 33.0158V30.9844H53.0863C53.9054 30.9844 54.6908 30.659 55.27 30.0799C55.8491 29.5008 56.1745 28.7153 56.1745 27.8963V26.661C56.1745 25.842 55.8491 25.0565 55.27 24.4774C54.6908 23.8982 53.9054 23.5729 53.0863 23.5729Z" fill="#FFD4CF"/>
<path d="M37.9547 8.75H44.7486C46.7962 8.75 48.7599 9.56339 50.2078 11.0112C51.6556 12.4591 52.469 14.4228 52.469 16.4704V18.6321H30.2344V16.4704C30.2344 14.4228 31.0478 12.4591 32.4956 11.0112C33.9435 9.56339 35.9072 8.75 37.9547 8.75Z" fill="#F73427"/>
<path d="M47.6679 22.8426L44.7777 20.9158C43.7631 20.2394 42.571 19.8785 41.3517 19.8785C40.1323 19.8785 38.9403 20.2394 37.9257 20.9158L35.0355 22.8426C34.5704 23.1527 34.0299 23.3307 33.4716 23.3577C32.9133 23.3847 32.3582 23.2596 31.8654 22.9959C31.3725 22.7321 30.9605 22.3396 30.6733 21.8601C30.3861 21.3806 30.2344 20.8321 30.2344 20.2732V18.6318L35.3528 15.7882C37.1878 14.7688 39.2524 14.2339 41.3515 14.2339C43.4507 14.2339 45.5152 14.7688 47.3502 15.7882L52.469 18.6318V20.2732C52.469 20.8321 52.3173 21.3806 52.0301 21.8601C51.7428 22.3396 51.3308 22.7321 50.838 22.9959C50.3452 23.2596 49.79 23.3847 49.2317 23.3577C48.6734 23.3307 48.1329 23.1527 47.6679 22.8426Z" fill="#FFC72C"/>
<path d="M56.766 82.3825H27.8151C27.596 82.3825 27.4185 82.2049 27.4185 81.9859V46.6896C27.4185 46.4705 27.596 46.293 27.8151 46.293H56.766C56.9851 46.293 57.1626 46.4705 57.1626 46.6896V81.9859C57.1625 82.2049 56.985 82.3825 56.766 82.3825Z" fill="#E5F5F9"/>
<path d="M53.4823 79.0973H24.5314C24.3123 79.0973 24.1348 78.9198 24.1348 78.7007V43.4044C24.1349 43.1854 24.3124 43.0078 24.5314 43.0078H53.4823C53.7014 43.0078 53.8789 43.1854 53.8789 43.4044V78.7007C53.8789 78.9198 53.7014 79.0973 53.4823 79.0973Z" fill="white"/>
<path d="M45.4748 48.2923H48.8649C49.2636 48.2923 49.5867 47.9691 49.5867 47.5705C49.5867 47.1718 49.2636 46.8486 48.8649 46.8486H45.4747C45.076 46.8486 44.7529 47.1718 44.7529 47.5705C44.7529 47.9691 45.0761 48.2923 45.4748 48.2923Z" fill="#24272B"/>
<path d="M48.8646 49.8232H42.5192C42.1204 49.8232 41.7974 50.1464 41.7974 50.5451C41.7974 50.9437 42.1204 51.2669 42.5192 51.2669H48.8646C49.2634 51.2669 49.5864 50.9437 49.5864 50.5451C49.5864 50.1464 49.2634 49.8232 48.8646 49.8232Z" fill="#24272B"/>
<path d="M48.8646 52.7974H42.5192C42.1204 52.7974 41.7974 53.1205 41.7974 53.5192C41.7974 53.9178 42.1204 54.241 42.5192 54.241H48.8646C49.2634 54.241 49.5864 53.9178 49.5864 53.5192C49.5864 53.1205 49.2634 52.7974 48.8646 52.7974Z" fill="#24272B"/>
<path d="M59.1764 58.5421V91.8872C59.1764 92.1066 58.9993 92.2837 58.7799 92.2837H22.8892C22.6698 92.2837 22.4927 92.1066 22.4927 91.8872V86.4668L24.475 72.586L22.4927 58.7057V51.4356C22.4927 51.2161 22.6698 51.0381 22.8892 51.0381H37.5777C37.7336 51.0381 37.8751 51.1305 37.9386 51.2729L40.9231 57.9117C40.9876 58.0542 41.129 58.1456 41.285 58.1456H58.7799C58.9993 58.1456 59.1764 58.3227 59.1764 58.5421Z" fill="#FFC72C"/>
<path d="M49.9564 71.6262C49.9564 73.5419 49.0983 75.2822 47.7713 76.4626C46.6329 77.4753 40.3888 77.4661 39.2526 76.4626C37.9156 75.2818 37.0674 73.5503 37.0674 71.6262C37.0674 68.067 39.9527 65.1816 43.512 65.1816C47.0711 65.1816 49.9564 68.067 49.9564 71.6262Z" fill="#FFAB2C"/>
<path d="M43.5118 73.1696C44.826 73.1696 45.8913 72.1043 45.8913 70.7901C45.8913 69.476 44.826 68.4106 43.5118 68.4106C42.1977 68.4106 41.1323 69.476 41.1323 70.7901C41.1323 72.1043 42.1977 73.1696 43.5118 73.1696Z" fill="white"/>
<path d="M47.7712 76.4631C46.636 77.4635 45.1449 78.0713 43.5118 78.0713C41.8789 78.0713 40.3877 77.4635 39.2524 76.4631C39.7432 74.5694 41.4644 73.1704 43.5118 73.1704C45.5593 73.1704 47.2805 74.5694 47.7712 76.4631Z" fill="white"/>
<path d="M25.5851 86.5349H22.4927V58.6118H25.585C25.6914 58.6118 25.7777 58.7689 25.7777 58.9628V86.184C25.7777 86.3778 25.6915 86.5349 25.5851 86.5349Z" fill="url(#paint3_linear_1790_128964)"/>
<path d="M49.5512 86.68H37.4727C37.2488 86.68 37.0674 86.4986 37.0674 86.2747V83.7144C37.0674 83.4905 37.2488 83.3091 37.4727 83.3091H49.5512C49.775 83.3091 49.9564 83.4905 49.9564 83.7144V86.2747C49.9564 86.4985 49.775 86.68 49.5512 86.68Z" fill="#FFAB2C" fill-opacity="0.980392"/>
<path d="M58.989 58.3271H56.0146C56.2337 58.3271 56.4113 58.5047 56.4113 58.7238V92.069C56.4113 92.2881 56.2337 92.4657 56.0146 92.4657H58.989C59.2081 92.4657 59.3856 92.2881 59.3856 92.069V58.7238C59.3855 58.5047 59.2081 58.3271 58.989 58.3271Z" fill="#F15A38" fill-opacity="0.2"/>
<path d="M35.1722 51.4542L38.1563 58.093C38.2203 58.2353 38.3619 58.3269 38.5181 58.3269H41.4925C41.3364 58.3269 41.1947 58.2353 41.1307 58.093L38.1466 51.4542C38.0826 51.3117 37.941 51.2202 37.7849 51.2202H34.8105C34.9667 51.2202 35.1082 51.3117 35.1722 51.4542Z" fill="#F15A38" fill-opacity="0.2"/>
<path d="M21.588 71.748H16.647V80.3948H30.2348C30.2348 78.1016 29.3238 75.9022 27.7022 74.2806C26.0806 72.659 23.8813 71.748 21.588 71.748Z" fill="#FFD4CF"/>
<path d="M61.116 71.748H66.0571V80.3948H52.4692C52.4692 78.1016 53.3802 75.9022 55.0018 74.2806C56.6234 72.659 58.8228 71.748 61.116 71.748Z" fill="#FFD4CF"/>
<path d="M29.2271 38.9772C27.5512 38.7997 25.9018 38.4269 24.3125 37.8664C22.8545 37.3511 21.4557 36.6814 20.1401 35.8687C19.797 35.6586 19.4024 35.5474 19 35.5474C18.5976 35.5474 18.203 35.6586 17.8599 35.8687C16.5443 36.6815 15.1455 37.3512 13.6875 37.8664C12.0982 38.4269 10.4488 38.7997 8.77295 38.9772C8.23506 39.0325 7.73679 39.2853 7.37462 39.6868C7.01245 40.0883 6.81215 40.6099 6.8125 41.1507V47.6448C6.81336 50.041 7.45456 52.3935 8.66973 54.4588C9.88489 56.5241 11.6299 58.2271 13.7241 59.3916L17.9368 61.7317C18.2613 61.9137 18.6272 62.0093 18.9993 62.0094C19.3714 62.0095 19.7373 61.9141 20.062 61.7323L24.2759 59.3916C26.3701 58.2271 28.1151 56.5241 29.3303 54.4588C30.5454 52.3935 31.1866 50.041 31.1875 47.6448V41.1507C31.1879 40.6099 30.9876 40.0883 30.6254 39.6868C30.2632 39.2853 29.7649 39.0324 29.2271 38.9772Z" fill="#0DB561"/>
<path d="M29.2271 38.9772C27.5512 38.7997 25.9018 38.4269 24.3125 37.8664C22.8545 37.3511 21.4557 36.6814 20.1401 35.8687C19.797 35.6586 19.4024 35.5474 19 35.5474C18.5976 35.5474 18.203 35.6586 17.8599 35.8687C16.5443 36.6815 15.1455 37.3512 13.6875 37.8664C12.0982 38.4269 10.4488 38.7997 8.77295 38.9772C8.23506 39.0325 7.73679 39.2853 7.37462 39.6868C7.01245 40.0883 6.81215 40.6099 6.8125 41.1507V47.6448C6.81336 50.041 7.45456 52.3935 8.66973 54.4588C9.88489 56.5241 11.6299 58.2271 13.7241 59.3916L17.9368 61.7317C18.2613 61.9137 18.6272 62.0093 18.9993 62.0094C19.3714 62.0095 19.7373 61.9141 20.062 61.7323L24.2759 59.3916C26.3701 58.2271 28.1151 56.5241 29.3303 54.4588C30.5454 52.3935 31.1866 50.041 31.1875 47.6448V41.1507C31.1879 40.6099 30.9876 40.0883 30.6254 39.6868C30.2632 39.2853 29.7649 39.0324 29.2271 38.9772Z" fill="#00BFB3"/>
<path d="M18.1247 52.7919C17.7572 52.7923 17.4025 52.6572 17.1286 52.4122L13.5666 49.2464C13.4187 49.1157 13.2982 48.9572 13.2117 48.7799C13.1253 48.6026 13.0747 48.41 13.0628 48.213C13.0509 48.0161 13.078 47.8188 13.1425 47.6324C13.207 47.446 13.3077 47.2741 13.4387 47.1267C13.5697 46.9792 13.7286 46.859 13.9061 46.7731C14.0837 46.6871 14.2764 46.637 14.4734 46.6257C14.6703 46.6143 14.8676 46.642 15.0538 46.707C15.2401 46.772 15.4117 46.8731 15.5588 47.0046L18.0295 49.2L22.9684 43.932C23.2406 43.6424 23.6166 43.4726 24.0139 43.4598C24.4111 43.447 24.7972 43.5922 25.0876 43.8636C25.3778 44.1358 25.5481 44.5121 25.5612 44.9097C25.5742 45.3074 25.4289 45.694 25.1571 45.9846L19.2196 52.3182C19.0796 52.4683 18.91 52.5878 18.7216 52.6693C18.5332 52.7508 18.33 52.7925 18.1247 52.7919Z" fill="white"/>
<defs>
<linearGradient id="paint0_linear_1790_128964" x1="72.9891" y1="19.9651" x2="73.0797" y2="21.7817" gradientUnits="userSpaceOnUse">
<stop stop-color="#D6A2FF"/>
<stop offset="1" stop-color="#9331FF"/>
</linearGradient>
<linearGradient id="paint1_linear_1790_128964" x1="70.5581" y1="23.551" x2="70.6937" y2="25.362" gradientUnits="userSpaceOnUse">
<stop stop-color="#D6A2FF"/>
<stop offset="1" stop-color="#9331FF"/>
</linearGradient>
<linearGradient id="paint2_linear_1790_128964" x1="77.8298" y1="27.1652" x2="78.0965" y2="28.9465" gradientUnits="userSpaceOnUse">
<stop stop-color="#D6A2FF"/>
<stop offset="1" stop-color="#9331FF"/>
</linearGradient>
<linearGradient id="paint3_linear_1790_128964" x1="22.7473" y1="61.9479" x2="32.3645" y2="65.7272" gradientUnits="userSpaceOnUse">
<stop stop-color="#D6A2FF"/>
<stop offset="1" stop-color="#9331FF"/>
</linearGradient>
</defs>
</svg>
