<svg width="101" height="101" viewBox="0 0 101 101" fill="none" xmlns="http://www.w3.org/2000/svg">
<g clip-path="url(#clip0_1790_129044)">
<path d="M83.1182 17.0799H81.0301L60.1668 20.098L39.3035 17.0799H36.914C34.3376 17.0799 32.249 14.9913 32.249 12.4149C32.2489 9.83853 34.3376 7.75 36.914 7.75H83.1182C85.6946 7.75 87.7831 9.83853 87.7831 12.4149C87.7833 14.9913 85.6946 17.0799 83.1182 17.0799Z" fill="#615851"/>
<path d="M80.7285 22.9363V17.0801H39.3037V22.9363C39.3037 32.0208 45.1102 39.748 53.2143 42.6116C54.3328 43.0068 55.0807 44.0639 55.0807 45.25C55.0807 46.4363 54.3328 47.4934 53.2143 47.8885C45.1104 50.7521 39.3037 58.4793 39.3037 67.5638V73.42H80.7283V67.5638C80.7283 58.4793 74.9218 50.7521 66.8177 47.8885C65.6992 47.4933 64.9513 46.4362 64.9513 45.25H65.2531C65.2531 44.0638 65.6992 43.0068 66.8177 42.6116C74.9218 39.7482 80.7285 32.0208 80.7285 22.9363Z" fill="#EFEDEF"/>
<path d="M83.1182 82.7498H36.914C34.3376 82.7498 32.249 80.6613 32.249 78.0849C32.249 75.5085 34.3376 73.42 36.914 73.42H39.3039L60.1671 70.4019L81.0304 73.42H83.1185C85.6949 73.42 87.7834 75.5085 87.7834 78.0849C87.7833 80.6613 85.6946 82.7498 83.1182 82.7498Z" fill="#615851"/>
<path d="M70.2134 57.0533H68.016C65.8063 57.0533 63.6193 55.4547 63.2578 53.2749L62.3613 47.8675C61.905 45.1153 64.0279 42.6115 66.8177 42.6115C72.2314 40.6986 76.6166 36.6133 78.9337 31.4048H41.0981C43.4151 36.6134 47.8004 40.6986 53.2142 42.6115C56.004 42.6115 58.1269 45.1153 57.6706 47.8675L56.774 53.2749C56.4126 55.4547 54.5272 57.0533 52.3176 57.0533H49.8185C44.0578 57.0533 39.3351 61.6883 39.304 67.4488C39.3039 67.4872 39.3037 67.5255 39.3037 67.5638V73.42H80.7283V67.5638C80.7283 67.5255 80.7282 67.4872 80.728 67.4488C80.6968 61.6883 75.974 57.0533 70.2134 57.0533Z" fill="#FFC72C"/>
</g>
<rect x="3.66699" y="54.75" width="59.475" height="39" rx="5" fill="#4383FF"/>
<path d="M57.0753 79.8119V86.9259C57.0753 87.7039 56.4402 88.3359 55.654 88.3359H48.4887C47.7045 88.3359 47.0674 87.7059 47.0674 86.9259V79.8119C47.0674 79.0339 47.7025 78.4019 48.4887 78.4019H55.654C56.4402 78.4039 57.0753 79.0339 57.0753 79.8119Z" fill="#FFBC50"/>
<path d="M52.7421 78.4038H51.4014V88.3338H52.7421V78.4038Z" fill="#F49F16"/>
<path d="M52.1519 82.7017H47.0693V84.0317H52.1519V82.7017Z" fill="#F49F16"/>
<path d="M57.0748 80.376H51.9922V81.706H57.0748V80.376Z" fill="#F49F16"/>
<path d="M57.0748 85.0298H51.9922V86.3598H57.0748V85.0298Z" fill="#F49F16"/>
<rect x="7.69922" y="85.25" width="14.1127" height="2.5" rx="1.25" fill="white"/>
<rect x="7.69922" y="80.25" width="21.1691" height="2.5" rx="1.25" fill="white"/>
<rect x="3.66699" y="63.75" width="59.475" height="8" fill="#24272B"/>
<path d="M6.145 39.4653C5.906 39.2247 5.66699 38.8546 5.66699 38.4474C5.66699 37.7071 6.29208 37.0778 7.02749 37.0778C7.43196 37.0778 7.70773 37.2444 7.92835 37.4295C8.62699 38.0587 9.14177 38.3734 10.2816 38.3734C11.6605 38.3734 12.7085 37.5035 12.7085 36.5596C12.7085 35.5602 11.7524 35.0235 10.1897 35.0235H10.1346C9.4727 35.0235 9.105 34.6163 9.105 33.95C9.105 33.5614 9.28885 33.2468 9.73009 32.8951L13.0762 30.193H9.63816C8.9763 30.193 8.42475 29.6378 8.42475 28.9715C8.42475 28.3052 8.9763 27.75 9.63816 27.75H15.8523C16.6796 27.75 17.2863 28.1387 17.2863 28.916C17.2863 29.6193 16.8819 29.9524 16.3119 30.3966L12.8188 33.0802C14.4367 33.4688 15.5582 34.4127 15.5582 36.3005C15.5582 38.9101 13.2232 40.9274 10.1529 40.9274C8.2409 40.9274 6.97233 40.3167 6.145 39.4653Z" fill="white"/>
<path d="M6.145 39.4653C5.906 39.2247 5.66699 38.8546 5.66699 38.4474C5.66699 37.7071 6.29208 37.0778 7.02749 37.0778C7.43196 37.0778 7.70773 37.2444 7.92835 37.4295C8.62699 38.0587 9.14177 38.3734 10.2816 38.3734C11.6605 38.3734 12.7085 37.5035 12.7085 36.5596C12.7085 35.5602 11.7524 35.0235 10.1897 35.0235H10.1346C9.4727 35.0235 9.105 34.6163 9.105 33.95C9.105 33.5614 9.28885 33.2468 9.73009 32.8951L13.0762 30.193H9.63816C8.9763 30.193 8.42475 29.6378 8.42475 28.9715C8.42475 28.3052 8.9763 27.75 9.63816 27.75H15.8523C16.6796 27.75 17.2863 28.1387 17.2863 28.916C17.2863 29.6193 16.8819 29.9524 16.3119 30.3966L12.8188 33.0802C14.4367 33.4688 15.5582 34.4127 15.5582 36.3005C15.5582 38.9101 13.2232 40.9274 10.1529 40.9274C8.2409 40.9274 6.97233 40.3167 6.145 39.4653Z" fill="url(#paint0_linear_1790_129044)"/>
<path d="M22.4069 36.319H19.2079C18.4725 36.319 17.8658 35.7083 17.8658 34.968C17.8658 34.2277 18.4725 33.6169 19.2079 33.6169H22.4069C23.1423 33.6169 23.749 34.2277 23.749 34.968C23.749 35.7083 23.1423 36.319 22.4069 36.319Z" fill="white"/>
<path d="M22.4069 36.319H19.2079C18.4725 36.319 17.8658 35.7083 17.8658 34.968C17.8658 34.2277 18.4725 33.6169 19.2079 33.6169H22.4069C23.1423 33.6169 23.749 34.2277 23.749 34.968C23.749 35.7083 23.1423 36.319 22.4069 36.319Z" fill="url(#paint1_linear_1790_129044)"/>
<path d="M25.1483 39.5764C24.8357 39.3172 24.5783 38.9471 24.5783 38.4659C24.5783 37.7256 25.1483 37.1148 25.8837 37.1148C26.2514 37.1148 26.5088 37.2444 26.8397 37.5035C27.4648 38.0032 28.2553 38.3363 29.2114 38.3363C30.7373 38.3363 31.822 37.411 31.822 36.319C31.822 35.3936 31.0682 34.6533 29.5423 34.6533C28.8253 34.6533 28.4208 34.9124 28.0163 34.9124C27.667 34.9124 27.2625 34.7459 26.8765 34.4312C26.472 34.1166 26.3433 33.6539 26.4904 33.1912L27.9244 28.8419C28.145 28.1942 28.5495 27.75 29.2665 27.75H34.5798C35.26 27.75 35.83 28.3237 35.83 29.0085C35.83 29.6933 35.26 30.2485 34.5798 30.2485H30.149L29.4136 32.4509C29.8364 32.3584 30.2777 32.3029 30.7189 32.3029C33.0722 32.3029 34.7269 33.7465 34.7269 36.0044C34.7269 38.5769 32.4839 40.9089 28.9723 40.9089C27.6486 40.9089 26.1594 40.3907 25.1483 39.5764Z" fill="white"/>
<path d="M25.1483 39.5764C24.8357 39.3172 24.5783 38.9471 24.5783 38.4659C24.5783 37.7256 25.1483 37.1148 25.8837 37.1148C26.2514 37.1148 26.5088 37.2444 26.8397 37.5035C27.4648 38.0032 28.2553 38.3363 29.2114 38.3363C30.7373 38.3363 31.822 37.411 31.822 36.319C31.822 35.3936 31.0682 34.6533 29.5423 34.6533C28.8253 34.6533 28.4208 34.9124 28.0163 34.9124C27.667 34.9124 27.2625 34.7459 26.8765 34.4312C26.472 34.1166 26.3433 33.6539 26.4904 33.1912L27.9244 28.8419C28.145 28.1942 28.5495 27.75 29.2665 27.75H34.5798C35.26 27.75 35.83 28.3237 35.83 29.0085C35.83 29.6933 35.26 30.2485 34.5798 30.2485H30.149L29.4136 32.4509C29.8364 32.3584 30.2777 32.3029 30.7189 32.3029C33.0722 32.3029 34.7269 33.7465 34.7269 36.0044C34.7269 38.5769 32.4839 40.9089 28.9723 40.9089C27.6486 40.9089 26.1594 40.3907 25.1483 39.5764Z" fill="url(#paint2_linear_1790_129044)"/>
<path d="M26.6284 48.539C27.4606 48.539 28.2585 47.7012 28.2585 46.7339C28.2585 46.0688 27.7867 45.5851 27.1089 45.5851C26.2681 45.5851 25.5474 46.397 25.5474 47.4162C25.5474 48.1071 25.9763 48.539 26.6284 48.539ZM28.087 49.3854C27.7867 49.3854 27.6236 49.204 27.6322 48.9276L27.6837 48.7376C27.2719 49.1522 26.8257 49.4372 26.2337 49.4372C25.2299 49.4372 24.4663 48.6944 24.4663 47.4853C24.4663 45.8702 25.6932 44.6869 26.9888 44.6869C27.7867 44.6869 28.2414 45.0842 28.5159 45.5938L29.065 43.5123C29.1508 43.1841 29.3739 42.9941 29.6485 42.9941C29.9916 42.9941 30.1804 43.2446 30.0603 43.6678L28.6875 48.8672C28.6017 49.1954 28.3787 49.3854 28.087 49.3854Z" fill="white"/>
<path d="M26.6284 48.539C27.4606 48.539 28.2585 47.7012 28.2585 46.7339C28.2585 46.0688 27.7867 45.5851 27.1089 45.5851C26.2681 45.5851 25.5474 46.397 25.5474 47.4162C25.5474 48.1071 25.9763 48.539 26.6284 48.539ZM28.087 49.3854C27.7867 49.3854 27.6236 49.204 27.6322 48.9276L27.6837 48.7376C27.2719 49.1522 26.8257 49.4372 26.2337 49.4372C25.2299 49.4372 24.4663 48.6944 24.4663 47.4853C24.4663 45.8702 25.6932 44.6869 26.9888 44.6869C27.7867 44.6869 28.2414 45.0842 28.5159 45.5938L29.065 43.5123C29.1508 43.1841 29.3739 42.9941 29.6485 42.9941C29.9916 42.9941 30.1804 43.2446 30.0603 43.6678L28.6875 48.8672C28.6017 49.1954 28.3787 49.3854 28.087 49.3854Z" fill="url(#paint3_linear_1790_129044)"/>
<path d="M31.6987 48.6858C32.3251 48.6858 32.9256 48.2108 33.0972 47.5975L33.1573 47.3903C32.8656 47.2952 32.4709 47.2175 32.0591 47.2175C31.4156 47.2175 30.9609 47.5544 30.9609 48.0726C30.9609 48.4353 31.244 48.6858 31.6987 48.6858ZM33.1744 49.3854C32.7798 49.3854 32.7111 49.1263 32.7369 48.9017L32.7798 48.7376C32.3937 49.1695 31.8961 49.4372 31.2869 49.4372C30.5147 49.4372 29.9227 48.9449 29.9227 48.1935C29.9227 47.1484 30.7721 46.5438 31.9046 46.5438C32.4366 46.5438 32.9085 46.6475 33.3117 46.7684L33.3375 46.6907C33.3632 46.5784 33.3889 46.4488 33.3889 46.3106C33.3889 45.8874 33.0972 45.6197 32.3851 45.6197C32.0591 45.6197 31.7331 45.6802 31.4928 45.7492C31.4328 45.7665 31.3641 45.7752 31.3126 45.7752C31.0724 45.7752 30.9008 45.5938 30.9008 45.352C30.9008 45.1447 31.0381 44.9978 31.2269 44.9374C31.6473 44.7992 32.0934 44.7215 32.591 44.7215C33.775 44.7215 34.4013 45.2397 34.4013 46.1293C34.4013 46.3538 34.3584 46.5698 34.307 46.7943L33.7579 48.8672C33.6635 49.1954 33.449 49.3854 33.1744 49.3854Z" fill="white"/>
<path d="M31.6987 48.6858C32.3251 48.6858 32.9256 48.2108 33.0972 47.5975L33.1573 47.3903C32.8656 47.2952 32.4709 47.2175 32.0591 47.2175C31.4156 47.2175 30.9609 47.5544 30.9609 48.0726C30.9609 48.4353 31.244 48.6858 31.6987 48.6858ZM33.1744 49.3854C32.7798 49.3854 32.7111 49.1263 32.7369 48.9017L32.7798 48.7376C32.3937 49.1695 31.8961 49.4372 31.2869 49.4372C30.5147 49.4372 29.9227 48.9449 29.9227 48.1935C29.9227 47.1484 30.7721 46.5438 31.9046 46.5438C32.4366 46.5438 32.9085 46.6475 33.3117 46.7684L33.3375 46.6907C33.3632 46.5784 33.3889 46.4488 33.3889 46.3106C33.3889 45.8874 33.0972 45.6197 32.3851 45.6197C32.0591 45.6197 31.7331 45.6802 31.4928 45.7492C31.4328 45.7665 31.3641 45.7752 31.3126 45.7752C31.0724 45.7752 30.9008 45.5938 30.9008 45.352C30.9008 45.1447 31.0381 44.9978 31.2269 44.9374C31.6473 44.7992 32.0934 44.7215 32.591 44.7215C33.775 44.7215 34.4013 45.2397 34.4013 46.1293C34.4013 46.3538 34.3584 46.5698 34.307 46.7943L33.7579 48.8672C33.6635 49.1954 33.449 49.3854 33.1744 49.3854Z" fill="url(#paint4_linear_1790_129044)"/>
<path d="M34.8195 49.7568C34.9739 49.8172 35.1026 49.8604 35.2742 49.8604C35.5144 49.8604 35.7375 49.7308 36.0035 49.3508L35.3686 45.4901C35.36 45.4124 35.3514 45.3001 35.3514 45.231C35.3514 44.946 35.5745 44.7301 35.8662 44.7301C36.1493 44.7301 36.3552 44.9115 36.381 45.1965L36.7842 48.1848L38.6717 45.0756C38.7919 44.8683 38.972 44.7301 39.2123 44.7301C39.4782 44.7301 39.667 44.8856 39.667 45.1447C39.667 45.2397 39.6155 45.3692 39.5297 45.5074L36.9901 49.4717C36.381 50.4132 35.8576 50.75 35.1455 50.75C34.9053 50.75 34.6736 50.7155 34.4849 50.6204C34.3218 50.5514 34.1674 50.4218 34.1674 50.1627C34.1674 49.9122 34.3647 49.7049 34.5878 49.7049C34.665 49.7049 34.7337 49.7309 34.8195 49.7568Z" fill="white"/>
<path d="M34.8195 49.7568C34.9739 49.8172 35.1026 49.8604 35.2742 49.8604C35.5144 49.8604 35.7375 49.7308 36.0035 49.3508L35.3686 45.4901C35.36 45.4124 35.3514 45.3001 35.3514 45.231C35.3514 44.946 35.5745 44.7301 35.8662 44.7301C36.1493 44.7301 36.3552 44.9115 36.381 45.1965L36.7842 48.1848L38.6717 45.0756C38.7919 44.8683 38.972 44.7301 39.2123 44.7301C39.4782 44.7301 39.667 44.8856 39.667 45.1447C39.667 45.2397 39.6155 45.3692 39.5297 45.5074L36.9901 49.4717C36.381 50.4132 35.8576 50.75 35.1455 50.75C34.9053 50.75 34.6736 50.7155 34.4849 50.6204C34.3218 50.5514 34.1674 50.4218 34.1674 50.1627C34.1674 49.9122 34.3647 49.7049 34.5878 49.7049C34.665 49.7049 34.7337 49.7309 34.8195 49.7568Z" fill="url(#paint5_linear_1790_129044)"/>
<defs>
<linearGradient id="paint0_linear_1790_129044" x1="15.667" y1="27.75" x2="16.5461" y2="52.3373" gradientUnits="userSpaceOnUse">
<stop stop-color="#D6A2FF"/>
<stop offset="0.552083" stop-color="#9331FF"/>
<stop offset="1" stop-color="#D6A2FF"/>
</linearGradient>
<linearGradient id="paint1_linear_1790_129044" x1="15.667" y1="27.75" x2="16.5461" y2="52.3373" gradientUnits="userSpaceOnUse">
<stop stop-color="#D6A2FF"/>
<stop offset="0.552083" stop-color="#9331FF"/>
<stop offset="1" stop-color="#D6A2FF"/>
</linearGradient>
<linearGradient id="paint2_linear_1790_129044" x1="15.667" y1="27.75" x2="16.5461" y2="52.3373" gradientUnits="userSpaceOnUse">
<stop stop-color="#D6A2FF"/>
<stop offset="0.552083" stop-color="#9331FF"/>
<stop offset="1" stop-color="#D6A2FF"/>
</linearGradient>
<linearGradient id="paint3_linear_1790_129044" x1="15.667" y1="27.75" x2="16.5461" y2="52.3373" gradientUnits="userSpaceOnUse">
<stop stop-color="#D6A2FF"/>
<stop offset="0.552083" stop-color="#9331FF"/>
<stop offset="1" stop-color="#D6A2FF"/>
</linearGradient>
<linearGradient id="paint4_linear_1790_129044" x1="15.667" y1="27.75" x2="16.5461" y2="52.3373" gradientUnits="userSpaceOnUse">
<stop stop-color="#D6A2FF"/>
<stop offset="0.552083" stop-color="#9331FF"/>
<stop offset="1" stop-color="#D6A2FF"/>
</linearGradient>
<linearGradient id="paint5_linear_1790_129044" x1="15.667" y1="27.75" x2="16.5461" y2="52.3373" gradientUnits="userSpaceOnUse">
<stop stop-color="#D6A2FF"/>
<stop offset="0.552083" stop-color="#9331FF"/>
<stop offset="1" stop-color="#D6A2FF"/>
</linearGradient>
<clipPath id="clip0_1790_129044">
<rect width="75" height="75" fill="white" transform="translate(22.667 7.75)"/>
</clipPath>
</defs>
</svg>
